  0
SECTION
  2
HEADER
  9
$ACADVER
  1
AC1021
  9
$ACADMAINTVER
 70
    25
  9
$DWGCODEPAGE
  3
ANSI_1252
  9
$INSBASE
 10
0.0
 20
0.0
 30
0.0
  9
$EXTMIN
 10
-28.77646
 20
-13.77646
 30
0.0
  9
$EXTMAX
 10
28.77645
 20
13.77645
 30
0.0
  9
$LIMMIN
 10
0.0
 20
0.0
  9
$LIMMAX
 10
12.0
 20
9.0
  9
$ORTHOMODE
 70
     0
  9
$REGENMODE
 70
     1
  9
$FILLMODE
 70
     1
  9
$QTEXTMODE
 70
     0
  9
$MIRRTEXT
 70
     1
  9
$LTSCALE
 40
1.0
  9
$ATTMODE
 70
     1
  9
$TEXTSIZE
 40
0.2
  9
$TRACEWID
 40
0.05
  9
$TEXTSTYLE
  7
Standard
  9
$CLAYER
  8
0
  9
$CELTYPE
  6
ByLayer
  9
$CECOLOR
 62
   256
  9
$CELTSCALE
 40
1.0
  9
$DISPSILH
 70
     0
  9
$DIMSCALE
 40
1.0
  9
$DIMASZ
 40
0.18
  9
$DIMEXO
 40
0.0625
  9
$DIMDLI
 40
0.38
  9
$DIMRND
 40
0.0
  9
$DIMDLE
 40
0.0
  9
$DIMEXE
 40
0.18
  9
$DIMTP
 40
0.0
  9
$DIMTM
 40
0.0
  9
$DIMTXT
 40
0.18
  9
$DIMCEN
 40
0.09
  9
$DIMTSZ
 40
0.0
  9
$DIMTOL
 70
     0
  9
$DIMLIM
 70
     0
  9
$DIMTIH
 70
     1
  9
$DIMTOH
 70
     1
  9
$DIMSE1
 70
     0
  9
$DIMSE2
 70
     0
  9
$DIMTAD
 70
     0
  9
$DIMZIN
 70
     0
  9
$DIMBLK
  1

  9
$DIMASO
 70
     1
  9
$DIMSHO
 70
     1
  9
$DIMPOST
  1

  9
$DIMAPOST
  1

  9
$DIMALT
 70
     0
  9
$DIMALTD
 70
     2
  9
$DIMALTF
 40
25.4
  9
$DIMLFAC
 40
1.0
  9
$DIMTOFL
 70
     0
  9
$DIMTVP
 40
0.0
  9
$DIMTIX
 70
     0
  9
$DIMSOXD
 70
     0
  9
$DIMSAH
 70
     0
  9
$DIMBLK1
  1

  9
$DIMBLK2
  1

  9
$DIMSTYLE
  2
Standard
  9
$DIMCLRD
 70
     0
  9
$DIMCLRE
 70
     0
  9
$DIMCLRT
 70
     0
  9
$DIMTFAC
 40
1.0
  9
$DIMGAP
 40
0.09
  9
$DIMJUST
 70
     0
  9
$DIMSD1
 70
     0
  9
$DIMSD2
 70
     0
  9
$DIMTOLJ
 70
     1
  9
$DIMTZIN
 70
     0
  9
$DIMALTZ
 70
     0
  9
$DIMALTTZ
 70
     0
  9
$DIMUPT
 70
     0
  9
$DIMDEC
 70
     4
  9
$DIMTDEC
 70
     4
  9
$DIMALTU
 70
     2
  9
$DIMALTTD
 70
     2
  9
$DIMTXSTY
  7
Standard
  9
$DIMAUNIT
 70
     0
  9
$DIMADEC
 70
     0
  9
$DIMALTRND
 40
0.0
  9
$DIMAZIN
 70
     0
  9
$DIMDSEP
 70
    46
  9
$DIMATFIT
 70
     3
  9
$DIMFRAC
 70
     0
  9
$DIMLDRBLK
  1

  9
$DIMLUNIT
 70
     2
  9
$DIMLWD
 70
    -2
  9
$DIMLWE
 70
    -2
  9
$DIMTMOVE
 70
     0
  9
$DIMFXL
 40
1.0
  9
$DIMFXLON
 70
     0
  9
$DIMJOGANG
 40
0.7853981633974483
  9
$DIMTFILL
 70
     0
  9
$DIMTFILLCLR
 70
     0
  9
$DIMARCSYM
 70
     0
  9
$DIMLTYPE
  6

  9
$DIMLTEX1
  6

  9
$DIMLTEX2
  6

  9
$LUNITS
 70
     2
  9
$LUPREC
 70
     4
  9
$SKETCHINC
 40
0.1
  9
$FILLETRAD
 40
0.5
  9
$AUNITS
 70
     0
  9
$AUPREC
 70
     0
  9
$MENU
  1
.
  9
$ELEVATION
 40
0.0
  9
$PELEVATION
 40
0.0
  9
$THICKNESS
 40
0.0
  9
$LIMCHECK
 70
     0
  9
$CHAMFERA
 40
0.5
  9
$CHAMFERB
 40
0.5
  9
$CHAMFERC
 40
1.0
  9
$CHAMFERD
 40
0.0
  9
$SKPOLY
 70
     0
  9
$TDCREATE
 40
2460582.892664097
  9
$TDUCREATE
 40
2460582.850997431
  9
$TDUPDATE
 40
2460582.892664178
  9
$TDUUPDATE
 40
2460582.850997512
  9
$TDINDWG
 40
0.0000000116
  9
$TDUSRTIMER
 40
0.0000000116
  9
$USRTIMER
 70
     1
  9
$ANGBASE
 50
0.0
  9
$ANGDIR
 70
     0
  9
$PDMODE
 70
     0
  9
$PDSIZE
 40
0.0
  9
$PLINEWID
 40
0.0
  9
$SPLFRAME
 70
     0
  9
$SPLINETYPE
 70
     6
  9
$SPLINESEGS
 70
     8
  9
$HANDSEED
  5
A1
  9
$SURFTAB1
 70
     6
  9
$SURFTAB2
 70
     6
  9
$SURFTYPE
 70
     6
  9
$SURFU
 70
     6
  9
$SURFV
 70
     6
  9
$UCSBASE
  2

  9
$UCSNAME
  2

  9
$UCSORG
 10
0.0
 20
0.0
 30
0.0
  9
$UCSXDIR
 10
1.0
 20
0.0
 30
0.0
  9
$UCSYDIR
 10
0.0
 20
1.0
 30
0.0
  9
$UCSORTHOREF
  2

  9
$UCSORTHOVIEW
 70
     0
  9
$UCSORGTOP
 10
0.0
 20
0.0
 30
0.0
  9
$UCSORGBOTTOM
 10
0.0
 20
0.0
 30
0.0
  9
$UCSORGLEFT
 10
0.0
 20
0.0
 30
0.0
  9
$UCSORGRIGHT
 10
0.0
 20
0.0
 30
0.0
  9
$UCSORGFRONT
 10
0.0
 20
0.0
 30
0.0
  9
$UCSORGBACK
 10
0.0
 20
0.0
 30
0.0
  9
$PUCSBASE
  2

  9
$PUCSNAME
  2

  9
$PUCSORG
 10
0.0
 20
0.0
 30
0.0
  9
$PUCSXDIR
 10
1.0
 20
0.0
 30
0.0
  9
$PUCSYDIR
 10
0.0
 20
1.0
 30
0.0
  9
$PUCSORTHOREF
  2

  9
$PUCSORTHOVIEW
 70
     0
  9
$PUCSORGTOP
 10
0.0
 20
0.0
 30
0.0
  9
$PUCSORGBOTTOM
 10
0.0
 20
0.0
 30
0.0
  9
$PUCSORGLEFT
 10
0.0
 20
0.0
 30
0.0
  9
$PUCSORGRIGHT
 10
0.0
 20
0.0
 30
0.0
  9
$PUCSORGFRONT
 10
0.0
 20
0.0
 30
0.0
  9
$PUCSORGBACK
 10
0.0
 20
0.0
 30
0.0
  9
$USERI1
 70
     0
  9
$USERI2
 70
     0
  9
$USERI3
 70
     0
  9
$USERI4
 70
     0
  9
$USERI5
 70
     0
  9
$USERR1
 40
0.0
  9
$USERR2
 40
0.0
  9
$USERR3
 40
0.0
  9
$USERR4
 40
0.0
  9
$USERR5
 40
0.0
  9
$WORLDVIEW
 70
     1
  9
$SHADEDGE
 70
     3
  9
$SHADEDIF
 70
    70
  9
$TILEMODE
 70
     1
  9
$MAXACTVP
 70
    64
  9
$PINSBASE
 10
0.0
 20
0.0
 30
0.0
  9
$PLIMCHECK
 70
     0
  9
$PEXTMIN
 10
1.000000000000000E+20
 20
1.000000000000000E+20
 30
1.000000000000000E+20
  9
$PEXTMAX
 10
-1.000000000000000E+20
 20
-1.000000000000000E+20
 30
-1.000000000000000E+20
  9
$PLIMMIN
 10
0.0
 20
0.0
  9
$PLIMMAX
 10
12.0
 20
9.0
  9
$UNITMODE
 70
     0
  9
$VISRETAIN
 70
     1
  9
$PLINEGEN
 70
     0
  9
$PSLTSCALE
 70
     1
  9
$TREEDEPTH
 70
  3020
  9
$CMLSTYLE
  2
Standard
  9
$CMLJUST
 70
     0
  9
$CMLSCALE
 40
1.0
  9
$PROXYGRAPHICS
 70
     1
  9
$MEASUREMENT
 70
     0
  9
$CELWEIGHT
370
    -1
  9
$ENDCAPS
280
     0
  9
$JOINSTYLE
280
     0
  9
$LWDISPLAY
290
     0
  9
$INSUNITS
 70
     5
  9
$HYPERLINKBASE
  1

  9
$STYLESHEET
  1

  9
$XEDIT
290
     1
  9
$CEPSNTYPE
380
     0
  9
$PSTYLEMODE
290
     1
  9
$FINGERPRINTGUID
  2
{C88696FF-01C5-4EBD-A4C8-870107600E2A}
  9
$VERSIONGUID
  2
{FAEB1C32-E019-11D5-929B-00C0DF256EC4}
  9
$EXTNAMES
290
     1
  9
$PSVPSCALE
 40
0.0
  9
$OLESTARTUP
290
     0
  9
$SORTENTS
280
   127
  9
$INDEXCTL
280
     0
  9
$HIDETEXT
280
     1
  9
$XCLIPFRAME
290
     0
  9
$HALOGAP
280
     0
  9
$OBSCOLOR
 70
   257
  9
$OBSLTYPE
280
     0
  9
$INTERSECTIONDISPLAY
280
     0
  9
$INTERSECTIONCOLOR
 70
   257
  9
$DIMASSOC
280
     2
  9
$PROJECTNAME
  1

  9
$CAMERADISPLAY
290
     0
  9
$LENSLENGTH
 40
50.0
  9
$CAMERAHEIGHT
 40
0.0
  9
$STEPSPERSEC
 40
2.0
  9
$STEPSIZE
 40
6.0
  9
$3DDWFPREC
 40
2.0
  9
$PSOLWIDTH
 40
0.25
  9
$PSOLHEIGHT
 40
4.0
  9
$LOFTANG1
 40
1.570796326794897
  9
$LOFTANG2
 40
1.570796326794897
  9
$LOFTMAG1
 40
0.0
  9
$LOFTMAG2
 40
0.0
  9
$LOFTPARAM
 70
     7
  9
$LOFTNORMALS
280
     1
  9
$LATITUDE
 40
37.795
  9
$LONGITUDE
 40
-122.394
  9
$NORTHDIRECTION
 40
0.0
  9
$TIMEZONE
 70
 -8000
  9
$LIGHTGLYPHDISPLAY
280
     1
  9
$TILEMODELIGHTSYNCH
280
     1
  9
$SOLIDHIST
280
     1
  9
$SHOWHIST
280
     1
  9
$DWFFRAME
280
     2
  9
$DGNFRAME
280
     2
  9
$REALWORLDSCALE
290
     1
  9
$INTERFERECOLOR
 62
   256
  9
$CSHADOW
280
     0
  9
$SHADOWPLANELOCATION
 40
0.0
  0
ENDSEC
  0
SECTION
  2
CLASSES
  0
CLASS
  1
ACDBDICTIONARYWDFLT
  2
AcDbDictionaryWithDefault
  3
ObjectDBX Classes
 90
        0
 91
        4
280
     0
281
     0
  0
CLASS
  1
VISUALSTYLE
  2
AcDbVisualStyle
  3
ObjectDBX Classes
 90
     4095
 91
        4
280
     0
281
     0
  0
CLASS
  1
MATERIAL
  2
AcDbMaterial
  3
ObjectDBX Classes
 90
     1153
 91
        4
280
     0
281
     0
  0
ENDSEC
  0
SECTION
  2
TABLES
  0
TABLE
  2
VPORT
  5
8
330
0
100
AcDbSymbolTable
 70
     1
  0
VPORT
  5
29
330
8
100
AcDbSymbolTableRecord
100
AcDbViewportTableRecord
  2
*Active
 70
     0
 10
0.0
 20
0.0
 11
1.0
 21
1.0
 12
10.42990654205607
 22
4.5
 13
0.0
 23
0.0
 14
0.5
 24
0.5
 15
0.5
 25
0.5
 16
0.0
 26
0.0
 36
1.0
 17
0.0
 27
0.0
 37
0.0
 40
9.0
 41
1.972972972850329
 42
50.0
 43
0.0
 44
0.0
 50
0.0
 51
0.0
 71
     0
 72
   100
 73
     1
 74
     3
 75
     0
 76
     0
 77
     0
 78
     0
281
     0
 65
     1
110
0.0
120
0.0
130
0.0
111
1.0
121
0.0
131
0.0
112
0.0
122
1.0
132
0.0
 79
     0
146
0.0
 60
     3
 61
     5
292
     1
282
     1
141
0.0
142
0.0
 63
   250
  0
ENDTAB
  0
TABLE
  2
LTYPE
  5
5
330
0
100
AcDbSymbolTable
 70
     1
  0
LTYPE
  5
14
330
5
100
AcDbSymbolTableRecord
100
AcDbLinetypeTableRecord
  2
ByBlock
 70
     0
  3

 72
    65
 73
     0
 40
0.0
  0
LTYPE
  5
15
330
5
100
AcDbSymbolTableRecord
100
AcDbLinetypeTableRecord
  2
ByLayer
 70
     0
  3

 72
    65
 73
     0
 40
0.0
  0
LTYPE
  5
16
330
5
100
AcDbSymbolTableRecord
100
AcDbLinetypeTableRecord
  2
Continuous
 70
     0
  3
Solid line
 72
    65
 73
     0
 40
0.0
  0
ENDTAB
  0
TABLE
  2
LAYER
  5
2
330
0
100
AcDbSymbolTable
 70
     2
  0
LAYER
  5
10
330
2
100
AcDbSymbolTableRecord
100
AcDbLayerTableRecord
  2
0
 70
     0
 62
     7
  6
Continuous
370
    -3
390
F
347
3E
  0
LAYER
  5
40
330
2
100
AcDbSymbolTableRecord
100
AcDbLayerTableRecord
  2
Layer 1
 70
     0
 62
     7
  6
Continuous
370
    -3
390
F
347
3E
  0
ENDTAB
  0
TABLE
  2
STYLE
  5
3
330
0
100
AcDbSymbolTable
 70
     1
  0
STYLE
  5
11
330
3
100
AcDbSymbolTableRecord
100
AcDbTextStyleTableRecord
  2
Standard
 70
     0
 40
0.0
 41
1.0
 50
0.0
 71
     0
 42
0.2
  3
txt
  4

  0
ENDTAB
  0
TABLE
  2
VIEW
  5
6
330
0
100
AcDbSymbolTable
 70
     0
  0
ENDTAB
  0
TABLE
  2
UCS
  5
7
330
0
100
AcDbSymbolTable
 70
     0
  0
ENDTAB
  0
TABLE
  2
APPID
  5
9
330
0
100
AcDbSymbolTable
 70
     2
  0
APPID
  5
12
330
9
100
AcDbSymbolTableRecord
100
AcDbRegAppTableRecord
  2
ACAD
 70
     0
  0
APPID
  5
3F
330
9
100
AcDbSymbolTableRecord
100
AcDbRegAppTableRecord
  2
ODA
 70
     0
  0
ENDTAB
  0
TABLE
  2
DIMSTYLE
  5
A
330
0
100
AcDbSymbolTable
 70
     1
100
AcDbDimStyleTable
  0
DIMSTYLE
105
27
330
A
100
AcDbSymbolTableRecord
100
AcDbDimStyleTableRecord
  2
Standard
 70
     0
178
     0
340
11
  0
ENDTAB
  0
TABLE
  2
BLOCK_RECORD
  5
1
330
0
100
AcDbSymbolTable
 70
     1
  0
BLOCK_RECORD
  5
1F
330
1
100
AcDbSymbolTableRecord
100
AcDbBlockTableRecord
  2
*Model_Space
340
22
 70
     0
280
     1
281
     0
  0
BLOCK_RECORD
  5
1B
330
1
100
AcDbSymbolTableRecord
100
AcDbBlockTableRecord
  2
*Paper_Space
340
1E
 70
     0
280
     1
281
     0
  0
BLOCK_RECORD
  5
23
330
1
100
AcDbSymbolTableRecord
100
AcDbBlockTableRecord
  2
*Paper_Space0
340
26
 70
     0
280
     1
281
     0
  0
ENDTAB
  0
ENDSEC
  0
SECTION
  2
BLOCKS
  0
BLOCK
  5
20
330
1F
100
AcDbEntity
  8
0
100
AcDbBlockBegin
  2
*Model_Space
 70
     0
 10
0.0
 20
0.0
 30
0.0
  3
*Model_Space
  1

  0
ENDBLK
  5
21
330
1F
100
AcDbEntity
  8
0
100
AcDbBlockEnd
  0
BLOCK
  5
1C
330
1B
100
AcDbEntity
 67
     1
  8
0
100
AcDbBlockBegin
  2
*Paper_Space
 70
     0
 10
0.0
 20
0.0
 30
0.0
  3
*Paper_Space
  1

  0
ENDBLK
  5
1D
330
1B
100
AcDbEntity
 67
     1
  8
0
100
AcDbBlockEnd
  0
BLOCK
  5
24
330
23
100
AcDbEntity
  8
0
100
AcDbBlockBegin
  2
*Paper_Space0
 70
     0
 10
0.0
 20
0.0
 30
0.0
  3
*Paper_Space0
  1

  0
ENDBLK
  5
25
330
23
100
AcDbEntity
  8
0
100
AcDbBlockEnd
  0
ENDSEC
  0
SECTION
  2
ENTITIES
  0
SPLINE
  5
41
330
1F
100
AcDbEntity
  8
Layer 1
 62
     4
370
    53
100
AcDbSpline
210
0.0
220
0.0
230
1.0
 70
    11
 71
     3
 72
    20
 73
    16
 74
     0
 42
0.0000000001
 43
0.0000000001
 12
1.0
 22
0.0
 32
0.0
 13
1.0
 23
0.0
 33
0.0
 40
0.0
 40
0.0
 40
0.0
 40
0.0
 40
0.2
 40
0.2
 40
0.2
 40
0.2
 40
0.4
 40
0.4
 40
0.4
 40
0.4
 40
0.6
 40
0.6
 40
0.6
 40
0.6
 40
1.0
 40
1.0
 40
1.0
 40
1.0
 10
-6.91987
 20
3.99519
 30
0.0
 10
-8.30059
 20
1.60373
 30
0.0
 10
-11.35853
 20
0.78435
 30
0.0
 10
-13.75
 20
2.16506
 30
0.0
 10
-13.75
 20
2.16506
 30
0.0
 10
-16.14147
 20
3.54578
 30
0.0
 10
-16.96084
 20
6.60373
 30
0.0
 10
-15.58013
 20
8.99519
 30
0.0
 10
-15.58013
 20
8.99519
 30
0.0
 10
-14.19941
 20
11.38666
 30
0.0
 10
-11.14147
 20
12.20603
 30
0.0
 10
-8.75
 20
10.82532
 30
0.0
 10
-8.75
 20
10.82532
 30
0.0
 10
-6.35853
 20
9.4446
 30
0.0
 10
-5.53916
 20
6.38666
 30
0.0
 10
-6.91987
 20
3.99519
 30
0.0
  0
SPLINE
  5
42
330
1F
100
AcDbEntity
  8
Layer 1
 62
     4
370
    53
100
AcDbSpline
210
0.0
220
0.0
230
1.0
 70
    11
 71
     3
 72
    20
 73
    16
 74
     0
 42
0.0000000001
 43
0.0000000001
 12
1.0
 22
0.0
 32
0.0
 13
1.0
 23
0.0
 33
0.0
 40
0.0
 40
0.0
 40
0.0
 40
0.0
 40
0.2
 40
0.2
 40
0.2
 40
0.2
 40
0.4
 40
0.4
 40
0.4
 40
0.4
 40
0.6
 40
0.6
 40
0.6
 40
0.6
 40
1.0
 40
1.0
 40
1.0
 40
1.0
 10
-11.89952
 20
6.87019
 30
0.0
 10
-11.69241
 20
7.22892
 30
0.0
 10
-11.23373
 20
7.35182
 30
0.0
 10
-10.875
 20
7.14471
 30
0.0
 10
-10.875
 20
7.14471
 30
0.0
 10
-10.51627
 20
6.9376
 30
0.0
 10
-10.39337
 20
6.47892
 30
0.0
 10
-10.60048
 20
6.12019
 30
0.0
 10
-10.60048
 20
6.12019
 30
0.0
 10
-10.80759
 20
5.76146
 30
0.0
 10
-11.26627
 20
5.63856
 30
0.0
 10
-11.625
 20
5.84567
 30
0.0
 10
-11.625
 20
5.84567
 30
0.0
 10
-11.98373
 20
6.05278
 30
0.0
 10
-12.10663
 20
6.51146
 30
0.0
 10
-11.89952
 20
6.87019
 30
0.0
  0
SPLINE
  5
43
330
1F
100
AcDbEntity
  8
Layer 1
 62
     4
370
    53
100
AcDbSpline
210
0.0
220
0.0
230
1.0
 70
    11
 71
     3
 72
    20
 73
    16
 74
     0
 42
0.0000000001
 43
0.0000000001
 12
1.0
 22
0.0
 32
0.0
 13
1.0
 23
0.0
 33
0.0
 40
0.0
 40
0.0
 40
0.0
 40
0.0
 40
0.2
 40
0.2
 40
0.2
 40
0.2
 40
0.4
 40
0.4
 40
0.4
 40
0.4
 40
0.6
 40
0.6
 40
0.6
 40
0.6
 40
1.0
 40
1.0
 40
1.0
 40
1.0
 10
-13.72583
 20
4.80692
 30
0.0
 10
-13.72583
 20
4.80692
 30
0.0
 10
-11.02583
 20
9.48346
 30
0.0
 10
-11.02583
 20
9.48346
 30
0.0
 10
-11.02583
 20
9.48346
 30
0.0
 10
-11.02583
 20
9.48346
 30
0.0
 10
-8.77416
 20
8.18346
 30
0.0
 10
-8.77416
 20
8.18346
 30
0.0
 10
-8.77416
 20
8.18346
 30
0.0
 10
-8.77416
 20
8.18346
 30
0.0
 10
-11.47416
 20
3.50692
 30
0.0
 10
-11.47416
 20
3.50692
 30
0.0
 10
-11.47416
 20
3.50692
 30
0.0
 10
-11.47416
 20
3.50692
 30
0.0
 10
-13.72583
 20
4.80692
 30
0.0
 10
-13.72583
 20
4.80692
 30
0.0
  0
SPLINE
  5
44
330
1F
100
AcDbEntity
  8
Layer 1
 62
     4
370
    53
100
AcDbSpline
210
0.0
220
0.0
230
1.0
 70
    11
 71
     3
 72
    20
 73
    16
 74
     0
 42
0.0000000001
 43
0.0000000001
 12
1.0
 22
0.0
 32
0.0
 13
1.0
 23
0.0
 33
0.0
 40
0.0
 40
0.0
 40
0.0
 40
0.0
 40
0.2
 40
0.2
 40
0.2
 40
0.2
 40
0.4
 40
0.4
 40
0.4
 40
0.4
 40
0.6
 40
0.6
 40
0.6
 40
0.6
 40
1.0
 40
1.0
 40
1.0
 40
1.0
 10
-13.37942
 20
4.60692
 30
0.0
 10
-13.37942
 20
4.60692
 30
0.0
 10
-12.22942
 20
6.59878
 30
0.0
 10
-12.22942
 20
6.59878
 30
0.0
 10
-12.22942
 20
6.59878
 30
0.0
 10
-12.22942
 20
6.59878
 30
0.0
 10
-10.67057
 20
5.69878
 30
0.0
 10
-10.67057
 20
5.69878
 30
0.0
 10
-10.67057
 20
5.69878
 30
0.0
 10
-10.67057
 20
5.69878
 30
0.0
 10
-11.82057
 20
3.70692
 30
0.0
 10
-11.82057
 20
3.70692
 30
0.0
 10
-11.82057
 20
3.70692
 30
0.0
 10
-11.82057
 20
3.70692
 30
0.0
 10
-13.37942
 20
4.60692
 30
0.0
 10
-13.37942
 20
4.60692
 30
0.0
  0
SPLINE
  5
45
330
1F
100
AcDbEntity
  8
Layer 1
370
    53
100
AcDbSpline
210
0.0
220
0.0
230
1.0
 70
    11
 71
     3
 72
    20
 73
    16
 74
     0
 42
0.0000000001
 43
0.0000000001
 12
1.0
 22
0.0
 32
0.0
 13
1.0
 23
0.0
 33
0.0
 40
0.0
 40
0.0
 40
0.0
 40
0.0
 40
0.2
 40
0.2
 40
0.2
 40
0.2
 40
0.4
 40
0.4
 40
0.4
 40
0.4
 40
0.6
 40
0.6
 40
0.6
 40
0.6
 40
1.0
 40
1.0
 40
1.0
 40
1.0
 10
-7.85085
 20
4.53269
 30
0.0
 10
-7.89918
 20
4.44899
 30
0.0
 10
-8.0062
 20
4.42031
 30
0.0
 10
-8.0899
 20
4.46864
 30
0.0
 10
-8.0899
 20
4.46864
 30
0.0
 10
-8.17361
 20
4.51696
 30
0.0
 10
-8.20229
 20
4.62399
 30
0.0
 10
-8.15396
 20
4.70769
 30
0.0
 10
-8.15396
 20
4.70769
 30
0.0
 10
-8.10563
 20
4.79139
 30
0.0
 10
-7.99861
 20
4.82007
 30
0.0
 10
-7.9149
 20
4.77174
 30
0.0
 10
-7.9149
 20
4.77174
 30
0.0
 10
-7.8312
 20
4.72342
 30
0.0
 10
-7.80252
 20
4.61639
 30
0.0
 10
-7.85085
 20
4.53269
 30
0.0
  0
SPLINE
  5
46
330
1F
100
AcDbEntity
  8
Layer 1
370
    53
100
AcDbSpline
210
0.0
220
0.0
230
1.0
 70
    11
 71
     3
 72
    20
 73
    16
 74
     0
 42
0.0000000001
 43
0.0000000001
 12
1.0
 22
0.0
 32
0.0
 13
1.0
 23
0.0
 33
0.0
 40
0.0
 40
0.0
 40
0.0
 40
0.0
 40
0.2
 40
0.2
 40
0.2
 40
0.2
 40
0.4
 40
0.4
 40
0.4
 40
0.4
 40
0.6
 40
0.6
 40
0.6
 40
0.6
 40
1.0
 40
1.0
 40
1.0
 40
1.0
 10
-14.34604
 20
8.28269
 30
0.0
 10
-14.39437
 20
8.19899
 30
0.0
 10
-14.50139
 20
8.17031
 30
0.0
 10
-14.5851
 20
8.21864
 30
0.0
 10
-14.5851
 20
8.21864
 30
0.0
 10
-14.6688
 20
8.26696
 30
0.0
 10
-14.69748
 20
8.37399
 30
0.0
 10
-14.64915
 20
8.45769
 30
0.0
 10
-14.64915
 20
8.45769
 30
0.0
 10
-14.60082
 20
8.54139
 30
0.0
 10
-14.4938
 20
8.57007
 30
0.0
 10
-14.4101
 20
8.52174
 30
0.0
 10
-14.4101
 20
8.52174
 30
0.0
 10
-14.32639
 20
8.47342
 30
0.0
 10
-14.29771
 20
8.36639
 30
0.0
 10
-14.34604
 20
8.28269
 30
0.0
  0
SPLINE
  5
47
330
1F
100
AcDbEntity
  8
Layer 1
370
    53
100
AcDbSpline
210
0.0
220
0.0
230
1.0
 70
    11
 71
     3
 72
    20
 73
    16
 74
     0
 42
0.0000000001
 43
0.0000000001
 12
1.0
 22
0.0
 32
0.0
 13
1.0
 23
0.0
 33
0.0
 40
0.0
 40
0.0
 40
0.0
 40
0.0
 40
0.2
 40
0.2
 40
0.2
 40
0.2
 40
0.4
 40
0.4
 40
0.4
 40
0.4
 40
0.6
 40
0.6
 40
0.6
 40
0.6
 40
1.0
 40
1.0
 40
1.0
 40
1.0
 10
-9.22345
 20
9.65529
 30
0.0
 10
-9.27177
 20
9.57158
 30
0.0
 10
-9.3788
 20
9.54291
 30
0.0
 10
-9.4625
 20
9.59123
 30
0.0
 10
-9.4625
 20
9.59123
 30
0.0
 10
-9.5462
 20
9.63956
 30
0.0
 10
-9.57488
 20
9.74658
 30
0.0
 10
-9.52655
 20
9.83029
 30
0.0
 10
-9.52655
 20
9.83029
 30
0.0
 10
-9.47823
 20
9.91399
 30
0.0
 10
-9.3712
 20
9.94267
 30
0.0
 10
-9.2875
 20
9.89434
 30
0.0
 10
-9.2875
 20
9.89434
 30
0.0
 10
-9.2038
 20
9.84601
 30
0.0
 10
-9.17512
 20
9.73899
 30
0.0
 10
-9.22345
 20
9.65529
 30
0.0
  0
SPLINE
  5
48
330
1F
100
AcDbEntity
  8
Layer 1
370
    53
100
AcDbSpline
210
0.0
220
0.0
230
1.0
 70
    11
 71
     3
 72
   160
 73
   156
 74
     0
 42
0.0000000001
 43
0.0000000001
 12
1.0
 22
0.0
 32
0.0
 13
1.0
 23
0.0
 33
0.0
 40
0.0
 40
0.0
 40
0.0
 40
0.0
 40
0.025
 40
0.025
 40
0.025
 40
0.025
 40
0.05
 40
0.05
 40
0.05
 40
0.05
 40
0.075
 40
0.075
 40
0.075
 40
0.075
 40
0.1
 40
0.1
 40
0.1
 40
0.1
 40
0.125
 40
0.125
 40
0.125
 40
0.125
 40
0.15
 40
0.15
 40
0.15
 40
0.15
 40
0.175
 40
0.175
 40
0.175
 40
0.175
 40
0.2
 40
0.2
 40
0.2
 40
0.2
 40
0.225
 40
0.225
 40
0.225
 40
0.225
 40
0.25
 40
0.25
 40
0.25
 40
0.25
 40
0.275
 40
0.275
 40
0.275
 40
0.275
 40
0.3
 40
0.3
 40
0.3
 40
0.3
 40
0.325
 40
0.325
 40
0.325
 40
0.325
 40
0.35
 40
0.35
 40
0.35
 40
0.35
 40
0.375
 40
0.375
 40
0.375
 40
0.375
 40
0.4
 40
0.4
 40
0.4
 40
0.4
 40
0.425
 40
0.425
 40
0.425
 40
0.425
 40
0.45
 40
0.45
 40
0.45
 40
0.45
 40
0.475
 40
0.475
 40
0.475
 40
0.475
 40
0.5
 40
0.5
 40
0.5
 40
0.5
 40
0.525
 40
0.525
 40
0.525
 40
0.525
 40
0.55
 40
0.55
 40
0.55
 40
0.55
 40
0.575
 40
0.575
 40
0.575
 40
0.575
 40
0.6
 40
0.6
 40
0.6
 40
0.6
 40
0.625
 40
0.625
 40
0.625
 40
0.625
 40
0.65
 40
0.65
 40
0.65
 40
0.65
 40
0.675
 40
0.675
 40
0.675
 40
0.675
 40
0.7
 40
0.7
 40
0.7
 40
0.7
 40
0.725
 40
0.725
 40
0.725
 40
0.725
 40
0.75
 40
0.75
 40
0.75
 40
0.75
 40
0.775
 40
0.775
 40
0.775
 40
0.775
 40
0.8
 40
0.8
 40
0.8
 40
0.8
 40
0.825
 40
0.825
 40
0.825
 40
0.825
 40
0.85
 40
0.85
 40
0.85
 40
0.85
 40
0.875
 40
0.875
 40
0.875
 40
0.875
 40
0.9
 40
0.9
 40
0.9
 40
0.9
 40
0.925
 40
0.925
 40
0.925
 40
0.925
 40
0.95
 40
0.95
 40
0.95
 40
0.95
 40
1.0
 40
1.0
 40
1.0
 40
1.0
 10
-15.0
 20
13.74999
 30
0.0
 10
-7.61545
 20
13.74999
 30
0.0
 10
-1.59159
 20
7.92889
 30
0.0
 10
-1.26476
 20
0.625
 30
0.0
 10
-1.26476
 20
0.625
 30
0.0
 10
-1.26476
 20
0.625
 30
0.0
 10
-13.19578
 20
0.625
 30
0.0
 10
-13.19578
 20
0.625
 30
0.0
 10
-13.19578
 20
0.625
 30
0.0
 10
-13.19578
 20
0.625
 30
0.0
 10
-10.79247
 20
4.78766
 30
0.0
 10
-10.79247
 20
4.78766
 30
0.0
 10
-10.79247
 20
4.78766
 30
0.0
 10
-10.79247
 20
4.78766
 30
0.0
 10
-10.2512
 20
4.47516
 30
0.0
 10
-10.2512
 20
4.47516
 30
0.0
 10
-10.2512
 20
4.47516
 30
0.0
 10
-9.65332
 20
4.12997
 30
0.0
 10
-8.88886
 20
4.33481
 30
0.0
 10
-8.54367
 20
4.93269
 30
0.0
 10
-8.54367
 20
4.93269
 30
0.0
 10
-8.54367
 20
4.93269
 30
0.0
 10
-7.79367
 20
6.23173
 30
0.0
 10
-7.79367
 20
6.23173
 30
0.0
 10
-7.79367
 20
6.23173
 30
0.0
 10
-7.44849
 20
6.82961
 30
0.0
 10
-7.65332
 20
7.59408
 30
0.0
 10
-8.2512
 20
7.93926
 30
0.0
 10
-8.2512
 20
7.93926
 30
0.0
 10
-8.2512
 20
7.93926
 30
0.0
 10
-11.17404
 20
9.62676
 30
0.0
 10
-11.17404
 20
9.62676
 30
0.0
 10
-11.17404
 20
9.62676
 30
0.0
 10
-11.77192
 20
9.97195
 30
0.0
 10
-12.53638
 20
9.76711
 30
0.0
 10
-12.88157
 20
9.16923
 30
0.0
 10
-12.88157
 20
9.16923
 30
0.0
 10
-12.88157
 20
9.16923
 30
0.0
 10
-13.63157
 20
7.87019
 30
0.0
 10
-13.63157
 20
7.87019
 30
0.0
 10
-13.63157
 20
7.87019
 30
0.0
 10
-13.97675
 20
7.27231
 30
0.0
 10
-13.77192
 20
6.50784
 30
0.0
 10
-13.17404
 20
6.16266
 30
0.0
 10
-13.17404
 20
6.16266
 30
0.0
 10
-13.17404
 20
6.16266
 30
0.0
 10
-12.95753
 20
6.03766
 30
0.0
 10
-12.95753
 20
6.03766
 30
0.0
 10
-12.95753
 20
6.03766
 30
0.0
 10
-12.95753
 20
6.03766
 30
0.0
 10
-15.72169
 20
1.25
 30
0.0
 10
-15.72169
 20
1.25
 30
0.0
 10
-15.72169
 20
1.25
 30
0.0
 10
-15.72169
 20
1.25
 30
0.0
 10
-21.25
 20
1.25
 30
0.0
 10
-21.25
 20
1.25
 30
0.0
 10
-21.25
 20
1.25
 30
0.0
 10
-21.25
 20
1.25
 30
0.0
 10
-21.25
 20
1.875
 30
0.0
 10
-21.25
 20
1.875
 30
0.0
 10
-21.25
 20
1.875
 30
0.0
 10
-21.25
 20
2.56537
 30
0.0
 10
-21.80963
 20
3.125
 30
0.0
 10
-22.5
 20
3.125
 30
0.0
 10
-22.5
 20
3.125
 30
0.0
 10
-22.5
 20
3.125
 30
0.0
 10
-24.0
 20
3.125
 30
0.0
 10
-24.0
 20
3.125
 30
0.0
 10
-24.0
 20
3.125
 30
0.0
 10
-24.69037
 20
3.125
 30
0.0
 10
-25.25
 20
2.56537
 30
0.0
 10
-25.25
 20
1.875
 30
0.0
 10
-25.25
 20
1.875
 30
0.0
 10
-25.25
 20
1.875
 30
0.0
 10
-25.25
 20
-1.5
 30
0.0
 10
-25.25
 20
-1.5
 30
0.0
 10
-25.25
 20
-1.5
 30
0.0
 10
-25.25
 20
-2.19037
 30
0.0
 10
-24.69037
 20
-2.75
 30
0.0
 10
-24.0
 20
-2.75
 30
0.0
 10
-24.0
 20
-2.75
 30
0.0
 10
-24.0
 20
-2.75
 30
0.0
 10
-22.5
 20
-2.75
 30
0.0
 10
-22.5
 20
-2.75
 30
0.0
 10
-22.5
 20
-2.75
 30
0.0
 10
-21.80963
 20
-2.75
 30
0.0
 10
-21.25
 20
-2.19037
 30
0.0
 10
-21.25
 20
-1.5
 30
0.0
 10
-21.25
 20
-1.5
 30
0.0
 10
-21.25
 20
-1.5
 30
0.0
 10
-21.25
 20
-1.25
 30
0.0
 10
-21.25
 20
-1.25
 30
0.0
 10
-21.25
 20
-1.25
 30
0.0
 10
-21.25
 20
-1.25
 30
0.0
 10
-15.72169
 20
-1.25
 30
0.0
 10
-15.72169
 20
-1.25
 30
0.0
 10
-15.72169
 20
-1.25
 30
0.0
 10
-15.72169
 20
-1.25
 30
0.0
 10
-12.95753
 20
-6.03766
 30
0.0
 10
-12.95753
 20
-6.03766
 30
0.0
 10
-12.95753
 20
-6.03766
 30
0.0
 10
-12.95753
 20
-6.03766
 30
0.0
 10
-13.4988
 20
-6.35016
 30
0.0
 10
-13.4988
 20
-6.35016
 30
0.0
 10
-13.4988
 20
-6.35016
 30
0.0
 10
-14.09668
 20
-6.69534
 30
0.0
 10
-14.30151
 20
-7.45981
 30
0.0
 10
-13.95633
 20
-8.05769
 30
0.0
 10
-13.95633
 20
-8.05769
 30
0.0
 10
-13.95633
 20
-8.05769
 30
0.0
 10
-13.20633
 20
-9.35673
 30
0.0
 10
-13.20633
 20
-9.35673
 30
0.0
 10
-13.20633
 20
-9.35673
 30
0.0
 10
-12.86114
 20
-9.95461
 30
0.0
 10
-12.09668
 20
-10.15945
 30
0.0
 10
-11.4988
 20
-9.81426
 30
0.0
 10
-11.4988
 20
-9.81426
 30
0.0
 10
-11.4988
 20
-9.81426
 30
0.0
 10
-8.57596
 20
-8.12676
 30
0.0
 10
-8.57596
 20
-8.12676
 30
0.0
 10
-8.57596
 20
-8.12676
 30
0.0
 10
-7.97808
 20
-7.78158
 30
0.0
 10
-7.77325
 20
-7.01711
 30
0.0
 10
-8.11843
 20
-6.41923
 30
0.0
 10
-8.11843
 20
-6.41923
 30
0.0
 10
-8.11843
 20
-6.41923
 30
0.0
 10
-8.86843
 20
-5.12019
 30
0.0
 10
-8.86843
 20
-5.12019
 30
0.0
 10
-8.86843
 20
-5.12019
 30
0.0
 10
-9.21362
 20
-4.52231
 30
0.0
 10
-9.97808
 20
-4.31747
 30
0.0
 10
-10.57596
 20
-4.66266
 30
0.0
 10
-10.57596
 20
-4.66266
 30
0.0
 10
-10.57596
 20
-4.66266
 30
0.0
 10
-10.79247
 20
-4.78766
 30
0.0
 10
-10.79247
 20
-4.78766
 30
0.0
 10
-10.79247
 20
-4.78766
 30
0.0
 10
-10.79247
 20
-4.78766
 30
0.0
 10
-13.19578
 20
-0.625
 30
0.0
 10
-13.19578
 20
-0.625
 30
0.0
 10
-13.19578
 20
-0.625
 30
0.0
 10
-13.19578
 20
-0.625
 30
0.0
 10
-1.26476
 20
-0.625
 30
0.0
 10
-1.26476
 20
-0.625
 30
0.0
 10
-1.26476
 20
-0.625
 30
0.0
 10
-1.59159
 20
-7.92889
 30
0.0
 10
-7.61545
 20
-13.75
 30
0.0
 10
-15.0
 20
-13.75
 30
0.0
 10
-15.0
 20
-13.75
 30
0.0
 10
-22.59408
 20
-13.75
 30
0.0
 10
-28.75
 20
-7.59408
 30
0.0
 10
-28.75
 20
0.0
 30
0.0
 10
-28.75
 20
0.0
 30
0.0
 10
-28.75
 20
7.59408
 30
0.0
 10
-22.59408
 20
13.74999
 30
0.0
 10
-15.0
 20
13.74999
 30
0.0
  0
SPLINE
  5
49
330
1F
100
AcDbEntity
  8
Layer 1
 62
     4
370
    53
100
AcDbSpline
210
0.0
220
0.0
230
1.0
 70
    11
 71
     3
 72
    20
 73
    16
 74
     0
 42
0.0000000001
 43
0.0000000001
 12
1.0
 22
0.0
 32
0.0
 13
1.0
 23
0.0
 33
0.0
 40
0.0
 40
0.0
 40
0.0
 40
0.0
 40
0.2
 40
0.2
 40
0.2
 40
0.2
 40
0.4
 40
0.4
 40
0.4
 40
0.4
 40
0.6
 40
0.6
 40
0.6
 40
0.6
 40
1.0
 40
1.0
 40
1.0
 40
1.0
 10
-22.5
 20
5.0
 30
0.0
 10
-19.73857
 20
5.0
 30
0.0
 10
-17.5
 20
2.76143
 30
0.0
 10
-17.5
 20
0.0
 30
0.0
 10
-17.5
 20
0.0
 30
0.0
 10
-17.5
 20
-2.76143
 30
0.0
 10
-19.73857
 20
-5.0
 30
0.0
 10
-22.5
 20
-5.0
 30
0.0
 10
-22.5
 20
-5.0
 30
0.0
 10
-25.26143
 20
-5.0
 30
0.0
 10
-27.5
 20
-2.76143
 30
0.0
 10
-27.5
 20
0.0
 30
0.0
 10
-27.5
 20
0.0
 30
0.0
 10
-27.5
 20
2.76143
 30
0.0
 10
-25.26143
 20
5.0
 30
0.0
 10
-22.5
 20
5.0
 30
0.0
  0
SPLINE
  5
4A
330
1F
100
AcDbEntity
  8
Layer 1
 62
     4
370
    53
100
AcDbSpline
210
0.0
220
0.0
230
1.0
 70
    11
 71
     3
 72
    20
 73
    16
 74
     0
 42
0.0000000001
 43
0.0000000001
 12
1.0
 22
0.0
 32
0.0
 13
1.0
 23
0.0
 33
0.0
 40
0.0
 40
0.0
 40
0.0
 40
0.0
 40
0.2
 40
0.2
 40
0.2
 40
0.2
 40
0.4
 40
0.4
 40
0.4
 40
0.4
 40
0.6
 40
0.6
 40
0.6
 40
0.6
 40
1.0
 40
1.0
 40
1.0
 40
1.0
 10
-22.5
 20
-0.75
 30
0.0
 10
-22.91422
 20
-0.75
 30
0.0
 10
-23.25
 20
-0.41422
 30
0.0
 10
-23.25
 20
0.0
 30
0.0
 10
-23.25
 20
0.0
 30
0.0
 10
-23.25
 20
0.41422
 30
0.0
 10
-22.91422
 20
0.75
 30
0.0
 10
-22.5
 20
0.75
 30
0.0
 10
-22.5
 20
0.75
 30
0.0
 10
-22.08578
 20
0.75
 30
0.0
 10
-21.75
 20
0.41422
 30
0.0
 10
-21.75
 20
0.0
 30
0.0
 10
-21.75
 20
0.0
 30
0.0
 10
-21.75
 20
-0.41422
 30
0.0
 10
-22.08578
 20
-0.75
 30
0.0
 10
-22.5
 20
-0.75
 30
0.0
  0
SPLINE
  5
4B
330
1F
100
AcDbEntity
  8
Layer 1
 62
     4
370
    53
100
AcDbSpline
210
0.0
220
0.0
230
1.0
 70
    11
 71
     3
 72
    20
 73
    16
 74
     0
 42
0.0000000001
 43
0.0000000001
 12
1.0
 22
0.0
 32
0.0
 13
1.0
 23
0.0
 33
0.0
 40
0.0
 40
0.0
 40
0.0
 40
0.0
 40
0.2
 40
0.2
 40
0.2
 40
0.2
 40
0.4
 40
0.4
 40
0.4
 40
0.4
 40
0.6
 40
0.6
 40
0.6
 40
0.6
 40
1.0
 40
1.0
 40
1.0
 40
1.0
 10
-19.8
 20
-1.3
 30
0.0
 10
-19.8
 20
-1.3
 30
0.0
 10
-25.2
 20
-1.3
 30
0.0
 10
-25.2
 20
-1.3
 30
0.0
 10
-25.2
 20
-1.3
 30
0.0
 10
-25.2
 20
-1.3
 30
0.0
 10
-25.2
 20
1.3
 30
0.0
 10
-25.2
 20
1.3
 30
0.0
 10
-25.2
 20
1.3
 30
0.0
 10
-25.2
 20
1.3
 30
0.0
 10
-19.8
 20
1.3
 30
0.0
 10
-19.8
 20
1.3
 30
0.0
 10
-19.8
 20
1.3
 30
0.0
 10
-19.8
 20
1.3
 30
0.0
 10
-19.8
 20
-1.3
 30
0.0
 10
-19.8
 20
-1.3
 30
0.0
  0
SPLINE
  5
4C
330
1F
100
AcDbEntity
  8
Layer 1
 62
     4
370
    53
100
AcDbSpline
210
0.0
220
0.0
230
1.0
 70
    11
 71
     3
 72
    20
 73
    16
 74
     0
 42
0.0000000001
 43
0.0000000001
 12
1.0
 22
0.0
 32
0.0
 13
1.0
 23
0.0
 33
0.0
 40
0.0
 40
0.0
 40
0.0
 40
0.0
 40
0.2
 40
0.2
 40
0.2
 40
0.2
 40
0.4
 40
0.4
 40
0.4
 40
0.4
 40
0.6
 40
0.6
 40
0.6
 40
0.6
 40
1.0
 40
1.0
 40
1.0
 40
1.0
 10
-24.2
 20
-0.98
 30
0.0
 10
-24.40987
 20
-0.98
 30
0.0
 10
-24.58
 20
-0.80987
 30
0.0
 10
-24.58
 20
-0.6
 30
0.0
 10
-24.58
 20
-0.6
 30
0.0
 10
-24.58
 20
-0.39013
 30
0.0
 10
-24.40987
 20
-0.22
 30
0.0
 10
-24.2
 20
-0.22
 30
0.0
 10
-24.2
 20
-0.22
 30
0.0
 10
-23.99013
 20
-0.22
 30
0.0
 10
-23.82
 20
-0.39013
 30
0.0
 10
-23.82
 20
-0.6
 30
0.0
 10
-23.82
 20
-0.6
 30
0.0
 10
-23.82
 20
-0.80987
 30
0.0
 10
-23.99013
 20
-0.98
 30
0.0
 10
-24.2
 20
-0.98
 30
0.0
  0
SPLINE
  5
4D
330
1F
100
AcDbEntity
  8
Layer 1
 62
     4
370
    53
100
AcDbSpline
210
0.0
220
0.0
230
1.0
 70
    11
 71
     3
 72
    20
 73
    16
 74
     0
 42
0.0000000001
 43
0.0000000001
 12
1.0
 22
0.0
 32
0.0
 13
1.0
 23
0.0
 33
0.0
 40
0.0
 40
0.0
 40
0.0
 40
0.0
 40
0.2
 40
0.2
 40
0.2
 40
0.2
 40
0.4
 40
0.4
 40
0.4
 40
0.4
 40
0.6
 40
0.6
 40
0.6
 40
0.6
 40
1.0
 40
1.0
 40
1.0
 40
1.0
 10
-24.2
 20
0.22
 30
0.0
 10
-24.40987
 20
0.22
 30
0.0
 10
-24.58
 20
0.39013
 30
0.0
 10
-24.58
 20
0.6
 30
0.0
 10
-24.58
 20
0.6
 30
0.0
 10
-24.58
 20
0.80987
 30
0.0
 10
-24.40987
 20
0.98
 30
0.0
 10
-24.2
 20
0.98
 30
0.0
 10
-24.2
 20
0.98
 30
0.0
 10
-23.99013
 20
0.98
 30
0.0
 10
-23.82
 20
0.80987
 30
0.0
 10
-23.82
 20
0.6
 30
0.0
 10
-23.82
 20
0.6
 30
0.0
 10
-23.82
 20
0.39013
 30
0.0
 10
-23.99013
 20
0.22
 30
0.0
 10
-24.2
 20
0.22
 30
0.0
  0
SPLINE
  5
4E
330
1F
100
AcDbEntity
  8
Layer 1
 62
     4
370
    53
100
AcDbSpline
210
0.0
220
0.0
230
1.0
 70
    11
 71
     3
 72
    20
 73
    16
 74
     0
 42
0.0000000001
 43
0.0000000001
 12
1.0
 22
0.0
 32
0.0
 13
1.0
 23
0.0
 33
0.0
 40
0.0
 40
0.0
 40
0.0
 40
0.0
 40
0.2
 40
0.2
 40
0.2
 40
0.2
 40
0.4
 40
0.4
 40
0.4
 40
0.4
 40
0.6
 40
0.6
 40
0.6
 40
0.6
 40
1.0
 40
1.0
 40
1.0
 40
1.0
 10
-19.8
 20
-0.9
 30
0.0
 10
-19.8
 20
-0.9
 30
0.0
 10
-22.1
 20
-0.9
 30
0.0
 10
-22.1
 20
-0.9
 30
0.0
 10
-22.1
 20
-0.9
 30
0.0
 10
-22.1
 20
-0.9
 30
0.0
 10
-22.1
 20
0.9
 30
0.0
 10
-22.1
 20
0.9
 30
0.0
 10
-22.1
 20
0.9
 30
0.0
 10
-22.1
 20
0.9
 30
0.0
 10
-19.8
 20
0.9
 30
0.0
 10
-19.8
 20
0.9
 30
0.0
 10
-19.8
 20
0.9
 30
0.0
 10
-19.8
 20
0.9
 30
0.0
 10
-19.8
 20
-0.9
 30
0.0
 10
-19.8
 20
-0.9
 30
0.0
  0
ELLIPSE
  5
4F
330
1F
100
AcDbEntity
  8
Layer 1
370
    53
100
AcDbEllipse
 10
-22.5
 20
3.75
 30
0.0
 11
0.0
 21
0.175
 31
0.0
210
0.0
220
0.0
230
1.0
 40
1.0
 41
0.0
 42
6.283185307179586
  0
ELLIPSE
  5
50
330
1F
100
AcDbEntity
  8
Layer 1
370
    53
100
AcDbEllipse
 10
-22.5
 20
-3.75
 30
0.0
 11
0.0
 21
0.175
 31
0.0
210
0.0
220
0.0
230
1.0
 40
1.0
 41
0.0
 42
6.283185307179586
  0
ELLIPSE
  5
51
330
1F
100
AcDbEntity
  8
Layer 1
370
    53
100
AcDbEllipse
 10
-26.25
 20
0.0
 30
0.0
 11
0.0
 21
0.175
 31
0.0
210
0.0
220
0.0
230
1.0
 40
1.0
 41
0.0
 42
6.283185307179586
  0
SPLINE
  5
52
330
1F
100
AcDbEntity
  8
Layer 1
 62
     4
370
    53
100
AcDbSpline
210
0.0
220
0.0
230
1.0
 70
    11
 71
     3
 72
    20
 73
    16
 74
     0
 42
0.0000000001
 43
0.0000000001
 12
1.0
 22
0.0
 32
0.0
 13
1.0
 23
0.0
 33
0.0
 40
0.0
 40
0.0
 40
0.0
 40
0.0
 40
0.2
 40
0.2
 40
0.2
 40
0.2
 40
0.4
 40
0.4
 40
0.4
 40
0.4
 40
0.6
 40
0.6
 40
0.6
 40
0.6
 40
1.0
 40
1.0
 40
1.0
 40
1.0
 10
-15.58013
 20
-8.99519
 30
0.0
 10
-16.96084
 20
-6.60373
 30
0.0
 10
-16.14147
 20
-3.54578
 30
0.0
 10
-13.75
 20
-2.16506
 30
0.0
 10
-13.75
 20
-2.16506
 30
0.0
 10
-11.35853
 20
-0.78435
 30
0.0
 10
-8.30059
 20
-1.60373
 30
0.0
 10
-6.91987
 20
-3.99519
 30
0.0
 10
-6.91987
 20
-3.99519
 30
0.0
 10
-5.53916
 20
-6.38666
 30
0.0
 10
-6.35853
 20
-9.4446
 30
0.0
 10
-8.75
 20
-10.82532
 30
0.0
 10
-8.75
 20
-10.82532
 30
0.0
 10
-11.14147
 20
-12.20603
 30
0.0
 10
-14.19941
 20
-11.38666
 30
0.0
 10
-15.58013
 20
-8.99519
 30
0.0
  0
SPLINE
  5
53
330
1F
100
AcDbEntity
  8
Layer 1
 62
     4
370
    53
100
AcDbSpline
210
0.0
220
0.0
230
1.0
 70
    11
 71
     3
 72
    20
 73
    16
 74
     0
 42
0.0000000001
 43
0.0000000001
 12
1.0
 22
0.0
 32
0.0
 13
1.0
 23
0.0
 33
0.0
 40
0.0
 40
0.0
 40
0.0
 40
0.0
 40
0.2
 40
0.2
 40
0.2
 40
0.2
 40
0.4
 40
0.4
 40
0.4
 40
0.4
 40
0.6
 40
0.6
 40
0.6
 40
0.6
 40
1.0
 40
1.0
 40
1.0
 40
1.0
 10
-10.60048
 20
-6.12019
 30
0.0
 10
-10.39337
 20
-6.47892
 30
0.0
 10
-10.51627
 20
-6.9376
 30
0.0
 10
-10.875
 20
-7.14471
 30
0.0
 10
-10.875
 20
-7.14471
 30
0.0
 10
-11.23373
 20
-7.35182
 30
0.0
 10
-11.69241
 20
-7.22892
 30
0.0
 10
-11.89952
 20
-6.87019
 30
0.0
 10
-11.89952
 20
-6.87019
 30
0.0
 10
-12.10663
 20
-6.51146
 30
0.0
 10
-11.98373
 20
-6.05278
 30
0.0
 10
-11.625
 20
-5.84567
 30
0.0
 10
-11.625
 20
-5.84567
 30
0.0
 10
-11.26627
 20
-5.63856
 30
0.0
 10
-10.80759
 20
-5.76146
 30
0.0
 10
-10.60048
 20
-6.12019
 30
0.0
  0
SPLINE
  5
54
330
1F
100
AcDbEntity
  8
Layer 1
 62
     4
370
    53
100
AcDbSpline
210
0.0
220
0.0
230
1.0
 70
    11
 71
     3
 72
    20
 73
    16
 74
     0
 42
0.0000000001
 43
0.0000000001
 12
1.0
 22
0.0
 32
0.0
 13
1.0
 23
0.0
 33
0.0
 40
0.0
 40
0.0
 40
0.0
 40
0.0
 40
0.2
 40
0.2
 40
0.2
 40
0.2
 40
0.4
 40
0.4
 40
0.4
 40
0.4
 40
0.6
 40
0.6
 40
0.6
 40
0.6
 40
1.0
 40
1.0
 40
1.0
 40
1.0
 10
-11.47417
 20
-3.50693
 30
0.0
 10
-11.47417
 20
-3.50693
 30
0.0
 10
-8.77417
 20
-8.18346
 30
0.0
 10
-8.77417
 20
-8.18346
 30
0.0
 10
-8.77417
 20
-8.18346
 30
0.0
 10
-8.77417
 20
-8.18346
 30
0.0
 10
-11.02583
 20
-9.48346
 30
0.0
 10
-11.02583
 20
-9.48346
 30
0.0
 10
-11.02583
 20
-9.48346
 30
0.0
 10
-11.02583
 20
-9.48346
 30
0.0
 10
-13.72583
 20
-4.80693
 30
0.0
 10
-13.72583
 20
-4.80693
 30
0.0
 10
-13.72583
 20
-4.80693
 30
0.0
 10
-13.72583
 20
-4.80693
 30
0.0
 10
-11.47417
 20
-3.50693
 30
0.0
 10
-11.47417
 20
-3.50693
 30
0.0
  0
SPLINE
  5
55
330
1F
100
AcDbEntity
  8
Layer 1
 62
     4
370
    53
100
AcDbSpline
210
0.0
220
0.0
230
1.0
 70
    11
 71
     3
 72
    20
 73
    16
 74
     0
 42
0.0000000001
 43
0.0000000001
 12
1.0
 22
0.0
 32
0.0
 13
1.0
 23
0.0
 33
0.0
 40
0.0
 40
0.0
 40
0.0
 40
0.0
 40
0.2
 40
0.2
 40
0.2
 40
0.2
 40
0.4
 40
0.4
 40
0.4
 40
0.4
 40
0.6
 40
0.6
 40
0.6
 40
0.6
 40
1.0
 40
1.0
 40
1.0
 40
1.0
 10
-10.59053
 20
-8.07743
 30
0.0
 10
-10.48559
 20
-8.25918
 30
0.0
 10
-10.54787
 20
-8.49159
 30
0.0
 10
-10.72962
 20
-8.59652
 30
0.0
 10
-10.72962
 20
-8.59652
 30
0.0
 10
-10.91136
 20
-8.70146
 30
0.0
 10
-11.14377
 20
-8.63918
 30
0.0
 10
-11.2487
 20
-8.45743
 30
0.0
 10
-11.2487
 20
-8.45743
 30
0.0
 10
-11.35364
 20
-8.27568
 30
0.0
 10
-11.29136
 20
-8.04328
 30
0.0
 10
-11.10962
 20
-7.93834
 30
0.0
 10
-11.10962
 20
-7.93834
 30
0.0
 10
-10.92787
 20
-7.83341
 30
0.0
 10
-10.69546
 20
-7.89568
 30
0.0
 10
-10.59053
 20
-8.07743
 30
0.0
  0
SPLINE
  5
56
330
1F
100
AcDbEntity
  8
Layer 1
 62
     4
370
    53
100
AcDbSpline
210
0.0
220
0.0
230
1.0
 70
    11
 71
     3
 72
    20
 73
    16
 74
     0
 42
0.0000000001
 43
0.0000000001
 12
1.0
 22
0.0
 32
0.0
 13
1.0
 23
0.0
 33
0.0
 40
0.0
 40
0.0
 40
0.0
 40
0.0
 40
0.2
 40
0.2
 40
0.2
 40
0.2
 40
0.4
 40
0.4
 40
0.4
 40
0.4
 40
0.6
 40
0.6
 40
0.6
 40
0.6
 40
1.0
 40
1.0
 40
1.0
 40
1.0
 10
-11.82058
 20
-3.70692
 30
0.0
 10
-11.82058
 20
-3.70692
 30
0.0
 10
-10.67058
 20
-5.69878
 30
0.0
 10
-10.67058
 20
-5.69878
 30
0.0
 10
-10.67058
 20
-5.69878
 30
0.0
 10
-10.67058
 20
-5.69878
 30
0.0
 10
-12.22942
 20
-6.59878
 30
0.0
 10
-12.22942
 20
-6.59878
 30
0.0
 10
-12.22942
 20
-6.59878
 30
0.0
 10
-12.22942
 20
-6.59878
 30
0.0
 10
-13.37942
 20
-4.60692
 30
0.0
 10
-13.37942
 20
-4.60692
 30
0.0
 10
-13.37942
 20
-4.60692
 30
0.0
 10
-13.37942
 20
-4.60692
 30
0.0
 10
-11.82058
 20
-3.70692
 30
0.0
 10
-11.82058
 20
-3.70692
 30
0.0
  0
SPLINE
  5
57
330
1F
100
AcDbEntity
  8
Layer 1
370
    53
100
AcDbSpline
210
0.0
220
0.0
230
1.0
 70
    11
 71
     3
 72
    20
 73
    16
 74
     0
 42
0.0000000001
 43
0.0000000001
 12
1.0
 22
0.0
 32
0.0
 13
1.0
 23
0.0
 33
0.0
 40
0.0
 40
0.0
 40
0.0
 40
0.0
 40
0.2
 40
0.2
 40
0.2
 40
0.2
 40
0.4
 40
0.4
 40
0.4
 40
0.4
 40
0.6
 40
0.6
 40
0.6
 40
0.6
 40
1.0
 40
1.0
 40
1.0
 40
1.0
 10
-14.64915
 20
-8.45769
 30
0.0
 10
-14.69748
 20
-8.37399
 30
0.0
 10
-14.6688
 20
-8.26696
 30
0.0
 10
-14.5851
 20
-8.21864
 30
0.0
 10
-14.5851
 20
-8.21864
 30
0.0
 10
-14.50139
 20
-8.17031
 30
0.0
 10
-14.39437
 20
-8.19899
 30
0.0
 10
-14.34604
 20
-8.28269
 30
0.0
 10
-14.34604
 20
-8.28269
 30
0.0
 10
-14.29771
 20
-8.36639
 30
0.0
 10
-14.32639
 20
-8.47342
 30
0.0
 10
-14.4101
 20
-8.52174
 30
0.0
 10
-14.4101
 20
-8.52174
 30
0.0
 10
-14.4938
 20
-8.57007
 30
0.0
 10
-14.60082
 20
-8.54139
 30
0.0
 10
-14.64915
 20
-8.45769
 30
0.0
  0
SPLINE
  5
58
330
1F
100
AcDbEntity
  8
Layer 1
370
    53
100
AcDbSpline
210
0.0
220
0.0
230
1.0
 70
    11
 71
     3
 72
    20
 73
    16
 74
     0
 42
0.0000000001
 43
0.0000000001
 12
1.0
 22
0.0
 32
0.0
 13
1.0
 23
0.0
 33
0.0
 40
0.0
 40
0.0
 40
0.0
 40
0.0
 40
0.2
 40
0.2
 40
0.2
 40
0.2
 40
0.4
 40
0.4
 40
0.4
 40
0.4
 40
0.6
 40
0.6
 40
0.6
 40
0.6
 40
1.0
 40
1.0
 40
1.0
 40
1.0
 10
-8.15396
 20
-4.70769
 30
0.0
 10
-8.20229
 20
-4.62399
 30
0.0
 10
-8.17361
 20
-4.51696
 30
0.0
 10
-8.0899
 20
-4.46864
 30
0.0
 10
-8.0899
 20
-4.46864
 30
0.0
 10
-8.0062
 20
-4.42031
 30
0.0
 10
-7.89918
 20
-4.44899
 30
0.0
 10
-7.85085
 20
-4.53269
 30
0.0
 10
-7.85085
 20
-4.53269
 30
0.0
 10
-7.80252
 20
-4.61639
 30
0.0
 10
-7.8312
 20
-4.72342
 30
0.0
 10
-7.9149
 20
-4.77174
 30
0.0
 10
-7.9149
 20
-4.77174
 30
0.0
 10
-7.99861
 20
-4.82007
 30
0.0
 10
-8.10563
 20
-4.79139
 30
0.0
 10
-8.15396
 20
-4.70769
 30
0.0
  0
SPLINE
  5
59
330
1F
100
AcDbEntity
  8
Layer 1
370
    53
100
AcDbSpline
210
0.0
220
0.0
230
1.0
 70
    11
 71
     3
 72
    20
 73
    16
 74
     0
 42
0.0000000001
 43
0.0000000001
 12
1.0
 22
0.0
 32
0.0
 13
1.0
 23
0.0
 33
0.0
 40
0.0
 40
0.0
 40
0.0
 40
0.0
 40
0.2
 40
0.2
 40
0.2
 40
0.2
 40
0.4
 40
0.4
 40
0.4
 40
0.4
 40
0.6
 40
0.6
 40
0.6
 40
0.6
 40
1.0
 40
1.0
 40
1.0
 40
1.0
 10
-9.52655
 20
-9.83029
 30
0.0
 10
-9.57488
 20
-9.74658
 30
0.0
 10
-9.5462
 20
-9.63956
 30
0.0
 10
-9.4625
 20
-9.59123
 30
0.0
 10
-9.4625
 20
-9.59123
 30
0.0
 10
-9.3788
 20
-9.54291
 30
0.0
 10
-9.27177
 20
-9.57158
 30
0.0
 10
-9.22345
 20
-9.65529
 30
0.0
 10
-9.22345
 20
-9.65529
 30
0.0
 10
-9.17512
 20
-9.73899
 30
0.0
 10
-9.2038
 20
-9.84601
 30
0.0
 10
-9.2875
 20
-9.89434
 30
0.0
 10
-9.2875
 20
-9.89434
 30
0.0
 10
-9.3712
 20
-9.94267
 30
0.0
 10
-9.47823
 20
-9.91399
 30
0.0
 10
-9.52655
 20
-9.83029
 30
0.0
  0
ELLIPSE
  5
5A
330
1F
100
AcDbEntity
  8
Layer 1
370
    53
100
AcDbEllipse
 10
15.00017
 20
-0.00017
 30
0.0
 11
0.0
 21
13.75016
 31
0.0
210
0.0
220
0.0
230
1.0
 40
1.0
 41
0.0
 42
6.283185307179586
  0
SPLINE
  5
5B
330
1F
100
AcDbEntity
  8
Layer 1
 62
     4
370
    53
100
AcDbSpline
210
0.0
220
0.0
230
1.0
 70
    11
 71
     3
 72
    20
 73
    16
 74
     0
 42
0.0000000001
 43
0.0000000001
 12
1.0
 22
0.0
 32
0.0
 13
1.0
 23
0.0
 33
0.0
 40
0.0
 40
0.0
 40
0.0
 40
0.0
 40
0.2
 40
0.2
 40
0.2
 40
0.2
 40
0.4
 40
0.4
 40
0.4
 40
0.4
 40
0.6
 40
0.6
 40
0.6
 40
0.6
 40
1.0
 40
1.0
 40
1.0
 40
1.0
 10
7.5
 20
5.0
 30
0.0
 10
10.26143
 20
5.0
 30
0.0
 10
12.5
 20
2.76143
 30
0.0
 10
12.5
 20
0.0
 30
0.0
 10
12.5
 20
0.0
 30
0.0
 10
12.5
 20
-2.76143
 30
0.0
 10
10.26143
 20
-5.0
 30
0.0
 10
7.5
 20
-5.0
 30
0.0
 10
7.5
 20
-5.0
 30
0.0
 10
4.73857
 20
-5.0
 30
0.0
 10
2.5
 20
-2.76143
 30
0.0
 10
2.5
 20
0.0
 30
0.0
 10
2.5
 20
0.0
 30
0.0
 10
2.5
 20
2.76143
 30
0.0
 10
4.73857
 20
5.0
 30
0.0
 10
7.5
 20
5.0
 30
0.0
  0
SPLINE
  5
5C
330
1F
100
AcDbEntity
  8
Layer 1
 62
     4
370
    53
100
AcDbSpline
210
0.0
220
0.0
230
1.0
 70
    11
 71
     3
 72
    20
 73
    16
 74
     0
 42
0.0000000001
 43
0.0000000001
 12
1.0
 22
0.0
 32
0.0
 13
1.0
 23
0.0
 33
0.0
 40
0.0
 40
0.0
 40
0.0
 40
0.0
 40
0.2
 40
0.2
 40
0.2
 40
0.2
 40
0.4
 40
0.4
 40
0.4
 40
0.4
 40
0.6
 40
0.6
 40
0.6
 40
0.6
 40
1.0
 40
1.0
 40
1.0
 40
1.0
 10
7.5
 20
-0.75
 30
0.0
 10
7.08578
 20
-0.75
 30
0.0
 10
6.75
 20
-0.41422
 30
0.0
 10
6.75
 20
0.0
 30
0.0
 10
6.75
 20
0.0
 30
0.0
 10
6.75
 20
0.41422
 30
0.0
 10
7.08578
 20
0.75
 30
0.0
 10
7.5
 20
0.75
 30
0.0
 10
7.5
 20
0.75
 30
0.0
 10
7.91422
 20
0.75
 30
0.0
 10
8.25
 20
0.41422
 30
0.0
 10
8.25
 20
0.0
 30
0.0
 10
8.25
 20
0.0
 30
0.0
 10
8.25
 20
-0.41422
 30
0.0
 10
7.91422
 20
-0.75
 30
0.0
 10
7.5
 20
-0.75
 30
0.0
  0
SPLINE
  5
5D
330
1F
100
AcDbEntity
  8
Layer 1
 62
     4
370
    53
100
AcDbSpline
210
0.0
220
0.0
230
1.0
 70
    11
 71
     3
 72
    20
 73
    16
 74
     0
 42
0.0000000001
 43
0.0000000001
 12
1.0
 22
0.0
 32
0.0
 13
1.0
 23
0.0
 33
0.0
 40
0.0
 40
0.0
 40
0.0
 40
0.0
 40
0.2
 40
0.2
 40
0.2
 40
0.2
 40
0.4
 40
0.4
 40
0.4
 40
0.4
 40
0.6
 40
0.6
 40
0.6
 40
0.6
 40
1.0
 40
1.0
 40
1.0
 40
1.0
 10
10.2
 20
-1.3
 30
0.0
 10
10.2
 20
-1.3
 30
0.0
 10
4.8
 20
-1.3
 30
0.0
 10
4.8
 20
-1.3
 30
0.0
 10
4.8
 20
-1.3
 30
0.0
 10
4.8
 20
-1.3
 30
0.0
 10
4.8
 20
1.3
 30
0.0
 10
4.8
 20
1.3
 30
0.0
 10
4.8
 20
1.3
 30
0.0
 10
4.8
 20
1.3
 30
0.0
 10
10.2
 20
1.3
 30
0.0
 10
10.2
 20
1.3
 30
0.0
 10
10.2
 20
1.3
 30
0.0
 10
10.2
 20
1.3
 30
0.0
 10
10.2
 20
-1.3
 30
0.0
 10
10.2
 20
-1.3
 30
0.0
  0
SPLINE
  5
5E
330
1F
100
AcDbEntity
  8
Layer 1
 62
     4
370
    53
100
AcDbSpline
210
0.0
220
0.0
230
1.0
 70
    11
 71
     3
 72
    20
 73
    16
 74
     0
 42
0.0000000001
 43
0.0000000001
 12
1.0
 22
0.0
 32
0.0
 13
1.0
 23
0.0
 33
0.0
 40
0.0
 40
0.0
 40
0.0
 40
0.0
 40
0.2
 40
0.2
 40
0.2
 40
0.2
 40
0.4
 40
0.4
 40
0.4
 40
0.4
 40
0.6
 40
0.6
 40
0.6
 40
0.6
 40
1.0
 40
1.0
 40
1.0
 40
1.0
 10
5.8
 20
-0.98
 30
0.0
 10
5.59013
 20
-0.98
 30
0.0
 10
5.42
 20
-0.80987
 30
0.0
 10
5.42
 20
-0.6
 30
0.0
 10
5.42
 20
-0.6
 30
0.0
 10
5.42
 20
-0.39013
 30
0.0
 10
5.59013
 20
-0.22
 30
0.0
 10
5.8
 20
-0.22
 30
0.0
 10
5.8
 20
-0.22
 30
0.0
 10
6.00987
 20
-0.22
 30
0.0
 10
6.18
 20
-0.39013
 30
0.0
 10
6.18
 20
-0.6
 30
0.0
 10
6.18
 20
-0.6
 30
0.0
 10
6.18
 20
-0.80987
 30
0.0
 10
6.00987
 20
-0.98
 30
0.0
 10
5.8
 20
-0.98
 30
0.0
  0
SPLINE
  5
5F
330
1F
100
AcDbEntity
  8
Layer 1
 62
     4
370
    53
100
AcDbSpline
210
0.0
220
0.0
230
1.0
 70
    11
 71
     3
 72
    20
 73
    16
 74
     0
 42
0.0000000001
 43
0.0000000001
 12
1.0
 22
0.0
 32
0.0
 13
1.0
 23
0.0
 33
0.0
 40
0.0
 40
0.0
 40
0.0
 40
0.0
 40
0.2
 40
0.2
 40
0.2
 40
0.2
 40
0.4
 40
0.4
 40
0.4
 40
0.4
 40
0.6
 40
0.6
 40
0.6
 40
0.6
 40
1.0
 40
1.0
 40
1.0
 40
1.0
 10
5.8
 20
0.22
 30
0.0
 10
5.59013
 20
0.22
 30
0.0
 10
5.42
 20
0.39013
 30
0.0
 10
5.42
 20
0.6
 30
0.0
 10
5.42
 20
0.6
 30
0.0
 10
5.42
 20
0.80987
 30
0.0
 10
5.59013
 20
0.98
 30
0.0
 10
5.8
 20
0.98
 30
0.0
 10
5.8
 20
0.98
 30
0.0
 10
6.00987
 20
0.98
 30
0.0
 10
6.18
 20
0.80987
 30
0.0
 10
6.18
 20
0.6
 30
0.0
 10
6.18
 20
0.6
 30
0.0
 10
6.18
 20
0.39013
 30
0.0
 10
6.00987
 20
0.22
 30
0.0
 10
5.8
 20
0.22
 30
0.0
  0
SPLINE
  5
60
330
1F
100
AcDbEntity
  8
Layer 1
 62
     4
370
    53
100
AcDbSpline
210
0.0
220
0.0
230
1.0
 70
    11
 71
     3
 72
    20
 73
    16
 74
     0
 42
0.0000000001
 43
0.0000000001
 12
1.0
 22
0.0
 32
0.0
 13
1.0
 23
0.0
 33
0.0
 40
0.0
 40
0.0
 40
0.0
 40
0.0
 40
0.2
 40
0.2
 40
0.2
 40
0.2
 40
0.4
 40
0.4
 40
0.4
 40
0.4
 40
0.6
 40
0.6
 40
0.6
 40
0.6
 40
1.0
 40
1.0
 40
1.0
 40
1.0
 10
10.2
 20
-0.9
 30
0.0
 10
10.2
 20
-0.9
 30
0.0
 10
7.9
 20
-0.9
 30
0.0
 10
7.9
 20
-0.9
 30
0.0
 10
7.9
 20
-0.9
 30
0.0
 10
7.9
 20
-0.9
 30
0.0
 10
7.9
 20
0.9
 30
0.0
 10
7.9
 20
0.9
 30
0.0
 10
7.9
 20
0.9
 30
0.0
 10
7.9
 20
0.9
 30
0.0
 10
10.2
 20
0.9
 30
0.0
 10
10.2
 20
0.9
 30
0.0
 10
10.2
 20
0.9
 30
0.0
 10
10.2
 20
0.9
 30
0.0
 10
10.2
 20
-0.9
 30
0.0
 10
10.2
 20
-0.9
 30
0.0
  0
SPLINE
  5
61
330
1F
100
AcDbEntity
  8
Layer 1
370
    53
100
AcDbSpline
210
0.0
220
0.0
230
1.0
 70
    11
 71
     3
 72
    20
 73
    16
 74
     0
 42
0.0000000001
 43
0.0000000001
 12
1.0
 22
0.0
 32
0.0
 13
1.0
 23
0.0
 33
0.0
 40
0.0
 40
0.0
 40
0.0
 40
0.0
 40
0.2
 40
0.2
 40
0.2
 40
0.2
 40
0.4
 40
0.4
 40
0.4
 40
0.4
 40
0.6
 40
0.6
 40
0.6
 40
0.6
 40
1.0
 40
1.0
 40
1.0
 40
1.0
 10
5.8
 20
-0.98
 30
0.0
 10
5.59013
 20
-0.98
 30
0.0
 10
5.42
 20
-0.80987
 30
0.0
 10
5.42
 20
-0.6
 30
0.0
 10
5.42
 20
-0.6
 30
0.0
 10
5.42
 20
-0.39013
 30
0.0
 10
5.59013
 20
-0.22
 30
0.0
 10
5.8
 20
-0.22
 30
0.0
 10
5.8
 20
-0.22
 30
0.0
 10
6.00987
 20
-0.22
 30
0.0
 10
6.18
 20
-0.39013
 30
0.0
 10
6.18
 20
-0.6
 30
0.0
 10
6.18
 20
-0.6
 30
0.0
 10
6.18
 20
-0.80987
 30
0.0
 10
6.00987
 20
-0.98
 30
0.0
 10
5.8
 20
-0.98
 30
0.0
  0
SPLINE
  5
62
330
1F
100
AcDbEntity
  8
Layer 1
370
    53
100
AcDbSpline
210
0.0
220
0.0
230
1.0
 70
    11
 71
     3
 72
    20
 73
    16
 74
     0
 42
0.0000000001
 43
0.0000000001
 12
1.0
 22
0.0
 32
0.0
 13
1.0
 23
0.0
 33
0.0
 40
0.0
 40
0.0
 40
0.0
 40
0.0
 40
0.2
 40
0.2
 40
0.2
 40
0.2
 40
0.4
 40
0.4
 40
0.4
 40
0.4
 40
0.6
 40
0.6
 40
0.6
 40
0.6
 40
1.0
 40
1.0
 40
1.0
 40
1.0
 10
5.8
 20
0.22
 30
0.0
 10
5.59013
 20
0.22
 30
0.0
 10
5.42
 20
0.39013
 30
0.0
 10
5.42
 20
0.6
 30
0.0
 10
5.42
 20
0.6
 30
0.0
 10
5.42
 20
0.80987
 30
0.0
 10
5.59013
 20
0.98
 30
0.0
 10
5.8
 20
0.98
 30
0.0
 10
5.8
 20
0.98
 30
0.0
 10
6.00987
 20
0.98
 30
0.0
 10
6.18
 20
0.80987
 30
0.0
 10
6.18
 20
0.6
 30
0.0
 10
6.18
 20
0.6
 30
0.0
 10
6.18
 20
0.39013
 30
0.0
 10
6.00987
 20
0.22
 30
0.0
 10
5.8
 20
0.22
 30
0.0
  0
ELLIPSE
  5
63
330
1F
100
AcDbEntity
  8
Layer 1
370
    53
100
AcDbEllipse
 10
7.5
 20
3.75
 30
0.0
 11
0.0
 21
0.175
 31
0.0
210
0.0
220
0.0
230
1.0
 40
1.0
 41
0.0
 42
6.283185307179586
  0
ELLIPSE
  5
64
330
1F
100
AcDbEntity
  8
Layer 1
370
    53
100
AcDbEllipse
 10
7.5
 20
-3.75
 30
0.0
 11
0.0
 21
0.175
 31
0.0
210
0.0
220
0.0
230
1.0
 40
1.0
 41
0.0
 42
6.283185307179586
  0
ELLIPSE
  5
65
330
1F
100
AcDbEntity
  8
Layer 1
370
    53
100
AcDbEllipse
 10
3.75
 20
0.0
 30
0.0
 11
0.0
 21
0.175
 31
0.0
210
0.0
220
0.0
230
1.0
 40
1.0
 41
0.0
 42
6.283185307179586
  0
SPLINE
  5
66
330
1F
100
AcDbEntity
  8
Layer 1
 62
     4
370
    53
100
AcDbSpline
210
0.0
220
0.0
230
1.0
 70
    11
 71
     3
 72
    20
 73
    16
 74
     0
 42
0.0000000001
 43
0.0000000001
 12
1.0
 22
0.0
 32
0.0
 13
1.0
 23
0.0
 33
0.0
 40
0.0
 40
0.0
 40
0.0
 40
0.0
 40
0.2
 40
0.2
 40
0.2
 40
0.2
 40
0.4
 40
0.4
 40
0.4
 40
0.4
 40
0.6
 40
0.6
 40
0.6
 40
0.6
 40
1.0
 40
1.0
 40
1.0
 40
1.0
 10
14.41987
 20
-8.99519
 30
0.0
 10
13.03916
 20
-6.60373
 30
0.0
 10
13.85853
 20
-3.54578
 30
0.0
 10
16.25
 20
-2.16506
 30
0.0
 10
16.25
 20
-2.16506
 30
0.0
 10
18.64147
 20
-0.78435
 30
0.0
 10
21.69941
 20
-1.60373
 30
0.0
 10
23.08013
 20
-3.99519
 30
0.0
 10
23.08013
 20
-3.99519
 30
0.0
 10
24.46084
 20
-6.38666
 30
0.0
 10
23.64147
 20
-9.4446
 30
0.0
 10
21.25
 20
-10.82532
 30
0.0
 10
21.25
 20
-10.82532
 30
0.0
 10
18.85853
 20
-12.20603
 30
0.0
 10
15.80059
 20
-11.38666
 30
0.0
 10
14.41987
 20
-8.99519
 30
0.0
  0
SPLINE
  5
67
330
1F
100
AcDbEntity
  8
Layer 1
 62
     4
370
    53
100
AcDbSpline
210
0.0
220
0.0
230
1.0
 70
    11
 71
     3
 72
    20
 73
    16
 74
     0
 42
0.0000000001
 43
0.0000000001
 12
1.0
 22
0.0
 32
0.0
 13
1.0
 23
0.0
 33
0.0
 40
0.0
 40
0.0
 40
0.0
 40
0.0
 40
0.2
 40
0.2
 40
0.2
 40
0.2
 40
0.4
 40
0.4
 40
0.4
 40
0.4
 40
0.6
 40
0.6
 40
0.6
 40
0.6
 40
1.0
 40
1.0
 40
1.0
 40
1.0
 10
19.39952
 20
-6.12019
 30
0.0
 10
19.60663
 20
-6.47892
 30
0.0
 10
19.48373
 20
-6.9376
 30
0.0
 10
19.125
 20
-7.14471
 30
0.0
 10
19.125
 20
-7.14471
 30
0.0
 10
18.76627
 20
-7.35182
 30
0.0
 10
18.30759
 20
-7.22892
 30
0.0
 10
18.10048
 20
-6.87019
 30
0.0
 10
18.10048
 20
-6.87019
 30
0.0
 10
17.89337
 20
-6.51146
 30
0.0
 10
18.01627
 20
-6.05278
 30
0.0
 10
18.375
 20
-5.84567
 30
0.0
 10
18.375
 20
-5.84567
 30
0.0
 10
18.73373
 20
-5.63856
 30
0.0
 10
19.19241
 20
-5.76146
 30
0.0
 10
19.39952
 20
-6.12019
 30
0.0
  0
SPLINE
  5
68
330
1F
100
AcDbEntity
  8
Layer 1
 62
     4
370
    53
100
AcDbSpline
210
0.0
220
0.0
230
1.0
 70
    11
 71
     3
 72
    20
 73
    16
 74
     0
 42
0.0000000001
 43
0.0000000001
 12
1.0
 22
0.0
 32
0.0
 13
1.0
 23
0.0
 33
0.0
 40
0.0
 40
0.0
 40
0.0
 40
0.0
 40
0.2
 40
0.2
 40
0.2
 40
0.2
 40
0.4
 40
0.4
 40
0.4
 40
0.4
 40
0.6
 40
0.6
 40
0.6
 40
0.6
 40
1.0
 40
1.0
 40
1.0
 40
1.0
 10
18.52583
 20
-3.50693
 30
0.0
 10
18.52583
 20
-3.50693
 30
0.0
 10
21.22583
 20
-8.18346
 30
0.0
 10
21.22583
 20
-8.18346
 30
0.0
 10
21.22583
 20
-8.18346
 30
0.0
 10
21.22583
 20
-8.18346
 30
0.0
 10
18.97417
 20
-9.48346
 30
0.0
 10
18.97417
 20
-9.48346
 30
0.0
 10
18.97417
 20
-9.48346
 30
0.0
 10
18.97417
 20
-9.48346
 30
0.0
 10
16.27417
 20
-4.80693
 30
0.0
 10
16.27417
 20
-4.80693
 30
0.0
 10
16.27417
 20
-4.80693
 30
0.0
 10
16.27417
 20
-4.80693
 30
0.0
 10
18.52583
 20
-3.50693
 30
0.0
 10
18.52583
 20
-3.50693
 30
0.0
  0
SPLINE
  5
69
330
1F
100
AcDbEntity
  8
Layer 1
 62
     4
370
    53
100
AcDbSpline
210
0.0
220
0.0
230
1.0
 70
    11
 71
     3
 72
    20
 73
    16
 74
     0
 42
0.0000000001
 43
0.0000000001
 12
1.0
 22
0.0
 32
0.0
 13
1.0
 23
0.0
 33
0.0
 40
0.0
 40
0.0
 40
0.0
 40
0.0
 40
0.2
 40
0.2
 40
0.2
 40
0.2
 40
0.4
 40
0.4
 40
0.4
 40
0.4
 40
0.6
 40
0.6
 40
0.6
 40
0.6
 40
1.0
 40
1.0
 40
1.0
 40
1.0
 10
20.4487
 20
-7.47743
 30
0.0
 10
20.55364
 20
-7.65918
 30
0.0
 10
20.49136
 20
-7.89159
 30
0.0
 10
20.30962
 20
-7.99652
 30
0.0
 10
20.30962
 20
-7.99652
 30
0.0
 10
20.12787
 20
-8.10146
 30
0.0
 10
19.89546
 20
-8.03918
 30
0.0
 10
19.79053
 20
-7.85743
 30
0.0
 10
19.79053
 20
-7.85743
 30
0.0
 10
19.68559
 20
-7.67568
 30
0.0
 10
19.74787
 20
-7.44328
 30
0.0
 10
19.92962
 20
-7.33834
 30
0.0
 10
19.92962
 20
-7.33834
 30
0.0
 10
20.11136
 20
-7.23341
 30
0.0
 10
20.34377
 20
-7.29568
 30
0.0
 10
20.4487
 20
-7.47743
 30
0.0
  0
SPLINE
  5
6A
330
1F
100
AcDbEntity
  8
Layer 1
 62
     4
370
    53
100
AcDbSpline
210
0.0
220
0.0
230
1.0
 70
    11
 71
     3
 72
    20
 73
    16
 74
     0
 42
0.0000000001
 43
0.0000000001
 12
1.0
 22
0.0
 32
0.0
 13
1.0
 23
0.0
 33
0.0
 40
0.0
 40
0.0
 40
0.0
 40
0.0
 40
0.2
 40
0.2
 40
0.2
 40
0.2
 40
0.4
 40
0.4
 40
0.4
 40
0.4
 40
0.6
 40
0.6
 40
0.6
 40
0.6
 40
1.0
 40
1.0
 40
1.0
 40
1.0
 10
19.40947
 20
-8.07743
 30
0.0
 10
19.51441
 20
-8.25918
 30
0.0
 10
19.45213
 20
-8.49159
 30
0.0
 10
19.27038
 20
-8.59652
 30
0.0
 10
19.27038
 20
-8.59652
 30
0.0
 10
19.08864
 20
-8.70146
 30
0.0
 10
18.85623
 20
-8.63918
 30
0.0
 10
18.7513
 20
-8.45743
 30
0.0
 10
18.7513
 20
-8.45743
 30
0.0
 10
18.64636
 20
-8.27568
 30
0.0
 10
18.70864
 20
-8.04328
 30
0.0
 10
18.89038
 20
-7.93834
 30
0.0
 10
18.89038
 20
-7.93834
 30
0.0
 10
19.07213
 20
-7.83341
 30
0.0
 10
19.30454
 20
-7.89568
 30
0.0
 10
19.40947
 20
-8.07743
 30
0.0
  0
SPLINE
  5
6B
330
1F
100
AcDbEntity
  8
Layer 1
 62
     4
370
    53
100
AcDbSpline
210
0.0
220
0.0
230
1.0
 70
    11
 71
     3
 72
    20
 73
    16
 74
     0
 42
0.0000000001
 43
0.0000000001
 12
1.0
 22
0.0
 32
0.0
 13
1.0
 23
0.0
 33
0.0
 40
0.0
 40
0.0
 40
0.0
 40
0.0
 40
0.2
 40
0.2
 40
0.2
 40
0.2
 40
0.4
 40
0.4
 40
0.4
 40
0.4
 40
0.6
 40
0.6
 40
0.6
 40
0.6
 40
1.0
 40
1.0
 40
1.0
 40
1.0
 10
18.17942
 20
-3.70692
 30
0.0
 10
18.17942
 20
-3.70692
 30
0.0
 10
19.32942
 20
-5.69878
 30
0.0
 10
19.32942
 20
-5.69878
 30
0.0
 10
19.32942
 20
-5.69878
 30
0.0
 10
19.32942
 20
-5.69878
 30
0.0
 10
17.77058
 20
-6.59878
 30
0.0
 10
17.77058
 20
-6.59878
 30
0.0
 10
17.77058
 20
-6.59878
 30
0.0
 10
17.77058
 20
-6.59878
 30
0.0
 10
16.62058
 20
-4.60692
 30
0.0
 10
16.62058
 20
-4.60692
 30
0.0
 10
16.62058
 20
-4.60692
 30
0.0
 10
16.62058
 20
-4.60692
 30
0.0
 10
18.17942
 20
-3.70692
 30
0.0
 10
18.17942
 20
-3.70692
 30
0.0
  0
SPLINE
  5
6C
330
1F
100
AcDbEntity
  8
Layer 1
370
    53
100
AcDbSpline
210
0.0
220
0.0
230
1.0
 70
    11
 71
     3
 72
    20
 73
    16
 74
     0
 42
0.0000000001
 43
0.0000000001
 12
1.0
 22
0.0
 32
0.0
 13
1.0
 23
0.0
 33
0.0
 40
0.0
 40
0.0
 40
0.0
 40
0.0
 40
0.2
 40
0.2
 40
0.2
 40
0.2
 40
0.4
 40
0.4
 40
0.4
 40
0.4
 40
0.6
 40
0.6
 40
0.6
 40
0.6
 40
1.0
 40
1.0
 40
1.0
 40
1.0
 10
20.4487
 20
-7.47743
 30
0.0
 10
20.55364
 20
-7.65918
 30
0.0
 10
20.49136
 20
-7.89159
 30
0.0
 10
20.30962
 20
-7.99652
 30
0.0
 10
20.30962
 20
-7.99652
 30
0.0
 10
20.12787
 20
-8.10146
 30
0.0
 10
19.89546
 20
-8.03918
 30
0.0
 10
19.79053
 20
-7.85743
 30
0.0
 10
19.79053
 20
-7.85743
 30
0.0
 10
19.68559
 20
-7.67568
 30
0.0
 10
19.74787
 20
-7.44328
 30
0.0
 10
19.92962
 20
-7.33834
 30
0.0
 10
19.92962
 20
-7.33834
 30
0.0
 10
20.11136
 20
-7.23341
 30
0.0
 10
20.34377
 20
-7.29568
 30
0.0
 10
20.4487
 20
-7.47743
 30
0.0
  0
SPLINE
  5
6D
330
1F
100
AcDbEntity
  8
Layer 1
370
    53
100
AcDbSpline
210
0.0
220
0.0
230
1.0
 70
    11
 71
     3
 72
    20
 73
    16
 74
     0
 42
0.0000000001
 43
0.0000000001
 12
1.0
 22
0.0
 32
0.0
 13
1.0
 23
0.0
 33
0.0
 40
0.0
 40
0.0
 40
0.0
 40
0.0
 40
0.2
 40
0.2
 40
0.2
 40
0.2
 40
0.4
 40
0.4
 40
0.4
 40
0.4
 40
0.6
 40
0.6
 40
0.6
 40
0.6
 40
1.0
 40
1.0
 40
1.0
 40
1.0
 10
19.40947
 20
-8.07743
 30
0.0
 10
19.51441
 20
-8.25918
 30
0.0
 10
19.45213
 20
-8.49159
 30
0.0
 10
19.27038
 20
-8.59652
 30
0.0
 10
19.27038
 20
-8.59652
 30
0.0
 10
19.08864
 20
-8.70146
 30
0.0
 10
18.85623
 20
-8.63918
 30
0.0
 10
18.7513
 20
-8.45743
 30
0.0
 10
18.7513
 20
-8.45743
 30
0.0
 10
18.64636
 20
-8.27568
 30
0.0
 10
18.70864
 20
-8.04328
 30
0.0
 10
18.89038
 20
-7.93834
 30
0.0
 10
18.89038
 20
-7.93834
 30
0.0
 10
19.07213
 20
-7.83341
 30
0.0
 10
19.30454
 20
-7.89568
 30
0.0
 10
19.40947
 20
-8.07743
 30
0.0
  0
SPLINE
  5
6E
330
1F
100
AcDbEntity
  8
Layer 1
370
    53
100
AcDbSpline
210
0.0
220
0.0
230
1.0
 70
    11
 71
     3
 72
    20
 73
    16
 74
     0
 42
0.0000000001
 43
0.0000000001
 12
1.0
 22
0.0
 32
0.0
 13
1.0
 23
0.0
 33
0.0
 40
0.0
 40
0.0
 40
0.0
 40
0.0
 40
0.2
 40
0.2
 40
0.2
 40
0.2
 40
0.4
 40
0.4
 40
0.4
 40
0.4
 40
0.6
 40
0.6
 40
0.6
 40
0.6
 40
1.0
 40
1.0
 40
1.0
 40
1.0
 10
15.35085
 20
-8.45769
 30
0.0
 10
15.30252
 20
-8.37399
 30
0.0
 10
15.3312
 20
-8.26696
 30
0.0
 10
15.4149
 20
-8.21864
 30
0.0
 10
15.4149
 20
-8.21864
 30
0.0
 10
15.49861
 20
-8.17031
 30
0.0
 10
15.60563
 20
-8.19899
 30
0.0
 10
15.65396
 20
-8.28269
 30
0.0
 10
15.65396
 20
-8.28269
 30
0.0
 10
15.70229
 20
-8.36639
 30
0.0
 10
15.67361
 20
-8.47342
 30
0.0
 10
15.5899
 20
-8.52174
 30
0.0
 10
15.5899
 20
-8.52174
 30
0.0
 10
15.5062
 20
-8.57007
 30
0.0
 10
15.39918
 20
-8.54139
 30
0.0
 10
15.35085
 20
-8.45769
 30
0.0
  0
SPLINE
  5
6F
330
1F
100
AcDbEntity
  8
Layer 1
370
    53
100
AcDbSpline
210
0.0
220
0.0
230
1.0
 70
    11
 71
     3
 72
    20
 73
    16
 74
     0
 42
0.0000000001
 43
0.0000000001
 12
1.0
 22
0.0
 32
0.0
 13
1.0
 23
0.0
 33
0.0
 40
0.0
 40
0.0
 40
0.0
 40
0.0
 40
0.2
 40
0.2
 40
0.2
 40
0.2
 40
0.4
 40
0.4
 40
0.4
 40
0.4
 40
0.6
 40
0.6
 40
0.6
 40
0.6
 40
1.0
 40
1.0
 40
1.0
 40
1.0
 10
21.84604
 20
-4.70769
 30
0.0
 10
21.79771
 20
-4.62399
 30
0.0
 10
21.82639
 20
-4.51696
 30
0.0
 10
21.9101
 20
-4.46864
 30
0.0
 10
21.9101
 20
-4.46864
 30
0.0
 10
21.9938
 20
-4.42031
 30
0.0
 10
22.10082
 20
-4.44899
 30
0.0
 10
22.14915
 20
-4.53269
 30
0.0
 10
22.14915
 20
-4.53269
 30
0.0
 10
22.19748
 20
-4.61639
 30
0.0
 10
22.1688
 20
-4.72342
 30
0.0
 10
22.0851
 20
-4.77174
 30
0.0
 10
22.0851
 20
-4.77174
 30
0.0
 10
22.00139
 20
-4.82007
 30
0.0
 10
21.89437
 20
-4.79139
 30
0.0
 10
21.84604
 20
-4.70769
 30
0.0
  0
SPLINE
  5
70
330
1F
100
AcDbEntity
  8
Layer 1
370
    53
100
AcDbSpline
210
0.0
220
0.0
230
1.0
 70
    11
 71
     3
 72
    20
 73
    16
 74
     0
 42
0.0000000001
 43
0.0000000001
 12
1.0
 22
0.0
 32
0.0
 13
1.0
 23
0.0
 33
0.0
 40
0.0
 40
0.0
 40
0.0
 40
0.0
 40
0.2
 40
0.2
 40
0.2
 40
0.2
 40
0.4
 40
0.4
 40
0.4
 40
0.4
 40
0.6
 40
0.6
 40
0.6
 40
0.6
 40
1.0
 40
1.0
 40
1.0
 40
1.0
 10
20.47345
 20
-9.83029
 30
0.0
 10
20.42512
 20
-9.74658
 30
0.0
 10
20.4538
 20
-9.63956
 30
0.0
 10
20.5375
 20
-9.59123
 30
0.0
 10
20.5375
 20
-9.59123
 30
0.0
 10
20.6212
 20
-9.54291
 30
0.0
 10
20.72823
 20
-9.57158
 30
0.0
 10
20.77655
 20
-9.65529
 30
0.0
 10
20.77655
 20
-9.65529
 30
0.0
 10
20.82488
 20
-9.73899
 30
0.0
 10
20.7962
 20
-9.84601
 30
0.0
 10
20.7125
 20
-9.89434
 30
0.0
 10
20.7125
 20
-9.89434
 30
0.0
 10
20.6288
 20
-9.94267
 30
0.0
 10
20.52177
 20
-9.91399
 30
0.0
 10
20.47345
 20
-9.83029
 30
0.0
  0
SPLINE
  5
71
330
1F
100
AcDbEntity
  8
Layer 1
 62
     4
370
    53
100
AcDbSpline
210
0.0
220
0.0
230
1.0
 70
    11
 71
     3
 72
    20
 73
    16
 74
     0
 42
0.0000000001
 43
0.0000000001
 12
1.0
 22
0.0
 32
0.0
 13
1.0
 23
0.0
 33
0.0
 40
0.0
 40
0.0
 40
0.0
 40
0.0
 40
0.2
 40
0.2
 40
0.2
 40
0.2
 40
0.4
 40
0.4
 40
0.4
 40
0.4
 40
0.6
 40
0.6
 40
0.6
 40
0.6
 40
1.0
 40
1.0
 40
1.0
 40
1.0
 10
23.08013
 20
3.99519
 30
0.0
 10
21.69941
 20
1.60373
 30
0.0
 10
18.64147
 20
0.78435
 30
0.0
 10
16.25
 20
2.16506
 30
0.0
 10
16.25
 20
2.16506
 30
0.0
 10
13.85853
 20
3.54578
 30
0.0
 10
13.03916
 20
6.60373
 30
0.0
 10
14.41987
 20
8.99519
 30
0.0
 10
14.41987
 20
8.99519
 30
0.0
 10
15.80059
 20
11.38666
 30
0.0
 10
18.85853
 20
12.20603
 30
0.0
 10
21.25
 20
10.82532
 30
0.0
 10
21.25
 20
10.82532
 30
0.0
 10
23.64147
 20
9.4446
 30
0.0
 10
24.46084
 20
6.38666
 30
0.0
 10
23.08013
 20
3.99519
 30
0.0
  0
SPLINE
  5
72
330
1F
100
AcDbEntity
  8
Layer 1
 62
     4
370
    53
100
AcDbSpline
210
0.0
220
0.0
230
1.0
 70
    11
 71
     3
 72
    20
 73
    16
 74
     0
 42
0.0000000001
 43
0.0000000001
 12
1.0
 22
0.0
 32
0.0
 13
1.0
 23
0.0
 33
0.0
 40
0.0
 40
0.0
 40
0.0
 40
0.0
 40
0.2
 40
0.2
 40
0.2
 40
0.2
 40
0.4
 40
0.4
 40
0.4
 40
0.4
 40
0.6
 40
0.6
 40
0.6
 40
0.6
 40
1.0
 40
1.0
 40
1.0
 40
1.0
 10
18.10048
 20
6.87019
 30
0.0
 10
18.30759
 20
7.22892
 30
0.0
 10
18.76627
 20
7.35182
 30
0.0
 10
19.125
 20
7.14471
 30
0.0
 10
19.125
 20
7.14471
 30
0.0
 10
19.48373
 20
6.9376
 30
0.0
 10
19.60663
 20
6.47892
 30
0.0
 10
19.39952
 20
6.12019
 30
0.0
 10
19.39952
 20
6.12019
 30
0.0
 10
19.19241
 20
5.76146
 30
0.0
 10
18.73373
 20
5.63856
 30
0.0
 10
18.375
 20
5.84567
 30
0.0
 10
18.375
 20
5.84567
 30
0.0
 10
18.01627
 20
6.05278
 30
0.0
 10
17.89337
 20
6.51146
 30
0.0
 10
18.10048
 20
6.87019
 30
0.0
  0
SPLINE
  5
73
330
1F
100
AcDbEntity
  8
Layer 1
 62
     4
370
    53
100
AcDbSpline
210
0.0
220
0.0
230
1.0
 70
    11
 71
     3
 72
    20
 73
    16
 74
     0
 42
0.0000000001
 43
0.0000000001
 12
1.0
 22
0.0
 32
0.0
 13
1.0
 23
0.0
 33
0.0
 40
0.0
 40
0.0
 40
0.0
 40
0.0
 40
0.2
 40
0.2
 40
0.2
 40
0.2
 40
0.4
 40
0.4
 40
0.4
 40
0.4
 40
0.6
 40
0.6
 40
0.6
 40
0.6
 40
1.0
 40
1.0
 40
1.0
 40
1.0
 10
16.27417
 20
4.80692
 30
0.0
 10
16.27417
 20
4.80692
 30
0.0
 10
18.97417
 20
9.48346
 30
0.0
 10
18.97417
 20
9.48346
 30
0.0
 10
18.97417
 20
9.48346
 30
0.0
 10
18.97417
 20
9.48346
 30
0.0
 10
21.22584
 20
8.18346
 30
0.0
 10
21.22584
 20
8.18346
 30
0.0
 10
21.22584
 20
8.18346
 30
0.0
 10
21.22584
 20
8.18346
 30
0.0
 10
18.52584
 20
3.50692
 30
0.0
 10
18.52584
 20
3.50692
 30
0.0
 10
18.52584
 20
3.50692
 30
0.0
 10
18.52584
 20
3.50692
 30
0.0
 10
16.27417
 20
4.80692
 30
0.0
 10
16.27417
 20
4.80692
 30
0.0
  0
SPLINE
  5
74
330
1F
100
AcDbEntity
  8
Layer 1
 62
     4
370
    53
100
AcDbSpline
210
0.0
220
0.0
230
1.0
 70
    11
 71
     3
 72
    20
 73
    16
 74
     0
 42
0.0000000001
 43
0.0000000001
 12
1.0
 22
0.0
 32
0.0
 13
1.0
 23
0.0
 33
0.0
 40
0.0
 40
0.0
 40
0.0
 40
0.0
 40
0.2
 40
0.2
 40
0.2
 40
0.2
 40
0.4
 40
0.4
 40
0.4
 40
0.4
 40
0.6
 40
0.6
 40
0.6
 40
0.6
 40
1.0
 40
1.0
 40
1.0
 40
1.0
 10
18.7513
 20
8.45743
 30
0.0
 10
18.85623
 20
8.63918
 30
0.0
 10
19.08864
 20
8.70146
 30
0.0
 10
19.27038
 20
8.59652
 30
0.0
 10
19.27038
 20
8.59652
 30
0.0
 10
19.45213
 20
8.49159
 30
0.0
 10
19.51441
 20
8.25918
 30
0.0
 10
19.40947
 20
8.07743
 30
0.0
 10
19.40947
 20
8.07743
 30
0.0
 10
19.30454
 20
7.89568
 30
0.0
 10
19.07213
 20
7.83341
 30
0.0
 10
18.89038
 20
7.93834
 30
0.0
 10
18.89038
 20
7.93834
 30
0.0
 10
18.70864
 20
8.04328
 30
0.0
 10
18.64636
 20
8.27568
 30
0.0
 10
18.7513
 20
8.45743
 30
0.0
  0
SPLINE
  5
75
330
1F
100
AcDbEntity
  8
Layer 1
 62
     4
370
    53
100
AcDbSpline
210
0.0
220
0.0
230
1.0
 70
    11
 71
     3
 72
    20
 73
    16
 74
     0
 42
0.0000000001
 43
0.0000000001
 12
1.0
 22
0.0
 32
0.0
 13
1.0
 23
0.0
 33
0.0
 40
0.0
 40
0.0
 40
0.0
 40
0.0
 40
0.2
 40
0.2
 40
0.2
 40
0.2
 40
0.4
 40
0.4
 40
0.4
 40
0.4
 40
0.6
 40
0.6
 40
0.6
 40
0.6
 40
1.0
 40
1.0
 40
1.0
 40
1.0
 10
19.79053
 20
7.85743
 30
0.0
 10
19.89546
 20
8.03918
 30
0.0
 10
20.12787
 20
8.10146
 30
0.0
 10
20.30962
 20
7.99652
 30
0.0
 10
20.30962
 20
7.99652
 30
0.0
 10
20.49136
 20
7.89159
 30
0.0
 10
20.55364
 20
7.65918
 30
0.0
 10
20.4487
 20
7.47743
 30
0.0
 10
20.4487
 20
7.47743
 30
0.0
 10
20.34377
 20
7.29568
 30
0.0
 10
20.11136
 20
7.23341
 30
0.0
 10
19.92962
 20
7.33834
 30
0.0
 10
19.92962
 20
7.33834
 30
0.0
 10
19.74787
 20
7.44328
 30
0.0
 10
19.68559
 20
7.67568
 30
0.0
 10
19.79053
 20
7.85743
 30
0.0
  0
SPLINE
  5
76
330
1F
100
AcDbEntity
  8
Layer 1
 62
     4
370
    53
100
AcDbSpline
210
0.0
220
0.0
230
1.0
 70
    11
 71
     3
 72
    20
 73
    16
 74
     0
 42
0.0000000001
 43
0.0000000001
 12
1.0
 22
0.0
 32
0.0
 13
1.0
 23
0.0
 33
0.0
 40
0.0
 40
0.0
 40
0.0
 40
0.0
 40
0.2
 40
0.2
 40
0.2
 40
0.2
 40
0.4
 40
0.4
 40
0.4
 40
0.4
 40
0.6
 40
0.6
 40
0.6
 40
0.6
 40
1.0
 40
1.0
 40
1.0
 40
1.0
 10
16.62058
 20
4.60692
 30
0.0
 10
16.62058
 20
4.60692
 30
0.0
 10
17.77058
 20
6.59878
 30
0.0
 10
17.77058
 20
6.59878
 30
0.0
 10
17.77058
 20
6.59878
 30
0.0
 10
17.77058
 20
6.59878
 30
0.0
 10
19.32943
 20
5.69878
 30
0.0
 10
19.32943
 20
5.69878
 30
0.0
 10
19.32943
 20
5.69878
 30
0.0
 10
19.32943
 20
5.69878
 30
0.0
 10
18.17943
 20
3.70692
 30
0.0
 10
18.17943
 20
3.70692
 30
0.0
 10
18.17943
 20
3.70692
 30
0.0
 10
18.17943
 20
3.70692
 30
0.0
 10
16.62058
 20
4.60692
 30
0.0
 10
16.62058
 20
4.60692
 30
0.0
  0
SPLINE
  5
77
330
1F
100
AcDbEntity
  8
Layer 1
370
    53
100
AcDbSpline
210
0.0
220
0.0
230
1.0
 70
    11
 71
     3
 72
    20
 73
    16
 74
     0
 42
0.0000000001
 43
0.0000000001
 12
1.0
 22
0.0
 32
0.0
 13
1.0
 23
0.0
 33
0.0
 40
0.0
 40
0.0
 40
0.0
 40
0.0
 40
0.2
 40
0.2
 40
0.2
 40
0.2
 40
0.4
 40
0.4
 40
0.4
 40
0.4
 40
0.6
 40
0.6
 40
0.6
 40
0.6
 40
1.0
 40
1.0
 40
1.0
 40
1.0
 10
18.7513
 20
8.45743
 30
0.0
 10
18.85623
 20
8.63918
 30
0.0
 10
19.08864
 20
8.70146
 30
0.0
 10
19.27038
 20
8.59652
 30
0.0
 10
19.27038
 20
8.59652
 30
0.0
 10
19.45213
 20
8.49159
 30
0.0
 10
19.51441
 20
8.25918
 30
0.0
 10
19.40947
 20
8.07743
 30
0.0
 10
19.40947
 20
8.07743
 30
0.0
 10
19.30454
 20
7.89568
 30
0.0
 10
19.07213
 20
7.83341
 30
0.0
 10
18.89038
 20
7.93834
 30
0.0
 10
18.89038
 20
7.93834
 30
0.0
 10
18.70864
 20
8.04328
 30
0.0
 10
18.64636
 20
8.27568
 30
0.0
 10
18.7513
 20
8.45743
 30
0.0
  0
SPLINE
  5
78
330
1F
100
AcDbEntity
  8
Layer 1
370
    53
100
AcDbSpline
210
0.0
220
0.0
230
1.0
 70
    11
 71
     3
 72
    20
 73
    16
 74
     0
 42
0.0000000001
 43
0.0000000001
 12
1.0
 22
0.0
 32
0.0
 13
1.0
 23
0.0
 33
0.0
 40
0.0
 40
0.0
 40
0.0
 40
0.0
 40
0.2
 40
0.2
 40
0.2
 40
0.2
 40
0.4
 40
0.4
 40
0.4
 40
0.4
 40
0.6
 40
0.6
 40
0.6
 40
0.6
 40
1.0
 40
1.0
 40
1.0
 40
1.0
 10
19.79053
 20
7.85743
 30
0.0
 10
19.89546
 20
8.03918
 30
0.0
 10
20.12787
 20
8.10146
 30
0.0
 10
20.30962
 20
7.99652
 30
0.0
 10
20.30962
 20
7.99652
 30
0.0
 10
20.49136
 20
7.89159
 30
0.0
 10
20.55364
 20
7.65918
 30
0.0
 10
20.4487
 20
7.47743
 30
0.0
 10
20.4487
 20
7.47743
 30
0.0
 10
20.34377
 20
7.29568
 30
0.0
 10
20.11136
 20
7.23341
 30
0.0
 10
19.92962
 20
7.33834
 30
0.0
 10
19.92962
 20
7.33834
 30
0.0
 10
19.74787
 20
7.44328
 30
0.0
 10
19.68559
 20
7.67568
 30
0.0
 10
19.79053
 20
7.85743
 30
0.0
  0
SPLINE
  5
79
330
1F
100
AcDbEntity
  8
Layer 1
370
    53
100
AcDbSpline
210
0.0
220
0.0
230
1.0
 70
    11
 71
     3
 72
    20
 73
    16
 74
     0
 42
0.0000000001
 43
0.0000000001
 12
1.0
 22
0.0
 32
0.0
 13
1.0
 23
0.0
 33
0.0
 40
0.0
 40
0.0
 40
0.0
 40
0.0
 40
0.2
 40
0.2
 40
0.2
 40
0.2
 40
0.4
 40
0.4
 40
0.4
 40
0.4
 40
0.6
 40
0.6
 40
0.6
 40
0.6
 40
1.0
 40
1.0
 40
1.0
 40
1.0
 10
22.14915
 20
4.53269
 30
0.0
 10
22.10082
 20
4.44899
 30
0.0
 10
21.9938
 20
4.42031
 30
0.0
 10
21.9101
 20
4.46864
 30
0.0
 10
21.9101
 20
4.46864
 30
0.0
 10
21.82639
 20
4.51696
 30
0.0
 10
21.79771
 20
4.62399
 30
0.0
 10
21.84604
 20
4.70769
 30
0.0
 10
21.84604
 20
4.70769
 30
0.0
 10
21.89437
 20
4.79139
 30
0.0
 10
22.00139
 20
4.82007
 30
0.0
 10
22.0851
 20
4.77174
 30
0.0
 10
22.0851
 20
4.77174
 30
0.0
 10
22.1688
 20
4.72342
 30
0.0
 10
22.19748
 20
4.61639
 30
0.0
 10
22.14915
 20
4.53269
 30
0.0
  0
SPLINE
  5
7A
330
1F
100
AcDbEntity
  8
Layer 1
370
    53
100
AcDbSpline
210
0.0
220
0.0
230
1.0
 70
    11
 71
     3
 72
    20
 73
    16
 74
     0
 42
0.0000000001
 43
0.0000000001
 12
1.0
 22
0.0
 32
0.0
 13
1.0
 23
0.0
 33
0.0
 40
0.0
 40
0.0
 40
0.0
 40
0.0
 40
0.2
 40
0.2
 40
0.2
 40
0.2
 40
0.4
 40
0.4
 40
0.4
 40
0.4
 40
0.6
 40
0.6
 40
0.6
 40
0.6
 40
1.0
 40
1.0
 40
1.0
 40
1.0
 10
15.65396
 20
8.28269
 30
0.0
 10
15.60563
 20
8.19899
 30
0.0
 10
15.49861
 20
8.17031
 30
0.0
 10
15.4149
 20
8.21864
 30
0.0
 10
15.4149
 20
8.21864
 30
0.0
 10
15.3312
 20
8.26696
 30
0.0
 10
15.30252
 20
8.37399
 30
0.0
 10
15.35085
 20
8.45769
 30
0.0
 10
15.35085
 20
8.45769
 30
0.0
 10
15.39918
 20
8.54139
 30
0.0
 10
15.5062
 20
8.57007
 30
0.0
 10
15.5899
 20
8.52174
 30
0.0
 10
15.5899
 20
8.52174
 30
0.0
 10
15.67361
 20
8.47342
 30
0.0
 10
15.70229
 20
8.36639
 30
0.0
 10
15.65396
 20
8.28269
 30
0.0
  0
SPLINE
  5
7B
330
1F
100
AcDbEntity
  8
Layer 1
370
    53
100
AcDbSpline
210
0.0
220
0.0
230
1.0
 70
    11
 71
     3
 72
    20
 73
    16
 74
     0
 42
0.0000000001
 43
0.0000000001
 12
1.0
 22
0.0
 32
0.0
 13
1.0
 23
0.0
 33
0.0
 40
0.0
 40
0.0
 40
0.0
 40
0.0
 40
0.2
 40
0.2
 40
0.2
 40
0.2
 40
0.4
 40
0.4
 40
0.4
 40
0.4
 40
0.6
 40
0.6
 40
0.6
 40
0.6
 40
1.0
 40
1.0
 40
1.0
 40
1.0
 10
20.77655
 20
9.65529
 30
0.0
 10
20.72823
 20
9.57158
 30
0.0
 10
20.6212
 20
9.54291
 30
0.0
 10
20.5375
 20
9.59123
 30
0.0
 10
20.5375
 20
9.59123
 30
0.0
 10
20.4538
 20
9.63956
 30
0.0
 10
20.42512
 20
9.74658
 30
0.0
 10
20.47345
 20
9.83029
 30
0.0
 10
20.47345
 20
9.83029
 30
0.0
 10
20.52177
 20
9.91399
 30
0.0
 10
20.6288
 20
9.94267
 30
0.0
 10
20.7125
 20
9.89434
 30
0.0
 10
20.7125
 20
9.89434
 30
0.0
 10
20.7962
 20
9.84601
 30
0.0
 10
20.82488
 20
9.73899
 30
0.0
 10
20.77655
 20
9.65529
 30
0.0
  0
SPLINE
  5
7C
330
1F
100
AcDbEntity
  8
Layer 1
370
    53
100
AcDbSpline
210
0.0
220
0.0
230
1.0
 70
    11
 71
     3
 72
    28
 73
    24
 74
     0
 42
0.0000000001
 43
0.0000000001
 12
1.0
 22
0.0
 32
0.0
 13
1.0
 23
0.0
 33
0.0
 40
0.0
 40
0.0
 40
0.0
 40
0.0
 40
0.1428571428571428
 40
0.1428571428571428
 40
0.1428571428571428
 40
0.1428571428571428
 40
0.2857142857142857
 40
0.2857142857142857
 40
0.2857142857142857
 40
0.2857142857142857
 40
0.4285714285714285
 40
0.4285714285714285
 40
0.4285714285714285
 40
0.4285714285714285
 40
0.5714285714285714
 40
0.5714285714285714
 40
0.5714285714285714
 40
0.5714285714285714
 40
0.7142857142857143
 40
0.7142857142857143
 40
0.7142857142857143
 40
0.7142857142857143
 40
1.0
 40
1.0
 40
1.0
 40
1.0
 10
8.75
 20
1.875
 30
0.0
 10
8.75
 20
1.875
 30
0.0
 10
8.75
 20
0.0
 30
0.0
 10
8.75
 20
0.0
 30
0.0
 10
8.75
 20
0.0
 30
0.0
 10
8.75
 20
-0.69037
 30
0.0
 10
8.19037
 20
-1.25
 30
0.0
 10
7.5
 20
-1.25
 30
0.0
 10
7.5
 20
-1.25
 30
0.0
 10
6.80963
 20
-1.25
 30
0.0
 10
6.25
 20
-0.69037
 30
0.0
 10
6.25
 20
0.0
 30
0.0
 10
6.25
 20
0.0
 30
0.0
 10
6.25
 20
0.0
 30
0.0
 10
6.25
 20
1.875
 30
0.0
 10
6.25
 20
1.875
 30
0.0
 10
6.25
 20
1.875
 30
0.0
 10
6.25
 20
2.56537
 30
0.0
 10
6.80963
 20
3.125
 30
0.0
 10
7.5
 20
3.125
 30
0.0
 10
7.5
 20
3.125
 30
0.0
 10
8.19037
 20
3.125
 30
0.0
 10
8.75
 20
2.56537
 30
0.0
 10
8.75
 20
1.875
 30
0.0
  0
SPLINE
  5
7D
330
1F
100
AcDbEntity
  8
Layer 1
370
    53
100
AcDbSpline
210
0.0
220
0.0
230
1.0
 70
    11
 71
     3
 72
    28
 73
    24
 74
     0
 42
0.0000000001
 43
0.0000000001
 12
1.0
 22
0.0
 32
0.0
 13
1.0
 23
0.0
 33
0.0
 40
0.0
 40
0.0
 40
0.0
 40
0.0
 40
0.1428571428571428
 40
0.1428571428571428
 40
0.1428571428571428
 40
0.1428571428571428
 40
0.2857142857142857
 40
0.2857142857142857
 40
0.2857142857142857
 40
0.2857142857142857
 40
0.4285714285714285
 40
0.4285714285714285
 40
0.4285714285714285
 40
0.4285714285714285
 40
0.5714285714285714
 40
0.5714285714285714
 40
0.5714285714285714
 40
0.5714285714285714
 40
0.7142857142857143
 40
0.7142857142857143
 40
0.7142857142857143
 40
0.7142857142857143
 40
1.0
 40
1.0
 40
1.0
 40
1.0
 10
16.5012
 20
-6.35016
 30
0.0
 10
16.5012
 20
-6.35016
 30
0.0
 10
18.125
 20
-5.41266
 30
0.0
 10
18.125
 20
-5.41266
 30
0.0
 10
18.125
 20
-5.41266
 30
0.0
 10
18.72288
 20
-5.06747
 30
0.0
 10
19.48735
 20
-5.27231
 30
0.0
 10
19.83253
 20
-5.87019
 30
0.0
 10
19.83253
 20
-5.87019
 30
0.0
 10
20.17772
 20
-6.46807
 30
0.0
 10
19.97288
 20
-7.23254
 30
0.0
 10
19.375
 20
-7.57772
 30
0.0
 10
19.375
 20
-7.57772
 30
0.0
 10
19.375
 20
-7.57772
 30
0.0
 10
17.7512
 20
-8.51522
 30
0.0
 10
17.7512
 20
-8.51522
 30
0.0
 10
17.7512
 20
-8.51522
 30
0.0
 10
17.15332
 20
-8.86041
 30
0.0
 10
16.38886
 20
-8.65557
 30
0.0
 10
16.04367
 20
-8.05769
 30
0.0
 10
16.04367
 20
-8.05769
 30
0.0
 10
15.69849
 20
-7.45981
 30
0.0
 10
15.90332
 20
-6.69534
 30
0.0
 10
16.5012
 20
-6.35016
 30
0.0
  0
SPLINE
  5
7E
330
1F
100
AcDbEntity
  8
Layer 1
370
    53
100
AcDbSpline
210
0.0
220
0.0
230
1.0
 70
    11
 71
     3
 72
    28
 73
    24
 74
     0
 42
0.0000000001
 43
0.0000000001
 12
1.0
 22
0.0
 32
0.0
 13
1.0
 23
0.0
 33
0.0
 40
0.0
 40
0.0
 40
0.0
 40
0.0
 40
0.1428571428571428
 40
0.1428571428571428
 40
0.1428571428571428
 40
0.1428571428571428
 40
0.2857142857142857
 40
0.2857142857142857
 40
0.2857142857142857
 40
0.2857142857142857
 40
0.4285714285714285
 40
0.4285714285714285
 40
0.4285714285714285
 40
0.4285714285714285
 40
0.5714285714285714
 40
0.5714285714285714
 40
0.5714285714285714
 40
0.5714285714285714
 40
0.7142857142857143
 40
0.7142857142857143
 40
0.7142857142857143
 40
0.7142857142857143
 40
1.0
 40
1.0
 40
1.0
 40
1.0
 10
19.7488
 20
4.47516
 30
0.0
 10
19.7488
 20
4.47516
 30
0.0
 10
18.125
 20
5.41266
 30
0.0
 10
18.125
 20
5.41266
 30
0.0
 10
18.125
 20
5.41266
 30
0.0
 10
17.52712
 20
5.75784
 30
0.0
 10
17.32228
 20
6.52231
 30
0.0
 10
17.66747
 20
7.12019
 30
0.0
 10
17.66747
 20
7.12019
 30
0.0
 10
18.01265
 20
7.71807
 30
0.0
 10
18.77712
 20
7.92291
 30
0.0
 10
19.375
 20
7.57772
 30
0.0
 10
19.375
 20
7.57772
 30
0.0
 10
19.375
 20
7.57772
 30
0.0
 10
20.9988
 20
6.64022
 30
0.0
 10
20.9988
 20
6.64022
 30
0.0
 10
20.9988
 20
6.64022
 30
0.0
 10
21.59668
 20
6.29504
 30
0.0
 10
21.80151
 20
5.53057
 30
0.0
 10
21.45633
 20
4.93269
 30
0.0
 10
21.45633
 20
4.93269
 30
0.0
 10
21.11114
 20
4.33481
 30
0.0
 10
20.34668
 20
4.12997
 30
0.0
 10
19.7488
 20
4.47516
 30
0.0
  0
ENDSEC
  0
SECTION
  2
OBJECTS
  0
DICTIONARY
  5
C
330
0
100
AcDbDictionary
281
     1
  3
ACAD_GROUP
350
D
  3
ACAD_LAYOUT
350
1A
  3
ACAD_MATERIAL
350
3B
  3
ACAD_MLEADERSTYLE
350
A0
  3
ACAD_MLINESTYLE
350
17
  3
ACAD_PLOTSETTINGS
350
19
  3
ACAD_PLOTSTYLENAME
350
E
  3
ACAD_TABLESTYLE
350
9F
  3
ACAD_VISUALSTYLE
350
2A
  0
DICTIONARY
  5
D
102
{ACAD_REACTORS
330
C
102
}
330
C
100
AcDbDictionary
281
     1
  0
DICTIONARY
  5
1A
102
{ACAD_REACTORS
330
C
102
}
330
C
100
AcDbDictionary
281
     1
  3
Layout1
350
1E
  3
Layout2
350
26
  3
Model
350
22
  0
DICTIONARY
  5
3B
102
{ACAD_REACTORS
330
C
102
}
330
C
100
AcDbDictionary
281
     1
  3
ByBlock
350
3D
  3
ByLayer
350
3C
  3
Global
350
3E
  0
DICTIONARY
  5
A0
102
{ACAD_REACTORS
330
C
102
}
330
C
100
AcDbDictionary
281
     1
  0
DICTIONARY
  5
17
102
{ACAD_REACTORS
330
C
102
}
330
C
100
AcDbDictionary
281
     1
  3
Standard
350
18
  0
DICTIONARY
  5
19
102
{ACAD_REACTORS
330
C
102
}
330
C
100
AcDbDictionary
281
     1
  0
ACDBDICTIONARYWDFLT
  5
E
102
{ACAD_REACTORS
330
C
102
}
330
C
100
AcDbDictionary
281
     1
  3
Normal
350
F
100
AcDbDictionaryWithDefault
340
F
  0
DICTIONARY
  5
9F
102
{ACAD_REACTORS
330
C
102
}
330
C
100
AcDbDictionary
281
     1
  0
DICTIONARY
  5
2A
102
{ACAD_REACTORS
330
C
102
}
330
C
100
AcDbDictionary
281
     1
  3
2dWireframe
350
2F
  3
3D Hidden
350
31
  3
3dWireframe
350
30
  3
Basic
350
32
  3
Brighten
350
36
  3
ColorChange
350
3A
  3
Conceptual
350
34
  3
Dim
350
35
  3
Facepattern
350
39
  3
Flat
350
2B
  3
FlatWithEdges
350
2C
  3
Gouraud
350
2D
  3
GouraudWithEdges
350
2E
  3
Linepattern
350
38
  3
Realistic
350
33
  3
Thicken
350
37
  0
LAYOUT
  5
1E
102
{ACAD_REACTORS
330
1A
102
}
330
1A
100
AcDbPlotSettings
  1

  2
none_device
  4

  6

 40
0.0
 41
0.0
 42
0.0
 43
0.0
 44
0.0
 45
0.0
 46
0.0
 47
0.0
 48
0.0
 49
0.0
140
0.0
141
0.0
142
1.0
143
1.0
 70
   688
 72
     0
 73
     0
 74
     5
  7

 75
    16
 76
     0
 77
     2
 78
   300
147
1.0
148
0.0
149
0.0
100
AcDbLayout
  1
Layout1
 70
     1
 71
     1
 10
0.0
 20
0.0
 11
12.0
 21
9.0
 12
0.0
 22
0.0
 32
0.0
 14
1.000000000000000E+20
 24
1.000000000000000E+20
 34
1.000000000000000E+20
 15
-1.000000000000000E+20
 25
-1.000000000000000E+20
 35
-1.000000000000000E+20
146
0.0
 13
0.0
 23
0.0
 33
0.0
 16
1.0
 26
0.0
 36
0.0
 17
0.0
 27
1.0
 37
0.0
 76
     0
330
1B
  0
LAYOUT
  5
26
102
{ACAD_REACTORS
330
1A
102
}
330
1A
100
AcDbPlotSettings
  1

  2
none_device
  4

  6

 40
0.0
 41
0.0
 42
0.0
 43
0.0
 44
0.0
 45
0.0
 46
0.0
 47
0.0
 48
0.0
 49
0.0
140
0.0
141
0.0
142
1.0
143
1.0
 70
   688
 72
     0
 73
     0
 74
     5
  7

 75
    16
 76
     0
 77
     2
 78
   300
147
1.0
148
0.0
149
0.0
100
AcDbLayout
  1
Layout2
 70
     1
 71
     2
 10
0.0
 20
0.0
 11
0.0
 21
0.0
 12
0.0
 22
0.0
 32
0.0
 14
0.0
 24
0.0
 34
0.0
 15
0.0
 25
0.0
 35
0.0
146
0.0
 13
0.0
 23
0.0
 33
0.0
 16
1.0
 26
0.0
 36
0.0
 17
0.0
 27
1.0
 37
0.0
 76
     0
330
23
  0
LAYOUT
  5
22
102
{ACAD_REACTORS
330
1A
102
}
330
1A
100
AcDbPlotSettings
  1

  2
none_device
  4

  6

 40
0.0
 41
0.0
 42
0.0
 43
0.0
 44
0.0
 45
0.0
 46
0.0
 47
0.0
 48
0.0
 49
0.0
140
0.0
141
0.0
142
1.0
143
1.0
 70
  1712
 72
     0
 73
     0
 74
     0
  7

 75
     0
 76
     0
 77
     2
 78
   300
147
1.0
148
0.0
149
0.0
100
AcDbLayout
  1
Model
 70
     1
 71
     0
 10
0.0
 20
0.0
 11
12.0
 21
9.0
 12
0.0
 22
0.0
 32
0.0
 14
-28.77646
 24
-13.77646
 34
0.0
 15
28.77645
 25
13.77645
 35
0.0
146
0.0
 13
0.0
 23
0.0
 33
0.0
 16
1.0
 26
0.0
 36
0.0
 17
0.0
 27
1.0
 37
0.0
 76
     0
330
1F
331
29
  0
MATERIAL
  5
3D
102
{ACAD_REACTORS
330
3B
102
}
330
3B
100
AcDbMaterial
  1
ByBlock
 72
     1
 94
      127
  0
MATERIAL
  5
3C
102
{ACAD_REACTORS
330
3B
102
}
330
3B
100
AcDbMaterial
  1
ByLayer
 72
     1
 94
      127
  0
MATERIAL
  5
3E
102
{ACAD_REACTORS
330
3B
102
}
330
3B
100
AcDbMaterial
  1
Global
 72
     1
 94
      127
  0
MLINESTYLE
  5
18
102
{ACAD_REACTORS
330
17
102
}
330
17
100
AcDbMlineStyle
  2
Standard
 70
     0
  3

 62
   256
 51
90.0
 52
90.0
 71
     2
 49
0.5
 62
   256
  6
BYLAYER
 49
-0.5
 62
   256
  6
BYLAYER
  0
ACDBPLACEHOLDER
  5
F
102
{ACAD_REACTORS
330
E
102
}
330
E
  0
VISUALSTYLE
  5
2F
102
{ACAD_REACTORS
330
2A
102
}
102
{ACAD_XDICTIONARY
360
87
102
}
330
2A
100
AcDbVisualStyle
  2
2dWireframe
 70
     4
 71
     0
 72
     2
 73
     0
 90
        0
 40
-0.6
 41
-30.0
 62
     5
 63
     7
421
 16777215
 74
     1
 91
        4
 64
     7
 65
   257
 75
     1
175
     1
 42
1.0
 92
        0
 66
   257
 43
1.0
 76
     1
 77
     6
 78
     2
 67
     7
 79
     5
170
     0
171
     0
290
     0
174
     0
 93
        1
 44
0.0
173
     0
291
     0
 45
0.0
  0
VISUALSTYLE
  5
31
102
{ACAD_REACTORS
330
2A
102
}
102
{ACAD_XDICTIONARY
360
8B
102
}
330
2A
100
AcDbVisualStyle
  2
3D Hidden
 70
     6
 71
     1
 72
     2
 73
     2
 90
        0
 40
-0.6
 41
-30.0
 62
     5
 63
     7
421
 16777215
 74
     2
 91
        2
 64
     7
 65
   257
 75
     2
175
     1
 42
40.0
 92
        0
 66
   257
 43
1.0
 76
     1
 77
     6
 78
     2
 67
     7
 79
     3
170
     0
171
     0
290
     0
174
     0
 93
        1
 44
0.0
173
     0
291
     0
 45
0.0
  0
VISUALSTYLE
  5
30
102
{ACAD_REACTORS
330
2A
102
}
102
{ACAD_XDICTIONARY
360
89
102
}
330
2A
100
AcDbVisualStyle
  2
3dWireframe
 70
     5
 71
     0
 72
     2
 73
     0
 90
        0
 40
-0.6
 41
-30.0
 62
     5
 63
     7
421
 16777215
 74
     1
 91
        4
 64
     7
 65
   257
 75
     1
175
     1
 42
1.0
 92
        0
 66
   257
 43
1.0
 76
     1
 77
     6
 78
     2
 67
     7
 79
     5
170
     0
171
     0
290
     0
174
     0
 93
        1
 44
0.0
173
     0
291
     0
 45
0.0
  0
VISUALSTYLE
  5
32
102
{ACAD_REACTORS
330
2A
102
}
102
{ACAD_XDICTIONARY
360
8D
102
}
330
2A
100
AcDbVisualStyle
  2
Basic
 70
     7
 71
     1
 72
     0
 73
     1
 90
        0
 40
-0.6
 41
-30.0
 62
     5
 63
     7
421
 16777215
 74
     0
 91
        4
 64
     7
 65
   257
 75
     1
175
     1
 42
1.0
 92
        8
 66
     7
 43
1.0
 76
     1
 77
     6
 78
     2
 67
     7
 79
     5
170
     0
171
     0
290
     0
174
     0
 93
        1
 44
0.0
173
     0
291
     1
 45
0.0
  0
VISUALSTYLE
  5
36
102
{ACAD_REACTORS
330
2A
102
}
102
{ACAD_XDICTIONARY
360
95
102
}
330
2A
100
AcDbVisualStyle
  2
Brighten
 70
    12
 71
     2
 72
     2
 73
     0
 90
        0
 40
-0.6
 41
-30.0
 62
     5
 63
     7
421
 16777215
 74
     1
 91
        4
 64
     7
 65
   257
 75
     1
175
     1
 42
1.0
 92
        8
 66
     7
 43
1.0
 76
     1
 77
     6
 78
     2
 67
     7
 79
     5
170
     0
171
     0
290
     0
174
     0
 93
        1
 44
50.0
173
     0
291
     1
 45
0.0
  0
VISUALSTYLE
  5
3A
102
{ACAD_REACTORS
330
2A
102
}
102
{ACAD_XDICTIONARY
360
9D
102
}
330
2A
100
AcDbVisualStyle
  2
ColorChange
 70
    16
 71
     2
 72
     2
 73
     3
 90
        0
 40
-0.6
 41
-30.0
 62
     5
 63
     8
421
  8421504
 74
     1
 91
        4
 64
     7
 65
   257
 75
     1
175
     1
 42
1.0
 92
        8
 66
     8
424
  8421504
 43
1.0
 76
     1
 77
     6
 78
     2
 67
     7
 79
     5
170
     0
171
     0
290
     0
174
     0
 93
        1
 44
0.0
173
     0
291
     1
 45
0.0
  0
VISUALSTYLE
  5
34
102
{ACAD_REACTORS
330
2A
102
}
102
{ACAD_XDICTIONARY
360
91
102
}
330
2A
100
AcDbVisualStyle
  2
Conceptual
 70
     9
 71
     3
 72
     2
 73
     0
 90
        0
 40
-0.6
 41
-30.0
 62
     5
 63
     7
421
 16777215
 74
     2
 91
        2
 64
     7
 65
   257
 75
     1
175
     1
 42
40.0
 92
        8
 66
     7
 43
1.0
 76
     1
 77
     6
 78
     2
 67
     7
 79
     3
170
     0
171
     0
290
     0
174
     0
 93
        1
 44
0.0
173
     0
291
     0
 45
0.0
  0
VISUALSTYLE
  5
35
102
{ACAD_REACTORS
330
2A
102
}
102
{ACAD_XDICTIONARY
360
93
102
}
330
2A
100
AcDbVisualStyle
  2
Dim
 70
    11
 71
     2
 72
     2
 73
     0
 90
        0
 40
-0.6
 41
-30.0
 62
     5
 63
     7
421
 16777215
 74
     1
 91
        4
 64
     7
 65
   257
 75
     1
175
     1
 42
1.0
 92
        8
 66
     7
 43
1.0
 76
     1
 77
     6
 78
     2
 67
     7
 79
     5
170
     0
171
     0
290
     0
174
     0
 93
        1
 44
-50.0
173
     0
291
     1
 45
0.0
  0
VISUALSTYLE
  5
39
102
{ACAD_REACTORS
330
2A
102
}
102
{ACAD_XDICTIONARY
360
9B
102
}
330
2A
100
AcDbVisualStyle
  2
Facepattern
 70
    15
 71
     2
 72
     2
 73
     0
 90
        0
 40
-0.6
 41
-30.0
 62
     5
 63
     7
421
 16777215
 74
     1
 91
        4
 64
     7
 65
   257
 75
     1
175
     1
 42
1.0
 92
        8
 66
     7
 43
1.0
 76
     1
 77
     6
 78
     2
 67
     7
 79
     5
170
     0
171
     0
290
     0
174
     0
 93
        1
 44
0.0
173
     0
291
     1
 45
0.0
  0
VISUALSTYLE
  5
2B
102
{ACAD_REACTORS
330
2A
102
}
102
{ACAD_XDICTIONARY
360
7F
102
}
330
2A
100
AcDbVisualStyle
  2
Flat
 70
     0
 71
     2
 72
     1
 73
     1
 90
        2
 40
-0.6
 41
30.0
 62
     5
 63
     7
421
 16777215
 74
     0
 91
        4
 64
     7
 65
   257
 75
     1
175
     1
 42
1.0
 92
        8
 66
     7
 43
1.0
 76
     1
 77
     6
 78
     2
 67
     7
 79
     5
170
     0
171
     0
290
     0
174
     0
 93
       13
 44
0.0
173
     0
291
     1
 45
0.0
  0
VISUALSTYLE
  5
2C
102
{ACAD_REACTORS
330
2A
102
}
102
{ACAD_XDICTIONARY
360
81
102
}
330
2A
100
AcDbVisualStyle
  2
FlatWithEdges
 70
     1
 71
     2
 72
     1
 73
     1
 90
        2
 40
-0.6
 41
30.0
 62
     5
 63
     7
421
 16777215
 74
     1
 91
        4
 64
     7
 65
   257
 75
     1
175
     1
 42
1.0
 92
        0
 66
   257
 43
1.0
 76
     1
 77
     6
 78
     2
 67
     7
 79
     5
170
     0
171
     0
290
     0
174
     0
 93
       13
 44
0.0
173
     0
291
     1
 45
0.0
  0
VISUALSTYLE
  5
2D
102
{ACAD_REACTORS
330
2A
102
}
102
{ACAD_XDICTIONARY
360
83
102
}
330
2A
100
AcDbVisualStyle
  2
Gouraud
 70
     2
 71
     2
 72
     2
 73
     1
 90
        2
 40
-0.6
 41
30.0
 62
     5
 63
     7
421
 16777215
 74
     0
 91
        4
 64
     7
 65
   257
 75
     1
175
     1
 42
1.0
 92
        0
 66
     7
 43
1.0
 76
     1
 77
     6
 78
     2
 67
     7
 79
     5
170
     0
171
     0
290
     0
174
     0
 93
       13
 44
0.0
173
     0
291
     1
 45
0.0
  0
VISUALSTYLE
  5
2E
102
{ACAD_REACTORS
330
2A
102
}
102
{ACAD_XDICTIONARY
360
85
102
}
330
2A
100
AcDbVisualStyle
  2
GouraudWithEdges
 70
     3
 71
     2
 72
     2
 73
     1
 90
        2
 40
-0.6
 41
30.0
 62
     5
 63
     7
421
 16777215
 74
     1
 91
        4
 64
     7
 65
   257
 75
     1
175
     1
 42
1.0
 92
        0
 66
   257
 43
1.0
 76
     1
 77
     6
 78
     2
 67
     7
 79
     5
170
     0
171
     0
290
     0
174
     0
 93
       13
 44
0.0
173
     0
291
     1
 45
0.0
  0
VISUALSTYLE
  5
38
102
{ACAD_REACTORS
330
2A
102
}
102
{ACAD_XDICTIONARY
360
99
102
}
330
2A
100
AcDbVisualStyle
  2
Linepattern
 70
    14
 71
     2
 72
     2
 73
     0
 90
        0
 40
-0.6
 41
-30.0
 62
     5
 63
     7
421
 16777215
 74
     1
 91
        4
 64
     7
 65
   257
 75
     7
175
     7
 42
1.0
 92
        8
 66
     7
 43
1.0
 76
     1
 77
     6
 78
     2
 67
     7
 79
     5
170
     0
171
     0
290
     0
174
     0
 93
        1
 44
0.0
173
     0
291
     1
 45
0.0
  0
VISUALSTYLE
  5
33
102
{ACAD_REACTORS
330
2A
102
}
102
{ACAD_XDICTIONARY
360
8F
102
}
330
2A
100
AcDbVisualStyle
  2
Realistic
 70
     8
 71
     2
 72
     2
 73
     0
 90
        0
 40
-0.6
 41
-30.0
 62
     5
 63
     7
421
 16777215
 74
     1
 91
        0
 64
     7
 65
   257
 75
     1
175
     1
 42
1.0
 92
        8
 66
     8
424
  7895160
 43
1.0
 76
     1
 77
     6
 78
     2
 67
     7
 79
     5
170
     0
171
     0
290
     0
174
     0
 93
       13
 44
0.0
173
     0
291
     0
 45
0.0
  0
VISUALSTYLE
  5
37
102
{ACAD_REACTORS
330
2A
102
}
102
{ACAD_XDICTIONARY
360
97
102
}
330
2A
100
AcDbVisualStyle
  2
Thicken
 70
    13
 71
     2
 72
     2
 73
     0
 90
        0
 40
-0.6
 41
-30.0
 62
     5
 63
     7
421
 16777215
 74
     1
 91
        4
 64
     7
 65
   257
 75
     1
175
     1
 42
1.0
 92
       12
 66
     7
 43
1.0
 76
     1
 77
     6
 78
     2
 67
     7
 79
     5
170
     0
171
     0
290
     0
174
     0
 93
        1
 44
0.0
173
     0
291
     1
 45
0.0
  0
DICTIONARY
  5
87
330
2F
100
AcDbDictionary
280
     1
281
     1
  3
ACAD_XREC_ROUNDTRIP
360
88
  0
DICTIONARY
  5
8B
330
31
100
AcDbDictionary
280
     1
281
     1
  3
ACAD_XREC_ROUNDTRIP
360
8C
  0
DICTIONARY
  5
89
330
30
100
AcDbDictionary
280
     1
281
     1
  3
ACAD_XREC_ROUNDTRIP
360
8A
  0
DICTIONARY
  5
8D
330
32
100
AcDbDictionary
280
     1
281
     1
  3
ACAD_XREC_ROUNDTRIP
360
8E
  0
DICTIONARY
  5
95
330
36
100
AcDbDictionary
280
     1
281
     1
  3
ACAD_XREC_ROUNDTRIP
360
96
  0
DICTIONARY
  5
9D
330
3A
100
AcDbDictionary
280
     1
281
     1
  3
ACAD_XREC_ROUNDTRIP
360
9E
  0
DICTIONARY
  5
91
330
34
100
AcDbDictionary
280
     1
281
     1
  3
ACAD_XREC_ROUNDTRIP
360
92
  0
DICTIONARY
  5
93
330
35
100
AcDbDictionary
280
     1
281
     1
  3
ACAD_XREC_ROUNDTRIP
360
94
  0
DICTIONARY
  5
9B
330
39
100
AcDbDictionary
280
     1
281
     1
  3
ACAD_XREC_ROUNDTRIP
360
9C
  0
DICTIONARY
  5
7F
330
2B
100
AcDbDictionary
280
     1
281
     1
  3
ACAD_XREC_ROUNDTRIP
360
80
  0
DICTIONARY
  5
81
330
2C
100
AcDbDictionary
280
     1
281
     1
  3
ACAD_XREC_ROUNDTRIP
360
82
  0
DICTIONARY
  5
83
330
2D
100
AcDbDictionary
280
     1
281
     1
  3
ACAD_XREC_ROUNDTRIP
360
84
  0
DICTIONARY
  5
85
330
2E
100
AcDbDictionary
280
     1
281
     1
  3
ACAD_XREC_ROUNDTRIP
360
86
  0
DICTIONARY
  5
99
330
38
100
AcDbDictionary
280
     1
281
     1
  3
ACAD_XREC_ROUNDTRIP
360
9A
  0
DICTIONARY
  5
8F
330
33
100
AcDbDictionary
280
     1
281
     1
  3
ACAD_XREC_ROUNDTRIP
360
90
  0
DICTIONARY
  5
97
330
37
100
AcDbDictionary
280
     1
281
     1
  3
ACAD_XREC_ROUNDTRIP
360
98
  0
XRECORD
  5
88
102
{ACAD_REACTORS
330
87
102
}
330
87
100
AcDbXrecord
280
     1
102
RTVSPropertyOp0
 70
     1
102
RTVSPropertyOp1
 70
     1
102
RTVSPropertyOp2
 70
     1
102
RTVSPropertyOp3
 70
     1
102
RTVSPropertyOp4
 70
     1
102
RTVSPropertyOp5
 70
     1
102
RTVSPropertyOp6
 70
     1
102
RTVSPropertyOp7
 70
     1
102
RTVSPropertyOp8
 70
     1
102
RTVSPropertyOp9
 70
     1
102
RTVSPropertyOp10
 70
     1
102
RTVSPropertyOp11
 70
     1
102
RTVSPropertyOp12
 70
     1
102
RTVSPropertyOp13
 70
     1
102
RTVSPropertyOp14
 70
     1
102
RTVSPropertyOp15
 70
     1
102
RTVSPropertyOp16
 70
     1
102
RTVSPropertyOp17
 70
     1
102
RTVSPropertyOp18
 70
     1
102
RTVSPropertyOp19
 70
     1
102
RTVSPropertyOp20
 70
     1
102
RTVSPropertyOp21
 70
     1
102
RTVSPropertyOp22
 70
     1
102
RTVSPropertyOp23
 70
     1
102
RTVSPropertyOp24
 70
     1
102
RTVSPropertyOp25
 70
     1
102
RTVSPropertyOp26
 70
     1
102
RTVSPropertyOp27
 70
     1
102
RTVSPropertyOp28
 70
     1
102
RTVSPropertyOp29
 70
     1
102
RTVSPropertyOp30
 70
     1
102
RTVSPropertyOp31
 70
     1
102
RTVSPropertyOp32
 70
     1
  0
XRECORD
  5
8C
102
{ACAD_REACTORS
330
8B
102
}
330
8B
100
AcDbXrecord
280
     1
102
RTVSPropertyOp0
 70
     1
102
RTVSPropertyOp1
 70
     1
102
RTVSPropertyOp2
 70
     1
102
RTVSPropertyOp3
 70
     1
102
RTVSPropertyOp4
 70
     1
102
RTVSPropertyOp5
 70
     1
102
RTVSPropertyOp6
 70
     1
102
RTVSPropertyOp7
 70
     1
102
RTVSPropertyOp8
 70
     1
102
RTVSPropertyOp9
 70
     1
102
RTVSPropertyOp10
 70
     1
102
RTVSPropertyOp11
 70
     1
102
RTVSPropertyOp12
 70
     1
102
RTVSPropertyOp13
 70
     1
102
RTVSPropertyOp14
 70
     1
102
RTVSPropertyOp15
 70
     1
102
RTVSPropertyOp16
 70
     1
102
RTVSPropertyOp17
 70
     1
102
RTVSPropertyOp18
 70
     1
102
RTVSPropertyOp19
 70
     1
102
RTVSPropertyOp20
 70
     1
102
RTVSPropertyOp21
 70
     1
102
RTVSPropertyOp22
 70
     1
102
RTVSPropertyOp23
 70
     1
102
RTVSPropertyOp24
 70
     1
102
RTVSPropertyOp25
 70
     1
102
RTVSPropertyOp26
 70
     1
102
RTVSPropertyOp27
 70
     1
102
RTVSPropertyOp28
 70
     1
102
RTVSPropertyOp29
 70
     1
102
RTVSPropertyOp30
 70
     1
102
RTVSPropertyOp31
 70
     1
102
RTVSPropertyOp32
 70
     1
  0
XRECORD
  5
8A
102
{ACAD_REACTORS
330
89
102
}
330
89
100
AcDbXrecord
280
     1
102
RTVSPropertyOp0
 70
     1
102
RTVSPropertyOp1
 70
     1
102
RTVSPropertyOp2
 70
     1
102
RTVSPropertyOp3
 70
     1
102
RTVSPropertyOp4
 70
     1
102
RTVSPropertyOp5
 70
     1
102
RTVSPropertyOp6
 70
     1
102
RTVSPropertyOp7
 70
     1
102
RTVSPropertyOp8
 70
     1
102
RTVSPropertyOp9
 70
     1
102
RTVSPropertyOp10
 70
     1
102
RTVSPropertyOp11
 70
     1
102
RTVSPropertyOp12
 70
     1
102
RTVSPropertyOp13
 70
     1
102
RTVSPropertyOp14
 70
     1
102
RTVSPropertyOp15
 70
     1
102
RTVSPropertyOp16
 70
     1
102
RTVSPropertyOp17
 70
     1
102
RTVSPropertyOp18
 70
     1
102
RTVSPropertyOp19
 70
     1
102
RTVSPropertyOp20
 70
     1
102
RTVSPropertyOp21
 70
     1
102
RTVSPropertyOp22
 70
     1
102
RTVSPropertyOp23
 70
     1
102
RTVSPropertyOp24
 70
     1
102
RTVSPropertyOp25
 70
     1
102
RTVSPropertyOp26
 70
     1
102
RTVSPropertyOp27
 70
     1
102
RTVSPropertyOp28
 70
     1
102
RTVSPropertyOp29
 70
     1
102
RTVSPropertyOp30
 70
     1
102
RTVSPropertyOp31
 70
     1
102
RTVSPropertyOp32
 70
     1
  0
XRECORD
  5
8E
102
{ACAD_REACTORS
330
8D
102
}
330
8D
100
AcDbXrecord
280
     1
102
RTVSPropertyOp0
 70
     1
102
RTVSPropertyOp1
 70
     1
102
RTVSPropertyOp2
 70
     1
102
RTVSPropertyOp3
 70
     1
102
RTVSPropertyOp4
 70
     1
102
RTVSPropertyOp5
 70
     1
102
RTVSPropertyOp6
 70
     1
102
RTVSPropertyOp7
 70
     1
102
RTVSPropertyOp8
 70
     1
102
RTVSPropertyOp9
 70
     1
102
RTVSPropertyOp10
 70
     1
102
RTVSPropertyOp11
 70
     1
102
RTVSPropertyOp12
 70
     1
102
RTVSPropertyOp13
 70
     1
102
RTVSPropertyOp14
 70
     1
102
RTVSPropertyOp15
 70
     1
102
RTVSPropertyOp16
 70
     1
102
RTVSPropertyOp17
 70
     1
102
RTVSPropertyOp18
 70
     1
102
RTVSPropertyOp19
 70
     1
102
RTVSPropertyOp20
 70
     1
102
RTVSPropertyOp21
 70
     1
102
RTVSPropertyOp22
 70
     1
102
RTVSPropertyOp23
 70
     1
102
RTVSPropertyOp24
 70
     1
102
RTVSPropertyOp25
 70
     1
102
RTVSPropertyOp26
 70
     1
102
RTVSPropertyOp27
 70
     1
102
RTVSPropertyOp28
 70
     1
102
RTVSPropertyOp29
 70
     1
102
RTVSPropertyOp30
 70
     1
102
RTVSPropertyOp31
 70
     1
102
RTVSPropertyOp32
 70
     1
  0
XRECORD
  5
96
102
{ACAD_REACTORS
330
95
102
}
330
95
100
AcDbXrecord
280
     1
102
RTVSPropertyOp0
 70
     1
102
RTVSPropertyOp1
 70
     1
102
RTVSPropertyOp2
 70
     1
102
RTVSPropertyOp3
 70
     1
102
RTVSPropertyOp4
 70
     1
102
RTVSPropertyOp5
 70
     1
102
RTVSPropertyOp6
 70
     1
102
RTVSPropertyOp7
 70
     1
102
RTVSPropertyOp8
 70
     1
102
RTVSPropertyOp9
 70
     1
102
RTVSPropertyOp10
 70
     1
102
RTVSPropertyOp11
 70
     1
102
RTVSPropertyOp12
 70
     1
102
RTVSPropertyOp13
 70
     1
102
RTVSPropertyOp14
 70
     1
102
RTVSPropertyOp15
 70
     1
102
RTVSPropertyOp16
 70
     1
102
RTVSPropertyOp17
 70
     1
102
RTVSPropertyOp18
 70
     1
102
RTVSPropertyOp19
 70
     1
102
RTVSPropertyOp20
 70
     1
102
RTVSPropertyOp21
 70
     1
102
RTVSPropertyOp22
 70
     1
102
RTVSPropertyOp23
 70
     1
102
RTVSPropertyOp24
 70
     1
102
RTVSPropertyOp25
 70
     1
102
RTVSPropertyOp26
 70
     1
102
RTVSPropertyOp27
 70
     1
102
RTVSPropertyOp28
 70
     1
102
RTVSPropertyOp29
 70
     1
102
RTVSPropertyOp30
 70
     1
102
RTVSPropertyOp31
 70
     1
102
RTVSPropertyOp32
 70
     1
  0
XRECORD
  5
9E
102
{ACAD_REACTORS
330
9D
102
}
330
9D
100
AcDbXrecord
280
     1
102
RTVSPropertyOp0
 70
     1
102
RTVSPropertyOp1
 70
     1
102
RTVSPropertyOp2
 70
     1
102
RTVSPropertyOp3
 70
     1
102
RTVSPropertyOp4
 70
     1
102
RTVSPropertyOp5
 70
     1
102
RTVSPropertyOp6
 70
     1
102
RTVSPropertyOp7
 70
     1
102
RTVSPropertyOp8
 70
     1
102
RTVSPropertyOp9
 70
     1
102
RTVSPropertyOp10
 70
     1
102
RTVSPropertyOp11
 70
     1
102
RTVSPropertyOp12
 70
     1
102
RTVSPropertyOp13
 70
     1
102
RTVSPropertyOp14
 70
     1
102
RTVSPropertyOp15
 70
     1
102
RTVSPropertyOp16
 70
     1
102
RTVSPropertyOp17
 70
     1
102
RTVSPropertyOp18
 70
     1
102
RTVSPropertyOp19
 70
     1
102
RTVSPropertyOp20
 70
     1
102
RTVSPropertyOp21
 70
     1
102
RTVSPropertyOp22
 70
     1
102
RTVSPropertyOp23
 70
     1
102
RTVSPropertyOp24
 70
     1
102
RTVSPropertyOp25
 70
     1
102
RTVSPropertyOp26
 70
     1
102
RTVSPropertyOp27
 70
     1
102
RTVSPropertyOp28
 70
     1
102
RTVSPropertyOp29
 70
     1
102
RTVSPropertyOp30
 70
     1
102
RTVSPropertyOp31
 70
     1
102
RTVSPropertyOp32
 70
     1
  0
XRECORD
  5
92
102
{ACAD_REACTORS
330
91
102
}
330
91
100
AcDbXrecord
280
     1
102
RTVSPropertyOp0
 70
     1
102
RTVSPropertyOp1
 70
     1
102
RTVSPropertyOp2
 70
     1
102
RTVSPropertyOp3
 70
     1
102
RTVSPropertyOp4
 70
     1
102
RTVSPropertyOp5
 70
     1
102
RTVSPropertyOp6
 70
     1
102
RTVSPropertyOp7
 70
     1
102
RTVSPropertyOp8
 70
     1
102
RTVSPropertyOp9
 70
     1
102
RTVSPropertyOp10
 70
     1
102
RTVSPropertyOp11
 70
     1
102
RTVSPropertyOp12
 70
     1
102
RTVSPropertyOp13
 70
     1
102
RTVSPropertyOp14
 70
     1
102
RTVSPropertyOp15
 70
     1
102
RTVSPropertyOp16
 70
     1
102
RTVSPropertyOp17
 70
     1
102
RTVSPropertyOp18
 70
     1
102
RTVSPropertyOp19
 70
     1
102
RTVSPropertyOp20
 70
     1
102
RTVSPropertyOp21
 70
     1
102
RTVSPropertyOp22
 70
     1
102
RTVSPropertyOp23
 70
     1
102
RTVSPropertyOp24
 70
     1
102
RTVSPropertyOp25
 70
     1
102
RTVSPropertyOp26
 70
     1
102
RTVSPropertyOp27
 70
     1
102
RTVSPropertyOp28
 70
     1
102
RTVSPropertyOp29
 70
     1
102
RTVSPropertyOp30
 70
     1
102
RTVSPropertyOp31
 70
     1
102
RTVSPropertyOp32
 70
     1
  0
XRECORD
  5
94
102
{ACAD_REACTORS
330
93
102
}
330
93
100
AcDbXrecord
280
     1
102
RTVSPropertyOp0
 70
     1
102
RTVSPropertyOp1
 70
     1
102
RTVSPropertyOp2
 70
     1
102
RTVSPropertyOp3
 70
     1
102
RTVSPropertyOp4
 70
     1
102
RTVSPropertyOp5
 70
     1
102
RTVSPropertyOp6
 70
     1
102
RTVSPropertyOp7
 70
     1
102
RTVSPropertyOp8
 70
     1
102
RTVSPropertyOp9
 70
     1
102
RTVSPropertyOp10
 70
     1
102
RTVSPropertyOp11
 70
     1
102
RTVSPropertyOp12
 70
     1
102
RTVSPropertyOp13
 70
     1
102
RTVSPropertyOp14
 70
     1
102
RTVSPropertyOp15
 70
     1
102
RTVSPropertyOp16
 70
     1
102
RTVSPropertyOp17
 70
     1
102
RTVSPropertyOp18
 70
     1
102
RTVSPropertyOp19
 70
     1
102
RTVSPropertyOp20
 70
     1
102
RTVSPropertyOp21
 70
     1
102
RTVSPropertyOp22
 70
     1
102
RTVSPropertyOp23
 70
     1
102
RTVSPropertyOp24
 70
     1
102
RTVSPropertyOp25
 70
     1
102
RTVSPropertyOp26
 70
     1
102
RTVSPropertyOp27
 70
     1
102
RTVSPropertyOp28
 70
     1
102
RTVSPropertyOp29
 70
     1
102
RTVSPropertyOp30
 70
     1
102
RTVSPropertyOp31
 70
     1
102
RTVSPropertyOp32
 70
     1
  0
XRECORD
  5
9C
102
{ACAD_REACTORS
330
9B
102
}
330
9B
100
AcDbXrecord
280
     1
102
RTVSPropertyOp0
 70
     1
102
RTVSPropertyOp1
 70
     1
102
RTVSPropertyOp2
 70
     1
102
RTVSPropertyOp3
 70
     1
102
RTVSPropertyOp4
 70
     1
102
RTVSPropertyOp5
 70
     1
102
RTVSPropertyOp6
 70
     1
102
RTVSPropertyOp7
 70
     1
102
RTVSPropertyOp8
 70
     1
102
RTVSPropertyOp9
 70
     1
102
RTVSPropertyOp10
 70
     1
102
RTVSPropertyOp11
 70
     1
102
RTVSPropertyOp12
 70
     1
102
RTVSPropertyOp13
 70
     1
102
RTVSPropertyOp14
 70
     1
102
RTVSPropertyOp15
 70
     1
102
RTVSPropertyOp16
 70
     1
102
RTVSPropertyOp17
 70
     1
102
RTVSPropertyOp18
 70
     1
102
RTVSPropertyOp19
 70
     1
102
RTVSPropertyOp20
 70
     1
102
RTVSPropertyOp21
 70
     1
102
RTVSPropertyOp22
 70
     1
102
RTVSPropertyOp23
 70
     1
102
RTVSPropertyOp24
 70
     1
102
RTVSPropertyOp25
 70
     1
102
RTVSPropertyOp26
 70
     1
102
RTVSPropertyOp27
 70
     1
102
RTVSPropertyOp28
 70
     1
102
RTVSPropertyOp29
 70
     1
102
RTVSPropertyOp30
 70
     1
102
RTVSPropertyOp31
 70
     1
102
RTVSPropertyOp32
 70
     1
  0
XRECORD
  5
80
102
{ACAD_REACTORS
330
7F
102
}
330
7F
100
AcDbXrecord
280
     1
102
RTVSPropertyOp0
 70
     1
102
RTVSPropertyOp1
 70
     1
102
RTVSPropertyOp2
 70
     1
102
RTVSPropertyOp3
 70
     1
102
RTVSPropertyOp4
 70
     1
102
RTVSPropertyOp5
 70
     1
102
RTVSPropertyOp6
 70
     1
102
RTVSPropertyOp7
 70
     1
102
RTVSPropertyOp8
 70
     1
102
RTVSPropertyOp9
 70
     1
102
RTVSPropertyOp10
 70
     1
102
RTVSPropertyOp11
 70
     1
102
RTVSPropertyOp12
 70
     1
102
RTVSPropertyOp13
 70
     1
102
RTVSPropertyOp14
 70
     1
102
RTVSPropertyOp15
 70
     1
102
RTVSPropertyOp16
 70
     1
102
RTVSPropertyOp17
 70
     1
102
RTVSPropertyOp18
 70
     1
102
RTVSPropertyOp19
 70
     1
102
RTVSPropertyOp20
 70
     1
102
RTVSPropertyOp21
 70
     1
102
RTVSPropertyOp22
 70
     1
102
RTVSPropertyOp23
 70
     1
102
RTVSPropertyOp24
 70
     1
102
RTVSPropertyOp25
 70
     1
102
RTVSPropertyOp26
 70
     1
102
RTVSPropertyOp27
 70
     1
102
RTVSPropertyOp28
 70
     1
102
RTVSPropertyOp29
 70
     1
102
RTVSPropertyOp30
 70
     1
102
RTVSPropertyOp31
 70
     1
102
RTVSPropertyOp32
 70
     1
  0
XRECORD
  5
82
102
{ACAD_REACTORS
330
81
102
}
330
81
100
AcDbXrecord
280
     1
102
RTVSPropertyOp0
 70
     1
102
RTVSPropertyOp1
 70
     1
102
RTVSPropertyOp2
 70
     1
102
RTVSPropertyOp3
 70
     1
102
RTVSPropertyOp4
 70
     1
102
RTVSPropertyOp5
 70
     1
102
RTVSPropertyOp6
 70
     1
102
RTVSPropertyOp7
 70
     1
102
RTVSPropertyOp8
 70
     1
102
RTVSPropertyOp9
 70
     1
102
RTVSPropertyOp10
 70
     1
102
RTVSPropertyOp11
 70
     1
102
RTVSPropertyOp12
 70
     1
102
RTVSPropertyOp13
 70
     1
102
RTVSPropertyOp14
 70
     1
102
RTVSPropertyOp15
 70
     1
102
RTVSPropertyOp16
 70
     1
102
RTVSPropertyOp17
 70
     1
102
RTVSPropertyOp18
 70
     1
102
RTVSPropertyOp19
 70
     1
102
RTVSPropertyOp20
 70
     1
102
RTVSPropertyOp21
 70
     1
102
RTVSPropertyOp22
 70
     1
102
RTVSPropertyOp23
 70
     1
102
RTVSPropertyOp24
 70
     1
102
RTVSPropertyOp25
 70
     1
102
RTVSPropertyOp26
 70
     1
102
RTVSPropertyOp27
 70
     1
102
RTVSPropertyOp28
 70
     1
102
RTVSPropertyOp29
 70
     1
102
RTVSPropertyOp30
 70
     1
102
RTVSPropertyOp31
 70
     1
102
RTVSPropertyOp32
 70
     1
  0
XRECORD
  5
84
102
{ACAD_REACTORS
330
83
102
}
330
83
100
AcDbXrecord
280
     1
102
RTVSPropertyOp0
 70
     1
102
RTVSPropertyOp1
 70
     1
102
RTVSPropertyOp2
 70
     1
102
RTVSPropertyOp3
 70
     1
102
RTVSPropertyOp4
 70
     1
102
RTVSPropertyOp5
 70
     1
102
RTVSPropertyOp6
 70
     1
102
RTVSPropertyOp7
 70
     1
102
RTVSPropertyOp8
 70
     1
102
RTVSPropertyOp9
 70
     1
102
RTVSPropertyOp10
 70
     1
102
RTVSPropertyOp11
 70
     1
102
RTVSPropertyOp12
 70
     1
102
RTVSPropertyOp13
 70
     1
102
RTVSPropertyOp14
 70
     1
102
RTVSPropertyOp15
 70
     1
102
RTVSPropertyOp16
 70
     1
102
RTVSPropertyOp17
 70
     1
102
RTVSPropertyOp18
 70
     1
102
RTVSPropertyOp19
 70
     1
102
RTVSPropertyOp20
 70
     1
102
RTVSPropertyOp21
 70
     1
102
RTVSPropertyOp22
 70
     1
102
RTVSPropertyOp23
 70
     1
102
RTVSPropertyOp24
 70
     1
102
RTVSPropertyOp25
 70
     1
102
RTVSPropertyOp26
 70
     1
102
RTVSPropertyOp27
 70
     1
102
RTVSPropertyOp28
 70
     1
102
RTVSPropertyOp29
 70
     1
102
RTVSPropertyOp30
 70
     1
102
RTVSPropertyOp31
 70
     1
102
RTVSPropertyOp32
 70
     1
  0
XRECORD
  5
86
102
{ACAD_REACTORS
330
85
102
}
330
85
100
AcDbXrecord
280
     1
102
RTVSPropertyOp0
 70
     1
102
RTVSPropertyOp1
 70
     1
102
RTVSPropertyOp2
 70
     1
102
RTVSPropertyOp3
 70
     1
102
RTVSPropertyOp4
 70
     1
102
RTVSPropertyOp5
 70
     1
102
RTVSPropertyOp6
 70
     1
102
RTVSPropertyOp7
 70
     1
102
RTVSPropertyOp8
 70
     1
102
RTVSPropertyOp9
 70
     1
102
RTVSPropertyOp10
 70
     1
102
RTVSPropertyOp11
 70
     1
102
RTVSPropertyOp12
 70
     1
102
RTVSPropertyOp13
 70
     1
102
RTVSPropertyOp14
 70
     1
102
RTVSPropertyOp15
 70
     1
102
RTVSPropertyOp16
 70
     1
102
RTVSPropertyOp17
 70
     1
102
RTVSPropertyOp18
 70
     1
102
RTVSPropertyOp19
 70
     1
102
RTVSPropertyOp20
 70
     1
102
RTVSPropertyOp21
 70
     1
102
RTVSPropertyOp22
 70
     1
102
RTVSPropertyOp23
 70
     1
102
RTVSPropertyOp24
 70
     1
102
RTVSPropertyOp25
 70
     1
102
RTVSPropertyOp26
 70
     1
102
RTVSPropertyOp27
 70
     1
102
RTVSPropertyOp28
 70
     1
102
RTVSPropertyOp29
 70
     1
102
RTVSPropertyOp30
 70
     1
102
RTVSPropertyOp31
 70
     1
102
RTVSPropertyOp32
 70
     1
  0
XRECORD
  5
9A
102
{ACAD_REACTORS
330
99
102
}
330
99
100
AcDbXrecord
280
     1
102
RTVSPropertyOp0
 70
     1
102
RTVSPropertyOp1
 70
     1
102
RTVSPropertyOp2
 70
     1
102
RTVSPropertyOp3
 70
     1
102
RTVSPropertyOp4
 70
     1
102
RTVSPropertyOp5
 70
     1
102
RTVSPropertyOp6
 70
     1
102
RTVSPropertyOp7
 70
     1
102
RTVSPropertyOp8
 70
     1
102
RTVSPropertyOp9
 70
     1
102
RTVSPropertyOp10
 70
     1
102
RTVSPropertyOp11
 70
     1
102
RTVSPropertyOp12
 70
     1
102
RTVSPropertyOp13
 70
     1
102
RTVSPropertyOp14
 70
     1
102
RTVSPropertyOp15
 70
     1
102
RTVSPropertyOp16
 70
     1
102
RTVSPropertyOp17
 70
     1
102
RTVSPropertyOp18
 70
     1
102
RTVSPropertyOp19
 70
     1
102
RTVSPropertyOp20
 70
     1
102
RTVSPropertyOp21
 70
     1
102
RTVSPropertyOp22
 70
     1
102
RTVSPropertyOp23
 70
     1
102
RTVSPropertyOp24
 70
     1
102
RTVSPropertyOp25
 70
     1
102
RTVSPropertyOp26
 70
     1
102
RTVSPropertyOp27
 70
     1
102
RTVSPropertyOp28
 70
     1
102
RTVSPropertyOp29
 70
     1
102
RTVSPropertyOp30
 70
     1
102
RTVSPropertyOp31
 70
     1
102
RTVSPropertyOp32
 70
     1
  0
XRECORD
  5
90
102
{ACAD_REACTORS
330
8F
102
}
330
8F
100
AcDbXrecord
280
     1
102
RTVSPropertyOp0
 70
     1
102
RTVSPropertyOp1
 70
     1
102
RTVSPropertyOp2
 70
     1
102
RTVSPropertyOp3
 70
     1
102
RTVSPropertyOp4
 70
     1
102
RTVSPropertyOp5
 70
     1
102
RTVSPropertyOp6
 70
     1
102
RTVSPropertyOp7
 70
     1
102
RTVSPropertyOp8
 70
     1
102
RTVSPropertyOp9
 70
     1
102
RTVSPropertyOp10
 70
     1
102
RTVSPropertyOp11
 70
     1
102
RTVSPropertyOp12
 70
     1
102
RTVSPropertyOp13
 70
     1
102
RTVSPropertyOp14
 70
     1
102
RTVSPropertyOp15
 70
     1
102
RTVSPropertyOp16
 70
     1
102
RTVSPropertyOp17
 70
     1
102
RTVSPropertyOp18
 70
     1
102
RTVSPropertyOp19
 70
     1
102
RTVSPropertyOp20
 70
     1
102
RTVSPropertyOp21
 70
     1
102
RTVSPropertyOp22
 70
     1
102
RTVSPropertyOp23
 70
     1
102
RTVSPropertyOp24
 70
     1
102
RTVSPropertyOp25
 70
     1
102
RTVSPropertyOp26
 70
     1
102
RTVSPropertyOp27
 70
     1
102
RTVSPropertyOp28
 70
     1
102
RTVSPropertyOp29
 70
     1
102
RTVSPropertyOp30
 70
     1
102
RTVSPropertyOp31
 70
     1
102
RTVSPropertyOp32
 70
     1
  0
XRECORD
  5
98
102
{ACAD_REACTORS
330
97
102
}
330
97
100
AcDbXrecord
280
     1
102
RTVSPropertyOp0
 70
     1
102
RTVSPropertyOp1
 70
     1
102
RTVSPropertyOp2
 70
     1
102
RTVSPropertyOp3
 70
     1
102
RTVSPropertyOp4
 70
     1
102
RTVSPropertyOp5
 70
     1
102
RTVSPropertyOp6
 70
     1
102
RTVSPropertyOp7
 70
     1
102
RTVSPropertyOp8
 70
     1
102
RTVSPropertyOp9
 70
     1
102
RTVSPropertyOp10
 70
     1
102
RTVSPropertyOp11
 70
     1
102
RTVSPropertyOp12
 70
     1
102
RTVSPropertyOp13
 70
     1
102
RTVSPropertyOp14
 70
     1
102
RTVSPropertyOp15
 70
     1
102
RTVSPropertyOp16
 70
     1
102
RTVSPropertyOp17
 70
     1
102
RTVSPropertyOp18
 70
     1
102
RTVSPropertyOp19
 70
     1
102
RTVSPropertyOp20
 70
     1
102
RTVSPropertyOp21
 70
     1
102
RTVSPropertyOp22
 70
     1
102
RTVSPropertyOp23
 70
     1
102
RTVSPropertyOp24
 70
     1
102
RTVSPropertyOp25
 70
     1
102
RTVSPropertyOp26
 70
     1
102
RTVSPropertyOp27
 70
     1
102
RTVSPropertyOp28
 70
     1
102
RTVSPropertyOp29
 70
     1
102
RTVSPropertyOp30
 70
     1
102
RTVSPropertyOp31
 70
     1
102
RTVSPropertyOp32
 70
     1
  0
ENDSEC
  0
EOF
