<?xml version="1.0" encoding="UTF-8"?>
<!DOCTYPE svg PUBLIC "-//W3C//DTD SVG 1.1//EN" "http://www.w3.org/Graphics/SVG/1.1/DTD/svg11.dtd">
<!-- Creator: CorelDRAW X6 -->
<svg xmlns="http://www.w3.org/2000/svg" xml:space="preserve" width="600mm" height="600mm" version="1.1" shape-rendering="geometricPrecision" text-rendering="geometricPrecision" image-rendering="optimizeQuality" fill-rule="evenodd" clip-rule="evenodd"
viewBox="0 0 60000 60000"
 xmlns:xlink="http://www.w3.org/1999/xlink">
 <g id="Layer_x0020_1">
  <metadata id="CorelCorpID_0Corel-Layer"/>
  <path fill="none" stroke="black" stroke-width="52.92" stroke-linecap="round" stroke-linejoin="round" d="M15000 16250c7385,0 13408,5821 13735,13125l-11931 0 3028 -5245c345,-598 140,-1362 -458,-1708 -598,-345 -1362,-140 -1708,458l-3389 5870 -6778 0c-690,0 -1250,560 -1250,1250 0,690 560,1250 1250,1250l6778 0 3389 5870c345,598 1110,803 1708,458 598,-345 803,-1110 458,-1708l-3028 -5245 11931 0c-327,7304 -6351,13125 -13735,13125 -7594,0 -13750,-6156 -13750,-13750 0,-7594 6156,-13750 13750,-13750z"/>
  <g id="_960486128">
   <circle fill="none" stroke="aqua" stroke-width="52.92" stroke-linecap="round" stroke-linejoin="round" cx="7500" cy="30000" r="5000"/>
   <circle fill="none" stroke="aqua" stroke-width="52.92" stroke-linecap="round" stroke-linejoin="round" cx="7500" cy="30000" r="750"/>
   <rect fill="none" stroke="aqua" stroke-width="52.92" stroke-linecap="round" stroke-linejoin="round" x="4800" y="28700" width="5400" height="2600"/>
   <circle fill="none" stroke="aqua" stroke-width="52.92" stroke-linecap="round" stroke-linejoin="round" cx="5800" cy="30600" r="380"/>
   <circle fill="none" stroke="aqua" stroke-width="52.92" stroke-linecap="round" stroke-linejoin="round" cx="5800" cy="29400" r="380"/>
   <rect fill="none" stroke="aqua" stroke-width="52.92" stroke-linecap="round" stroke-linejoin="round" x="7900" y="29100" width="2300" height="1800"/>
   <circle fill="none" stroke="black" stroke-width="52.92" stroke-linecap="round" stroke-linejoin="round" cx="5800" cy="30600" r="380"/>
   <circle fill="none" stroke="black" stroke-width="52.92" stroke-linecap="round" stroke-linejoin="round" cx="5800" cy="29400" r="380"/>
   <circle fill="none" stroke="black" stroke-width="52.92" stroke-linecap="round" stroke-linejoin="round" cx="7500" cy="26250" r="175"/>
   <circle fill="none" stroke="black" stroke-width="52.92" stroke-linecap="round" stroke-linejoin="round" cx="7500" cy="33750" r="175"/>
   <circle fill="none" stroke="black" stroke-width="52.92" stroke-linecap="round" stroke-linejoin="round" cx="3750" cy="30000" r="175"/>
  </g>
  <g id="_817663504">
   <circle fill="none" stroke="aqua" stroke-width="52.92" stroke-linecap="round" stroke-linejoin="round" transform="matrix(-2.02092 -3.50034 3.50034 -2.02092 18750 36495.2)" r="1237"/>
   <circle fill="none" stroke="aqua" stroke-width="52.92" stroke-linecap="round" stroke-linejoin="round" transform="matrix(0.944894 1.6366 -1.6366 0.944894 18750 36495.2)" r="397"/>
   <rect fill="none" stroke="aqua" stroke-width="52.92" stroke-linecap="round" stroke-linejoin="round" transform="matrix(0.689509 1.19426 -0.575016 0.331986 18525.8 33506.9)" width="3916" height="3916"/>
   <circle fill="none" stroke="aqua" stroke-width="52.92" stroke-linecap="round" stroke-linejoin="round" transform="matrix(0.512945 0.888447 -0.888447 0.512945 20119.6 37667.4)" r="370"/>
   <circle fill="none" stroke="aqua" stroke-width="52.92" stroke-linecap="round" stroke-linejoin="round" transform="matrix(0.512945 0.888447 -0.888447 0.512945 19080.4 38267.4)" r="370"/>
   <rect fill="none" stroke="aqua" stroke-width="52.92" stroke-linecap="round" stroke-linejoin="round" transform="matrix(0.29368 0.508668 -0.398088 0.229836 18179.4 33706.9)" width="3916" height="3916"/>
   <circle fill="none" stroke="black" stroke-width="52.92" stroke-linecap="round" stroke-linejoin="round" transform="matrix(0.512945 0.888447 -0.888447 0.512945 20119.6 37667.4)" r="370"/>
   <circle fill="none" stroke="black" stroke-width="52.92" stroke-linecap="round" stroke-linejoin="round" transform="matrix(0.512945 0.888447 -0.888447 0.512945 19080.4 38267.4)" r="370"/>
   <circle fill="none" stroke="black" stroke-width="52.92" stroke-linecap="round" stroke-linejoin="round" transform="matrix(-0.220475 -0.381874 0.381874 -0.220475 15502.4 38370.2)" r="397"/>
   <circle fill="none" stroke="black" stroke-width="52.92" stroke-linecap="round" stroke-linejoin="round" transform="matrix(-0.220475 -0.381874 0.381874 -0.220475 21997.6 34620.2)" r="397"/>
   <circle fill="none" stroke="black" stroke-width="52.92" stroke-linecap="round" stroke-linejoin="round" transform="matrix(-0.220475 -0.381874 0.381874 -0.220475 20625 39742.8)" r="397"/>
  </g>
  <g id="_817669360">
   <circle fill="none" stroke="aqua" stroke-width="52.92" stroke-linecap="round" stroke-linejoin="round" transform="matrix(-2.02092 3.50034 -3.50034 -2.02092 18750 23504.8)" r="1237"/>
   <circle fill="none" stroke="aqua" stroke-width="52.92" stroke-linecap="round" stroke-linejoin="round" transform="matrix(0.944894 -1.6366 1.6366 0.944894 18750 23504.8)" r="397"/>
   <rect fill="none" stroke="aqua" stroke-width="52.92" stroke-linecap="round" stroke-linejoin="round" transform="matrix(0.689509 -1.19426 0.575016 0.331986 16274.2 25193.1)" width="3916" height="3916"/>
   <circle fill="none" stroke="aqua" stroke-width="52.92" stroke-linecap="round" stroke-linejoin="round" transform="matrix(0.512945 -0.888447 0.888447 0.512945 19080.4 21732.6)" r="370"/>
   <circle fill="none" stroke="aqua" stroke-width="52.92" stroke-linecap="round" stroke-linejoin="round" transform="matrix(0.512945 -0.888447 0.888447 0.512945 20119.6 22332.6)" r="370"/>
   <rect fill="none" stroke="aqua" stroke-width="52.92" stroke-linecap="round" stroke-linejoin="round" transform="matrix(0.29368 -0.508668 0.398088 0.229836 16620.6 25393.1)" width="3916" height="3916"/>
   <circle fill="none" stroke="black" stroke-width="52.92" stroke-linecap="round" stroke-linejoin="round" transform="matrix(0.512945 -0.888447 0.888447 0.512945 19080.4 21732.6)" r="370"/>
   <circle fill="none" stroke="black" stroke-width="52.92" stroke-linecap="round" stroke-linejoin="round" transform="matrix(0.512945 -0.888447 0.888447 0.512945 20119.6 22332.6)" r="370"/>
   <circle fill="none" stroke="black" stroke-width="52.92" stroke-linecap="round" stroke-linejoin="round" transform="matrix(-0.220475 0.381874 -0.381874 -0.220475 21997.6 25379.8)" r="397"/>
   <circle fill="none" stroke="black" stroke-width="52.92" stroke-linecap="round" stroke-linejoin="round" transform="matrix(-0.220475 0.381874 -0.381874 -0.220475 15502.4 21629.8)" r="397"/>
   <circle fill="none" stroke="black" stroke-width="52.92" stroke-linecap="round" stroke-linejoin="round" transform="matrix(-0.220475 0.381874 -0.381874 -0.220475 20625 20257.2)" r="397"/>
  </g>
  <circle fill="none" stroke="black" stroke-width="52.92" stroke-linecap="round" stroke-linejoin="round" cx="45000" cy="30000" r="13750"/>
  <g id="_960115824">
   <circle fill="none" stroke="aqua" stroke-width="52.92" stroke-linecap="round" stroke-linejoin="round" cx="37500" cy="30000" r="5000"/>
   <circle fill="none" stroke="aqua" stroke-width="52.92" stroke-linecap="round" stroke-linejoin="round" cx="37500" cy="30000" r="750"/>
   <rect fill="none" stroke="aqua" stroke-width="52.92" stroke-linecap="round" stroke-linejoin="round" x="34800" y="28700" width="5400" height="2600"/>
   <circle fill="none" stroke="aqua" stroke-width="52.92" stroke-linecap="round" stroke-linejoin="round" cx="35800" cy="30600" r="380"/>
   <circle fill="none" stroke="aqua" stroke-width="52.92" stroke-linecap="round" stroke-linejoin="round" cx="35800" cy="29400" r="380"/>
   <rect fill="none" stroke="aqua" stroke-width="52.92" stroke-linecap="round" stroke-linejoin="round" x="37900" y="29100" width="2300" height="1800"/>
   <circle fill="none" stroke="black" stroke-width="52.92" stroke-linecap="round" stroke-linejoin="round" cx="37500" cy="30000" r="1250"/>
   <circle fill="none" stroke="black" stroke-width="52.92" stroke-linecap="round" stroke-linejoin="round" cx="35800" cy="30600" r="380"/>
   <circle fill="none" stroke="black" stroke-width="52.92" stroke-linecap="round" stroke-linejoin="round" cx="35800" cy="29400" r="380"/>
   <circle fill="none" stroke="black" stroke-width="52.92" stroke-linecap="round" stroke-linejoin="round" cx="37500" cy="26250" r="175"/>
   <circle fill="none" stroke="black" stroke-width="52.92" stroke-linecap="round" stroke-linejoin="round" cx="37500" cy="33750" r="175"/>
   <circle fill="none" stroke="black" stroke-width="52.92" stroke-linecap="round" stroke-linejoin="round" cx="33750" cy="30000" r="175"/>
  </g>
  <g id="_960112272">
   <circle fill="none" stroke="aqua" stroke-width="52.92" stroke-linecap="round" stroke-linejoin="round" transform="matrix(-2.02092 -3.50034 3.50034 -2.02092 48750 36495.2)" r="1237"/>
   <circle fill="none" stroke="aqua" stroke-width="52.92" stroke-linecap="round" stroke-linejoin="round" transform="matrix(0.944894 1.6366 -1.6366 0.944894 48750 36495.2)" r="397"/>
   <rect fill="none" stroke="aqua" stroke-width="52.92" stroke-linecap="round" stroke-linejoin="round" transform="matrix(0.689509 1.19426 -0.575016 0.331986 48525.8 33506.9)" width="3916" height="3916"/>
   <circle fill="none" stroke="aqua" stroke-width="52.92" stroke-linecap="round" stroke-linejoin="round" transform="matrix(0.512945 0.888447 -0.888447 0.512945 50119.6 37667.4)" r="370"/>
   <circle fill="none" stroke="aqua" stroke-width="52.92" stroke-linecap="round" stroke-linejoin="round" transform="matrix(0.512945 0.888447 -0.888447 0.512945 49080.4 38267.4)" r="370"/>
   <rect fill="none" stroke="aqua" stroke-width="52.92" stroke-linecap="round" stroke-linejoin="round" transform="matrix(0.29368 0.508668 -0.398088 0.229836 48179.4 33706.9)" width="3916" height="3916"/>
   <circle fill="none" stroke="black" stroke-width="52.92" stroke-linecap="round" stroke-linejoin="round" transform="matrix(1.57482 2.72767 -2.72767 1.57482 48750 36495.2)" r="397"/>
   <circle fill="none" stroke="black" stroke-width="52.92" stroke-linecap="round" stroke-linejoin="round" transform="matrix(0.512945 0.888447 -0.888447 0.512945 50119.6 37667.4)" r="370"/>
   <circle fill="none" stroke="black" stroke-width="52.92" stroke-linecap="round" stroke-linejoin="round" transform="matrix(0.512945 0.888447 -0.888447 0.512945 49080.4 38267.4)" r="370"/>
   <circle fill="none" stroke="black" stroke-width="52.92" stroke-linecap="round" stroke-linejoin="round" transform="matrix(-0.220475 -0.381874 0.381874 -0.220475 45502.4 38370.2)" r="397"/>
   <circle fill="none" stroke="black" stroke-width="52.92" stroke-linecap="round" stroke-linejoin="round" transform="matrix(-0.220475 -0.381874 0.381874 -0.220475 51997.6 34620.2)" r="397"/>
   <circle fill="none" stroke="black" stroke-width="52.92" stroke-linecap="round" stroke-linejoin="round" transform="matrix(-0.220475 -0.381874 0.381874 -0.220475 50625 39742.8)" r="397"/>
  </g>
  <g id="_960106032">
   <circle fill="none" stroke="aqua" stroke-width="52.92" stroke-linecap="round" stroke-linejoin="round" transform="matrix(-2.02092 3.50034 -3.50034 -2.02092 48750 23504.8)" r="1237"/>
   <circle fill="none" stroke="aqua" stroke-width="52.92" stroke-linecap="round" stroke-linejoin="round" transform="matrix(0.944894 -1.6366 1.6366 0.944894 48750 23504.8)" r="397"/>
   <rect fill="none" stroke="aqua" stroke-width="52.92" stroke-linecap="round" stroke-linejoin="round" transform="matrix(0.689509 -1.19426 0.575016 0.331986 46274.2 25193.1)" width="3916" height="3916"/>
   <circle fill="none" stroke="aqua" stroke-width="52.92" stroke-linecap="round" stroke-linejoin="round" transform="matrix(0.512945 -0.888447 0.888447 0.512945 49080.4 21732.6)" r="370"/>
   <circle fill="none" stroke="aqua" stroke-width="52.92" stroke-linecap="round" stroke-linejoin="round" transform="matrix(0.512945 -0.888447 0.888447 0.512945 50119.6 22332.6)" r="370"/>
   <rect fill="none" stroke="aqua" stroke-width="52.92" stroke-linecap="round" stroke-linejoin="round" transform="matrix(0.29368 -0.508668 0.398088 0.229836 46620.6 25393.1)" width="3916" height="3916"/>
   <circle fill="none" stroke="black" stroke-width="52.92" stroke-linecap="round" stroke-linejoin="round" transform="matrix(1.57482 -2.72767 2.72767 1.57482 48750 23504.8)" r="397"/>
   <circle fill="none" stroke="black" stroke-width="52.92" stroke-linecap="round" stroke-linejoin="round" transform="matrix(0.512945 -0.888447 0.888447 0.512945 49080.4 21732.6)" r="370"/>
   <circle fill="none" stroke="black" stroke-width="52.92" stroke-linecap="round" stroke-linejoin="round" transform="matrix(0.512945 -0.888447 0.888447 0.512945 50119.6 22332.6)" r="370"/>
   <circle fill="none" stroke="black" stroke-width="52.92" stroke-linecap="round" stroke-linejoin="round" transform="matrix(-0.220475 0.381874 -0.381874 -0.220475 51997.6 25379.8)" r="397"/>
   <circle fill="none" stroke="black" stroke-width="52.92" stroke-linecap="round" stroke-linejoin="round" transform="matrix(-0.220475 0.381874 -0.381874 -0.220475 45502.4 21629.8)" r="397"/>
   <circle fill="none" stroke="black" stroke-width="52.92" stroke-linecap="round" stroke-linejoin="round" transform="matrix(-0.220475 0.381874 -0.381874 -0.220475 50625 20257.2)" r="397"/>
  </g>
 </g>
</svg>
