  0
SECTION
  2
HEADER
  9
$ACADVER
  1
AC1021
  9
$ACADMAINTVER
 70
    25
  9
$DWGCODEPAGE
  3
ANSI_1252
  9
$INSBASE
 10
0.0
 20
0.0
 30
0.0
  9
$EXTMIN
 10
-14.02646
 20
-10.32646
 30
0.0
  9
$EXTMAX
 10
14.02645
 20
14.14961
 30
0.0
  9
$LIMMIN
 10
0.0
 20
0.0
  9
$LIMMAX
 10
12.0
 20
9.0
  9
$ORTHOMODE
 70
     0
  9
$REGENMODE
 70
     1
  9
$FILLMODE
 70
     1
  9
$QTEXTMODE
 70
     0
  9
$MIRRTEXT
 70
     1
  9
$LTSCALE
 40
1.0
  9
$ATTMODE
 70
     1
  9
$TEXTSIZE
 40
0.2
  9
$TRACEWID
 40
0.05
  9
$TEXTSTYLE
  7
Standard
  9
$CLAYER
  8
0
  9
$CELTYPE
  6
ByLayer
  9
$CECOLOR
 62
   256
  9
$CELTSCALE
 40
1.0
  9
$DISPSILH
 70
     0
  9
$DIMSCALE
 40
1.0
  9
$DIMASZ
 40
0.18
  9
$DIMEXO
 40
0.0625
  9
$DIMDLI
 40
0.38
  9
$DIMRND
 40
0.0
  9
$DIMDLE
 40
0.0
  9
$DIMEXE
 40
0.18
  9
$DIMTP
 40
0.0
  9
$DIMTM
 40
0.0
  9
$DIMTXT
 40
0.18
  9
$DIMCEN
 40
0.09
  9
$DIMTSZ
 40
0.0
  9
$DIMTOL
 70
     0
  9
$DIMLIM
 70
     0
  9
$DIMTIH
 70
     1
  9
$DIMTOH
 70
     1
  9
$DIMSE1
 70
     0
  9
$DIMSE2
 70
     0
  9
$DIMTAD
 70
     0
  9
$DIMZIN
 70
     0
  9
$DIMBLK
  1

  9
$DIMASO
 70
     1
  9
$DIMSHO
 70
     1
  9
$DIMPOST
  1

  9
$DIMAPOST
  1

  9
$DIMALT
 70
     0
  9
$DIMALTD
 70
     2
  9
$DIMALTF
 40
25.4
  9
$DIMLFAC
 40
1.0
  9
$DIMTOFL
 70
     0
  9
$DIMTVP
 40
0.0
  9
$DIMTIX
 70
     0
  9
$DIMSOXD
 70
     0
  9
$DIMSAH
 70
     0
  9
$DIMBLK1
  1

  9
$DIMBLK2
  1

  9
$DIMSTYLE
  2
Standard
  9
$DIMCLRD
 70
     0
  9
$DIMCLRE
 70
     0
  9
$DIMCLRT
 70
     0
  9
$DIMTFAC
 40
1.0
  9
$DIMGAP
 40
0.09
  9
$DIMJUST
 70
     0
  9
$DIMSD1
 70
     0
  9
$DIMSD2
 70
     0
  9
$DIMTOLJ
 70
     1
  9
$DIMTZIN
 70
     0
  9
$DIMALTZ
 70
     0
  9
$DIMALTTZ
 70
     0
  9
$DIMUPT
 70
     0
  9
$DIMDEC
 70
     4
  9
$DIMTDEC
 70
     4
  9
$DIMALTU
 70
     2
  9
$DIMALTTD
 70
     2
  9
$DIMTXSTY
  7
Standard
  9
$DIMAUNIT
 70
     0
  9
$DIMADEC
 70
     0
  9
$DIMALTRND
 40
0.0
  9
$DIMAZIN
 70
     0
  9
$DIMDSEP
 70
    46
  9
$DIMATFIT
 70
     3
  9
$DIMFRAC
 70
     0
  9
$DIMLDRBLK
  1

  9
$DIMLUNIT
 70
     2
  9
$DIMLWD
 70
    -2
  9
$DIMLWE
 70
    -2
  9
$DIMTMOVE
 70
     0
  9
$DIMFXL
 40
1.0
  9
$DIMFXLON
 70
     0
  9
$DIMJOGANG
 40
0.7853981633974483
  9
$DIMTFILL
 70
     0
  9
$DIMTFILLCLR
 70
     0
  9
$DIMARCSYM
 70
     0
  9
$DIMLTYPE
  6

  9
$DIMLTEX1
  6

  9
$DIMLTEX2
  6

  9
$LUNITS
 70
     2
  9
$LUPREC
 70
     4
  9
$SKETCHINC
 40
0.1
  9
$FILLETRAD
 40
0.5
  9
$AUNITS
 70
     0
  9
$AUPREC
 70
     0
  9
$MENU
  1
.
  9
$ELEVATION
 40
0.0
  9
$PELEVATION
 40
0.0
  9
$THICKNESS
 40
0.0
  9
$LIMCHECK
 70
     0
  9
$CHAMFERA
 40
0.5
  9
$CHAMFERB
 40
0.5
  9
$CHAMFERC
 40
1.0
  9
$CHAMFERD
 40
0.0
  9
$SKPOLY
 70
     0
  9
$TDCREATE
 40
2460582.882555521
  9
$TDUCREATE
 40
2460582.840888854
  9
$TDUPDATE
 40
2460582.88255559
  9
$TDUUPDATE
 40
2460582.840888923
  9
$TDINDWG
 40
0.0000000116
  9
$TDUSRTIMER
 40
0.0000000116
  9
$USRTIMER
 70
     1
  9
$ANGBASE
 50
0.0
  9
$ANGDIR
 70
     0
  9
$PDMODE
 70
     0
  9
$PDSIZE
 40
0.0
  9
$PLINEWID
 40
0.0
  9
$SPLFRAME
 70
     0
  9
$SPLINETYPE
 70
     6
  9
$SPLINESEGS
 70
     8
  9
$HANDSEED
  5
A1
  9
$SURFTAB1
 70
     6
  9
$SURFTAB2
 70
     6
  9
$SURFTYPE
 70
     6
  9
$SURFU
 70
     6
  9
$SURFV
 70
     6
  9
$UCSBASE
  2

  9
$UCSNAME
  2

  9
$UCSORG
 10
0.0
 20
0.0
 30
0.0
  9
$UCSXDIR
 10
1.0
 20
0.0
 30
0.0
  9
$UCSYDIR
 10
0.0
 20
1.0
 30
0.0
  9
$UCSORTHOREF
  2

  9
$UCSORTHOVIEW
 70
     0
  9
$UCSORGTOP
 10
0.0
 20
0.0
 30
0.0
  9
$UCSORGBOTTOM
 10
0.0
 20
0.0
 30
0.0
  9
$UCSORGLEFT
 10
0.0
 20
0.0
 30
0.0
  9
$UCSORGRIGHT
 10
0.0
 20
0.0
 30
0.0
  9
$UCSORGFRONT
 10
0.0
 20
0.0
 30
0.0
  9
$UCSORGBACK
 10
0.0
 20
0.0
 30
0.0
  9
$PUCSBASE
  2

  9
$PUCSNAME
  2

  9
$PUCSORG
 10
0.0
 20
0.0
 30
0.0
  9
$PUCSXDIR
 10
1.0
 20
0.0
 30
0.0
  9
$PUCSYDIR
 10
0.0
 20
1.0
 30
0.0
  9
$PUCSORTHOREF
  2

  9
$PUCSORTHOVIEW
 70
     0
  9
$PUCSORGTOP
 10
0.0
 20
0.0
 30
0.0
  9
$PUCSORGBOTTOM
 10
0.0
 20
0.0
 30
0.0
  9
$PUCSORGLEFT
 10
0.0
 20
0.0
 30
0.0
  9
$PUCSORGRIGHT
 10
0.0
 20
0.0
 30
0.0
  9
$PUCSORGFRONT
 10
0.0
 20
0.0
 30
0.0
  9
$PUCSORGBACK
 10
0.0
 20
0.0
 30
0.0
  9
$USERI1
 70
     0
  9
$USERI2
 70
     0
  9
$USERI3
 70
     0
  9
$USERI4
 70
     0
  9
$USERI5
 70
     0
  9
$USERR1
 40
0.0
  9
$USERR2
 40
0.0
  9
$USERR3
 40
0.0
  9
$USERR4
 40
0.0
  9
$USERR5
 40
0.0
  9
$WORLDVIEW
 70
     1
  9
$SHADEDGE
 70
     3
  9
$SHADEDIF
 70
    70
  9
$TILEMODE
 70
     1
  9
$MAXACTVP
 70
    64
  9
$PINSBASE
 10
0.0
 20
0.0
 30
0.0
  9
$PLIMCHECK
 70
     0
  9
$PEXTMIN
 10
1.000000000000000E+20
 20
1.000000000000000E+20
 30
1.000000000000000E+20
  9
$PEXTMAX
 10
-1.000000000000000E+20
 20
-1.000000000000000E+20
 30
-1.000000000000000E+20
  9
$PLIMMIN
 10
0.0
 20
0.0
  9
$PLIMMAX
 10
12.0
 20
9.0
  9
$UNITMODE
 70
     0
  9
$VISRETAIN
 70
     1
  9
$PLINEGEN
 70
     0
  9
$PSLTSCALE
 70
     1
  9
$TREEDEPTH
 70
  3020
  9
$CMLSTYLE
  2
Standard
  9
$CMLJUST
 70
     0
  9
$CMLSCALE
 40
1.0
  9
$PROXYGRAPHICS
 70
     1
  9
$MEASUREMENT
 70
     0
  9
$CELWEIGHT
370
    -1
  9
$ENDCAPS
280
     0
  9
$JOINSTYLE
280
     0
  9
$LWDISPLAY
290
     0
  9
$INSUNITS
 70
     5
  9
$HYPERLINKBASE
  1

  9
$STYLESHEET
  1

  9
$XEDIT
290
     1
  9
$CEPSNTYPE
380
     0
  9
$PSTYLEMODE
290
     1
  9
$FINGERPRINTGUID
  2
{DF978ACE-CC31-40AD-9C6A-AC7099530763}
  9
$VERSIONGUID
  2
{FAEB1C32-E019-11D5-929B-00C0DF256EC4}
  9
$EXTNAMES
290
     1
  9
$PSVPSCALE
 40
0.0
  9
$OLESTARTUP
290
     0
  9
$SORTENTS
280
   127
  9
$INDEXCTL
280
     0
  9
$HIDETEXT
280
     1
  9
$XCLIPFRAME
290
     0
  9
$HALOGAP
280
     0
  9
$OBSCOLOR
 70
   257
  9
$OBSLTYPE
280
     0
  9
$INTERSECTIONDISPLAY
280
     0
  9
$INTERSECTIONCOLOR
 70
   257
  9
$DIMASSOC
280
     2
  9
$PROJECTNAME
  1

  9
$CAMERADISPLAY
290
     0
  9
$LENSLENGTH
 40
50.0
  9
$CAMERAHEIGHT
 40
0.0
  9
$STEPSPERSEC
 40
2.0
  9
$STEPSIZE
 40
6.0
  9
$3DDWFPREC
 40
2.0
  9
$PSOLWIDTH
 40
0.25
  9
$PSOLHEIGHT
 40
4.0
  9
$LOFTANG1
 40
1.570796326794897
  9
$LOFTANG2
 40
1.570796326794897
  9
$LOFTMAG1
 40
0.0
  9
$LOFTMAG2
 40
0.0
  9
$LOFTPARAM
 70
     7
  9
$LOFTNORMALS
280
     1
  9
$LATITUDE
 40
37.795
  9
$LONGITUDE
 40
-122.394
  9
$NORTHDIRECTION
 40
0.0
  9
$TIMEZONE
 70
 -8000
  9
$LIGHTGLYPHDISPLAY
280
     1
  9
$TILEMODELIGHTSYNCH
280
     1
  9
$SOLIDHIST
280
     1
  9
$SHOWHIST
280
     1
  9
$DWFFRAME
280
     2
  9
$DGNFRAME
280
     2
  9
$REALWORLDSCALE
290
     1
  9
$INTERFERECOLOR
 62
   256
  9
$CSHADOW
280
     0
  9
$SHADOWPLANELOCATION
 40
0.0
  0
ENDSEC
  0
SECTION
  2
CLASSES
  0
CLASS
  1
ACDBDICTIONARYWDFLT
  2
AcDbDictionaryWithDefault
  3
ObjectDBX Classes
 90
        0
 91
        4
280
     0
281
     0
  0
CLASS
  1
VISUALSTYLE
  2
AcDbVisualStyle
  3
ObjectDBX Classes
 90
     4095
 91
        4
280
     0
281
     0
  0
CLASS
  1
MATERIAL
  2
AcDbMaterial
  3
ObjectDBX Classes
 90
     1153
 91
        4
280
     0
281
     0
  0
ENDSEC
  0
SECTION
  2
TABLES
  0
TABLE
  2
VPORT
  5
8
330
0
100
AcDbSymbolTable
 70
     1
  0
VPORT
  5
29
330
8
100
AcDbSymbolTableRecord
100
AcDbViewportTableRecord
  2
*Active
 70
     0
 10
0.0
 20
0.0
 11
1.0
 21
1.0
 12
10.42990654205607
 22
4.5
 13
0.0
 23
0.0
 14
0.5
 24
0.5
 15
0.5
 25
0.5
 16
0.0
 26
0.0
 36
1.0
 17
0.0
 27
0.0
 37
0.0
 40
9.0
 41
1.972972972850329
 42
50.0
 43
0.0
 44
0.0
 50
0.0
 51
0.0
 71
     0
 72
   100
 73
     1
 74
     3
 75
     0
 76
     0
 77
     0
 78
     0
281
     0
 65
     1
110
0.0
120
0.0
130
0.0
111
1.0
121
0.0
131
0.0
112
0.0
122
1.0
132
0.0
 79
     0
146
0.0
 60
     3
 61
     5
292
     1
282
     1
141
0.0
142
0.0
 63
   250
  0
ENDTAB
  0
TABLE
  2
LTYPE
  5
5
330
0
100
AcDbSymbolTable
 70
     1
  0
LTYPE
  5
14
330
5
100
AcDbSymbolTableRecord
100
AcDbLinetypeTableRecord
  2
ByBlock
 70
     0
  3

 72
    65
 73
     0
 40
0.0
  0
LTYPE
  5
15
330
5
100
AcDbSymbolTableRecord
100
AcDbLinetypeTableRecord
  2
ByLayer
 70
     0
  3

 72
    65
 73
     0
 40
0.0
  0
LTYPE
  5
16
330
5
100
AcDbSymbolTableRecord
100
AcDbLinetypeTableRecord
  2
Continuous
 70
     0
  3
Solid line
 72
    65
 73
     0
 40
0.0
  0
ENDTAB
  0
TABLE
  2
LAYER
  5
2
330
0
100
AcDbSymbolTable
 70
     2
  0
LAYER
  5
10
330
2
100
AcDbSymbolTableRecord
100
AcDbLayerTableRecord
  2
0
 70
     0
 62
     7
  6
Continuous
370
    -3
390
F
347
3E
  0
LAYER
  5
40
330
2
100
AcDbSymbolTableRecord
100
AcDbLayerTableRecord
  2
Layer 1
 70
     0
 62
     7
  6
Continuous
370
    -3
390
F
347
3E
  0
ENDTAB
  0
TABLE
  2
STYLE
  5
3
330
0
100
AcDbSymbolTable
 70
     1
  0
STYLE
  5
11
330
3
100
AcDbSymbolTableRecord
100
AcDbTextStyleTableRecord
  2
Standard
 70
     0
 40
0.0
 41
1.0
 50
0.0
 71
     0
 42
0.2
  3
txt
  4

  0
ENDTAB
  0
TABLE
  2
VIEW
  5
6
330
0
100
AcDbSymbolTable
 70
     0
  0
ENDTAB
  0
TABLE
  2
UCS
  5
7
330
0
100
AcDbSymbolTable
 70
     0
  0
ENDTAB
  0
TABLE
  2
APPID
  5
9
330
0
100
AcDbSymbolTable
 70
     2
  0
APPID
  5
12
330
9
100
AcDbSymbolTableRecord
100
AcDbRegAppTableRecord
  2
ACAD
 70
     0
  0
APPID
  5
3F
330
9
100
AcDbSymbolTableRecord
100
AcDbRegAppTableRecord
  2
ODA
 70
     0
  0
ENDTAB
  0
TABLE
  2
DIMSTYLE
  5
A
330
0
100
AcDbSymbolTable
 70
     1
100
AcDbDimStyleTable
  0
DIMSTYLE
105
27
330
A
100
AcDbSymbolTableRecord
100
AcDbDimStyleTableRecord
  2
Standard
 70
     0
178
     0
340
11
  0
ENDTAB
  0
TABLE
  2
BLOCK_RECORD
  5
1
330
0
100
AcDbSymbolTable
 70
     1
  0
BLOCK_RECORD
  5
1F
330
1
100
AcDbSymbolTableRecord
100
AcDbBlockTableRecord
  2
*Model_Space
340
22
 70
     0
280
     1
281
     0
  0
BLOCK_RECORD
  5
1B
330
1
100
AcDbSymbolTableRecord
100
AcDbBlockTableRecord
  2
*Paper_Space
340
1E
 70
     0
280
     1
281
     0
  0
BLOCK_RECORD
  5
23
330
1
100
AcDbSymbolTableRecord
100
AcDbBlockTableRecord
  2
*Paper_Space0
340
26
 70
     0
280
     1
281
     0
  0
ENDTAB
  0
ENDSEC
  0
SECTION
  2
BLOCKS
  0
BLOCK
  5
20
330
1F
100
AcDbEntity
  8
0
100
AcDbBlockBegin
  2
*Model_Space
 70
     0
 10
0.0
 20
0.0
 30
0.0
  3
*Model_Space
  1

  0
ENDBLK
  5
21
330
1F
100
AcDbEntity
  8
0
100
AcDbBlockEnd
  0
BLOCK
  5
1C
330
1B
100
AcDbEntity
 67
     1
  8
0
100
AcDbBlockBegin
  2
*Paper_Space
 70
     0
 10
0.0
 20
0.0
 30
0.0
  3
*Paper_Space
  1

  0
ENDBLK
  5
1D
330
1B
100
AcDbEntity
 67
     1
  8
0
100
AcDbBlockEnd
  0
BLOCK
  5
24
330
23
100
AcDbEntity
  8
0
100
AcDbBlockBegin
  2
*Paper_Space0
 70
     0
 10
0.0
 20
0.0
 30
0.0
  3
*Paper_Space0
  1

  0
ENDBLK
  5
25
330
23
100
AcDbEntity
  8
0
100
AcDbBlockEnd
  0
ENDSEC
  0
SECTION
  2
ENTITIES
  0
SPLINE
  5
41
330
1F
100
AcDbEntity
  8
Layer 1
100
AcDbSpline
210
0.0
220
0.0
230
1.0
 70
    11
 71
     3
 72
    20
 73
    16
 74
     0
 42
0.0000000001
 43
0.0000000001
 12
1.0
 22
0.0
 32
0.0
 13
1.0
 23
0.0
 33
0.0
 40
0.0
 40
0.0
 40
0.0
 40
0.0
 40
0.2
 40
0.2
 40
0.2
 40
0.2
 40
0.4
 40
0.4
 40
0.4
 40
0.4
 40
0.6
 40
0.6
 40
0.6
 40
0.6
 40
1.0
 40
1.0
 40
1.0
 40
1.0
 10
-11.57224
 20
13.17044
 30
0.0
 10
-11.57224
 20
13.17044
 30
0.0
 10
-11.57224
 20
14.14961
 30
0.0
 10
-11.57224
 20
14.14961
 30
0.0
 10
-11.57224
 20
14.14961
 30
0.0
 10
-11.57224
 20
14.14961
 30
0.0
 10
-11.45032
 20
14.14961
 30
0.0
 10
-11.45032
 20
14.14961
 30
0.0
 10
-11.45032
 20
14.14961
 30
0.0
 10
-11.45032
 20
14.14961
 30
0.0
 10
-11.45032
 20
13.17044
 30
0.0
 10
-11.45032
 20
13.17044
 30
0.0
 10
-11.45032
 20
13.17044
 30
0.0
 10
-11.45032
 20
13.17044
 30
0.0
 10
-11.57224
 20
13.17044
 30
0.0
 10
-11.57224
 20
13.17044
 30
0.0
  0
SPLINE
  5
42
330
1F
100
AcDbEntity
  8
Layer 1
100
AcDbSpline
210
0.0
220
0.0
230
1.0
 70
    11
 71
     3
 72
    20
 73
    16
 74
     0
 42
0.0000000001
 43
0.0000000001
 12
1.0
 22
0.0
 32
0.0
 13
1.0
 23
0.0
 33
0.0
 40
0.0
 40
0.0
 40
0.0
 40
0.0
 40
0.2
 40
0.2
 40
0.2
 40
0.2
 40
0.4
 40
0.4
 40
0.4
 40
0.4
 40
0.6
 40
0.6
 40
0.6
 40
0.6
 40
1.0
 40
1.0
 40
1.0
 40
1.0
 10
-11.20521
 20
13.17044
 30
0.0
 10
-11.20521
 20
13.17044
 30
0.0
 10
-11.20521
 20
13.84354
 30
0.0
 10
-11.20521
 20
13.84354
 30
0.0
 10
-11.20521
 20
13.84354
 30
0.0
 10
-11.20521
 20
13.84354
 30
0.0
 10
-11.08329
 20
13.84354
 30
0.0
 10
-11.08329
 20
13.84354
 30
0.0
 10
-11.08329
 20
13.84354
 30
0.0
 10
-11.08329
 20
13.84354
 30
0.0
 10
-11.08329
 20
13.17044
 30
0.0
 10
-11.08329
 20
13.17044
 30
0.0
 10
-11.08329
 20
13.17044
 30
0.0
 10
-11.08329
 20
13.17044
 30
0.0
 10
-11.20521
 20
13.17044
 30
0.0
 10
-11.20521
 20
13.17044
 30
0.0
  0
SPLINE
  5
43
330
1F
100
AcDbEntity
  8
Layer 1
100
AcDbSpline
210
0.0
220
0.0
230
1.0
 70
    11
 71
     3
 72
    20
 73
    16
 74
     0
 42
0.0000000001
 43
0.0000000001
 12
1.0
 22
0.0
 32
0.0
 13
1.0
 23
0.0
 33
0.0
 40
0.0
 40
0.0
 40
0.0
 40
0.0
 40
0.2
 40
0.2
 40
0.2
 40
0.2
 40
0.4
 40
0.4
 40
0.4
 40
0.4
 40
0.6
 40
0.6
 40
0.6
 40
0.6
 40
1.0
 40
1.0
 40
1.0
 40
1.0
 10
-11.20521
 20
13.96673
 30
0.0
 10
-11.20521
 20
13.96673
 30
0.0
 10
-11.20521
 20
14.08865
 30
0.0
 10
-11.20521
 20
14.08865
 30
0.0
 10
-11.20521
 20
14.08865
 30
0.0
 10
-11.20521
 20
14.08865
 30
0.0
 10
-11.08329
 20
14.08865
 30
0.0
 10
-11.08329
 20
14.08865
 30
0.0
 10
-11.08329
 20
14.08865
 30
0.0
 10
-11.08329
 20
14.08865
 30
0.0
 10
-11.08329
 20
13.96673
 30
0.0
 10
-11.08329
 20
13.96673
 30
0.0
 10
-11.08329
 20
13.96673
 30
0.0
 10
-11.08329
 20
13.96673
 30
0.0
 10
-11.20521
 20
13.96673
 30
0.0
 10
-11.20521
 20
13.96673
 30
0.0
  0
SPLINE
  5
44
330
1F
100
AcDbEntity
  8
Layer 1
100
AcDbSpline
210
0.0
220
0.0
230
1.0
 70
    11
 71
     3
 72
    76
 73
    72
 74
     0
 42
0.0000000001
 43
0.0000000001
 12
1.0
 22
0.0
 32
0.0
 13
1.0
 23
0.0
 33
0.0
 40
0.0
 40
0.0
 40
0.0
 40
0.0
 40
0.0526315789473684
 40
0.0526315789473684
 40
0.0526315789473684
 40
0.0526315789473684
 40
0.1052631578947368
 40
0.1052631578947368
 40
0.1052631578947368
 40
0.1052631578947368
 40
0.1578947368421053
 40
0.1578947368421053
 40
0.1578947368421053
 40
0.1578947368421053
 40
0.2105263157894737
 40
0.2105263157894737
 40
0.2105263157894737
 40
0.2105263157894737
 40
0.2631578947368421
 40
0.2631578947368421
 40
0.2631578947368421
 40
0.2631578947368421
 40
0.3157894736842105
 40
0.3157894736842105
 40
0.3157894736842105
 40
0.3157894736842105
 40
0.3684210526315789
 40
0.3684210526315789
 40
0.3684210526315789
 40
0.3684210526315789
 40
0.4210526315789473
 40
0.4210526315789473
 40
0.4210526315789473
 40
0.4210526315789473
 40
0.4736842105263158
 40
0.4736842105263158
 40
0.4736842105263158
 40
0.4736842105263158
 40
0.5263157894736842
 40
0.5263157894736842
 40
0.5263157894736842
 40
0.5263157894736842
 40
0.5789473684210527
 40
0.5789473684210527
 40
0.5789473684210527
 40
0.5789473684210527
 40
0.631578947368421
 40
0.631578947368421
 40
0.631578947368421
 40
0.631578947368421
 40
0.6842105263157895
 40
0.6842105263157895
 40
0.6842105263157895
 40
0.6842105263157895
 40
0.7368421052631579
 40
0.7368421052631579
 40
0.7368421052631579
 40
0.7368421052631579
 40
0.7894736842105263
 40
0.7894736842105263
 40
0.7894736842105263
 40
0.7894736842105263
 40
0.8421052631578947
 40
0.8421052631578947
 40
0.8421052631578947
 40
0.8421052631578947
 40
0.8947368421052632
 40
0.8947368421052632
 40
0.8947368421052632
 40
0.8947368421052632
 40
1.0
 40
1.0
 40
1.0
 40
1.0
 10
-10.83564
 20
12.94692
 30
0.0
 10
-10.83564
 20
12.94692
 30
0.0
 10
-10.82125
 20
13.05233
 30
0.0
 10
-10.82125
 20
13.05233
 30
0.0
 10
-10.82125
 20
13.05233
 30
0.0
 10
-10.75055
 20
13.01931
 30
0.0
 10
-10.68049
 20
13.0028
 30
0.0
 10
-10.61127
 20
13.0028
 30
0.0
 10
-10.61127
 20
13.0028
 30
0.0
 10
-10.4739
 20
13.0028
 30
0.0
 10
-10.40511
 20
13.07561
 30
0.0
 10
-10.40511
 20
13.22103
 30
0.0
 10
-10.40511
 20
13.22103
 30
0.0
 10
-10.40511
 20
13.22103
 30
0.0
 10
-10.40511
 20
13.32686
 30
0.0
 10
-10.40511
 20
13.32686
 30
0.0
 10
-10.40511
 20
13.32686
 30
0.0
 10
-10.42628
 20
13.2822
 30
0.0
 10
-10.45633
 20
13.2477
 30
0.0
 10
-10.49549
 20
13.22293
 30
0.0
 10
-10.49549
 20
13.22293
 30
0.0
 10
-10.53465
 20
13.19817
 30
0.0
 10
-10.57825
 20
13.18568
 30
0.0
 10
-10.6263
 20
13.18568
 30
0.0
 10
-10.6263
 20
13.18568
 30
0.0
 10
-10.70779
 20
13.18568
 30
0.0
 10
-10.77235
 20
13.21489
 30
0.0
 10
-10.81998
 20
13.27331
 30
0.0
 10
-10.81998
 20
13.27331
 30
0.0
 10
-10.8676
 20
13.33173
 30
0.0
 10
-10.89152
 20
13.41089
 30
0.0
 10
-10.89152
 20
13.5108
 30
0.0
 10
-10.89152
 20
13.5108
 30
0.0
 10
-10.89152
 20
13.61304
 30
0.0
 10
-10.86443
 20
13.69643
 30
0.0
 10
-10.81024
 20
13.76099
 30
0.0
 10
-10.81024
 20
13.76099
 30
0.0
 10
-10.75584
 20
13.82534
 30
0.0
 10
-10.68578
 20
13.85751
 30
0.0
 10
-10.59963
 20
13.85751
 30
0.0
 10
-10.59963
 20
13.85751
 30
0.0
 10
-10.52428
 20
13.85751
 30
0.0
 10
-10.4593
 20
13.82703
 30
0.0
 10
-10.40511
 20
13.76586
 30
0.0
 10
-10.40511
 20
13.76586
 30
0.0
 10
-10.40511
 20
13.76586
 30
0.0
 10
-10.40511
 20
13.84354
 30
0.0
 10
-10.40511
 20
13.84354
 30
0.0
 10
-10.40511
 20
13.84354
 30
0.0
 10
-10.40511
 20
13.84354
 30
0.0
 10
-10.28319
 20
13.84354
 30
0.0
 10
-10.28319
 20
13.84354
 30
0.0
 10
-10.28319
 20
13.84354
 30
0.0
 10
-10.28319
 20
13.84354
 30
0.0
 10
-10.28319
 20
13.35417
 30
0.0
 10
-10.28319
 20
13.35417
 30
0.0
 10
-10.28319
 20
13.35417
 30
0.0
 10
-10.28319
 20
13.24897
 30
0.0
 10
-10.28869
 20
13.17108
 30
0.0
 10
-10.2997
 20
13.12049
 30
0.0
 10
-10.2997
 20
13.12049
 30
0.0
 10
-10.31049
 20
13.0699
 30
0.0
 10
-10.33124
 20
13.02841
 30
0.0
 10
-10.36129
 20
12.99624
 30
0.0
 10
-10.36129
 20
12.99624
 30
0.0
 10
-10.41463
 20
12.93972
 30
0.0
 10
-10.49803
 20
12.91136
 30
0.0
 10
-10.61127
 20
12.91136
 30
0.0
 10
-10.61127
 20
12.91136
 30
0.0
 10
-10.68895
 20
12.91136
 30
0.0
 10
-10.76367
 20
12.92321
 30
0.0
 10
-10.83564
 20
12.94692
 30
0.0
  0
SPLINE
  5
45
330
1F
100
AcDbEntity
  8
Layer 1
100
AcDbSpline
210
0.0
220
0.0
230
1.0
 70
    11
 71
     3
 72
    28
 73
    24
 74
     0
 42
0.0000000001
 43
0.0000000001
 12
1.0
 22
0.0
 32
0.0
 13
1.0
 23
0.0
 33
0.0
 40
0.0
 40
0.0
 40
0.0
 40
0.0
 40
0.1428571428571428
 40
0.1428571428571428
 40
0.1428571428571428
 40
0.1428571428571428
 40
0.2857142857142857
 40
0.2857142857142857
 40
0.2857142857142857
 40
0.2857142857142857
 40
0.4285714285714285
 40
0.4285714285714285
 40
0.4285714285714285
 40
0.4285714285714285
 40
0.5714285714285714
 40
0.5714285714285714
 40
0.5714285714285714
 40
0.5714285714285714
 40
0.7142857142857143
 40
0.7142857142857143
 40
0.7142857142857143
 40
0.7142857142857143
 40
1.0
 40
1.0
 40
1.0
 40
1.0
 10
-10.40511
 20
13.40327
 30
0.0
 10
-10.40511
 20
13.40327
 30
0.0
 10
-10.40511
 20
13.68246
 30
0.0
 10
-10.40511
 20
13.68246
 30
0.0
 10
-10.40511
 20
13.68246
 30
0.0
 10
-10.45887
 20
13.73813
 30
0.0
 10
-10.5175
 20
13.76607
 30
0.0
 10
-10.58079
 20
13.76607
 30
0.0
 10
-10.58079
 20
13.76607
 30
0.0
 10
-10.6371
 20
13.76607
 30
0.0
 10
-10.68112
 20
13.74363
 30
0.0
 10
-10.71287
 20
13.69855
 30
0.0
 10
-10.71287
 20
13.69855
 30
0.0
 10
-10.74483
 20
13.65368
 30
0.0
 10
-10.76071
 20
13.59123
 30
0.0
 10
-10.76071
 20
13.51165
 30
0.0
 10
-10.76071
 20
13.51165
 30
0.0
 10
-10.76071
 20
13.36539
 30
0.0
 10
-10.70885
 20
13.29236
 30
0.0
 10
-10.60492
 20
13.29236
 30
0.0
 10
-10.60492
 20
13.29236
 30
0.0
 10
-10.53423
 20
13.29236
 30
0.0
 10
-10.46755
 20
13.3294
 30
0.0
 10
-10.40511
 20
13.40327
 30
0.0
  0
SPLINE
  5
46
330
1F
100
AcDbEntity
  8
Layer 1
100
AcDbSpline
210
0.0
220
0.0
230
1.0
 70
    11
 71
     3
 72
    60
 73
    56
 74
     0
 42
0.0000000001
 43
0.0000000001
 12
1.0
 22
0.0
 32
0.0
 13
1.0
 23
0.0
 33
0.0
 40
0.0
 40
0.0
 40
0.0
 40
0.0
 40
0.0666666666666667
 40
0.0666666666666667
 40
0.0666666666666667
 40
0.0666666666666667
 40
0.1333333333333333
 40
0.1333333333333333
 40
0.1333333333333333
 40
0.1333333333333333
 40
0.2
 40
0.2
 40
0.2
 40
0.2
 40
0.2666666666666667
 40
0.2666666666666667
 40
0.2666666666666667
 40
0.2666666666666667
 40
0.3333333333333333
 40
0.3333333333333333
 40
0.3333333333333333
 40
0.3333333333333333
 40
0.4
 40
0.4
 40
0.4
 40
0.4
 40
0.4666666666666667
 40
0.4666666666666667
 40
0.4666666666666667
 40
0.4666666666666667
 40
0.5333333333333333
 40
0.5333333333333333
 40
0.5333333333333333
 40
0.5333333333333333
 40
0.6
 40
0.6
 40
0.6
 40
0.6
 40
0.6666666666666666
 40
0.6666666666666666
 40
0.6666666666666666
 40
0.6666666666666666
 40
0.7333333333333333
 40
0.7333333333333333
 40
0.7333333333333333
 40
0.7333333333333333
 40
0.8
 40
0.8
 40
0.8
 40
0.8
 40
0.8666666666666667
 40
0.8666666666666667
 40
0.8666666666666667
 40
0.8666666666666667
 40
1.0
 40
1.0
 40
1.0
 40
1.0
 10
-10.04633
 20
13.17044
 30
0.0
 10
-10.04633
 20
13.17044
 30
0.0
 10
-10.04633
 20
14.14961
 30
0.0
 10
-10.04633
 20
14.14961
 30
0.0
 10
-10.04633
 20
14.14961
 30
0.0
 10
-10.04633
 20
14.14961
 30
0.0
 10
-9.92441
 20
14.14961
 30
0.0
 10
-9.92441
 20
14.14961
 30
0.0
 10
-9.92441
 20
14.14961
 30
0.0
 10
-9.92441
 20
14.14961
 30
0.0
 10
-9.92441
 20
13.71633
 30
0.0
 10
-9.92441
 20
13.71633
 30
0.0
 10
-9.92441
 20
13.71633
 30
0.0
 10
-9.85985
 20
13.81052
 30
0.0
 10
-9.78069
 20
13.85751
 30
0.0
 10
-9.68713
 20
13.85751
 30
0.0
 10
-9.68713
 20
13.85751
 30
0.0
 10
-9.62829
 20
13.85751
 30
0.0
 10
-9.58151
 20
13.8391
 30
0.0
 10
-9.54701
 20
13.80205
 30
0.0
 10
-9.54701
 20
13.80205
 30
0.0
 10
-9.51251
 20
13.76522
 30
0.0
 10
-9.49515
 20
13.71548
 30
0.0
 10
-9.49515
 20
13.65325
 30
0.0
 10
-9.49515
 20
13.65325
 30
0.0
 10
-9.49515
 20
13.65325
 30
0.0
 10
-9.49515
 20
13.17044
 30
0.0
 10
-9.49515
 20
13.17044
 30
0.0
 10
-9.49515
 20
13.17044
 30
0.0
 10
-9.49515
 20
13.17044
 30
0.0
 10
-9.61707
 20
13.17044
 30
0.0
 10
-9.61707
 20
13.17044
 30
0.0
 10
-9.61707
 20
13.17044
 30
0.0
 10
-9.61707
 20
13.17044
 30
0.0
 10
-9.61707
 20
13.61346
 30
0.0
 10
-9.61707
 20
13.61346
 30
0.0
 10
-9.61707
 20
13.61346
 30
0.0
 10
-9.61707
 20
13.66341
 30
0.0
 10
-9.62448
 20
13.69897
 30
0.0
 10
-9.63908
 20
13.72014
 30
0.0
 10
-9.63908
 20
13.72014
 30
0.0
 10
-9.6539
 20
13.74152
 30
0.0
 10
-9.67824
 20
13.7521
 30
0.0
 10
-9.71232
 20
13.7521
 30
0.0
 10
-9.71232
 20
13.7521
 30
0.0
 10
-9.78725
 20
13.7521
 30
0.0
 10
-9.85795
 20
13.70321
 30
0.0
 10
-9.92441
 20
13.60542
 30
0.0
 10
-9.92441
 20
13.60542
 30
0.0
 10
-9.92441
 20
13.60542
 30
0.0
 10
-9.92441
 20
13.17044
 30
0.0
 10
-9.92441
 20
13.17044
 30
0.0
 10
-9.92441
 20
13.17044
 30
0.0
 10
-9.92441
 20
13.17044
 30
0.0
 10
-10.04633
 20
13.17044
 30
0.0
 10
-10.04633
 20
13.17044
 30
0.0
  0
SPLINE
  5
47
330
1F
100
AcDbEntity
  8
Layer 1
100
AcDbSpline
210
0.0
220
0.0
230
1.0
 70
    11
 71
     3
 72
    72
 73
    68
 74
     0
 42
0.0000000001
 43
0.0000000001
 12
1.0
 22
0.0
 32
0.0
 13
1.0
 23
0.0
 33
0.0
 40
0.0
 40
0.0
 40
0.0
 40
0.0
 40
0.0555555555555556
 40
0.0555555555555556
 40
0.0555555555555556
 40
0.0555555555555556
 40
0.1111111111111111
 40
0.1111111111111111
 40
0.1111111111111111
 40
0.1111111111111111
 40
0.1666666666666667
 40
0.1666666666666667
 40
0.1666666666666667
 40
0.1666666666666667
 40
0.2222222222222222
 40
0.2222222222222222
 40
0.2222222222222222
 40
0.2222222222222222
 40
0.2777777777777778
 40
0.2777777777777778
 40
0.2777777777777778
 40
0.2777777777777778
 40
0.3333333333333333
 40
0.3333333333333333
 40
0.3333333333333333
 40
0.3333333333333333
 40
0.3888888888888889
 40
0.3888888888888889
 40
0.3888888888888889
 40
0.3888888888888889
 40
0.4444444444444444
 40
0.4444444444444444
 40
0.4444444444444444
 40
0.4444444444444444
 40
0.5
 40
0.5
 40
0.5
 40
0.5
 40
0.5555555555555556
 40
0.5555555555555556
 40
0.5555555555555556
 40
0.5555555555555556
 40
0.6111111111111112
 40
0.6111111111111112
 40
0.6111111111111112
 40
0.6111111111111112
 40
0.6666666666666666
 40
0.6666666666666666
 40
0.6666666666666666
 40
0.6666666666666666
 40
0.7222222222222222
 40
0.7222222222222222
 40
0.7222222222222222
 40
0.7222222222222222
 40
0.7777777777777778
 40
0.7777777777777778
 40
0.7777777777777778
 40
0.7777777777777778
 40
0.8333333333333334
 40
0.8333333333333334
 40
0.8333333333333334
 40
0.8333333333333334
 40
0.8888888888888888
 40
0.8888888888888888
 40
0.8888888888888888
 40
0.8888888888888888
 40
1.0
 40
1.0
 40
1.0
 40
1.0
 10
-8.95709
 20
13.17065
 30
0.0
 10
-8.99477
 20
13.16028
 30
0.0
 10
-9.02757
 20
13.1552
 30
0.0
 10
-9.0553
 20
13.1552
 30
0.0
 10
-9.0553
 20
13.1552
 30
0.0
 10
-9.11753
 20
13.1552
 30
0.0
 10
-9.166
 20
13.17298
 30
0.0
 10
-9.20072
 20
13.20854
 30
0.0
 10
-9.20072
 20
13.20854
 30
0.0
 10
-9.23564
 20
13.2441
 30
0.0
 10
-9.253
 20
13.29342
 30
0.0
 10
-9.253
 20
13.35671
 30
0.0
 10
-9.253
 20
13.35671
 30
0.0
 10
-9.253
 20
13.35671
 30
0.0
 10
-9.253
 20
13.7521
 30
0.0
 10
-9.253
 20
13.7521
 30
0.0
 10
-9.253
 20
13.7521
 30
0.0
 10
-9.253
 20
13.7521
 30
0.0
 10
-9.33724
 20
13.7521
 30
0.0
 10
-9.33724
 20
13.7521
 30
0.0
 10
-9.33724
 20
13.7521
 30
0.0
 10
-9.33724
 20
13.7521
 30
0.0
 10
-9.33724
 20
13.84354
 30
0.0
 10
-9.33724
 20
13.84354
 30
0.0
 10
-9.33724
 20
13.84354
 30
0.0
 10
-9.33724
 20
13.84354
 30
0.0
 10
-9.253
 20
13.84354
 30
0.0
 10
-9.253
 20
13.84354
 30
0.0
 10
-9.253
 20
13.84354
 30
0.0
 10
-9.253
 20
13.84354
 30
0.0
 10
-9.253
 20
13.96525
 30
0.0
 10
-9.253
 20
13.96525
 30
0.0
 10
-9.253
 20
13.96525
 30
0.0
 10
-9.253
 20
13.96525
 30
0.0
 10
-9.13108
 20
13.97689
 30
0.0
 10
-9.13108
 20
13.97689
 30
0.0
 10
-9.13108
 20
13.97689
 30
0.0
 10
-9.13108
 20
13.97689
 30
0.0
 10
-9.13108
 20
13.84354
 30
0.0
 10
-9.13108
 20
13.84354
 30
0.0
 10
-9.13108
 20
13.84354
 30
0.0
 10
-9.13108
 20
13.84354
 30
0.0
 10
-8.95455
 20
13.84354
 30
0.0
 10
-8.95455
 20
13.84354
 30
0.0
 10
-8.95455
 20
13.84354
 30
0.0
 10
-8.95455
 20
13.84354
 30
0.0
 10
-8.95455
 20
13.7521
 30
0.0
 10
-8.95455
 20
13.7521
 30
0.0
 10
-8.95455
 20
13.7521
 30
0.0
 10
-8.95455
 20
13.7521
 30
0.0
 10
-9.13108
 20
13.7521
 30
0.0
 10
-9.13108
 20
13.7521
 30
0.0
 10
-9.13108
 20
13.7521
 30
0.0
 10
-9.13108
 20
13.7521
 30
0.0
 10
-9.13108
 20
13.37872
 30
0.0
 10
-9.13108
 20
13.37872
 30
0.0
 10
-9.13108
 20
13.37872
 30
0.0
 10
-9.13108
 20
13.29067
 30
0.0
 10
-9.09277
 20
13.24664
 30
0.0
 10
-9.01636
 20
13.24664
 30
0.0
 10
-9.01636
 20
13.24664
 30
0.0
 10
-9.00006
 20
13.24664
 30
0.0
 10
-8.98037
 20
13.24939
 30
0.0
 10
-8.95709
 20
13.25468
 30
0.0
 10
-8.95709
 20
13.25468
 30
0.0
 10
-8.95709
 20
13.25468
 30
0.0
 10
-8.95709
 20
13.17065
 30
0.0
 10
-8.95709
 20
13.17065
 30
0.0
  0
SPLINE
  5
48
330
1F
100
AcDbEntity
  8
Layer 1
100
AcDbSpline
210
0.0
220
0.0
230
1.0
 70
    11
 71
     3
 72
    20
 73
    16
 74
     0
 42
0.0000000001
 43
0.0000000001
 12
1.0
 22
0.0
 32
0.0
 13
1.0
 23
0.0
 33
0.0
 40
0.0
 40
0.0
 40
0.0
 40
0.0
 40
0.2
 40
0.2
 40
0.2
 40
0.2
 40
0.4
 40
0.4
 40
0.4
 40
0.4
 40
0.6
 40
0.6
 40
0.6
 40
0.6
 40
1.0
 40
1.0
 40
1.0
 40
1.0
 10
-8.7831
 20
13.17044
 30
0.0
 10
-8.7831
 20
13.17044
 30
0.0
 10
-8.7831
 20
13.84354
 30
0.0
 10
-8.7831
 20
13.84354
 30
0.0
 10
-8.7831
 20
13.84354
 30
0.0
 10
-8.7831
 20
13.84354
 30
0.0
 10
-8.66118
 20
13.84354
 30
0.0
 10
-8.66118
 20
13.84354
 30
0.0
 10
-8.66118
 20
13.84354
 30
0.0
 10
-8.66118
 20
13.84354
 30
0.0
 10
-8.66118
 20
13.17044
 30
0.0
 10
-8.66118
 20
13.17044
 30
0.0
 10
-8.66118
 20
13.17044
 30
0.0
 10
-8.66118
 20
13.17044
 30
0.0
 10
-8.7831
 20
13.17044
 30
0.0
 10
-8.7831
 20
13.17044
 30
0.0
  0
SPLINE
  5
49
330
1F
100
AcDbEntity
  8
Layer 1
100
AcDbSpline
210
0.0
220
0.0
230
1.0
 70
    11
 71
     3
 72
    20
 73
    16
 74
     0
 42
0.0000000001
 43
0.0000000001
 12
1.0
 22
0.0
 32
0.0
 13
1.0
 23
0.0
 33
0.0
 40
0.0
 40
0.0
 40
0.0
 40
0.0
 40
0.2
 40
0.2
 40
0.2
 40
0.2
 40
0.4
 40
0.4
 40
0.4
 40
0.4
 40
0.6
 40
0.6
 40
0.6
 40
0.6
 40
1.0
 40
1.0
 40
1.0
 40
1.0
 10
-8.7831
 20
13.96673
 30
0.0
 10
-8.7831
 20
13.96673
 30
0.0
 10
-8.7831
 20
14.08865
 30
0.0
 10
-8.7831
 20
14.08865
 30
0.0
 10
-8.7831
 20
14.08865
 30
0.0
 10
-8.7831
 20
14.08865
 30
0.0
 10
-8.66118
 20
14.08865
 30
0.0
 10
-8.66118
 20
14.08865
 30
0.0
 10
-8.66118
 20
14.08865
 30
0.0
 10
-8.66118
 20
14.08865
 30
0.0
 10
-8.66118
 20
13.96673
 30
0.0
 10
-8.66118
 20
13.96673
 30
0.0
 10
-8.66118
 20
13.96673
 30
0.0
 10
-8.66118
 20
13.96673
 30
0.0
 10
-8.7831
 20
13.96673
 30
0.0
 10
-8.7831
 20
13.96673
 30
0.0
  0
SPLINE
  5
4A
330
1F
100
AcDbEntity
  8
Layer 1
100
AcDbSpline
210
0.0
220
0.0
230
1.0
 70
    11
 71
     3
 72
    60
 73
    56
 74
     0
 42
0.0000000001
 43
0.0000000001
 12
1.0
 22
0.0
 32
0.0
 13
1.0
 23
0.0
 33
0.0
 40
0.0
 40
0.0
 40
0.0
 40
0.0
 40
0.0666666666666667
 40
0.0666666666666667
 40
0.0666666666666667
 40
0.0666666666666667
 40
0.1333333333333333
 40
0.1333333333333333
 40
0.1333333333333333
 40
0.1333333333333333
 40
0.2
 40
0.2
 40
0.2
 40
0.2
 40
0.2666666666666667
 40
0.2666666666666667
 40
0.2666666666666667
 40
0.2666666666666667
 40
0.3333333333333333
 40
0.3333333333333333
 40
0.3333333333333333
 40
0.3333333333333333
 40
0.4
 40
0.4
 40
0.4
 40
0.4
 40
0.4666666666666667
 40
0.4666666666666667
 40
0.4666666666666667
 40
0.4666666666666667
 40
0.5333333333333333
 40
0.5333333333333333
 40
0.5333333333333333
 40
0.5333333333333333
 40
0.6
 40
0.6
 40
0.6
 40
0.6
 40
0.6666666666666666
 40
0.6666666666666666
 40
0.6666666666666666
 40
0.6666666666666666
 40
0.7333333333333333
 40
0.7333333333333333
 40
0.7333333333333333
 40
0.7333333333333333
 40
0.8
 40
0.8
 40
0.8
 40
0.8
 40
0.8666666666666667
 40
0.8666666666666667
 40
0.8666666666666667
 40
0.8666666666666667
 40
1.0
 40
1.0
 40
1.0
 40
1.0
 10
-8.41607
 20
13.17044
 30
0.0
 10
-8.41607
 20
13.17044
 30
0.0
 10
-8.41607
 20
13.84354
 30
0.0
 10
-8.41607
 20
13.84354
 30
0.0
 10
-8.41607
 20
13.84354
 30
0.0
 10
-8.41607
 20
13.84354
 30
0.0
 10
-8.29415
 20
13.84354
 30
0.0
 10
-8.29415
 20
13.84354
 30
0.0
 10
-8.29415
 20
13.84354
 30
0.0
 10
-8.29415
 20
13.84354
 30
0.0
 10
-8.29415
 20
13.71633
 30
0.0
 10
-8.29415
 20
13.71633
 30
0.0
 10
-8.29415
 20
13.71633
 30
0.0
 10
-8.22959
 20
13.81052
 30
0.0
 10
-8.15043
 20
13.85751
 30
0.0
 10
-8.05687
 20
13.85751
 30
0.0
 10
-8.05687
 20
13.85751
 30
0.0
 10
-7.99803
 20
13.85751
 30
0.0
 10
-7.95125
 20
13.8391
 30
0.0
 10
-7.91675
 20
13.80205
 30
0.0
 10
-7.91675
 20
13.80205
 30
0.0
 10
-7.88225
 20
13.76522
 30
0.0
 10
-7.86489
 20
13.71548
 30
0.0
 10
-7.86489
 20
13.65325
 30
0.0
 10
-7.86489
 20
13.65325
 30
0.0
 10
-7.86489
 20
13.65325
 30
0.0
 10
-7.86489
 20
13.17044
 30
0.0
 10
-7.86489
 20
13.17044
 30
0.0
 10
-7.86489
 20
13.17044
 30
0.0
 10
-7.86489
 20
13.17044
 30
0.0
 10
-7.98681
 20
13.17044
 30
0.0
 10
-7.98681
 20
13.17044
 30
0.0
 10
-7.98681
 20
13.17044
 30
0.0
 10
-7.98681
 20
13.17044
 30
0.0
 10
-7.98681
 20
13.61346
 30
0.0
 10
-7.98681
 20
13.61346
 30
0.0
 10
-7.98681
 20
13.61346
 30
0.0
 10
-7.98681
 20
13.66341
 30
0.0
 10
-7.99422
 20
13.69897
 30
0.0
 10
-8.00882
 20
13.72014
 30
0.0
 10
-8.00882
 20
13.72014
 30
0.0
 10
-8.02364
 20
13.74152
 30
0.0
 10
-8.04798
 20
13.7521
 30
0.0
 10
-8.08206
 20
13.7521
 30
0.0
 10
-8.08206
 20
13.7521
 30
0.0
 10
-8.15699
 20
13.7521
 30
0.0
 10
-8.22769
 20
13.70321
 30
0.0
 10
-8.29415
 20
13.60542
 30
0.0
 10
-8.29415
 20
13.60542
 30
0.0
 10
-8.29415
 20
13.60542
 30
0.0
 10
-8.29415
 20
13.17044
 30
0.0
 10
-8.29415
 20
13.17044
 30
0.0
 10
-8.29415
 20
13.17044
 30
0.0
 10
-8.29415
 20
13.17044
 30
0.0
 10
-8.41607
 20
13.17044
 30
0.0
 10
-8.41607
 20
13.17044
 30
0.0
  0
SPLINE
  5
4B
330
1F
100
AcDbEntity
  8
Layer 1
100
AcDbSpline
210
0.0
220
0.0
230
1.0
 70
    11
 71
     3
 72
    76
 73
    72
 74
     0
 42
0.0000000001
 43
0.0000000001
 12
1.0
 22
0.0
 32
0.0
 13
1.0
 23
0.0
 33
0.0
 40
0.0
 40
0.0
 40
0.0
 40
0.0
 40
0.0526315789473684
 40
0.0526315789473684
 40
0.0526315789473684
 40
0.0526315789473684
 40
0.1052631578947368
 40
0.1052631578947368
 40
0.1052631578947368
 40
0.1052631578947368
 40
0.1578947368421053
 40
0.1578947368421053
 40
0.1578947368421053
 40
0.1578947368421053
 40
0.2105263157894737
 40
0.2105263157894737
 40
0.2105263157894737
 40
0.2105263157894737
 40
0.2631578947368421
 40
0.2631578947368421
 40
0.2631578947368421
 40
0.2631578947368421
 40
0.3157894736842105
 40
0.3157894736842105
 40
0.3157894736842105
 40
0.3157894736842105
 40
0.3684210526315789
 40
0.3684210526315789
 40
0.3684210526315789
 40
0.3684210526315789
 40
0.4210526315789473
 40
0.4210526315789473
 40
0.4210526315789473
 40
0.4210526315789473
 40
0.4736842105263158
 40
0.4736842105263158
 40
0.4736842105263158
 40
0.4736842105263158
 40
0.5263157894736842
 40
0.5263157894736842
 40
0.5263157894736842
 40
0.5263157894736842
 40
0.5789473684210527
 40
0.5789473684210527
 40
0.5789473684210527
 40
0.5789473684210527
 40
0.631578947368421
 40
0.631578947368421
 40
0.631578947368421
 40
0.631578947368421
 40
0.6842105263157895
 40
0.6842105263157895
 40
0.6842105263157895
 40
0.6842105263157895
 40
0.7368421052631579
 40
0.7368421052631579
 40
0.7368421052631579
 40
0.7368421052631579
 40
0.7894736842105263
 40
0.7894736842105263
 40
0.7894736842105263
 40
0.7894736842105263
 40
0.8421052631578947
 40
0.8421052631578947
 40
0.8421052631578947
 40
0.8421052631578947
 40
0.8947368421052632
 40
0.8947368421052632
 40
0.8947368421052632
 40
0.8947368421052632
 40
1.0
 40
1.0
 40
1.0
 40
1.0
 10
-7.62528
 20
12.94692
 30
0.0
 10
-7.62528
 20
12.94692
 30
0.0
 10
-7.61089
 20
13.05233
 30
0.0
 10
-7.61089
 20
13.05233
 30
0.0
 10
-7.61089
 20
13.05233
 30
0.0
 10
-7.54019
 20
13.01931
 30
0.0
 10
-7.47013
 20
13.0028
 30
0.0
 10
-7.40091
 20
13.0028
 30
0.0
 10
-7.40091
 20
13.0028
 30
0.0
 10
-7.26354
 20
13.0028
 30
0.0
 10
-7.19475
 20
13.07561
 30
0.0
 10
-7.19475
 20
13.22103
 30
0.0
 10
-7.19475
 20
13.22103
 30
0.0
 10
-7.19475
 20
13.22103
 30
0.0
 10
-7.19475
 20
13.32686
 30
0.0
 10
-7.19475
 20
13.32686
 30
0.0
 10
-7.19475
 20
13.32686
 30
0.0
 10
-7.21592
 20
13.2822
 30
0.0
 10
-7.24597
 20
13.2477
 30
0.0
 10
-7.28513
 20
13.22293
 30
0.0
 10
-7.28513
 20
13.22293
 30
0.0
 10
-7.32429
 20
13.19817
 30
0.0
 10
-7.36789
 20
13.18568
 30
0.0
 10
-7.41594
 20
13.18568
 30
0.0
 10
-7.41594
 20
13.18568
 30
0.0
 10
-7.49743
 20
13.18568
 30
0.0
 10
-7.56199
 20
13.21489
 30
0.0
 10
-7.60962
 20
13.27331
 30
0.0
 10
-7.60962
 20
13.27331
 30
0.0
 10
-7.65724
 20
13.33173
 30
0.0
 10
-7.68116
 20
13.41089
 30
0.0
 10
-7.68116
 20
13.5108
 30
0.0
 10
-7.68116
 20
13.5108
 30
0.0
 10
-7.68116
 20
13.61304
 30
0.0
 10
-7.65407
 20
13.69643
 30
0.0
 10
-7.59988
 20
13.76099
 30
0.0
 10
-7.59988
 20
13.76099
 30
0.0
 10
-7.54548
 20
13.82534
 30
0.0
 10
-7.47542
 20
13.85751
 30
0.0
 10
-7.38927
 20
13.85751
 30
0.0
 10
-7.38927
 20
13.85751
 30
0.0
 10
-7.31392
 20
13.85751
 30
0.0
 10
-7.24894
 20
13.82703
 30
0.0
 10
-7.19475
 20
13.76586
 30
0.0
 10
-7.19475
 20
13.76586
 30
0.0
 10
-7.19475
 20
13.76586
 30
0.0
 10
-7.19475
 20
13.84354
 30
0.0
 10
-7.19475
 20
13.84354
 30
0.0
 10
-7.19475
 20
13.84354
 30
0.0
 10
-7.19475
 20
13.84354
 30
0.0
 10
-7.07283
 20
13.84354
 30
0.0
 10
-7.07283
 20
13.84354
 30
0.0
 10
-7.07283
 20
13.84354
 30
0.0
 10
-7.07283
 20
13.84354
 30
0.0
 10
-7.07283
 20
13.35417
 30
0.0
 10
-7.07283
 20
13.35417
 30
0.0
 10
-7.07283
 20
13.35417
 30
0.0
 10
-7.07283
 20
13.24897
 30
0.0
 10
-7.07833
 20
13.17108
 30
0.0
 10
-7.08934
 20
13.12049
 30
0.0
 10
-7.08934
 20
13.12049
 30
0.0
 10
-7.10013
 20
13.0699
 30
0.0
 10
-7.12088
 20
13.02841
 30
0.0
 10
-7.15093
 20
12.99624
 30
0.0
 10
-7.15093
 20
12.99624
 30
0.0
 10
-7.20427
 20
12.93972
 30
0.0
 10
-7.28767
 20
12.91136
 30
0.0
 10
-7.40091
 20
12.91136
 30
0.0
 10
-7.40091
 20
12.91136
 30
0.0
 10
-7.47859
 20
12.91136
 30
0.0
 10
-7.55331
 20
12.92321
 30
0.0
 10
-7.62528
 20
12.94692
 30
0.0
  0
SPLINE
  5
4C
330
1F
100
AcDbEntity
  8
Layer 1
100
AcDbSpline
210
0.0
220
0.0
230
1.0
 70
    11
 71
     3
 72
    28
 73
    24
 74
     0
 42
0.0000000001
 43
0.0000000001
 12
1.0
 22
0.0
 32
0.0
 13
1.0
 23
0.0
 33
0.0
 40
0.0
 40
0.0
 40
0.0
 40
0.0
 40
0.1428571428571428
 40
0.1428571428571428
 40
0.1428571428571428
 40
0.1428571428571428
 40
0.2857142857142857
 40
0.2857142857142857
 40
0.2857142857142857
 40
0.2857142857142857
 40
0.4285714285714285
 40
0.4285714285714285
 40
0.4285714285714285
 40
0.4285714285714285
 40
0.5714285714285714
 40
0.5714285714285714
 40
0.5714285714285714
 40
0.5714285714285714
 40
0.7142857142857143
 40
0.7142857142857143
 40
0.7142857142857143
 40
0.7142857142857143
 40
1.0
 40
1.0
 40
1.0
 40
1.0
 10
-7.19475
 20
13.40327
 30
0.0
 10
-7.19475
 20
13.40327
 30
0.0
 10
-7.19475
 20
13.68246
 30
0.0
 10
-7.19475
 20
13.68246
 30
0.0
 10
-7.19475
 20
13.68246
 30
0.0
 10
-7.24851
 20
13.73813
 30
0.0
 10
-7.30714
 20
13.76607
 30
0.0
 10
-7.37043
 20
13.76607
 30
0.0
 10
-7.37043
 20
13.76607
 30
0.0
 10
-7.42674
 20
13.76607
 30
0.0
 10
-7.47076
 20
13.74363
 30
0.0
 10
-7.50251
 20
13.69855
 30
0.0
 10
-7.50251
 20
13.69855
 30
0.0
 10
-7.53447
 20
13.65368
 30
0.0
 10
-7.55035
 20
13.59123
 30
0.0
 10
-7.55035
 20
13.51165
 30
0.0
 10
-7.55035
 20
13.51165
 30
0.0
 10
-7.55035
 20
13.36539
 30
0.0
 10
-7.49849
 20
13.29236
 30
0.0
 10
-7.39456
 20
13.29236
 30
0.0
 10
-7.39456
 20
13.29236
 30
0.0
 10
-7.32387
 20
13.29236
 30
0.0
 10
-7.25719
 20
13.3294
 30
0.0
 10
-7.19475
 20
13.40327
 30
0.0
  0
SPLINE
  5
4D
330
1F
100
AcDbEntity
  8
Layer 1
100
AcDbSpline
210
0.0
220
0.0
230
1.0
 70
    11
 71
     3
 72
    20
 73
    16
 74
     0
 42
0.0000000001
 43
0.0000000001
 12
1.0
 22
0.0
 32
0.0
 13
1.0
 23
0.0
 33
0.0
 40
0.0
 40
0.0
 40
0.0
 40
0.0
 40
0.2
 40
0.2
 40
0.2
 40
0.2
 40
0.4
 40
0.4
 40
0.4
 40
0.4
 40
0.6
 40
0.6
 40
0.6
 40
0.6
 40
1.0
 40
1.0
 40
1.0
 40
1.0
 10
-6.90455
 20
13.079
 30
0.0
 10
-6.90455
 20
13.079
 30
0.0
 10
-6.90455
 20
13.17044
 30
0.0
 10
-6.90455
 20
13.17044
 30
0.0
 10
-6.90455
 20
13.17044
 30
0.0
 10
-6.90455
 20
13.17044
 30
0.0
 10
-6.37623
 20
13.17044
 30
0.0
 10
-6.37623
 20
13.17044
 30
0.0
 10
-6.37623
 20
13.17044
 30
0.0
 10
-6.37623
 20
13.17044
 30
0.0
 10
-6.37623
 20
13.079
 30
0.0
 10
-6.37623
 20
13.079
 30
0.0
 10
-6.37623
 20
13.079
 30
0.0
 10
-6.37623
 20
13.079
 30
0.0
 10
-6.90455
 20
13.079
 30
0.0
 10
-6.90455
 20
13.079
 30
0.0
  0
SPLINE
  5
4E
330
1F
100
AcDbEntity
  8
Layer 1
100
AcDbSpline
210
0.0
220
0.0
230
1.0
 70
    11
 71
     3
 72
    48
 73
    44
 74
     0
 42
0.0000000001
 43
0.0000000001
 12
1.0
 22
0.0
 32
0.0
 13
1.0
 23
0.0
 33
0.0
 40
0.0
 40
0.0
 40
0.0
 40
0.0
 40
0.0833333333333333
 40
0.0833333333333333
 40
0.0833333333333333
 40
0.0833333333333333
 40
0.1666666666666667
 40
0.1666666666666667
 40
0.1666666666666667
 40
0.1666666666666667
 40
0.25
 40
0.25
 40
0.25
 40
0.25
 40
0.3333333333333333
 40
0.3333333333333333
 40
0.3333333333333333
 40
0.3333333333333333
 40
0.4166666666666667
 40
0.4166666666666667
 40
0.4166666666666667
 40
0.4166666666666667
 40
0.5
 40
0.5
 40
0.5
 40
0.5
 40
0.5833333333333334
 40
0.5833333333333334
 40
0.5833333333333334
 40
0.5833333333333334
 40
0.6666666666666666
 40
0.6666666666666666
 40
0.6666666666666666
 40
0.6666666666666666
 40
0.75
 40
0.75
 40
0.75
 40
0.75
 40
0.8333333333333334
 40
0.8333333333333334
 40
0.8333333333333334
 40
0.8333333333333334
 40
1.0
 40
1.0
 40
1.0
 40
1.0
 10
-6.20097
 20
12.92533
 30
0.0
 10
-6.20097
 20
12.92533
 30
0.0
 10
-6.20097
 20
13.84354
 30
0.0
 10
-6.20097
 20
13.84354
 30
0.0
 10
-6.20097
 20
13.84354
 30
0.0
 10
-6.20097
 20
13.84354
 30
0.0
 10
-6.07905
 20
13.84354
 30
0.0
 10
-6.07905
 20
13.84354
 30
0.0
 10
-6.07905
 20
13.84354
 30
0.0
 10
-6.07905
 20
13.84354
 30
0.0
 10
-6.07905
 20
13.71633
 30
0.0
 10
-6.07905
 20
13.71633
 30
0.0
 10
-6.07905
 20
13.71633
 30
0.0
 10
-6.0291
 20
13.81052
 30
0.0
 10
-5.95395
 20
13.85751
 30
0.0
 10
-5.85384
 20
13.85751
 30
0.0
 10
-5.85384
 20
13.85751
 30
0.0
 10
-5.77277
 20
13.85751
 30
0.0
 10
-5.70906
 20
13.82809
 30
0.0
 10
-5.66249
 20
13.76903
 30
0.0
 10
-5.66249
 20
13.76903
 30
0.0
 10
-5.61592
 20
13.70998
 30
0.0
 10
-5.59264
 20
13.62933
 30
0.0
 10
-5.59264
 20
13.5271
 30
0.0
 10
-5.59264
 20
13.5271
 30
0.0
 10
-5.59264
 20
13.41576
 30
0.0
 10
-5.6191
 20
13.3258
 30
0.0
 10
-5.6718
 20
13.25765
 30
0.0
 10
-5.6718
 20
13.25765
 30
0.0
 10
-5.72451
 20
13.18928
 30
0.0
 10
-5.79393
 20
13.1552
 30
0.0
 10
-5.87987
 20
13.1552
 30
0.0
 10
-5.87987
 20
13.1552
 30
0.0
 10
-5.95967
 20
13.1552
 30
0.0
 10
-6.02613
 20
13.18568
 30
0.0
 10
-6.07905
 20
13.24685
 30
0.0
 10
-6.07905
 20
13.24685
 30
0.0
 10
-6.07905
 20
13.24685
 30
0.0
 10
-6.07905
 20
12.92533
 30
0.0
 10
-6.07905
 20
12.92533
 30
0.0
 10
-6.07905
 20
12.92533
 30
0.0
 10
-6.07905
 20
12.92533
 30
0.0
 10
-6.20097
 20
12.92533
 30
0.0
 10
-6.20097
 20
12.92533
 30
0.0
  0
SPLINE
  5
4F
330
1F
100
AcDbEntity
  8
Layer 1
100
AcDbSpline
210
0.0
220
0.0
230
1.0
 70
    11
 71
     3
 72
    28
 73
    24
 74
     0
 42
0.0000000001
 43
0.0000000001
 12
1.0
 22
0.0
 32
0.0
 13
1.0
 23
0.0
 33
0.0
 40
0.0
 40
0.0
 40
0.0
 40
0.0
 40
0.1428571428571428
 40
0.1428571428571428
 40
0.1428571428571428
 40
0.1428571428571428
 40
0.2857142857142857
 40
0.2857142857142857
 40
0.2857142857142857
 40
0.2857142857142857
 40
0.4285714285714285
 40
0.4285714285714285
 40
0.4285714285714285
 40
0.4285714285714285
 40
0.5714285714285714
 40
0.5714285714285714
 40
0.5714285714285714
 40
0.5714285714285714
 40
0.7142857142857143
 40
0.7142857142857143
 40
0.7142857142857143
 40
0.7142857142857143
 40
1.0
 40
1.0
 40
1.0
 40
1.0
 10
-6.07905
 20
13.33088
 30
0.0
 10
-6.01618
 20
13.27479
 30
0.0
 10
-5.95628
 20
13.24664
 30
0.0
 10
-5.89934
 20
13.24664
 30
0.0
 10
-5.89934
 20
13.24664
 30
0.0
 10
-5.84325
 20
13.24664
 30
0.0
 10
-5.79986
 20
13.27014
 30
0.0
 10
-5.76938
 20
13.31691
 30
0.0
 10
-5.76938
 20
13.31691
 30
0.0
 10
-5.73869
 20
13.36369
 30
0.0
 10
-5.72345
 20
13.42952
 30
0.0
 10
-5.72345
 20
13.51461
 30
0.0
 10
-5.72345
 20
13.51461
 30
0.0
 10
-5.72345
 20
13.67209
 30
0.0
 10
-5.77552
 20
13.75083
 30
0.0
 10
-5.87966
 20
13.75083
 30
0.0
 10
-5.87966
 20
13.75083
 30
0.0
 10
-5.94782
 20
13.75083
 30
0.0
 10
-6.01428
 20
13.714
 30
0.0
 10
-6.07905
 20
13.64013
 30
0.0
 10
-6.07905
 20
13.64013
 30
0.0
 10
-6.07905
 20
13.64013
 30
0.0
 10
-6.07905
 20
13.33088
 30
0.0
 10
-6.07905
 20
13.33088
 30
0.0
  0
SPLINE
  5
50
330
1F
100
AcDbEntity
  8
Layer 1
100
AcDbSpline
210
0.0
220
0.0
230
1.0
 70
    11
 71
     3
 72
    52
 73
    48
 74
     0
 42
0.0000000001
 43
0.0000000001
 12
1.0
 22
0.0
 32
0.0
 13
1.0
 23
0.0
 33
0.0
 40
0.0
 40
0.0
 40
0.0
 40
0.0
 40
0.0769230769230769
 40
0.0769230769230769
 40
0.0769230769230769
 40
0.0769230769230769
 40
0.1538461538461539
 40
0.1538461538461539
 40
0.1538461538461539
 40
0.1538461538461539
 40
0.2307692307692308
 40
0.2307692307692308
 40
0.2307692307692308
 40
0.2307692307692308
 40
0.3076923076923077
 40
0.3076923076923077
 40
0.3076923076923077
 40
0.3076923076923077
 40
0.3846153846153846
 40
0.3846153846153846
 40
0.3846153846153846
 40
0.3846153846153846
 40
0.4615384615384616
 40
0.4615384615384616
 40
0.4615384615384616
 40
0.4615384615384616
 40
0.5384615384615384
 40
0.5384615384615384
 40
0.5384615384615384
 40
0.5384615384615384
 40
0.6153846153846154
 40
0.6153846153846154
 40
0.6153846153846154
 40
0.6153846153846154
 40
0.6923076923076923
 40
0.6923076923076923
 40
0.6923076923076923
 40
0.6923076923076923
 40
0.7692307692307693
 40
0.7692307692307693
 40
0.7692307692307693
 40
0.7692307692307693
 40
0.8461538461538461
 40
0.8461538461538461
 40
0.8461538461538461
 40
0.8461538461538461
 40
1.0
 40
1.0
 40
1.0
 40
1.0
 10
-4.90769
 20
13.19203
 30
0.0
 10
-4.9896
 20
13.16748
 30
0.0
 10
-5.05967
 20
13.1552
 30
0.0
 10
-5.11809
 20
13.1552
 30
0.0
 10
-5.11809
 20
13.1552
 30
0.0
 10
-5.21778
 20
13.1552
 30
0.0
 10
-5.29885
 20
13.18822
 30
0.0
 10
-5.36129
 20
13.25405
 30
0.0
 10
-5.36129
 20
13.25405
 30
0.0
 10
-5.42373
 20
13.31988
 30
0.0
 10
-5.45506
 20
13.40518
 30
0.0
 10
-5.45506
 20
13.51017
 30
0.0
 10
-5.45506
 20
13.51017
 30
0.0
 10
-5.45506
 20
13.61198
 30
0.0
 10
-5.42754
 20
13.69559
 30
0.0
 10
-5.3723
 20
13.76099
 30
0.0
 10
-5.3723
 20
13.76099
 30
0.0
 10
-5.31705
 20
13.82618
 30
0.0
 10
-5.24636
 20
13.85878
 30
0.0
 10
-5.16021
 20
13.85878
 30
0.0
 10
-5.16021
 20
13.85878
 30
0.0
 10
-5.07872
 20
13.85878
 30
0.0
 10
-5.01564
 20
13.82978
 30
0.0
 10
-4.97119
 20
13.77179
 30
0.0
 10
-4.97119
 20
13.77179
 30
0.0
 10
-4.92674
 20
13.71379
 30
0.0
 10
-4.90451
 20
13.63166
 30
0.0
 10
-4.90451
 20
13.52519
 30
0.0
 10
-4.90451
 20
13.52519
 30
0.0
 10
-4.90451
 20
13.52519
 30
0.0
 10
-4.90515
 20
13.48794
 30
0.0
 10
-4.90515
 20
13.48794
 30
0.0
 10
-4.90515
 20
13.48794
 30
0.0
 10
-4.90515
 20
13.48794
 30
0.0
 10
-5.3306
 20
13.48794
 30
0.0
 10
-5.3306
 20
13.48794
 30
0.0
 10
-5.3306
 20
13.48794
 30
0.0
 10
-5.31282
 20
13.32707
 30
0.0
 10
-5.23429
 20
13.24664
 30
0.0
 10
-5.09523
 20
13.24664
 30
0.0
 10
-5.09523
 20
13.24664
 30
0.0
 10
-5.04421
 20
13.24664
 30
0.0
 10
-4.98177
 20
13.26103
 30
0.0
 10
-4.90769
 20
13.28982
 30
0.0
 10
-4.90769
 20
13.28982
 30
0.0
 10
-4.90769
 20
13.28982
 30
0.0
 10
-4.90769
 20
13.19203
 30
0.0
 10
-4.90769
 20
13.19203
 30
0.0
  0
SPLINE
  5
51
330
1F
100
AcDbEntity
  8
Layer 1
100
AcDbSpline
210
0.0
220
0.0
230
1.0
 70
    11
 71
     3
 72
    16
 73
    12
 74
     0
 42
0.0000000001
 43
0.0000000001
 12
1.0
 22
0.0
 32
0.0
 13
1.0
 23
0.0
 33
0.0
 40
0.0
 40
0.0
 40
0.0
 40
0.0
 40
0.25
 40
0.25
 40
0.25
 40
0.25
 40
0.5
 40
0.5
 40
0.5
 40
0.5
 40
1.0
 40
1.0
 40
1.0
 40
1.0
 10
-5.32425
 20
13.57938
 30
0.0
 10
-5.32425
 20
13.57938
 30
0.0
 10
-5.02707
 20
13.57938
 30
0.0
 10
-5.02707
 20
13.57938
 30
0.0
 10
-5.02707
 20
13.57938
 30
0.0
 10
-5.02707
 20
13.70469
 30
0.0
 10
-5.07385
 20
13.76734
 30
0.0
 10
-5.16719
 20
13.76734
 30
0.0
 10
-5.16719
 20
13.76734
 30
0.0
 10
-5.26117
 20
13.76734
 30
0.0
 10
-5.31345
 20
13.70469
 30
0.0
 10
-5.32425
 20
13.57938
 30
0.0
  0
SPLINE
  5
52
330
1F
100
AcDbEntity
  8
Layer 1
100
AcDbSpline
210
0.0
220
0.0
230
1.0
 70
    11
 71
     3
 72
    60
 73
    56
 74
     0
 42
0.0000000001
 43
0.0000000001
 12
1.0
 22
0.0
 32
0.0
 13
1.0
 23
0.0
 33
0.0
 40
0.0
 40
0.0
 40
0.0
 40
0.0
 40
0.0666666666666667
 40
0.0666666666666667
 40
0.0666666666666667
 40
0.0666666666666667
 40
0.1333333333333333
 40
0.1333333333333333
 40
0.1333333333333333
 40
0.1333333333333333
 40
0.2
 40
0.2
 40
0.2
 40
0.2
 40
0.2666666666666667
 40
0.2666666666666667
 40
0.2666666666666667
 40
0.2666666666666667
 40
0.3333333333333333
 40
0.3333333333333333
 40
0.3333333333333333
 40
0.3333333333333333
 40
0.4
 40
0.4
 40
0.4
 40
0.4
 40
0.4666666666666667
 40
0.4666666666666667
 40
0.4666666666666667
 40
0.4666666666666667
 40
0.5333333333333333
 40
0.5333333333333333
 40
0.5333333333333333
 40
0.5333333333333333
 40
0.6
 40
0.6
 40
0.6
 40
0.6
 40
0.6666666666666666
 40
0.6666666666666666
 40
0.6666666666666666
 40
0.6666666666666666
 40
0.7333333333333333
 40
0.7333333333333333
 40
0.7333333333333333
 40
0.7333333333333333
 40
0.8
 40
0.8
 40
0.8
 40
0.8
 40
0.8666666666666667
 40
0.8666666666666667
 40
0.8666666666666667
 40
0.8666666666666667
 40
1.0
 40
1.0
 40
1.0
 40
1.0
 10
-4.69412
 20
13.17044
 30
0.0
 10
-4.69412
 20
13.17044
 30
0.0
 10
-4.69412
 20
13.84354
 30
0.0
 10
-4.69412
 20
13.84354
 30
0.0
 10
-4.69412
 20
13.84354
 30
0.0
 10
-4.69412
 20
13.84354
 30
0.0
 10
-4.5722
 20
13.84354
 30
0.0
 10
-4.5722
 20
13.84354
 30
0.0
 10
-4.5722
 20
13.84354
 30
0.0
 10
-4.5722
 20
13.84354
 30
0.0
 10
-4.5722
 20
13.71633
 30
0.0
 10
-4.5722
 20
13.71633
 30
0.0
 10
-4.5722
 20
13.71633
 30
0.0
 10
-4.50764
 20
13.81052
 30
0.0
 10
-4.42848
 20
13.85751
 30
0.0
 10
-4.33492
 20
13.85751
 30
0.0
 10
-4.33492
 20
13.85751
 30
0.0
 10
-4.27608
 20
13.85751
 30
0.0
 10
-4.2293
 20
13.8391
 30
0.0
 10
-4.1948
 20
13.80205
 30
0.0
 10
-4.1948
 20
13.80205
 30
0.0
 10
-4.1603
 20
13.76522
 30
0.0
 10
-4.14294
 20
13.71548
 30
0.0
 10
-4.14294
 20
13.65325
 30
0.0
 10
-4.14294
 20
13.65325
 30
0.0
 10
-4.14294
 20
13.65325
 30
0.0
 10
-4.14294
 20
13.17044
 30
0.0
 10
-4.14294
 20
13.17044
 30
0.0
 10
-4.14294
 20
13.17044
 30
0.0
 10
-4.14294
 20
13.17044
 30
0.0
 10
-4.26486
 20
13.17044
 30
0.0
 10
-4.26486
 20
13.17044
 30
0.0
 10
-4.26486
 20
13.17044
 30
0.0
 10
-4.26486
 20
13.17044
 30
0.0
 10
-4.26486
 20
13.61346
 30
0.0
 10
-4.26486
 20
13.61346
 30
0.0
 10
-4.26486
 20
13.61346
 30
0.0
 10
-4.26486
 20
13.66341
 30
0.0
 10
-4.27227
 20
13.69897
 30
0.0
 10
-4.28687
 20
13.72014
 30
0.0
 10
-4.28687
 20
13.72014
 30
0.0
 10
-4.30169
 20
13.74152
 30
0.0
 10
-4.32603
 20
13.7521
 30
0.0
 10
-4.36011
 20
13.7521
 30
0.0
 10
-4.36011
 20
13.7521
 30
0.0
 10
-4.43504
 20
13.7521
 30
0.0
 10
-4.50574
 20
13.70321
 30
0.0
 10
-4.5722
 20
13.60542
 30
0.0
 10
-4.5722
 20
13.60542
 30
0.0
 10
-4.5722
 20
13.60542
 30
0.0
 10
-4.5722
 20
13.17044
 30
0.0
 10
-4.5722
 20
13.17044
 30
0.0
 10
-4.5722
 20
13.17044
 30
0.0
 10
-4.5722
 20
13.17044
 30
0.0
 10
-4.69412
 20
13.17044
 30
0.0
 10
-4.69412
 20
13.17044
 30
0.0
  0
SPLINE
  5
53
330
1F
100
AcDbEntity
  8
Layer 1
100
AcDbSpline
210
0.0
220
0.0
230
1.0
 70
    11
 71
     3
 72
    48
 73
    44
 74
     0
 42
0.0000000001
 43
0.0000000001
 12
1.0
 22
0.0
 32
0.0
 13
1.0
 23
0.0
 33
0.0
 40
0.0
 40
0.0
 40
0.0
 40
0.0
 40
0.0833333333333333
 40
0.0833333333333333
 40
0.0833333333333333
 40
0.0833333333333333
 40
0.1666666666666667
 40
0.1666666666666667
 40
0.1666666666666667
 40
0.1666666666666667
 40
0.25
 40
0.25
 40
0.25
 40
0.25
 40
0.3333333333333333
 40
0.3333333333333333
 40
0.3333333333333333
 40
0.3333333333333333
 40
0.4166666666666667
 40
0.4166666666666667
 40
0.4166666666666667
 40
0.4166666666666667
 40
0.5
 40
0.5
 40
0.5
 40
0.5
 40
0.5833333333333334
 40
0.5833333333333334
 40
0.5833333333333334
 40
0.5833333333333334
 40
0.6666666666666666
 40
0.6666666666666666
 40
0.6666666666666666
 40
0.6666666666666666
 40
0.75
 40
0.75
 40
0.75
 40
0.75
 40
0.8333333333333334
 40
0.8333333333333334
 40
0.8333333333333334
 40
0.8333333333333334
 40
1.0
 40
1.0
 40
1.0
 40
1.0
 10
-3.4728
 20
13.17044
 30
0.0
 10
-3.4728
 20
13.17044
 30
0.0
 10
-3.4728
 20
13.29681
 30
0.0
 10
-3.4728
 20
13.29681
 30
0.0
 10
-3.4728
 20
13.29681
 30
0.0
 10
-3.52254
 20
13.2024
 30
0.0
 10
-3.59747
 20
13.1552
 30
0.0
 10
-3.69759
 20
13.1552
 30
0.0
 10
-3.69759
 20
13.1552
 30
0.0
 10
-3.77887
 20
13.1552
 30
0.0
 10
-3.84279
 20
13.18462
 30
0.0
 10
-3.88936
 20
13.24368
 30
0.0
 10
-3.88936
 20
13.24368
 30
0.0
 10
-3.93593
 20
13.30273
 30
0.0
 10
-3.95921
 20
13.38338
 30
0.0
 10
-3.95921
 20
13.48561
 30
0.0
 10
-3.95921
 20
13.48561
 30
0.0
 10
-3.95921
 20
13.59737
 30
0.0
 10
-3.93275
 20
13.68733
 30
0.0
 10
-3.88005
 20
13.75549
 30
0.0
 10
-3.88005
 20
13.75549
 30
0.0
 10
-3.82713
 20
13.82343
 30
0.0
 10
-3.7577
 20
13.85751
 30
0.0
 10
-3.67155
 20
13.85751
 30
0.0
 10
-3.67155
 20
13.85751
 30
0.0
 10
-3.59176
 20
13.85751
 30
0.0
 10
-3.52529
 20
13.82703
 30
0.0
 10
-3.4728
 20
13.76586
 30
0.0
 10
-3.4728
 20
13.76586
 30
0.0
 10
-3.4728
 20
13.76586
 30
0.0
 10
-3.4728
 20
14.14961
 30
0.0
 10
-3.4728
 20
14.14961
 30
0.0
 10
-3.4728
 20
14.14961
 30
0.0
 10
-3.4728
 20
14.14961
 30
0.0
 10
-3.35088
 20
14.14961
 30
0.0
 10
-3.35088
 20
14.14961
 30
0.0
 10
-3.35088
 20
14.14961
 30
0.0
 10
-3.35088
 20
14.14961
 30
0.0
 10
-3.35088
 20
13.17044
 30
0.0
 10
-3.35088
 20
13.17044
 30
0.0
 10
-3.35088
 20
13.17044
 30
0.0
 10
-3.35088
 20
13.17044
 30
0.0
 10
-3.4728
 20
13.17044
 30
0.0
 10
-3.4728
 20
13.17044
 30
0.0
  0
SPLINE
  5
54
330
1F
100
AcDbEntity
  8
Layer 1
100
AcDbSpline
210
0.0
220
0.0
230
1.0
 70
    11
 71
     3
 72
    28
 73
    24
 74
     0
 42
0.0000000001
 43
0.0000000001
 12
1.0
 22
0.0
 32
0.0
 13
1.0
 23
0.0
 33
0.0
 40
0.0
 40
0.0
 40
0.0
 40
0.0
 40
0.1428571428571428
 40
0.1428571428571428
 40
0.1428571428571428
 40
0.1428571428571428
 40
0.2857142857142857
 40
0.2857142857142857
 40
0.2857142857142857
 40
0.2857142857142857
 40
0.4285714285714285
 40
0.4285714285714285
 40
0.4285714285714285
 40
0.4285714285714285
 40
0.5714285714285714
 40
0.5714285714285714
 40
0.5714285714285714
 40
0.5714285714285714
 40
0.7142857142857143
 40
0.7142857142857143
 40
0.7142857142857143
 40
0.7142857142857143
 40
1.0
 40
1.0
 40
1.0
 40
1.0
 10
-3.4728
 20
13.68246
 30
0.0
 10
-3.53609
 20
13.73813
 30
0.0
 10
-3.59599
 20
13.76607
 30
0.0
 10
-3.65272
 20
13.76607
 30
0.0
 10
-3.65272
 20
13.76607
 30
0.0
 10
-3.7086
 20
13.76607
 30
0.0
 10
-3.75178
 20
13.74279
 30
0.0
 10
-3.78247
 20
13.69601
 30
0.0
 10
-3.78247
 20
13.69601
 30
0.0
 10
-3.81316
 20
13.64944
 30
0.0
 10
-3.8284
 20
13.5834
 30
0.0
 10
-3.8284
 20
13.49789
 30
0.0
 10
-3.8284
 20
13.49789
 30
0.0
 10
-3.8284
 20
13.34062
 30
0.0
 10
-3.77633
 20
13.26188
 30
0.0
 10
-3.67198
 20
13.26188
 30
0.0
 10
-3.67198
 20
13.26188
 30
0.0
 10
-3.60424
 20
13.26188
 30
0.0
 10
-3.53778
 20
13.29892
 30
0.0
 10
-3.4728
 20
13.37279
 30
0.0
 10
-3.4728
 20
13.37279
 30
0.0
 10
-3.4728
 20
13.37279
 30
0.0
 10
-3.4728
 20
13.68246
 30
0.0
 10
-3.4728
 20
13.68246
 30
0.0
  0
SPLINE
  5
55
330
1F
100
AcDbEntity
  8
Layer 1
100
AcDbSpline
210
0.0
220
0.0
230
1.0
 70
    11
 71
     3
 72
    80
 73
    76
 74
     0
 42
0.0000000001
 43
0.0000000001
 12
1.0
 22
0.0
 32
0.0
 13
1.0
 23
0.0
 33
0.0
 40
0.0
 40
0.0
 40
0.0
 40
0.0
 40
0.05
 40
0.05
 40
0.05
 40
0.05
 40
0.1
 40
0.1
 40
0.1
 40
0.1
 40
0.15
 40
0.15
 40
0.15
 40
0.15
 40
0.2
 40
0.2
 40
0.2
 40
0.2
 40
0.25
 40
0.25
 40
0.25
 40
0.25
 40
0.3
 40
0.3
 40
0.3
 40
0.3
 40
0.35
 40
0.35
 40
0.35
 40
0.35
 40
0.4
 40
0.4
 40
0.4
 40
0.4
 40
0.45
 40
0.45
 40
0.45
 40
0.45
 40
0.5
 40
0.5
 40
0.5
 40
0.5
 40
0.55
 40
0.55
 40
0.55
 40
0.55
 40
0.6
 40
0.6
 40
0.6
 40
0.6
 40
0.65
 40
0.65
 40
0.65
 40
0.65
 40
0.7
 40
0.7
 40
0.7
 40
0.7
 40
0.75
 40
0.75
 40
0.75
 40
0.75
 40
0.8
 40
0.8
 40
0.8
 40
0.8
 40
0.85
 40
0.85
 40
0.85
 40
0.85
 40
0.9
 40
0.9
 40
0.9
 40
0.9
 40
1.0
 40
1.0
 40
1.0
 40
1.0
 10
-2.7597
 20
13.25617
 30
0.0
 10
-2.83293
 20
13.18886
 30
0.0
 10
-2.90342
 20
13.1552
 30
0.0
 10
-2.97115
 20
13.1552
 30
0.0
 10
-2.97115
 20
13.1552
 30
0.0
 10
-3.02682
 20
13.1552
 30
0.0
 10
-3.07318
 20
13.17256
 30
0.0
 10
-3.10979
 20
13.20748
 30
0.0
 10
-3.10979
 20
13.20748
 30
0.0
 10
-3.14662
 20
13.24241
 30
0.0
 10
-3.16504
 20
13.28643
 30
0.0
 10
-3.16504
 20
13.33956
 30
0.0
 10
-3.16504
 20
13.33956
 30
0.0
 10
-3.16504
 20
13.41301
 30
0.0
 10
-3.13414
 20
13.46953
 30
0.0
 10
-3.07233
 20
13.5089
 30
0.0
 10
-3.07233
 20
13.5089
 30
0.0
 10
-3.01052
 20
13.54827
 30
0.0
 10
-2.92183
 20
13.56795
 30
0.0
 10
-2.80626
 20
13.56795
 30
0.0
 10
-2.80626
 20
13.56795
 30
0.0
 10
-2.80626
 20
13.56795
 30
0.0
 10
-2.77769
 20
13.56795
 30
0.0
 10
-2.77769
 20
13.56795
 30
0.0
 10
-2.77769
 20
13.56795
 30
0.0
 10
-2.77769
 20
13.56795
 30
0.0
 10
-2.77769
 20
13.64902
 30
0.0
 10
-2.77769
 20
13.64902
 30
0.0
 10
-2.77769
 20
13.64902
 30
0.0
 10
-2.77769
 20
13.72712
 30
0.0
 10
-2.81833
 20
13.76607
 30
0.0
 10
-2.89982
 20
13.76607
 30
0.0
 10
-2.89982
 20
13.76607
 30
0.0
 10
-2.9629
 20
13.76607
 30
0.0
 10
-3.0319
 20
13.74617
 30
0.0
 10
-3.10662
 20
13.70638
 30
0.0
 10
-3.10662
 20
13.70638
 30
0.0
 10
-3.10662
 20
13.70638
 30
0.0
 10
-3.10662
 20
13.80671
 30
0.0
 10
-3.10662
 20
13.80671
 30
0.0
 10
-3.10662
 20
13.80671
 30
0.0
 10
-3.02449
 20
13.84058
 30
0.0
 10
-2.94702
 20
13.85751
 30
0.0
 10
-2.87442
 20
13.85751
 30
0.0
 10
-2.87442
 20
13.85751
 30
0.0
 10
-2.7997
 20
13.85751
 30
0.0
 10
-2.74446
 20
13.84058
 30
0.0
 10
-2.70911
 20
13.8065
 30
0.0
 10
-2.70911
 20
13.8065
 30
0.0
 10
-2.67355
 20
13.77242
 30
0.0
 10
-2.65577
 20
13.71993
 30
0.0
 10
-2.65577
 20
13.64902
 30
0.0
 10
-2.65577
 20
13.64902
 30
0.0
 10
-2.65577
 20
13.64902
 30
0.0
 10
-2.65577
 20
13.34485
 30
0.0
 10
-2.65577
 20
13.34485
 30
0.0
 10
-2.65577
 20
13.34485
 30
0.0
 10
-2.65577
 20
13.27522
 30
0.0
 10
-2.63439
 20
13.24029
 30
0.0
 10
-2.59142
 20
13.24029
 30
0.0
 10
-2.59142
 20
13.24029
 30
0.0
 10
-2.58613
 20
13.24029
 30
0.0
 10
-2.5783
 20
13.24114
 30
0.0
 10
-2.56793
 20
13.24283
 30
0.0
 10
-2.56793
 20
13.24283
 30
0.0
 10
-2.56793
 20
13.24283
 30
0.0
 10
-2.55925
 20
13.1751
 30
0.0
 10
-2.55925
 20
13.1751
 30
0.0
 10
-2.55925
 20
13.1751
 30
0.0
 10
-2.58698
 20
13.16176
 30
0.0
 10
-2.61746
 20
13.1552
 30
0.0
 10
-2.6509
 20
13.1552
 30
0.0
 10
-2.6509
 20
13.1552
 30
0.0
 10
-2.70784
 20
13.1552
 30
0.0
 10
-2.74403
 20
13.18886
 30
0.0
 10
-2.7597
 20
13.25617
 30
0.0
  0
SPLINE
  5
56
330
1F
100
AcDbEntity
  8
Layer 1
100
AcDbSpline
210
0.0
220
0.0
230
1.0
 70
    11
 71
     3
 72
    32
 73
    28
 74
     0
 42
0.0000000001
 43
0.0000000001
 12
1.0
 22
0.0
 32
0.0
 13
1.0
 23
0.0
 33
0.0
 40
0.0
 40
0.0
 40
0.0
 40
0.0
 40
0.125
 40
0.125
 40
0.125
 40
0.125
 40
0.25
 40
0.25
 40
0.25
 40
0.25
 40
0.375
 40
0.375
 40
0.375
 40
0.375
 40
0.5
 40
0.5
 40
0.5
 40
0.5
 40
0.625
 40
0.625
 40
0.625
 40
0.625
 40
0.75
 40
0.75
 40
0.75
 40
0.75
 40
1.0
 40
1.0
 40
1.0
 40
1.0
 10
-2.77769
 20
13.32263
 30
0.0
 10
-2.77769
 20
13.32263
 30
0.0
 10
-2.77769
 20
13.49556
 30
0.0
 10
-2.77769
 20
13.49556
 30
0.0
 10
-2.77769
 20
13.49556
 30
0.0
 10
-2.77769
 20
13.49556
 30
0.0
 10
-2.81685
 20
13.49683
 30
0.0
 10
-2.81685
 20
13.49683
 30
0.0
 10
-2.81685
 20
13.49683
 30
0.0
 10
-2.88458
 20
13.49683
 30
0.0
 10
-2.93919
 20
13.48434
 30
0.0
 10
-2.98089
 20
13.45937
 30
0.0
 10
-2.98089
 20
13.45937
 30
0.0
 10
-3.02238
 20
13.43418
 30
0.0
 10
-3.04312
 20
13.40095
 30
0.0
 10
-3.04312
 20
13.35946
 30
0.0
 10
-3.04312
 20
13.35946
 30
0.0
 10
-3.04312
 20
13.33046
 30
0.0
 10
-3.03275
 20
13.30591
 30
0.0
 10
-3.01222
 20
13.2858
 30
0.0
 10
-3.01222
 20
13.2858
 30
0.0
 10
-2.99147
 20
13.26569
 30
0.0
 10
-2.96628
 20
13.25553
 30
0.0
 10
-2.93644
 20
13.25553
 30
0.0
 10
-2.93644
 20
13.25553
 30
0.0
 10
-2.88564
 20
13.25553
 30
0.0
 10
-2.83272
 20
13.27797
 30
0.0
 10
-2.77769
 20
13.32263
 30
0.0
  0
SPLINE
  5
57
330
1F
100
AcDbEntity
  8
Layer 1
100
AcDbSpline
210
0.0
220
0.0
230
1.0
 70
    11
 71
     3
 72
    60
 73
    56
 74
     0
 42
0.0000000001
 43
0.0000000001
 12
1.0
 22
0.0
 32
0.0
 13
1.0
 23
0.0
 33
0.0
 40
0.0
 40
0.0
 40
0.0
 40
0.0
 40
0.0666666666666667
 40
0.0666666666666667
 40
0.0666666666666667
 40
0.0666666666666667
 40
0.1333333333333333
 40
0.1333333333333333
 40
0.1333333333333333
 40
0.1333333333333333
 40
0.2
 40
0.2
 40
0.2
 40
0.2
 40
0.2666666666666667
 40
0.2666666666666667
 40
0.2666666666666667
 40
0.2666666666666667
 40
0.3333333333333333
 40
0.3333333333333333
 40
0.3333333333333333
 40
0.3333333333333333
 40
0.4
 40
0.4
 40
0.4
 40
0.4
 40
0.4666666666666667
 40
0.4666666666666667
 40
0.4666666666666667
 40
0.4666666666666667
 40
0.5333333333333333
 40
0.5333333333333333
 40
0.5333333333333333
 40
0.5333333333333333
 40
0.6
 40
0.6
 40
0.6
 40
0.6
 40
0.6666666666666666
 40
0.6666666666666666
 40
0.6666666666666666
 40
0.6666666666666666
 40
0.7333333333333333
 40
0.7333333333333333
 40
0.7333333333333333
 40
0.7333333333333333
 40
0.8
 40
0.8
 40
0.8
 40
0.8
 40
0.8666666666666667
 40
0.8666666666666667
 40
0.8666666666666667
 40
0.8666666666666667
 40
1.0
 40
1.0
 40
1.0
 40
1.0
 10
-2.40537
 20
13.17044
 30
0.0
 10
-2.40537
 20
13.17044
 30
0.0
 10
-2.40537
 20
13.84354
 30
0.0
 10
-2.40537
 20
13.84354
 30
0.0
 10
-2.40537
 20
13.84354
 30
0.0
 10
-2.40537
 20
13.84354
 30
0.0
 10
-2.28345
 20
13.84354
 30
0.0
 10
-2.28345
 20
13.84354
 30
0.0
 10
-2.28345
 20
13.84354
 30
0.0
 10
-2.28345
 20
13.84354
 30
0.0
 10
-2.28345
 20
13.71633
 30
0.0
 10
-2.28345
 20
13.71633
 30
0.0
 10
-2.28345
 20
13.71633
 30
0.0
 10
-2.21889
 20
13.81052
 30
0.0
 10
-2.13973
 20
13.85751
 30
0.0
 10
-2.04617
 20
13.85751
 30
0.0
 10
-2.04617
 20
13.85751
 30
0.0
 10
-1.98733
 20
13.85751
 30
0.0
 10
-1.94055
 20
13.8391
 30
0.0
 10
-1.90605
 20
13.80205
 30
0.0
 10
-1.90605
 20
13.80205
 30
0.0
 10
-1.87155
 20
13.76522
 30
0.0
 10
-1.85419
 20
13.71548
 30
0.0
 10
-1.85419
 20
13.65325
 30
0.0
 10
-1.85419
 20
13.65325
 30
0.0
 10
-1.85419
 20
13.65325
 30
0.0
 10
-1.85419
 20
13.17044
 30
0.0
 10
-1.85419
 20
13.17044
 30
0.0
 10
-1.85419
 20
13.17044
 30
0.0
 10
-1.85419
 20
13.17044
 30
0.0
 10
-1.97611
 20
13.17044
 30
0.0
 10
-1.97611
 20
13.17044
 30
0.0
 10
-1.97611
 20
13.17044
 30
0.0
 10
-1.97611
 20
13.17044
 30
0.0
 10
-1.97611
 20
13.61346
 30
0.0
 10
-1.97611
 20
13.61346
 30
0.0
 10
-1.97611
 20
13.61346
 30
0.0
 10
-1.97611
 20
13.66341
 30
0.0
 10
-1.98352
 20
13.69897
 30
0.0
 10
-1.99812
 20
13.72014
 30
0.0
 10
-1.99812
 20
13.72014
 30
0.0
 10
-2.01294
 20
13.74152
 30
0.0
 10
-2.03728
 20
13.7521
 30
0.0
 10
-2.07136
 20
13.7521
 30
0.0
 10
-2.07136
 20
13.7521
 30
0.0
 10
-2.14629
 20
13.7521
 30
0.0
 10
-2.21699
 20
13.70321
 30
0.0
 10
-2.28345
 20
13.60542
 30
0.0
 10
-2.28345
 20
13.60542
 30
0.0
 10
-2.28345
 20
13.60542
 30
0.0
 10
-2.28345
 20
13.17044
 30
0.0
 10
-2.28345
 20
13.17044
 30
0.0
 10
-2.28345
 20
13.17044
 30
0.0
 10
-2.28345
 20
13.17044
 30
0.0
 10
-2.40537
 20
13.17044
 30
0.0
 10
-2.40537
 20
13.17044
 30
0.0
  0
SPLINE
  5
58
330
1F
100
AcDbEntity
  8
Layer 1
100
AcDbSpline
210
0.0
220
0.0
230
1.0
 70
    11
 71
     3
 72
    72
 73
    68
 74
     0
 42
0.0000000001
 43
0.0000000001
 12
1.0
 22
0.0
 32
0.0
 13
1.0
 23
0.0
 33
0.0
 40
0.0
 40
0.0
 40
0.0
 40
0.0
 40
0.0555555555555556
 40
0.0555555555555556
 40
0.0555555555555556
 40
0.0555555555555556
 40
0.1111111111111111
 40
0.1111111111111111
 40
0.1111111111111111
 40
0.1111111111111111
 40
0.1666666666666667
 40
0.1666666666666667
 40
0.1666666666666667
 40
0.1666666666666667
 40
0.2222222222222222
 40
0.2222222222222222
 40
0.2222222222222222
 40
0.2222222222222222
 40
0.2777777777777778
 40
0.2777777777777778
 40
0.2777777777777778
 40
0.2777777777777778
 40
0.3333333333333333
 40
0.3333333333333333
 40
0.3333333333333333
 40
0.3333333333333333
 40
0.3888888888888889
 40
0.3888888888888889
 40
0.3888888888888889
 40
0.3888888888888889
 40
0.4444444444444444
 40
0.4444444444444444
 40
0.4444444444444444
 40
0.4444444444444444
 40
0.5
 40
0.5
 40
0.5
 40
0.5
 40
0.5555555555555556
 40
0.5555555555555556
 40
0.5555555555555556
 40
0.5555555555555556
 40
0.6111111111111112
 40
0.6111111111111112
 40
0.6111111111111112
 40
0.6111111111111112
 40
0.6666666666666666
 40
0.6666666666666666
 40
0.6666666666666666
 40
0.6666666666666666
 40
0.7222222222222222
 40
0.7222222222222222
 40
0.7222222222222222
 40
0.7222222222222222
 40
0.7777777777777778
 40
0.7777777777777778
 40
0.7777777777777778
 40
0.7777777777777778
 40
0.8333333333333334
 40
0.8333333333333334
 40
0.8333333333333334
 40
0.8333333333333334
 40
0.8888888888888888
 40
0.8888888888888888
 40
0.8888888888888888
 40
0.8888888888888888
 40
1.0
 40
1.0
 40
1.0
 40
1.0
 10
-1.31613
 20
13.17065
 30
0.0
 10
-1.35381
 20
13.16028
 30
0.0
 10
-1.38661
 20
13.1552
 30
0.0
 10
-1.41434
 20
13.1552
 30
0.0
 10
-1.41434
 20
13.1552
 30
0.0
 10
-1.47657
 20
13.1552
 30
0.0
 10
-1.52504
 20
13.17298
 30
0.0
 10
-1.55976
 20
13.20854
 30
0.0
 10
-1.55976
 20
13.20854
 30
0.0
 10
-1.59468
 20
13.2441
 30
0.0
 10
-1.61204
 20
13.29342
 30
0.0
 10
-1.61204
 20
13.35671
 30
0.0
 10
-1.61204
 20
13.35671
 30
0.0
 10
-1.61204
 20
13.35671
 30
0.0
 10
-1.61204
 20
13.7521
 30
0.0
 10
-1.61204
 20
13.7521
 30
0.0
 10
-1.61204
 20
13.7521
 30
0.0
 10
-1.61204
 20
13.7521
 30
0.0
 10
-1.69628
 20
13.7521
 30
0.0
 10
-1.69628
 20
13.7521
 30
0.0
 10
-1.69628
 20
13.7521
 30
0.0
 10
-1.69628
 20
13.7521
 30
0.0
 10
-1.69628
 20
13.84354
 30
0.0
 10
-1.69628
 20
13.84354
 30
0.0
 10
-1.69628
 20
13.84354
 30
0.0
 10
-1.69628
 20
13.84354
 30
0.0
 10
-1.61204
 20
13.84354
 30
0.0
 10
-1.61204
 20
13.84354
 30
0.0
 10
-1.61204
 20
13.84354
 30
0.0
 10
-1.61204
 20
13.84354
 30
0.0
 10
-1.61204
 20
13.96525
 30
0.0
 10
-1.61204
 20
13.96525
 30
0.0
 10
-1.61204
 20
13.96525
 30
0.0
 10
-1.61204
 20
13.96525
 30
0.0
 10
-1.49012
 20
13.97689
 30
0.0
 10
-1.49012
 20
13.97689
 30
0.0
 10
-1.49012
 20
13.97689
 30
0.0
 10
-1.49012
 20
13.97689
 30
0.0
 10
-1.49012
 20
13.84354
 30
0.0
 10
-1.49012
 20
13.84354
 30
0.0
 10
-1.49012
 20
13.84354
 30
0.0
 10
-1.49012
 20
13.84354
 30
0.0
 10
-1.31359
 20
13.84354
 30
0.0
 10
-1.31359
 20
13.84354
 30
0.0
 10
-1.31359
 20
13.84354
 30
0.0
 10
-1.31359
 20
13.84354
 30
0.0
 10
-1.31359
 20
13.7521
 30
0.0
 10
-1.31359
 20
13.7521
 30
0.0
 10
-1.31359
 20
13.7521
 30
0.0
 10
-1.31359
 20
13.7521
 30
0.0
 10
-1.49012
 20
13.7521
 30
0.0
 10
-1.49012
 20
13.7521
 30
0.0
 10
-1.49012
 20
13.7521
 30
0.0
 10
-1.49012
 20
13.7521
 30
0.0
 10
-1.49012
 20
13.37872
 30
0.0
 10
-1.49012
 20
13.37872
 30
0.0
 10
-1.49012
 20
13.37872
 30
0.0
 10
-1.49012
 20
13.29067
 30
0.0
 10
-1.45181
 20
13.24664
 30
0.0
 10
-1.3754
 20
13.24664
 30
0.0
 10
-1.3754
 20
13.24664
 30
0.0
 10
-1.3591
 20
13.24664
 30
0.0
 10
-1.33941
 20
13.24939
 30
0.0
 10
-1.31613
 20
13.25468
 30
0.0
 10
-1.31613
 20
13.25468
 30
0.0
 10
-1.31613
 20
13.25468
 30
0.0
 10
-1.31613
 20
13.17065
 30
0.0
 10
-1.31613
 20
13.17065
 30
0.0
  0
SPLINE
  5
59
330
1F
100
AcDbEntity
  8
Layer 1
100
AcDbSpline
210
0.0
220
0.0
230
1.0
 70
    11
 71
     3
 72
    20
 73
    16
 74
     0
 42
0.0000000001
 43
0.0000000001
 12
1.0
 22
0.0
 32
0.0
 13
1.0
 23
0.0
 33
0.0
 40
0.0
 40
0.0
 40
0.0
 40
0.0
 40
0.2
 40
0.2
 40
0.2
 40
0.2
 40
0.4
 40
0.4
 40
0.4
 40
0.4
 40
0.6
 40
0.6
 40
0.6
 40
0.6
 40
1.0
 40
1.0
 40
1.0
 40
1.0
 10
-1.21072
 20
13.079
 30
0.0
 10
-1.21072
 20
13.079
 30
0.0
 10
-1.21072
 20
13.17044
 30
0.0
 10
-1.21072
 20
13.17044
 30
0.0
 10
-1.21072
 20
13.17044
 30
0.0
 10
-1.21072
 20
13.17044
 30
0.0
 10
-0.6824
 20
13.17044
 30
0.0
 10
-0.6824
 20
13.17044
 30
0.0
 10
-0.6824
 20
13.17044
 30
0.0
 10
-0.6824
 20
13.17044
 30
0.0
 10
-0.6824
 20
13.079
 30
0.0
 10
-0.6824
 20
13.079
 30
0.0
 10
-0.6824
 20
13.079
 30
0.0
 10
-0.6824
 20
13.079
 30
0.0
 10
-1.21072
 20
13.079
 30
0.0
 10
-1.21072
 20
13.079
 30
0.0
  0
SPLINE
  5
5A
330
1F
100
AcDbEntity
  8
Layer 1
100
AcDbSpline
210
0.0
220
0.0
230
1.0
 70
    11
 71
     3
 72
    20
 73
    16
 74
     0
 42
0.0000000001
 43
0.0000000001
 12
1.0
 22
0.0
 32
0.0
 13
1.0
 23
0.0
 33
0.0
 40
0.0
 40
0.0
 40
0.0
 40
0.0
 40
0.2
 40
0.2
 40
0.2
 40
0.2
 40
0.4
 40
0.4
 40
0.4
 40
0.4
 40
0.6
 40
0.6
 40
0.6
 40
0.6
 40
1.0
 40
1.0
 40
1.0
 40
1.0
 10
-0.50714
 20
13.17044
 30
0.0
 10
-0.50714
 20
13.17044
 30
0.0
 10
-0.50714
 20
13.84354
 30
0.0
 10
-0.50714
 20
13.84354
 30
0.0
 10
-0.50714
 20
13.84354
 30
0.0
 10
-0.50714
 20
13.84354
 30
0.0
 10
-0.38522
 20
13.84354
 30
0.0
 10
-0.38522
 20
13.84354
 30
0.0
 10
-0.38522
 20
13.84354
 30
0.0
 10
-0.38522
 20
13.84354
 30
0.0
 10
-0.38522
 20
13.17044
 30
0.0
 10
-0.38522
 20
13.17044
 30
0.0
 10
-0.38522
 20
13.17044
 30
0.0
 10
-0.38522
 20
13.17044
 30
0.0
 10
-0.50714
 20
13.17044
 30
0.0
 10
-0.50714
 20
13.17044
 30
0.0
  0
SPLINE
  5
5B
330
1F
100
AcDbEntity
  8
Layer 1
100
AcDbSpline
210
0.0
220
0.0
230
1.0
 70
    11
 71
     3
 72
    20
 73
    16
 74
     0
 42
0.0000000001
 43
0.0000000001
 12
1.0
 22
0.0
 32
0.0
 13
1.0
 23
0.0
 33
0.0
 40
0.0
 40
0.0
 40
0.0
 40
0.0
 40
0.2
 40
0.2
 40
0.2
 40
0.2
 40
0.4
 40
0.4
 40
0.4
 40
0.4
 40
0.6
 40
0.6
 40
0.6
 40
0.6
 40
1.0
 40
1.0
 40
1.0
 40
1.0
 10
-0.50714
 20
13.96673
 30
0.0
 10
-0.50714
 20
13.96673
 30
0.0
 10
-0.50714
 20
14.08865
 30
0.0
 10
-0.50714
 20
14.08865
 30
0.0
 10
-0.50714
 20
14.08865
 30
0.0
 10
-0.50714
 20
14.08865
 30
0.0
 10
-0.38522
 20
14.08865
 30
0.0
 10
-0.38522
 20
14.08865
 30
0.0
 10
-0.38522
 20
14.08865
 30
0.0
 10
-0.38522
 20
14.08865
 30
0.0
 10
-0.38522
 20
13.96673
 30
0.0
 10
-0.38522
 20
13.96673
 30
0.0
 10
-0.38522
 20
13.96673
 30
0.0
 10
-0.38522
 20
13.96673
 30
0.0
 10
-0.50714
 20
13.96673
 30
0.0
 10
-0.50714
 20
13.96673
 30
0.0
  0
SPLINE
  5
5C
330
1F
100
AcDbEntity
  8
Layer 1
100
AcDbSpline
210
0.0
220
0.0
230
1.0
 70
    11
 71
     3
 72
    48
 73
    44
 74
     0
 42
0.0000000001
 43
0.0000000001
 12
1.0
 22
0.0
 32
0.0
 13
1.0
 23
0.0
 33
0.0
 40
0.0
 40
0.0
 40
0.0
 40
0.0
 40
0.0833333333333333
 40
0.0833333333333333
 40
0.0833333333333333
 40
0.0833333333333333
 40
0.1666666666666667
 40
0.1666666666666667
 40
0.1666666666666667
 40
0.1666666666666667
 40
0.25
 40
0.25
 40
0.25
 40
0.25
 40
0.3333333333333333
 40
0.3333333333333333
 40
0.3333333333333333
 40
0.3333333333333333
 40
0.4166666666666667
 40
0.4166666666666667
 40
0.4166666666666667
 40
0.4166666666666667
 40
0.5
 40
0.5
 40
0.5
 40
0.5
 40
0.5833333333333334
 40
0.5833333333333334
 40
0.5833333333333334
 40
0.5833333333333334
 40
0.6666666666666666
 40
0.6666666666666666
 40
0.6666666666666666
 40
0.6666666666666666
 40
0.75
 40
0.75
 40
0.75
 40
0.75
 40
0.8333333333333334
 40
0.8333333333333334
 40
0.8333333333333334
 40
0.8333333333333334
 40
1.0
 40
1.0
 40
1.0
 40
1.0
 10
-0.14011
 20
13.17044
 30
0.0
 10
-0.14011
 20
13.17044
 30
0.0
 10
-0.14011
 20
14.14961
 30
0.0
 10
-0.14011
 20
14.14961
 30
0.0
 10
-0.14011
 20
14.14961
 30
0.0
 10
-0.14011
 20
14.14961
 30
0.0
 10
-0.01819
 20
14.14961
 30
0.0
 10
-0.01819
 20
14.14961
 30
0.0
 10
-0.01819
 20
14.14961
 30
0.0
 10
-0.01819
 20
14.14961
 30
0.0
 10
-0.01819
 20
13.51694
 30
0.0
 10
-0.01819
 20
13.51694
 30
0.0
 10
-0.01819
 20
13.51694
 30
0.0
 10
-0.01819
 20
13.51694
 30
0.0
 10
0.26756
 20
13.84354
 30
0.0
 10
0.26756
 20
13.84354
 30
0.0
 10
0.26756
 20
13.84354
 30
0.0
 10
0.26756
 20
13.84354
 30
0.0
 10
0.39922
 20
13.84354
 30
0.0
 10
0.39922
 20
13.84354
 30
0.0
 10
0.39922
 20
13.84354
 30
0.0
 10
0.39922
 20
13.84354
 30
0.0
 10
0.12617
 20
13.52943
 30
0.0
 10
0.12617
 20
13.52943
 30
0.0
 10
0.12617
 20
13.52943
 30
0.0
 10
0.12617
 20
13.52943
 30
0.0
 10
0.45637
 20
13.17044
 30
0.0
 10
0.45637
 20
13.17044
 30
0.0
 10
0.45637
 20
13.17044
 30
0.0
 10
0.45637
 20
13.17044
 30
0.0
 10
0.29931
 20
13.17044
 30
0.0
 10
0.29931
 20
13.17044
 30
0.0
 10
0.29931
 20
13.17044
 30
0.0
 10
0.29931
 20
13.17044
 30
0.0
 10
-0.01819
 20
13.51567
 30
0.0
 10
-0.01819
 20
13.51567
 30
0.0
 10
-0.01819
 20
13.51567
 30
0.0
 10
-0.01819
 20
13.51567
 30
0.0
 10
-0.01819
 20
13.17044
 30
0.0
 10
-0.01819
 20
13.17044
 30
0.0
 10
-0.01819
 20
13.17044
 30
0.0
 10
-0.01819
 20
13.17044
 30
0.0
 10
-0.14011
 20
13.17044
 30
0.0
 10
-0.14011
 20
13.17044
 30
0.0
  0
SPLINE
  5
5D
330
1F
100
AcDbEntity
  8
Layer 1
100
AcDbSpline
210
0.0
220
0.0
230
1.0
 70
    11
 71
     3
 72
    52
 73
    48
 74
     0
 42
0.0000000001
 43
0.0000000001
 12
1.0
 22
0.0
 32
0.0
 13
1.0
 23
0.0
 33
0.0
 40
0.0
 40
0.0
 40
0.0
 40
0.0
 40
0.0769230769230769
 40
0.0769230769230769
 40
0.0769230769230769
 40
0.0769230769230769
 40
0.1538461538461539
 40
0.1538461538461539
 40
0.1538461538461539
 40
0.1538461538461539
 40
0.2307692307692308
 40
0.2307692307692308
 40
0.2307692307692308
 40
0.2307692307692308
 40
0.3076923076923077
 40
0.3076923076923077
 40
0.3076923076923077
 40
0.3076923076923077
 40
0.3846153846153846
 40
0.3846153846153846
 40
0.3846153846153846
 40
0.3846153846153846
 40
0.4615384615384616
 40
0.4615384615384616
 40
0.4615384615384616
 40
0.4615384615384616
 40
0.5384615384615384
 40
0.5384615384615384
 40
0.5384615384615384
 40
0.5384615384615384
 40
0.6153846153846154
 40
0.6153846153846154
 40
0.6153846153846154
 40
0.6153846153846154
 40
0.6923076923076923
 40
0.6923076923076923
 40
0.6923076923076923
 40
0.6923076923076923
 40
0.7692307692307693
 40
0.7692307692307693
 40
0.7692307692307693
 40
0.7692307692307693
 40
0.8461538461538461
 40
0.8461538461538461
 40
0.8461538461538461
 40
0.8461538461538461
 40
1.0
 40
1.0
 40
1.0
 40
1.0
 10
1.09624
 20
13.19203
 30
0.0
 10
1.01433
 20
13.16748
 30
0.0
 10
0.94426
 20
13.1552
 30
0.0
 10
0.88584
 20
13.1552
 30
0.0
 10
0.88584
 20
13.1552
 30
0.0
 10
0.78615
 20
13.1552
 30
0.0
 10
0.70508
 20
13.18822
 30
0.0
 10
0.64264
 20
13.25405
 30
0.0
 10
0.64264
 20
13.25405
 30
0.0
 10
0.5802
 20
13.31988
 30
0.0
 10
0.54887
 20
13.40518
 30
0.0
 10
0.54887
 20
13.51017
 30
0.0
 10
0.54887
 20
13.51017
 30
0.0
 10
0.54887
 20
13.61198
 30
0.0
 10
0.57639
 20
13.69559
 30
0.0
 10
0.63163
 20
13.76099
 30
0.0
 10
0.63163
 20
13.76099
 30
0.0
 10
0.68688
 20
13.82618
 30
0.0
 10
0.75757
 20
13.85878
 30
0.0
 10
0.84372
 20
13.85878
 30
0.0
 10
0.84372
 20
13.85878
 30
0.0
 10
0.92521
 20
13.85878
 30
0.0
 10
0.98829
 20
13.82978
 30
0.0
 10
1.03274
 20
13.77179
 30
0.0
 10
1.03274
 20
13.77179
 30
0.0
 10
1.07719
 20
13.71379
 30
0.0
 10
1.09942
 20
13.63166
 30
0.0
 10
1.09942
 20
13.52519
 30
0.0
 10
1.09942
 20
13.52519
 30
0.0
 10
1.09942
 20
13.52519
 30
0.0
 10
1.09878
 20
13.48794
 30
0.0
 10
1.09878
 20
13.48794
 30
0.0
 10
1.09878
 20
13.48794
 30
0.0
 10
1.09878
 20
13.48794
 30
0.0
 10
0.67333
 20
13.48794
 30
0.0
 10
0.67333
 20
13.48794
 30
0.0
 10
0.67333
 20
13.48794
 30
0.0
 10
0.69111
 20
13.32707
 30
0.0
 10
0.76964
 20
13.24664
 30
0.0
 10
0.9087
 20
13.24664
 30
0.0
 10
0.9087
 20
13.24664
 30
0.0
 10
0.95972
 20
13.24664
 30
0.0
 10
1.02216
 20
13.26103
 30
0.0
 10
1.09624
 20
13.28982
 30
0.0
 10
1.09624
 20
13.28982
 30
0.0
 10
1.09624
 20
13.28982
 30
0.0
 10
1.09624
 20
13.19203
 30
0.0
 10
1.09624
 20
13.19203
 30
0.0
  0
SPLINE
  5
5E
330
1F
100
AcDbEntity
  8
Layer 1
100
AcDbSpline
210
0.0
220
0.0
230
1.0
 70
    11
 71
     3
 72
    16
 73
    12
 74
     0
 42
0.0000000001
 43
0.0000000001
 12
1.0
 22
0.0
 32
0.0
 13
1.0
 23
0.0
 33
0.0
 40
0.0
 40
0.0
 40
0.0
 40
0.0
 40
0.25
 40
0.25
 40
0.25
 40
0.25
 40
0.5
 40
0.5
 40
0.5
 40
0.5
 40
1.0
 40
1.0
 40
1.0
 40
1.0
 10
0.67968
 20
13.57938
 30
0.0
 10
0.67968
 20
13.57938
 30
0.0
 10
0.97686
 20
13.57938
 30
0.0
 10
0.97686
 20
13.57938
 30
0.0
 10
0.97686
 20
13.57938
 30
0.0
 10
0.97686
 20
13.70469
 30
0.0
 10
0.93008
 20
13.76734
 30
0.0
 10
0.83674
 20
13.76734
 30
0.0
 10
0.83674
 20
13.76734
 30
0.0
 10
0.74276
 20
13.76734
 30
0.0
 10
0.69048
 20
13.70469
 30
0.0
 10
0.67968
 20
13.57938
 30
0.0
  0
SPLINE
  5
5F
330
1F
100
AcDbEntity
  8
Layer 1
100
AcDbSpline
210
0.0
220
0.0
230
1.0
 70
    11
 71
     3
 72
    80
 73
    76
 74
     0
 42
0.0000000001
 43
0.0000000001
 12
1.0
 22
0.0
 32
0.0
 13
1.0
 23
0.0
 33
0.0
 40
0.0
 40
0.0
 40
0.0
 40
0.0
 40
0.05
 40
0.05
 40
0.05
 40
0.05
 40
0.1
 40
0.1
 40
0.1
 40
0.1
 40
0.15
 40
0.15
 40
0.15
 40
0.15
 40
0.2
 40
0.2
 40
0.2
 40
0.2
 40
0.25
 40
0.25
 40
0.25
 40
0.25
 40
0.3
 40
0.3
 40
0.3
 40
0.3
 40
0.35
 40
0.35
 40
0.35
 40
0.35
 40
0.4
 40
0.4
 40
0.4
 40
0.4
 40
0.45
 40
0.45
 40
0.45
 40
0.45
 40
0.5
 40
0.5
 40
0.5
 40
0.5
 40
0.55
 40
0.55
 40
0.55
 40
0.55
 40
0.6
 40
0.6
 40
0.6
 40
0.6
 40
0.65
 40
0.65
 40
0.65
 40
0.65
 40
0.7
 40
0.7
 40
0.7
 40
0.7
 40
0.75
 40
0.75
 40
0.75
 40
0.75
 40
0.8
 40
0.8
 40
0.8
 40
0.8
 40
0.85
 40
0.85
 40
0.85
 40
0.85
 40
0.9
 40
0.9
 40
0.9
 40
0.9
 40
1.0
 40
1.0
 40
1.0
 40
1.0
 10
1.65673
 20
13.25617
 30
0.0
 10
1.5835
 20
13.18886
 30
0.0
 10
1.51301
 20
13.1552
 30
0.0
 10
1.44528
 20
13.1552
 30
0.0
 10
1.44528
 20
13.1552
 30
0.0
 10
1.38961
 20
13.1552
 30
0.0
 10
1.34325
 20
13.17256
 30
0.0
 10
1.30664
 20
13.20748
 30
0.0
 10
1.30664
 20
13.20748
 30
0.0
 10
1.26981
 20
13.24241
 30
0.0
 10
1.25139
 20
13.28643
 30
0.0
 10
1.25139
 20
13.33956
 30
0.0
 10
1.25139
 20
13.33956
 30
0.0
 10
1.25139
 20
13.41301
 30
0.0
 10
1.28229
 20
13.46953
 30
0.0
 10
1.3441
 20
13.5089
 30
0.0
 10
1.3441
 20
13.5089
 30
0.0
 10
1.40591
 20
13.54827
 30
0.0
 10
1.4946
 20
13.56795
 30
0.0
 10
1.61017
 20
13.56795
 30
0.0
 10
1.61017
 20
13.56795
 30
0.0
 10
1.61017
 20
13.56795
 30
0.0
 10
1.63874
 20
13.56795
 30
0.0
 10
1.63874
 20
13.56795
 30
0.0
 10
1.63874
 20
13.56795
 30
0.0
 10
1.63874
 20
13.56795
 30
0.0
 10
1.63874
 20
13.64902
 30
0.0
 10
1.63874
 20
13.64902
 30
0.0
 10
1.63874
 20
13.64902
 30
0.0
 10
1.63874
 20
13.72712
 30
0.0
 10
1.5981
 20
13.76607
 30
0.0
 10
1.51661
 20
13.76607
 30
0.0
 10
1.51661
 20
13.76607
 30
0.0
 10
1.45353
 20
13.76607
 30
0.0
 10
1.38453
 20
13.74617
 30
0.0
 10
1.30981
 20
13.70638
 30
0.0
 10
1.30981
 20
13.70638
 30
0.0
 10
1.30981
 20
13.70638
 30
0.0
 10
1.30981
 20
13.80671
 30
0.0
 10
1.30981
 20
13.80671
 30
0.0
 10
1.30981
 20
13.80671
 30
0.0
 10
1.39194
 20
13.84058
 30
0.0
 10
1.46941
 20
13.85751
 30
0.0
 10
1.54201
 20
13.85751
 30
0.0
 10
1.54201
 20
13.85751
 30
0.0
 10
1.61673
 20
13.85751
 30
0.0
 10
1.67197
 20
13.84058
 30
0.0
 10
1.70732
 20
13.8065
 30
0.0
 10
1.70732
 20
13.8065
 30
0.0
 10
1.74288
 20
13.77242
 30
0.0
 10
1.76066
 20
13.71993
 30
0.0
 10
1.76066
 20
13.64902
 30
0.0
 10
1.76066
 20
13.64902
 30
0.0
 10
1.76066
 20
13.64902
 30
0.0
 10
1.76066
 20
13.34485
 30
0.0
 10
1.76066
 20
13.34485
 30
0.0
 10
1.76066
 20
13.34485
 30
0.0
 10
1.76066
 20
13.27522
 30
0.0
 10
1.78204
 20
13.24029
 30
0.0
 10
1.82501
 20
13.24029
 30
0.0
 10
1.82501
 20
13.24029
 30
0.0
 10
1.8303
 20
13.24029
 30
0.0
 10
1.83813
 20
13.24114
 30
0.0
 10
1.8485
 20
13.24283
 30
0.0
 10
1.8485
 20
13.24283
 30
0.0
 10
1.8485
 20
13.24283
 30
0.0
 10
1.85718
 20
13.1751
 30
0.0
 10
1.85718
 20
13.1751
 30
0.0
 10
1.85718
 20
13.1751
 30
0.0
 10
1.82945
 20
13.16176
 30
0.0
 10
1.79897
 20
13.1552
 30
0.0
 10
1.76553
 20
13.1552
 30
0.0
 10
1.76553
 20
13.1552
 30
0.0
 10
1.70859
 20
13.1552
 30
0.0
 10
1.6724
 20
13.18886
 30
0.0
 10
1.65673
 20
13.25617
 30
0.0
  0
SPLINE
  5
60
330
1F
100
AcDbEntity
  8
Layer 1
100
AcDbSpline
210
0.0
220
0.0
230
1.0
 70
    11
 71
     3
 72
    32
 73
    28
 74
     0
 42
0.0000000001
 43
0.0000000001
 12
1.0
 22
0.0
 32
0.0
 13
1.0
 23
0.0
 33
0.0
 40
0.0
 40
0.0
 40
0.0
 40
0.0
 40
0.125
 40
0.125
 40
0.125
 40
0.125
 40
0.25
 40
0.25
 40
0.25
 40
0.25
 40
0.375
 40
0.375
 40
0.375
 40
0.375
 40
0.5
 40
0.5
 40
0.5
 40
0.5
 40
0.625
 40
0.625
 40
0.625
 40
0.625
 40
0.75
 40
0.75
 40
0.75
 40
0.75
 40
1.0
 40
1.0
 40
1.0
 40
1.0
 10
1.63874
 20
13.32263
 30
0.0
 10
1.63874
 20
13.32263
 30
0.0
 10
1.63874
 20
13.49556
 30
0.0
 10
1.63874
 20
13.49556
 30
0.0
 10
1.63874
 20
13.49556
 30
0.0
 10
1.63874
 20
13.49556
 30
0.0
 10
1.59958
 20
13.49683
 30
0.0
 10
1.59958
 20
13.49683
 30
0.0
 10
1.59958
 20
13.49683
 30
0.0
 10
1.53185
 20
13.49683
 30
0.0
 10
1.47724
 20
13.48434
 30
0.0
 10
1.43554
 20
13.45937
 30
0.0
 10
1.43554
 20
13.45937
 30
0.0
 10
1.39405
 20
13.43418
 30
0.0
 10
1.37331
 20
13.40095
 30
0.0
 10
1.37331
 20
13.35946
 30
0.0
 10
1.37331
 20
13.35946
 30
0.0
 10
1.37331
 20
13.33046
 30
0.0
 10
1.38368
 20
13.30591
 30
0.0
 10
1.40421
 20
13.2858
 30
0.0
 10
1.40421
 20
13.2858
 30
0.0
 10
1.42496
 20
13.26569
 30
0.0
 10
1.45015
 20
13.25553
 30
0.0
 10
1.47999
 20
13.25553
 30
0.0
 10
1.47999
 20
13.25553
 30
0.0
 10
1.53079
 20
13.25553
 30
0.0
 10
1.58371
 20
13.27797
 30
0.0
 10
1.63874
 20
13.32263
 30
0.0
  0
SPLINE
  5
61
330
1F
100
AcDbEntity
  8
Layer 1
100
AcDbSpline
210
0.0
220
0.0
230
1.0
 70
    11
 71
     3
 72
    20
 73
    16
 74
     0
 42
0.0000000001
 43
0.0000000001
 12
1.0
 22
0.0
 32
0.0
 13
1.0
 23
0.0
 33
0.0
 40
0.0
 40
0.0
 40
0.0
 40
0.0
 40
0.2
 40
0.2
 40
0.2
 40
0.2
 40
0.4
 40
0.4
 40
0.4
 40
0.4
 40
0.6
 40
0.6
 40
0.6
 40
0.6
 40
1.0
 40
1.0
 40
1.0
 40
1.0
 10
1.94248
 20
13.079
 30
0.0
 10
1.94248
 20
13.079
 30
0.0
 10
1.94248
 20
13.17044
 30
0.0
 10
1.94248
 20
13.17044
 30
0.0
 10
1.94248
 20
13.17044
 30
0.0
 10
1.94248
 20
13.17044
 30
0.0
 10
2.4708
 20
13.17044
 30
0.0
 10
2.4708
 20
13.17044
 30
0.0
 10
2.4708
 20
13.17044
 30
0.0
 10
2.4708
 20
13.17044
 30
0.0
 10
2.4708
 20
13.079
 30
0.0
 10
2.4708
 20
13.079
 30
0.0
 10
2.4708
 20
13.079
 30
0.0
 10
2.4708
 20
13.079
 30
0.0
 10
1.94248
 20
13.079
 30
0.0
 10
1.94248
 20
13.079
 30
0.0
  0
SPLINE
  5
62
330
1F
100
AcDbEntity
  8
Layer 1
100
AcDbSpline
210
0.0
220
0.0
230
1.0
 70
    11
 71
     3
 72
    92
 73
    88
 74
     0
 42
0.0000000001
 43
0.0000000001
 12
1.0
 22
0.0
 32
0.0
 13
1.0
 23
0.0
 33
0.0
 40
0.0
 40
0.0
 40
0.0
 40
0.0
 40
0.0434782608695652
 40
0.0434782608695652
 40
0.0434782608695652
 40
0.0434782608695652
 40
0.0869565217391304
 40
0.0869565217391304
 40
0.0869565217391304
 40
0.0869565217391304
 40
0.1304347826086956
 40
0.1304347826086956
 40
0.1304347826086956
 40
0.1304347826086956
 40
0.1739130434782609
 40
0.1739130434782609
 40
0.1739130434782609
 40
0.1739130434782609
 40
0.2173913043478261
 40
0.2173913043478261
 40
0.2173913043478261
 40
0.2173913043478261
 40
0.2608695652173913
 40
0.2608695652173913
 40
0.2608695652173913
 40
0.2608695652173913
 40
0.3043478260869565
 40
0.3043478260869565
 40
0.3043478260869565
 40
0.3043478260869565
 40
0.3478260869565217
 40
0.3478260869565217
 40
0.3478260869565217
 40
0.3478260869565217
 40
0.391304347826087
 40
0.391304347826087
 40
0.391304347826087
 40
0.391304347826087
 40
0.4347826086956522
 40
0.4347826086956522
 40
0.4347826086956522
 40
0.4347826086956522
 40
0.4782608695652174
 40
0.4782608695652174
 40
0.4782608695652174
 40
0.4782608695652174
 40
0.5217391304347826
 40
0.5217391304347826
 40
0.5217391304347826
 40
0.5217391304347826
 40
0.5652173913043478
 40
0.5652173913043478
 40
0.5652173913043478
 40
0.5652173913043478
 40
0.6086956521739131
 40
0.6086956521739131
 40
0.6086956521739131
 40
0.6086956521739131
 40
0.6521739130434783
 40
0.6521739130434783
 40
0.6521739130434783
 40
0.6521739130434783
 40
0.6956521739130435
 40
0.6956521739130435
 40
0.6956521739130435
 40
0.6956521739130435
 40
0.7391304347826086
 40
0.7391304347826086
 40
0.7391304347826086
 40
0.7391304347826086
 40
0.782608695652174
 40
0.782608695652174
 40
0.782608695652174
 40
0.782608695652174
 40
0.8260869565217391
 40
0.8260869565217391
 40
0.8260869565217391
 40
0.8260869565217391
 40
0.8695652173913043
 40
0.8695652173913043
 40
0.8695652173913043
 40
0.8695652173913043
 40
0.9130434782608695
 40
0.9130434782608695
 40
0.9130434782608695
 40
0.9130434782608695
 40
1.0
 40
1.0
 40
1.0
 40
1.0
 10
2.62193
 20
13.19457
 30
0.0
 10
2.62193
 20
13.19457
 30
0.0
 10
2.62193
 20
13.30633
 30
0.0
 10
2.62193
 20
13.30633
 30
0.0
 10
2.62193
 20
13.30633
 30
0.0
 10
2.70173
 20
13.26654
 30
0.0
 10
2.77094
 20
13.24664
 30
0.0
 10
2.83
 20
13.24664
 30
0.0
 10
2.83
 20
13.24664
 30
0.0
 10
2.86514
 20
13.24664
 30
0.0
 10
2.89435
 20
13.25617
 30
0.0
 10
2.91742
 20
13.27522
 30
0.0
 10
2.91742
 20
13.27522
 30
0.0
 10
2.94049
 20
13.29405
 30
0.0
 10
2.95213
 20
13.31776
 30
0.0
 10
2.95213
 20
13.34634
 30
0.0
 10
2.95213
 20
13.34634
 30
0.0
 10
2.95213
 20
13.38803
 30
0.0
 10
2.91975
 20
13.42254
 30
0.0
 10
2.85498
 20
13.44984
 30
0.0
 10
2.85498
 20
13.44984
 30
0.0
 10
2.85498
 20
13.44984
 30
0.0
 10
2.78364
 20
13.48011
 30
0.0
 10
2.78364
 20
13.48011
 30
0.0
 10
2.78364
 20
13.48011
 30
0.0
 10
2.67845
 20
13.52371
 30
0.0
 10
2.62574
 20
13.58679
 30
0.0
 10
2.62574
 20
13.6687
 30
0.0
 10
2.62574
 20
13.6687
 30
0.0
 10
2.62574
 20
13.72734
 30
0.0
 10
2.64648
 20
13.77348
 30
0.0
 10
2.68797
 20
13.80713
 30
0.0
 10
2.68797
 20
13.80713
 30
0.0
 10
2.72946
 20
13.84079
 30
0.0
 10
2.7864
 20
13.85751
 30
0.0
 10
2.85857
 20
13.85751
 30
0.0
 10
2.85857
 20
13.85751
 30
0.0
 10
2.89604
 20
13.85751
 30
0.0
 10
2.94261
 20
13.85243
 30
0.0
 10
2.99785
 20
13.84206
 30
0.0
 10
2.99785
 20
13.84206
 30
0.0
 10
2.99785
 20
13.84206
 30
0.0
 10
3.02325
 20
13.83719
 30
0.0
 10
3.02325
 20
13.83719
 30
0.0
 10
3.02325
 20
13.83719
 30
0.0
 10
3.02325
 20
13.83719
 30
0.0
 10
3.02325
 20
13.73559
 30
0.0
 10
3.02325
 20
13.73559
 30
0.0
 10
3.02325
 20
13.73559
 30
0.0
 10
2.95531
 20
13.75591
 30
0.0
 10
2.90112
 20
13.76607
 30
0.0
 10
2.86069
 20
13.76607
 30
0.0
 10
2.86069
 20
13.76607
 30
0.0
 10
2.82513
 20
13.76607
 30
0.0
 10
2.79698
 20
13.75824
 30
0.0
 10
2.7756
 20
13.74279
 30
0.0
 10
2.7756
 20
13.74279
 30
0.0
 10
2.75443
 20
13.72734
 30
0.0
 10
2.74385
 20
13.70659
 30
0.0
 10
2.74385
 20
13.68056
 30
0.0
 10
2.74385
 20
13.68056
 30
0.0
 10
2.74385
 20
13.64394
 30
0.0
 10
2.77348
 20
13.61282
 30
0.0
 10
2.83296
 20
13.58764
 30
0.0
 10
2.83296
 20
13.58764
 30
0.0
 10
2.83296
 20
13.58764
 30
0.0
 10
2.89159
 20
13.56287
 30
0.0
 10
2.89159
 20
13.56287
 30
0.0
 10
2.89159
 20
13.56287
 30
0.0
 10
2.95806
 20
13.53493
 30
0.0
 10
3.00505
 20
13.5053
 30
0.0
 10
3.03256
 20
13.47418
 30
0.0
 10
3.03256
 20
13.47418
 30
0.0
 10
3.06029
 20
13.44307
 30
0.0
 10
3.07405
 20
13.40412
 30
0.0
 10
3.07405
 20
13.35755
 30
0.0
 10
3.07405
 20
13.35755
 30
0.0
 10
3.07405
 20
13.2985
 30
0.0
 10
3.05077
 20
13.25003
 30
0.0
 10
3.00399
 20
13.21214
 30
0.0
 10
3.00399
 20
13.21214
 30
0.0
 10
2.95742
 20
13.17425
 30
0.0
 10
2.89773
 20
13.1552
 30
0.0
 10
2.82513
 20
13.1552
 30
0.0
 10
2.82513
 20
13.1552
 30
0.0
 10
2.76925
 20
13.1552
 30
0.0
 10
2.70173
 20
13.16832
 30
0.0
 10
2.62193
 20
13.19457
 30
0.0
  0
SPLINE
  5
63
330
1F
100
AcDbEntity
  8
Layer 1
100
AcDbSpline
210
0.0
220
0.0
230
1.0
 70
    11
 71
     3
 72
    20
 73
    16
 74
     0
 42
0.0000000001
 43
0.0000000001
 12
1.0
 22
0.0
 32
0.0
 13
1.0
 23
0.0
 33
0.0
 40
0.0
 40
0.0
 40
0.0
 40
0.0
 40
0.2
 40
0.2
 40
0.2
 40
0.2
 40
0.4
 40
0.4
 40
0.4
 40
0.4
 40
0.6
 40
0.6
 40
0.6
 40
0.6
 40
1.0
 40
1.0
 40
1.0
 40
1.0
 10
3.29355
 20
13.17044
 30
0.0
 10
3.29355
 20
13.17044
 30
0.0
 10
3.29355
 20
14.14961
 30
0.0
 10
3.29355
 20
14.14961
 30
0.0
 10
3.29355
 20
14.14961
 30
0.0
 10
3.29355
 20
14.14961
 30
0.0
 10
3.41547
 20
14.14961
 30
0.0
 10
3.41547
 20
14.14961
 30
0.0
 10
3.41547
 20
14.14961
 30
0.0
 10
3.41547
 20
14.14961
 30
0.0
 10
3.41547
 20
13.17044
 30
0.0
 10
3.41547
 20
13.17044
 30
0.0
 10
3.41547
 20
13.17044
 30
0.0
 10
3.41547
 20
13.17044
 30
0.0
 10
3.29355
 20
13.17044
 30
0.0
 10
3.29355
 20
13.17044
 30
0.0
  0
SPLINE
  5
64
330
1F
100
AcDbEntity
  8
Layer 1
100
AcDbSpline
210
0.0
220
0.0
230
1.0
 70
    11
 71
     3
 72
    80
 73
    76
 74
     0
 42
0.0000000001
 43
0.0000000001
 12
1.0
 22
0.0
 32
0.0
 13
1.0
 23
0.0
 33
0.0
 40
0.0
 40
0.0
 40
0.0
 40
0.0
 40
0.05
 40
0.05
 40
0.05
 40
0.05
 40
0.1
 40
0.1
 40
0.1
 40
0.1
 40
0.15
 40
0.15
 40
0.15
 40
0.15
 40
0.2
 40
0.2
 40
0.2
 40
0.2
 40
0.25
 40
0.25
 40
0.25
 40
0.25
 40
0.3
 40
0.3
 40
0.3
 40
0.3
 40
0.35
 40
0.35
 40
0.35
 40
0.35
 40
0.4
 40
0.4
 40
0.4
 40
0.4
 40
0.45
 40
0.45
 40
0.45
 40
0.45
 40
0.5
 40
0.5
 40
0.5
 40
0.5
 40
0.55
 40
0.55
 40
0.55
 40
0.55
 40
0.6
 40
0.6
 40
0.6
 40
0.6
 40
0.65
 40
0.65
 40
0.65
 40
0.65
 40
0.7
 40
0.7
 40
0.7
 40
0.7
 40
0.75
 40
0.75
 40
0.75
 40
0.75
 40
0.8
 40
0.8
 40
0.8
 40
0.8
 40
0.85
 40
0.85
 40
0.85
 40
0.85
 40
0.9
 40
0.9
 40
0.9
 40
0.9
 40
1.0
 40
1.0
 40
1.0
 40
1.0
 10
4.0075
 20
13.25617
 30
0.0
 10
3.93427
 20
13.18886
 30
0.0
 10
3.86378
 20
13.1552
 30
0.0
 10
3.79605
 20
13.1552
 30
0.0
 10
3.79605
 20
13.1552
 30
0.0
 10
3.74038
 20
13.1552
 30
0.0
 10
3.69402
 20
13.17256
 30
0.0
 10
3.65741
 20
13.20748
 30
0.0
 10
3.65741
 20
13.20748
 30
0.0
 10
3.62058
 20
13.24241
 30
0.0
 10
3.60216
 20
13.28643
 30
0.0
 10
3.60216
 20
13.33956
 30
0.0
 10
3.60216
 20
13.33956
 30
0.0
 10
3.60216
 20
13.41301
 30
0.0
 10
3.63306
 20
13.46953
 30
0.0
 10
3.69487
 20
13.5089
 30
0.0
 10
3.69487
 20
13.5089
 30
0.0
 10
3.75668
 20
13.54827
 30
0.0
 10
3.84537
 20
13.56795
 30
0.0
 10
3.96094
 20
13.56795
 30
0.0
 10
3.96094
 20
13.56795
 30
0.0
 10
3.96094
 20
13.56795
 30
0.0
 10
3.98951
 20
13.56795
 30
0.0
 10
3.98951
 20
13.56795
 30
0.0
 10
3.98951
 20
13.56795
 30
0.0
 10
3.98951
 20
13.56795
 30
0.0
 10
3.98951
 20
13.64902
 30
0.0
 10
3.98951
 20
13.64902
 30
0.0
 10
3.98951
 20
13.64902
 30
0.0
 10
3.98951
 20
13.72712
 30
0.0
 10
3.94887
 20
13.76607
 30
0.0
 10
3.86738
 20
13.76607
 30
0.0
 10
3.86738
 20
13.76607
 30
0.0
 10
3.8043
 20
13.76607
 30
0.0
 10
3.7353
 20
13.74617
 30
0.0
 10
3.66058
 20
13.70638
 30
0.0
 10
3.66058
 20
13.70638
 30
0.0
 10
3.66058
 20
13.70638
 30
0.0
 10
3.66058
 20
13.80671
 30
0.0
 10
3.66058
 20
13.80671
 30
0.0
 10
3.66058
 20
13.80671
 30
0.0
 10
3.74271
 20
13.84058
 30
0.0
 10
3.82018
 20
13.85751
 30
0.0
 10
3.89278
 20
13.85751
 30
0.0
 10
3.89278
 20
13.85751
 30
0.0
 10
3.9675
 20
13.85751
 30
0.0
 10
4.02274
 20
13.84058
 30
0.0
 10
4.05809
 20
13.8065
 30
0.0
 10
4.05809
 20
13.8065
 30
0.0
 10
4.09365
 20
13.77242
 30
0.0
 10
4.11143
 20
13.71993
 30
0.0
 10
4.11143
 20
13.64902
 30
0.0
 10
4.11143
 20
13.64902
 30
0.0
 10
4.11143
 20
13.64902
 30
0.0
 10
4.11143
 20
13.34485
 30
0.0
 10
4.11143
 20
13.34485
 30
0.0
 10
4.11143
 20
13.34485
 30
0.0
 10
4.11143
 20
13.27522
 30
0.0
 10
4.13281
 20
13.24029
 30
0.0
 10
4.17578
 20
13.24029
 30
0.0
 10
4.17578
 20
13.24029
 30
0.0
 10
4.18107
 20
13.24029
 30
0.0
 10
4.1889
 20
13.24114
 30
0.0
 10
4.19927
 20
13.24283
 30
0.0
 10
4.19927
 20
13.24283
 30
0.0
 10
4.19927
 20
13.24283
 30
0.0
 10
4.20795
 20
13.1751
 30
0.0
 10
4.20795
 20
13.1751
 30
0.0
 10
4.20795
 20
13.1751
 30
0.0
 10
4.18022
 20
13.16176
 30
0.0
 10
4.14974
 20
13.1552
 30
0.0
 10
4.1163
 20
13.1552
 30
0.0
 10
4.1163
 20
13.1552
 30
0.0
 10
4.05936
 20
13.1552
 30
0.0
 10
4.02317
 20
13.18886
 30
0.0
 10
4.0075
 20
13.25617
 30
0.0
  0
SPLINE
  5
65
330
1F
100
AcDbEntity
  8
Layer 1
100
AcDbSpline
210
0.0
220
0.0
230
1.0
 70
    11
 71
     3
 72
    32
 73
    28
 74
     0
 42
0.0000000001
 43
0.0000000001
 12
1.0
 22
0.0
 32
0.0
 13
1.0
 23
0.0
 33
0.0
 40
0.0
 40
0.0
 40
0.0
 40
0.0
 40
0.125
 40
0.125
 40
0.125
 40
0.125
 40
0.25
 40
0.25
 40
0.25
 40
0.25
 40
0.375
 40
0.375
 40
0.375
 40
0.375
 40
0.5
 40
0.5
 40
0.5
 40
0.5
 40
0.625
 40
0.625
 40
0.625
 40
0.625
 40
0.75
 40
0.75
 40
0.75
 40
0.75
 40
1.0
 40
1.0
 40
1.0
 40
1.0
 10
3.98951
 20
13.32263
 30
0.0
 10
3.98951
 20
13.32263
 30
0.0
 10
3.98951
 20
13.49556
 30
0.0
 10
3.98951
 20
13.49556
 30
0.0
 10
3.98951
 20
13.49556
 30
0.0
 10
3.98951
 20
13.49556
 30
0.0
 10
3.95035
 20
13.49683
 30
0.0
 10
3.95035
 20
13.49683
 30
0.0
 10
3.95035
 20
13.49683
 30
0.0
 10
3.88262
 20
13.49683
 30
0.0
 10
3.82801
 20
13.48434
 30
0.0
 10
3.78631
 20
13.45937
 30
0.0
 10
3.78631
 20
13.45937
 30
0.0
 10
3.74482
 20
13.43418
 30
0.0
 10
3.72408
 20
13.40095
 30
0.0
 10
3.72408
 20
13.35946
 30
0.0
 10
3.72408
 20
13.35946
 30
0.0
 10
3.72408
 20
13.33046
 30
0.0
 10
3.73445
 20
13.30591
 30
0.0
 10
3.75498
 20
13.2858
 30
0.0
 10
3.75498
 20
13.2858
 30
0.0
 10
3.77573
 20
13.26569
 30
0.0
 10
3.80092
 20
13.25553
 30
0.0
 10
3.83076
 20
13.25553
 30
0.0
 10
3.83076
 20
13.25553
 30
0.0
 10
3.88156
 20
13.25553
 30
0.0
 10
3.93448
 20
13.27797
 30
0.0
 10
3.98951
 20
13.32263
 30
0.0
  0
SPLINE
  5
66
330
1F
100
AcDbEntity
  8
Layer 1
100
AcDbSpline
210
0.0
220
0.0
230
1.0
 70
    11
 71
     3
 72
    72
 73
    68
 74
     0
 42
0.0000000001
 43
0.0000000001
 12
1.0
 22
0.0
 32
0.0
 13
1.0
 23
0.0
 33
0.0
 40
0.0
 40
0.0
 40
0.0
 40
0.0
 40
0.0555555555555556
 40
0.0555555555555556
 40
0.0555555555555556
 40
0.0555555555555556
 40
0.1111111111111111
 40
0.1111111111111111
 40
0.1111111111111111
 40
0.1111111111111111
 40
0.1666666666666667
 40
0.1666666666666667
 40
0.1666666666666667
 40
0.1666666666666667
 40
0.2222222222222222
 40
0.2222222222222222
 40
0.2222222222222222
 40
0.2222222222222222
 40
0.2777777777777778
 40
0.2777777777777778
 40
0.2777777777777778
 40
0.2777777777777778
 40
0.3333333333333333
 40
0.3333333333333333
 40
0.3333333333333333
 40
0.3333333333333333
 40
0.3888888888888889
 40
0.3888888888888889
 40
0.3888888888888889
 40
0.3888888888888889
 40
0.4444444444444444
 40
0.4444444444444444
 40
0.4444444444444444
 40
0.4444444444444444
 40
0.5
 40
0.5
 40
0.5
 40
0.5
 40
0.5555555555555556
 40
0.5555555555555556
 40
0.5555555555555556
 40
0.5555555555555556
 40
0.6111111111111112
 40
0.6111111111111112
 40
0.6111111111111112
 40
0.6111111111111112
 40
0.6666666666666666
 40
0.6666666666666666
 40
0.6666666666666666
 40
0.6666666666666666
 40
0.7222222222222222
 40
0.7222222222222222
 40
0.7222222222222222
 40
0.7222222222222222
 40
0.7777777777777778
 40
0.7777777777777778
 40
0.7777777777777778
 40
0.7777777777777778
 40
0.8333333333333334
 40
0.8333333333333334
 40
0.8333333333333334
 40
0.8333333333333334
 40
0.8888888888888888
 40
0.8888888888888888
 40
0.8888888888888888
 40
0.8888888888888888
 40
1.0
 40
1.0
 40
1.0
 40
1.0
 10
4.66282
 20
13.17065
 30
0.0
 10
4.62514
 20
13.16028
 30
0.0
 10
4.59234
 20
13.1552
 30
0.0
 10
4.56461
 20
13.1552
 30
0.0
 10
4.56461
 20
13.1552
 30
0.0
 10
4.50238
 20
13.1552
 30
0.0
 10
4.45391
 20
13.17298
 30
0.0
 10
4.41919
 20
13.20854
 30
0.0
 10
4.41919
 20
13.20854
 30
0.0
 10
4.38427
 20
13.2441
 30
0.0
 10
4.36691
 20
13.29342
 30
0.0
 10
4.36691
 20
13.35671
 30
0.0
 10
4.36691
 20
13.35671
 30
0.0
 10
4.36691
 20
13.35671
 30
0.0
 10
4.36691
 20
13.7521
 30
0.0
 10
4.36691
 20
13.7521
 30
0.0
 10
4.36691
 20
13.7521
 30
0.0
 10
4.36691
 20
13.7521
 30
0.0
 10
4.28267
 20
13.7521
 30
0.0
 10
4.28267
 20
13.7521
 30
0.0
 10
4.28267
 20
13.7521
 30
0.0
 10
4.28267
 20
13.7521
 30
0.0
 10
4.28267
 20
13.84354
 30
0.0
 10
4.28267
 20
13.84354
 30
0.0
 10
4.28267
 20
13.84354
 30
0.0
 10
4.28267
 20
13.84354
 30
0.0
 10
4.36691
 20
13.84354
 30
0.0
 10
4.36691
 20
13.84354
 30
0.0
 10
4.36691
 20
13.84354
 30
0.0
 10
4.36691
 20
13.84354
 30
0.0
 10
4.36691
 20
13.96525
 30
0.0
 10
4.36691
 20
13.96525
 30
0.0
 10
4.36691
 20
13.96525
 30
0.0
 10
4.36691
 20
13.96525
 30
0.0
 10
4.48883
 20
13.97689
 30
0.0
 10
4.48883
 20
13.97689
 30
0.0
 10
4.48883
 20
13.97689
 30
0.0
 10
4.48883
 20
13.97689
 30
0.0
 10
4.48883
 20
13.84354
 30
0.0
 10
4.48883
 20
13.84354
 30
0.0
 10
4.48883
 20
13.84354
 30
0.0
 10
4.48883
 20
13.84354
 30
0.0
 10
4.66536
 20
13.84354
 30
0.0
 10
4.66536
 20
13.84354
 30
0.0
 10
4.66536
 20
13.84354
 30
0.0
 10
4.66536
 20
13.84354
 30
0.0
 10
4.66536
 20
13.7521
 30
0.0
 10
4.66536
 20
13.7521
 30
0.0
 10
4.66536
 20
13.7521
 30
0.0
 10
4.66536
 20
13.7521
 30
0.0
 10
4.48883
 20
13.7521
 30
0.0
 10
4.48883
 20
13.7521
 30
0.0
 10
4.48883
 20
13.7521
 30
0.0
 10
4.48883
 20
13.7521
 30
0.0
 10
4.48883
 20
13.37872
 30
0.0
 10
4.48883
 20
13.37872
 30
0.0
 10
4.48883
 20
13.37872
 30
0.0
 10
4.48883
 20
13.29067
 30
0.0
 10
4.52714
 20
13.24664
 30
0.0
 10
4.60355
 20
13.24664
 30
0.0
 10
4.60355
 20
13.24664
 30
0.0
 10
4.61985
 20
13.24664
 30
0.0
 10
4.63954
 20
13.24939
 30
0.0
 10
4.66282
 20
13.25468
 30
0.0
 10
4.66282
 20
13.25468
 30
0.0
 10
4.66282
 20
13.25468
 30
0.0
 10
4.66282
 20
13.17065
 30
0.0
 10
4.66282
 20
13.17065
 30
0.0
  0
SPLINE
  5
67
330
1F
100
AcDbEntity
  8
Layer 1
100
AcDbSpline
210
0.0
220
0.0
230
1.0
 70
    11
 71
     3
 72
    72
 73
    68
 74
     0
 42
0.0000000001
 43
0.0000000001
 12
1.0
 22
0.0
 32
0.0
 13
1.0
 23
0.0
 33
0.0
 40
0.0
 40
0.0
 40
0.0
 40
0.0
 40
0.0555555555555556
 40
0.0555555555555556
 40
0.0555555555555556
 40
0.0555555555555556
 40
0.1111111111111111
 40
0.1111111111111111
 40
0.1111111111111111
 40
0.1111111111111111
 40
0.1666666666666667
 40
0.1666666666666667
 40
0.1666666666666667
 40
0.1666666666666667
 40
0.2222222222222222
 40
0.2222222222222222
 40
0.2222222222222222
 40
0.2222222222222222
 40
0.2777777777777778
 40
0.2777777777777778
 40
0.2777777777777778
 40
0.2777777777777778
 40
0.3333333333333333
 40
0.3333333333333333
 40
0.3333333333333333
 40
0.3333333333333333
 40
0.3888888888888889
 40
0.3888888888888889
 40
0.3888888888888889
 40
0.3888888888888889
 40
0.4444444444444444
 40
0.4444444444444444
 40
0.4444444444444444
 40
0.4444444444444444
 40
0.5
 40
0.5
 40
0.5
 40
0.5
 40
0.5555555555555556
 40
0.5555555555555556
 40
0.5555555555555556
 40
0.5555555555555556
 40
0.6111111111111112
 40
0.6111111111111112
 40
0.6111111111111112
 40
0.6111111111111112
 40
0.6666666666666666
 40
0.6666666666666666
 40
0.6666666666666666
 40
0.6666666666666666
 40
0.7222222222222222
 40
0.7222222222222222
 40
0.7222222222222222
 40
0.7222222222222222
 40
0.7777777777777778
 40
0.7777777777777778
 40
0.7777777777777778
 40
0.7777777777777778
 40
0.8333333333333334
 40
0.8333333333333334
 40
0.8333333333333334
 40
0.8333333333333334
 40
0.8888888888888888
 40
0.8888888888888888
 40
0.8888888888888888
 40
0.8888888888888888
 40
1.0
 40
1.0
 40
1.0
 40
1.0
 10
5.1378
 20
13.17065
 30
0.0
 10
5.10012
 20
13.16028
 30
0.0
 10
5.06732
 20
13.1552
 30
0.0
 10
5.03959
 20
13.1552
 30
0.0
 10
5.03959
 20
13.1552
 30
0.0
 10
4.97736
 20
13.1552
 30
0.0
 10
4.92889
 20
13.17298
 30
0.0
 10
4.89417
 20
13.20854
 30
0.0
 10
4.89417
 20
13.20854
 30
0.0
 10
4.85925
 20
13.2441
 30
0.0
 10
4.84189
 20
13.29342
 30
0.0
 10
4.84189
 20
13.35671
 30
0.0
 10
4.84189
 20
13.35671
 30
0.0
 10
4.84189
 20
13.35671
 30
0.0
 10
4.84189
 20
13.7521
 30
0.0
 10
4.84189
 20
13.7521
 30
0.0
 10
4.84189
 20
13.7521
 30
0.0
 10
4.84189
 20
13.7521
 30
0.0
 10
4.75765
 20
13.7521
 30
0.0
 10
4.75765
 20
13.7521
 30
0.0
 10
4.75765
 20
13.7521
 30
0.0
 10
4.75765
 20
13.7521
 30
0.0
 10
4.75765
 20
13.84354
 30
0.0
 10
4.75765
 20
13.84354
 30
0.0
 10
4.75765
 20
13.84354
 30
0.0
 10
4.75765
 20
13.84354
 30
0.0
 10
4.84189
 20
13.84354
 30
0.0
 10
4.84189
 20
13.84354
 30
0.0
 10
4.84189
 20
13.84354
 30
0.0
 10
4.84189
 20
13.84354
 30
0.0
 10
4.84189
 20
13.96525
 30
0.0
 10
4.84189
 20
13.96525
 30
0.0
 10
4.84189
 20
13.96525
 30
0.0
 10
4.84189
 20
13.96525
 30
0.0
 10
4.96381
 20
13.97689
 30
0.0
 10
4.96381
 20
13.97689
 30
0.0
 10
4.96381
 20
13.97689
 30
0.0
 10
4.96381
 20
13.97689
 30
0.0
 10
4.96381
 20
13.84354
 30
0.0
 10
4.96381
 20
13.84354
 30
0.0
 10
4.96381
 20
13.84354
 30
0.0
 10
4.96381
 20
13.84354
 30
0.0
 10
5.14034
 20
13.84354
 30
0.0
 10
5.14034
 20
13.84354
 30
0.0
 10
5.14034
 20
13.84354
 30
0.0
 10
5.14034
 20
13.84354
 30
0.0
 10
5.14034
 20
13.7521
 30
0.0
 10
5.14034
 20
13.7521
 30
0.0
 10
5.14034
 20
13.7521
 30
0.0
 10
5.14034
 20
13.7521
 30
0.0
 10
4.96381
 20
13.7521
 30
0.0
 10
4.96381
 20
13.7521
 30
0.0
 10
4.96381
 20
13.7521
 30
0.0
 10
4.96381
 20
13.7521
 30
0.0
 10
4.96381
 20
13.37872
 30
0.0
 10
4.96381
 20
13.37872
 30
0.0
 10
4.96381
 20
13.37872
 30
0.0
 10
4.96381
 20
13.29067
 30
0.0
 10
5.00212
 20
13.24664
 30
0.0
 10
5.07853
 20
13.24664
 30
0.0
 10
5.07853
 20
13.24664
 30
0.0
 10
5.09483
 20
13.24664
 30
0.0
 10
5.11452
 20
13.24939
 30
0.0
 10
5.1378
 20
13.25468
 30
0.0
 10
5.1378
 20
13.25468
 30
0.0
 10
5.1378
 20
13.25468
 30
0.0
 10
5.1378
 20
13.17065
 30
0.0
 10
5.1378
 20
13.17065
 30
0.0
  0
SPLINE
  5
68
330
1F
100
AcDbEntity
  8
Layer 1
100
AcDbSpline
210
0.0
220
0.0
230
1.0
 70
    11
 71
     3
 72
    48
 73
    44
 74
     0
 42
0.0000000001
 43
0.0000000001
 12
1.0
 22
0.0
 32
0.0
 13
1.0
 23
0.0
 33
0.0
 40
0.0
 40
0.0
 40
0.0
 40
0.0
 40
0.0833333333333333
 40
0.0833333333333333
 40
0.0833333333333333
 40
0.0833333333333333
 40
0.1666666666666667
 40
0.1666666666666667
 40
0.1666666666666667
 40
0.1666666666666667
 40
0.25
 40
0.25
 40
0.25
 40
0.25
 40
0.3333333333333333
 40
0.3333333333333333
 40
0.3333333333333333
 40
0.3333333333333333
 40
0.4166666666666667
 40
0.4166666666666667
 40
0.4166666666666667
 40
0.4166666666666667
 40
0.5
 40
0.5
 40
0.5
 40
0.5
 40
0.5833333333333334
 40
0.5833333333333334
 40
0.5833333333333334
 40
0.5833333333333334
 40
0.6666666666666666
 40
0.6666666666666666
 40
0.6666666666666666
 40
0.6666666666666666
 40
0.75
 40
0.75
 40
0.75
 40
0.75
 40
0.8333333333333334
 40
0.8333333333333334
 40
0.8333333333333334
 40
0.8333333333333334
 40
1.0
 40
1.0
 40
1.0
 40
1.0
 10
5.31179
 20
13.16282
 30
0.0
 10
5.31179
 20
13.16282
 30
0.0
 10
5.31179
 20
14.14961
 30
0.0
 10
5.31179
 20
14.14961
 30
0.0
 10
5.31179
 20
14.14961
 30
0.0
 10
5.31179
 20
14.14961
 30
0.0
 10
5.43371
 20
14.14961
 30
0.0
 10
5.43371
 20
14.14961
 30
0.0
 10
5.43371
 20
14.14961
 30
0.0
 10
5.43371
 20
14.14961
 30
0.0
 10
5.43371
 20
13.71633
 30
0.0
 10
5.43371
 20
13.71633
 30
0.0
 10
5.43371
 20
13.71633
 30
0.0
 10
5.48366
 20
13.81052
 30
0.0
 10
5.55881
 20
13.85751
 30
0.0
 10
5.65892
 20
13.85751
 30
0.0
 10
5.65892
 20
13.85751
 30
0.0
 10
5.73999
 20
13.85751
 30
0.0
 10
5.8037
 20
13.82809
 30
0.0
 10
5.85027
 20
13.76903
 30
0.0
 10
5.85027
 20
13.76903
 30
0.0
 10
5.89684
 20
13.70998
 30
0.0
 10
5.92012
 20
13.62933
 30
0.0
 10
5.92012
 20
13.5271
 30
0.0
 10
5.92012
 20
13.5271
 30
0.0
 10
5.92012
 20
13.41576
 30
0.0
 10
5.89366
 20
13.3258
 30
0.0
 10
5.84096
 20
13.25765
 30
0.0
 10
5.84096
 20
13.25765
 30
0.0
 10
5.78825
 20
13.18928
 30
0.0
 10
5.71883
 20
13.1552
 30
0.0
 10
5.63289
 20
13.1552
 30
0.0
 10
5.63289
 20
13.1552
 30
0.0
 10
5.55309
 20
13.1552
 30
0.0
 10
5.48663
 20
13.18568
 30
0.0
 10
5.43371
 20
13.24685
 30
0.0
 10
5.43371
 20
13.24685
 30
0.0
 10
5.43371
 20
13.24685
 30
0.0
 10
5.41889
 20
13.16282
 30
0.0
 10
5.41889
 20
13.16282
 30
0.0
 10
5.41889
 20
13.16282
 30
0.0
 10
5.41889
 20
13.16282
 30
0.0
 10
5.31179
 20
13.16282
 30
0.0
 10
5.31179
 20
13.16282
 30
0.0
  0
SPLINE
  5
69
330
1F
100
AcDbEntity
  8
Layer 1
100
AcDbSpline
210
0.0
220
0.0
230
1.0
 70
    11
 71
     3
 72
    28
 73
    24
 74
     0
 42
0.0000000001
 43
0.0000000001
 12
1.0
 22
0.0
 32
0.0
 13
1.0
 23
0.0
 33
0.0
 40
0.0
 40
0.0
 40
0.0
 40
0.0
 40
0.1428571428571428
 40
0.1428571428571428
 40
0.1428571428571428
 40
0.1428571428571428
 40
0.2857142857142857
 40
0.2857142857142857
 40
0.2857142857142857
 40
0.2857142857142857
 40
0.4285714285714285
 40
0.4285714285714285
 40
0.4285714285714285
 40
0.4285714285714285
 40
0.5714285714285714
 40
0.5714285714285714
 40
0.5714285714285714
 40
0.5714285714285714
 40
0.7142857142857143
 40
0.7142857142857143
 40
0.7142857142857143
 40
0.7142857142857143
 40
1.0
 40
1.0
 40
1.0
 40
1.0
 10
5.43371
 20
13.33088
 30
0.0
 10
5.49658
 20
13.27479
 30
0.0
 10
5.55648
 20
13.24664
 30
0.0
 10
5.61342
 20
13.24664
 30
0.0
 10
5.61342
 20
13.24664
 30
0.0
 10
5.66951
 20
13.24664
 30
0.0
 10
5.7129
 20
13.27014
 30
0.0
 10
5.74338
 20
13.31691
 30
0.0
 10
5.74338
 20
13.31691
 30
0.0
 10
5.77407
 20
13.36369
 30
0.0
 10
5.78931
 20
13.42952
 30
0.0
 10
5.78931
 20
13.51461
 30
0.0
 10
5.78931
 20
13.51461
 30
0.0
 10
5.78931
 20
13.67209
 30
0.0
 10
5.73724
 20
13.75083
 30
0.0
 10
5.6331
 20
13.75083
 30
0.0
 10
5.6331
 20
13.75083
 30
0.0
 10
5.56494
 20
13.75083
 30
0.0
 10
5.49848
 20
13.714
 30
0.0
 10
5.43371
 20
13.64013
 30
0.0
 10
5.43371
 20
13.64013
 30
0.0
 10
5.43371
 20
13.64013
 30
0.0
 10
5.43371
 20
13.33088
 30
0.0
 10
5.43371
 20
13.33088
 30
0.0
  0
SPLINE
  5
6A
330
1F
100
AcDbEntity
  8
Layer 1
100
AcDbSpline
210
0.0
220
0.0
230
1.0
 70
    11
 71
     3
 72
    36
 73
    32
 74
     0
 42
0.0000000001
 43
0.0000000001
 12
1.0
 22
0.0
 32
0.0
 13
1.0
 23
0.0
 33
0.0
 40
0.0
 40
0.0
 40
0.0
 40
0.0
 40
0.1111111111111111
 40
0.1111111111111111
 40
0.1111111111111111
 40
0.1111111111111111
 40
0.2222222222222222
 40
0.2222222222222222
 40
0.2222222222222222
 40
0.2222222222222222
 40
0.3333333333333333
 40
0.3333333333333333
 40
0.3333333333333333
 40
0.3333333333333333
 40
0.4444444444444444
 40
0.4444444444444444
 40
0.4444444444444444
 40
0.4444444444444444
 40
0.5555555555555556
 40
0.5555555555555556
 40
0.5555555555555556
 40
0.5555555555555556
 40
0.6666666666666666
 40
0.6666666666666666
 40
0.6666666666666666
 40
0.6666666666666666
 40
0.7777777777777778
 40
0.7777777777777778
 40
0.7777777777777778
 40
0.7777777777777778
 40
1.0
 40
1.0
 40
1.0
 40
1.0
 10
6.37901
 20
13.1552
 30
0.0
 10
6.28016
 20
13.1552
 30
0.0
 10
6.20185
 20
13.18674
 30
0.0
 10
6.14427
 20
13.24982
 30
0.0
 10
6.14427
 20
13.24982
 30
0.0
 10
6.08649
 20
13.31289
 30
0.0
 10
6.0577
 20
13.39862
 30
0.0
 10
6.0577
 20
13.50678
 30
0.0
 10
6.0577
 20
13.50678
 30
0.0
 10
6.0577
 20
13.61473
 30
0.0
 10
6.08649
 20
13.70024
 30
0.0
 10
6.14427
 20
13.76311
 30
0.0
 10
6.14427
 20
13.76311
 30
0.0
 10
6.20185
 20
13.82597
 30
0.0
 10
6.28016
 20
13.85751
 30
0.0
 10
6.37901
 20
13.85751
 30
0.0
 10
6.37901
 20
13.85751
 30
0.0
 10
6.47786
 20
13.85751
 30
0.0
 10
6.55618
 20
13.82597
 30
0.0
 10
6.61375
 20
13.76311
 30
0.0
 10
6.61375
 20
13.76311
 30
0.0
 10
6.67153
 20
13.70024
 30
0.0
 10
6.70032
 20
13.61473
 30
0.0
 10
6.70032
 20
13.50678
 30
0.0
 10
6.70032
 20
13.50678
 30
0.0
 10
6.70032
 20
13.39862
 30
0.0
 10
6.67153
 20
13.31289
 30
0.0
 10
6.61375
 20
13.24982
 30
0.0
 10
6.61375
 20
13.24982
 30
0.0
 10
6.55618
 20
13.18674
 30
0.0
 10
6.47786
 20
13.1552
 30
0.0
 10
6.37901
 20
13.1552
 30
0.0
  0
SPLINE
  5
6B
330
1F
100
AcDbEntity
  8
Layer 1
100
AcDbSpline
210
0.0
220
0.0
230
1.0
 70
    11
 71
     3
 72
    36
 73
    32
 74
     0
 42
0.0000000001
 43
0.0000000001
 12
1.0
 22
0.0
 32
0.0
 13
1.0
 23
0.0
 33
0.0
 40
0.0
 40
0.0
 40
0.0
 40
0.0
 40
0.1111111111111111
 40
0.1111111111111111
 40
0.1111111111111111
 40
0.1111111111111111
 40
0.2222222222222222
 40
0.2222222222222222
 40
0.2222222222222222
 40
0.2222222222222222
 40
0.3333333333333333
 40
0.3333333333333333
 40
0.3333333333333333
 40
0.3333333333333333
 40
0.4444444444444444
 40
0.4444444444444444
 40
0.4444444444444444
 40
0.4444444444444444
 40
0.5555555555555556
 40
0.5555555555555556
 40
0.5555555555555556
 40
0.5555555555555556
 40
0.6666666666666666
 40
0.6666666666666666
 40
0.6666666666666666
 40
0.6666666666666666
 40
0.7777777777777778
 40
0.7777777777777778
 40
0.7777777777777778
 40
0.7777777777777778
 40
1.0
 40
1.0
 40
1.0
 40
1.0
 10
6.3788
 20
13.24664
 30
0.0
 10
6.43912
 20
13.24664
 30
0.0
 10
6.48611
 20
13.26929
 30
0.0
 10
6.51956
 20
13.3148
 30
0.0
 10
6.51956
 20
13.3148
 30
0.0
 10
6.55279
 20
13.36009
 30
0.0
 10
6.56951
 20
13.42423
 30
0.0
 10
6.56951
 20
13.50678
 30
0.0
 10
6.56951
 20
13.50678
 30
0.0
 10
6.56951
 20
13.58912
 30
0.0
 10
6.55279
 20
13.65304
 30
0.0
 10
6.51956
 20
13.69834
 30
0.0
 10
6.51956
 20
13.69834
 30
0.0
 10
6.48611
 20
13.74342
 30
0.0
 10
6.43912
 20
13.76607
 30
0.0
 10
6.3788
 20
13.76607
 30
0.0
 10
6.3788
 20
13.76607
 30
0.0
 10
6.31826
 20
13.76607
 30
0.0
 10
6.27127
 20
13.74342
 30
0.0
 10
6.23825
 20
13.69834
 30
0.0
 10
6.23825
 20
13.69834
 30
0.0
 10
6.20502
 20
13.65304
 30
0.0
 10
6.18851
 20
13.58912
 30
0.0
 10
6.18851
 20
13.50678
 30
0.0
 10
6.18851
 20
13.50678
 30
0.0
 10
6.18851
 20
13.42423
 30
0.0
 10
6.20502
 20
13.36009
 30
0.0
 10
6.23825
 20
13.3148
 30
0.0
 10
6.23825
 20
13.3148
 30
0.0
 10
6.27127
 20
13.26929
 30
0.0
 10
6.31826
 20
13.24664
 30
0.0
 10
6.3788
 20
13.24664
 30
0.0
  0
SPLINE
  5
6C
330
1F
100
AcDbEntity
  8
Layer 1
100
AcDbSpline
210
0.0
220
0.0
230
1.0
 70
    11
 71
     3
 72
    20
 73
    16
 74
     0
 42
0.0000000001
 43
0.0000000001
 12
1.0
 22
0.0
 32
0.0
 13
1.0
 23
0.0
 33
0.0
 40
0.0
 40
0.0
 40
0.0
 40
0.0
 40
0.2
 40
0.2
 40
0.2
 40
0.2
 40
0.4
 40
0.4
 40
0.4
 40
0.4
 40
0.6
 40
0.6
 40
0.6
 40
0.6
 40
1.0
 40
1.0
 40
1.0
 40
1.0
 10
6.82266
 20
13.079
 30
0.0
 10
6.82266
 20
13.079
 30
0.0
 10
6.82266
 20
13.17044
 30
0.0
 10
6.82266
 20
13.17044
 30
0.0
 10
6.82266
 20
13.17044
 30
0.0
 10
6.82266
 20
13.17044
 30
0.0
 10
7.35098
 20
13.17044
 30
0.0
 10
7.35098
 20
13.17044
 30
0.0
 10
7.35098
 20
13.17044
 30
0.0
 10
7.35098
 20
13.17044
 30
0.0
 10
7.35098
 20
13.079
 30
0.0
 10
7.35098
 20
13.079
 30
0.0
 10
7.35098
 20
13.079
 30
0.0
 10
7.35098
 20
13.079
 30
0.0
 10
6.82266
 20
13.079
 30
0.0
 10
6.82266
 20
13.079
 30
0.0
  0
SPLINE
  5
6D
330
1F
100
AcDbEntity
  8
Layer 1
100
AcDbSpline
210
0.0
220
0.0
230
1.0
 70
    11
 71
     3
 72
    60
 73
    56
 74
     0
 42
0.0000000001
 43
0.0000000001
 12
1.0
 22
0.0
 32
0.0
 13
1.0
 23
0.0
 33
0.0
 40
0.0
 40
0.0
 40
0.0
 40
0.0
 40
0.0666666666666667
 40
0.0666666666666667
 40
0.0666666666666667
 40
0.0666666666666667
 40
0.1333333333333333
 40
0.1333333333333333
 40
0.1333333333333333
 40
0.1333333333333333
 40
0.2
 40
0.2
 40
0.2
 40
0.2
 40
0.2666666666666667
 40
0.2666666666666667
 40
0.2666666666666667
 40
0.2666666666666667
 40
0.3333333333333333
 40
0.3333333333333333
 40
0.3333333333333333
 40
0.3333333333333333
 40
0.4
 40
0.4
 40
0.4
 40
0.4
 40
0.4666666666666667
 40
0.4666666666666667
 40
0.4666666666666667
 40
0.4666666666666667
 40
0.5333333333333333
 40
0.5333333333333333
 40
0.5333333333333333
 40
0.5333333333333333
 40
0.6
 40
0.6
 40
0.6
 40
0.6
 40
0.6666666666666666
 40
0.6666666666666666
 40
0.6666666666666666
 40
0.6666666666666666
 40
0.7333333333333333
 40
0.7333333333333333
 40
0.7333333333333333
 40
0.7333333333333333
 40
0.8
 40
0.8
 40
0.8
 40
0.8
 40
0.8666666666666667
 40
0.8666666666666667
 40
0.8666666666666667
 40
0.8666666666666667
 40
1.0
 40
1.0
 40
1.0
 40
1.0
 10
7.9936
 20
13.19076
 30
0.0
 10
7.91465
 20
13.16705
 30
0.0
 10
7.84649
 20
13.1552
 30
0.0
 10
7.78913
 20
13.1552
 30
0.0
 10
7.78913
 20
13.1552
 30
0.0
 10
7.69811
 20
13.1552
 30
0.0
 10
7.62276
 20
13.18886
 30
0.0
 10
7.56286
 20
13.25595
 30
0.0
 10
7.56286
 20
13.25595
 30
0.0
 10
7.50296
 20
13.32326
 30
0.0
 10
7.4729
 20
13.40814
 30
0.0
 10
7.4729
 20
13.51038
 30
0.0
 10
7.4729
 20
13.51038
 30
0.0
 10
7.4729
 20
13.6196
 30
0.0
 10
7.50253
 20
13.7049
 30
0.0
 10
7.5618
 20
13.76586
 30
0.0
 10
7.5618
 20
13.76586
 30
0.0
 10
7.62107
 20
13.82703
 30
0.0
 10
7.70383
 20
13.85751
 30
0.0
 10
7.81009
 20
13.85751
 30
0.0
 10
7.81009
 20
13.85751
 30
0.0
 10
7.86237
 20
13.85751
 30
0.0
 10
7.92121
 20
13.85031
 30
0.0
 10
7.98598
 20
13.83592
 30
0.0
 10
7.98598
 20
13.83592
 30
0.0
 10
7.98598
 20
13.83592
 30
0.0
 10
7.98598
 20
13.73305
 30
0.0
 10
7.98598
 20
13.73305
 30
0.0
 10
7.98598
 20
13.73305
 30
0.0
 10
7.91719
 20
13.75337
 30
0.0
 10
7.8611
 20
13.76353
 30
0.0
 10
7.81792
 20
13.76353
 30
0.0
 10
7.81792
 20
13.76353
 30
0.0
 10
7.75526
 20
13.76353
 30
0.0
 10
7.7051
 20
13.74004
 30
0.0
 10
7.66763
 20
13.69326
 30
0.0
 10
7.66763
 20
13.69326
 30
0.0
 10
7.63017
 20
13.64648
 30
0.0
 10
7.61133
 20
13.58404
 30
0.0
 10
7.61133
 20
13.50614
 30
0.0
 10
7.61133
 20
13.50614
 30
0.0
 10
7.61133
 20
13.43058
 30
0.0
 10
7.6308
 20
13.36962
 30
0.0
 10
7.66954
 20
13.32284
 30
0.0
 10
7.66954
 20
13.32284
 30
0.0
 10
7.70827
 20
13.27627
 30
0.0
 10
7.75886
 20
13.25299
 30
0.0
 10
7.82173
 20
13.25299
 30
0.0
 10
7.82173
 20
13.25299
 30
0.0
 10
7.8774
 20
13.25299
 30
0.0
 10
7.93455
 20
13.26738
 30
0.0
 10
7.9936
 20
13.29617
 30
0.0
 10
7.9936
 20
13.29617
 30
0.0
 10
7.9936
 20
13.29617
 30
0.0
 10
7.9936
 20
13.19076
 30
0.0
 10
7.9936
 20
13.19076
 30
0.0
  0
SPLINE
  5
6E
330
1F
100
AcDbEntity
  8
Layer 1
100
AcDbSpline
210
0.0
220
0.0
230
1.0
 70
    11
 71
     3
 72
    36
 73
    32
 74
     0
 42
0.0000000001
 43
0.0000000001
 12
1.0
 22
0.0
 32
0.0
 13
1.0
 23
0.0
 33
0.0
 40
0.0
 40
0.0
 40
0.0
 40
0.0
 40
0.1111111111111111
 40
0.1111111111111111
 40
0.1111111111111111
 40
0.1111111111111111
 40
0.2222222222222222
 40
0.2222222222222222
 40
0.2222222222222222
 40
0.2222222222222222
 40
0.3333333333333333
 40
0.3333333333333333
 40
0.3333333333333333
 40
0.3333333333333333
 40
0.4444444444444444
 40
0.4444444444444444
 40
0.4444444444444444
 40
0.4444444444444444
 40
0.5555555555555556
 40
0.5555555555555556
 40
0.5555555555555556
 40
0.5555555555555556
 40
0.6666666666666666
 40
0.6666666666666666
 40
0.6666666666666666
 40
0.6666666666666666
 40
0.7777777777777778
 40
0.7777777777777778
 40
0.7777777777777778
 40
0.7777777777777778
 40
1.0
 40
1.0
 40
1.0
 40
1.0
 10
8.44466
 20
13.1552
 30
0.0
 10
8.34581
 20
13.1552
 30
0.0
 10
8.2675
 20
13.18674
 30
0.0
 10
8.20992
 20
13.24982
 30
0.0
 10
8.20992
 20
13.24982
 30
0.0
 10
8.15214
 20
13.31289
 30
0.0
 10
8.12335
 20
13.39862
 30
0.0
 10
8.12335
 20
13.50678
 30
0.0
 10
8.12335
 20
13.50678
 30
0.0
 10
8.12335
 20
13.61473
 30
0.0
 10
8.15214
 20
13.70024
 30
0.0
 10
8.20992
 20
13.76311
 30
0.0
 10
8.20992
 20
13.76311
 30
0.0
 10
8.2675
 20
13.82597
 30
0.0
 10
8.34581
 20
13.85751
 30
0.0
 10
8.44466
 20
13.85751
 30
0.0
 10
8.44466
 20
13.85751
 30
0.0
 10
8.54351
 20
13.85751
 30
0.0
 10
8.62183
 20
13.82597
 30
0.0
 10
8.6794
 20
13.76311
 30
0.0
 10
8.6794
 20
13.76311
 30
0.0
 10
8.73718
 20
13.70024
 30
0.0
 10
8.76597
 20
13.61473
 30
0.0
 10
8.76597
 20
13.50678
 30
0.0
 10
8.76597
 20
13.50678
 30
0.0
 10
8.76597
 20
13.39862
 30
0.0
 10
8.73718
 20
13.31289
 30
0.0
 10
8.6794
 20
13.24982
 30
0.0
 10
8.6794
 20
13.24982
 30
0.0
 10
8.62183
 20
13.18674
 30
0.0
 10
8.54351
 20
13.1552
 30
0.0
 10
8.44466
 20
13.1552
 30
0.0
  0
SPLINE
  5
6F
330
1F
100
AcDbEntity
  8
Layer 1
100
AcDbSpline
210
0.0
220
0.0
230
1.0
 70
    11
 71
     3
 72
    36
 73
    32
 74
     0
 42
0.0000000001
 43
0.0000000001
 12
1.0
 22
0.0
 32
0.0
 13
1.0
 23
0.0
 33
0.0
 40
0.0
 40
0.0
 40
0.0
 40
0.0
 40
0.1111111111111111
 40
0.1111111111111111
 40
0.1111111111111111
 40
0.1111111111111111
 40
0.2222222222222222
 40
0.2222222222222222
 40
0.2222222222222222
 40
0.2222222222222222
 40
0.3333333333333333
 40
0.3333333333333333
 40
0.3333333333333333
 40
0.3333333333333333
 40
0.4444444444444444
 40
0.4444444444444444
 40
0.4444444444444444
 40
0.4444444444444444
 40
0.5555555555555556
 40
0.5555555555555556
 40
0.5555555555555556
 40
0.5555555555555556
 40
0.6666666666666666
 40
0.6666666666666666
 40
0.6666666666666666
 40
0.6666666666666666
 40
0.7777777777777778
 40
0.7777777777777778
 40
0.7777777777777778
 40
0.7777777777777778
 40
1.0
 40
1.0
 40
1.0
 40
1.0
 10
8.44445
 20
13.24664
 30
0.0
 10
8.50477
 20
13.24664
 30
0.0
 10
8.55176
 20
13.26929
 30
0.0
 10
8.58521
 20
13.3148
 30
0.0
 10
8.58521
 20
13.3148
 30
0.0
 10
8.61844
 20
13.36009
 30
0.0
 10
8.63516
 20
13.42423
 30
0.0
 10
8.63516
 20
13.50678
 30
0.0
 10
8.63516
 20
13.50678
 30
0.0
 10
8.63516
 20
13.58912
 30
0.0
 10
8.61844
 20
13.65304
 30
0.0
 10
8.58521
 20
13.69834
 30
0.0
 10
8.58521
 20
13.69834
 30
0.0
 10
8.55176
 20
13.74342
 30
0.0
 10
8.50477
 20
13.76607
 30
0.0
 10
8.44445
 20
13.76607
 30
0.0
 10
8.44445
 20
13.76607
 30
0.0
 10
8.38391
 20
13.76607
 30
0.0
 10
8.33692
 20
13.74342
 30
0.0
 10
8.3039
 20
13.69834
 30
0.0
 10
8.3039
 20
13.69834
 30
0.0
 10
8.27067
 20
13.65304
 30
0.0
 10
8.25416
 20
13.58912
 30
0.0
 10
8.25416
 20
13.50678
 30
0.0
 10
8.25416
 20
13.50678
 30
0.0
 10
8.25416
 20
13.42423
 30
0.0
 10
8.27067
 20
13.36009
 30
0.0
 10
8.3039
 20
13.3148
 30
0.0
 10
8.3039
 20
13.3148
 30
0.0
 10
8.33692
 20
13.26929
 30
0.0
 10
8.38391
 20
13.24664
 30
0.0
 10
8.44445
 20
13.24664
 30
0.0
  0
SPLINE
  5
70
330
1F
100
AcDbEntity
  8
Layer 1
100
AcDbSpline
210
0.0
220
0.0
230
1.0
 70
    11
 71
     3
 72
    48
 73
    44
 74
     0
 42
0.0000000001
 43
0.0000000001
 12
1.0
 22
0.0
 32
0.0
 13
1.0
 23
0.0
 33
0.0
 40
0.0
 40
0.0
 40
0.0
 40
0.0
 40
0.0833333333333333
 40
0.0833333333333333
 40
0.0833333333333333
 40
0.0833333333333333
 40
0.1666666666666667
 40
0.1666666666666667
 40
0.1666666666666667
 40
0.1666666666666667
 40
0.25
 40
0.25
 40
0.25
 40
0.25
 40
0.3333333333333333
 40
0.3333333333333333
 40
0.3333333333333333
 40
0.3333333333333333
 40
0.4166666666666667
 40
0.4166666666666667
 40
0.4166666666666667
 40
0.4166666666666667
 40
0.5
 40
0.5
 40
0.5
 40
0.5
 40
0.5833333333333334
 40
0.5833333333333334
 40
0.5833333333333334
 40
0.5833333333333334
 40
0.6666666666666666
 40
0.6666666666666666
 40
0.6666666666666666
 40
0.6666666666666666
 40
0.75
 40
0.75
 40
0.75
 40
0.75
 40
0.8333333333333334
 40
0.8333333333333334
 40
0.8333333333333334
 40
0.8333333333333334
 40
1.0
 40
1.0
 40
1.0
 40
1.0
 10
8.95689
 20
12.92533
 30
0.0
 10
8.95689
 20
12.92533
 30
0.0
 10
8.95689
 20
13.84354
 30
0.0
 10
8.95689
 20
13.84354
 30
0.0
 10
8.95689
 20
13.84354
 30
0.0
 10
8.95689
 20
13.84354
 30
0.0
 10
9.07881
 20
13.84354
 30
0.0
 10
9.07881
 20
13.84354
 30
0.0
 10
9.07881
 20
13.84354
 30
0.0
 10
9.07881
 20
13.84354
 30
0.0
 10
9.07881
 20
13.71633
 30
0.0
 10
9.07881
 20
13.71633
 30
0.0
 10
9.07881
 20
13.71633
 30
0.0
 10
9.12876
 20
13.81052
 30
0.0
 10
9.20391
 20
13.85751
 30
0.0
 10
9.30402
 20
13.85751
 30
0.0
 10
9.30402
 20
13.85751
 30
0.0
 10
9.38509
 20
13.85751
 30
0.0
 10
9.4488
 20
13.82809
 30
0.0
 10
9.49537
 20
13.76903
 30
0.0
 10
9.49537
 20
13.76903
 30
0.0
 10
9.54194
 20
13.70998
 30
0.0
 10
9.56522
 20
13.62933
 30
0.0
 10
9.56522
 20
13.5271
 30
0.0
 10
9.56522
 20
13.5271
 30
0.0
 10
9.56522
 20
13.41576
 30
0.0
 10
9.53876
 20
13.3258
 30
0.0
 10
9.48606
 20
13.25765
 30
0.0
 10
9.48606
 20
13.25765
 30
0.0
 10
9.43335
 20
13.18928
 30
0.0
 10
9.36393
 20
13.1552
 30
0.0
 10
9.27799
 20
13.1552
 30
0.0
 10
9.27799
 20
13.1552
 30
0.0
 10
9.19819
 20
13.1552
 30
0.0
 10
9.13173
 20
13.18568
 30
0.0
 10
9.07881
 20
13.24685
 30
0.0
 10
9.07881
 20
13.24685
 30
0.0
 10
9.07881
 20
13.24685
 30
0.0
 10
9.07881
 20
12.92533
 30
0.0
 10
9.07881
 20
12.92533
 30
0.0
 10
9.07881
 20
12.92533
 30
0.0
 10
9.07881
 20
12.92533
 30
0.0
 10
8.95689
 20
12.92533
 30
0.0
 10
8.95689
 20
12.92533
 30
0.0
  0
SPLINE
  5
71
330
1F
100
AcDbEntity
  8
Layer 1
100
AcDbSpline
210
0.0
220
0.0
230
1.0
 70
    11
 71
     3
 72
    28
 73
    24
 74
     0
 42
0.0000000001
 43
0.0000000001
 12
1.0
 22
0.0
 32
0.0
 13
1.0
 23
0.0
 33
0.0
 40
0.0
 40
0.0
 40
0.0
 40
0.0
 40
0.1428571428571428
 40
0.1428571428571428
 40
0.1428571428571428
 40
0.1428571428571428
 40
0.2857142857142857
 40
0.2857142857142857
 40
0.2857142857142857
 40
0.2857142857142857
 40
0.4285714285714285
 40
0.4285714285714285
 40
0.4285714285714285
 40
0.4285714285714285
 40
0.5714285714285714
 40
0.5714285714285714
 40
0.5714285714285714
 40
0.5714285714285714
 40
0.7142857142857143
 40
0.7142857142857143
 40
0.7142857142857143
 40
0.7142857142857143
 40
1.0
 40
1.0
 40
1.0
 40
1.0
 10
9.07881
 20
13.33088
 30
0.0
 10
9.14168
 20
13.27479
 30
0.0
 10
9.20158
 20
13.24664
 30
0.0
 10
9.25852
 20
13.24664
 30
0.0
 10
9.25852
 20
13.24664
 30
0.0
 10
9.31461
 20
13.24664
 30
0.0
 10
9.358
 20
13.27014
 30
0.0
 10
9.38848
 20
13.31691
 30
0.0
 10
9.38848
 20
13.31691
 30
0.0
 10
9.41917
 20
13.36369
 30
0.0
 10
9.43441
 20
13.42952
 30
0.0
 10
9.43441
 20
13.51461
 30
0.0
 10
9.43441
 20
13.51461
 30
0.0
 10
9.43441
 20
13.67209
 30
0.0
 10
9.38234
 20
13.75083
 30
0.0
 10
9.2782
 20
13.75083
 30
0.0
 10
9.2782
 20
13.75083
 30
0.0
 10
9.21004
 20
13.75083
 30
0.0
 10
9.14358
 20
13.714
 30
0.0
 10
9.07881
 20
13.64013
 30
0.0
 10
9.07881
 20
13.64013
 30
0.0
 10
9.07881
 20
13.64013
 30
0.0
 10
9.07881
 20
13.33088
 30
0.0
 10
9.07881
 20
13.33088
 30
0.0
  0
SPLINE
  5
72
330
1F
100
AcDbEntity
  8
Layer 1
100
AcDbSpline
210
0.0
220
0.0
230
1.0
 70
    11
 71
     3
 72
    48
 73
    44
 74
     0
 42
0.0000000001
 43
0.0000000001
 12
1.0
 22
0.0
 32
0.0
 13
1.0
 23
0.0
 33
0.0
 40
0.0
 40
0.0
 40
0.0
 40
0.0
 40
0.0833333333333333
 40
0.0833333333333333
 40
0.0833333333333333
 40
0.0833333333333333
 40
0.1666666666666667
 40
0.1666666666666667
 40
0.1666666666666667
 40
0.1666666666666667
 40
0.25
 40
0.25
 40
0.25
 40
0.25
 40
0.3333333333333333
 40
0.3333333333333333
 40
0.3333333333333333
 40
0.3333333333333333
 40
0.4166666666666667
 40
0.4166666666666667
 40
0.4166666666666667
 40
0.4166666666666667
 40
0.5
 40
0.5
 40
0.5
 40
0.5
 40
0.5833333333333334
 40
0.5833333333333334
 40
0.5833333333333334
 40
0.5833333333333334
 40
0.6666666666666666
 40
0.6666666666666666
 40
0.6666666666666666
 40
0.6666666666666666
 40
0.75
 40
0.75
 40
0.75
 40
0.75
 40
0.8333333333333334
 40
0.8333333333333334
 40
0.8333333333333334
 40
0.8333333333333334
 40
1.0
 40
1.0
 40
1.0
 40
1.0
 10
9.75614
 20
12.92533
 30
0.0
 10
9.75614
 20
12.92533
 30
0.0
 10
9.75614
 20
13.84354
 30
0.0
 10
9.75614
 20
13.84354
 30
0.0
 10
9.75614
 20
13.84354
 30
0.0
 10
9.75614
 20
13.84354
 30
0.0
 10
9.87806
 20
13.84354
 30
0.0
 10
9.87806
 20
13.84354
 30
0.0
 10
9.87806
 20
13.84354
 30
0.0
 10
9.87806
 20
13.84354
 30
0.0
 10
9.87806
 20
13.71633
 30
0.0
 10
9.87806
 20
13.71633
 30
0.0
 10
9.87806
 20
13.71633
 30
0.0
 10
9.92801
 20
13.81052
 30
0.0
 10
10.00316
 20
13.85751
 30
0.0
 10
10.10327
 20
13.85751
 30
0.0
 10
10.10327
 20
13.85751
 30
0.0
 10
10.18434
 20
13.85751
 30
0.0
 10
10.24805
 20
13.82809
 30
0.0
 10
10.29462
 20
13.76903
 30
0.0
 10
10.29462
 20
13.76903
 30
0.0
 10
10.34119
 20
13.70998
 30
0.0
 10
10.36447
 20
13.62933
 30
0.0
 10
10.36447
 20
13.5271
 30
0.0
 10
10.36447
 20
13.5271
 30
0.0
 10
10.36447
 20
13.41576
 30
0.0
 10
10.33801
 20
13.3258
 30
0.0
 10
10.28531
 20
13.25765
 30
0.0
 10
10.28531
 20
13.25765
 30
0.0
 10
10.2326
 20
13.18928
 30
0.0
 10
10.16318
 20
13.1552
 30
0.0
 10
10.07724
 20
13.1552
 30
0.0
 10
10.07724
 20
13.1552
 30
0.0
 10
9.99744
 20
13.1552
 30
0.0
 10
9.93098
 20
13.18568
 30
0.0
 10
9.87806
 20
13.24685
 30
0.0
 10
9.87806
 20
13.24685
 30
0.0
 10
9.87806
 20
13.24685
 30
0.0
 10
9.87806
 20
12.92533
 30
0.0
 10
9.87806
 20
12.92533
 30
0.0
 10
9.87806
 20
12.92533
 30
0.0
 10
9.87806
 20
12.92533
 30
0.0
 10
9.75614
 20
12.92533
 30
0.0
 10
9.75614
 20
12.92533
 30
0.0
  0
SPLINE
  5
73
330
1F
100
AcDbEntity
  8
Layer 1
100
AcDbSpline
210
0.0
220
0.0
230
1.0
 70
    11
 71
     3
 72
    28
 73
    24
 74
     0
 42
0.0000000001
 43
0.0000000001
 12
1.0
 22
0.0
 32
0.0
 13
1.0
 23
0.0
 33
0.0
 40
0.0
 40
0.0
 40
0.0
 40
0.0
 40
0.1428571428571428
 40
0.1428571428571428
 40
0.1428571428571428
 40
0.1428571428571428
 40
0.2857142857142857
 40
0.2857142857142857
 40
0.2857142857142857
 40
0.2857142857142857
 40
0.4285714285714285
 40
0.4285714285714285
 40
0.4285714285714285
 40
0.4285714285714285
 40
0.5714285714285714
 40
0.5714285714285714
 40
0.5714285714285714
 40
0.5714285714285714
 40
0.7142857142857143
 40
0.7142857142857143
 40
0.7142857142857143
 40
0.7142857142857143
 40
1.0
 40
1.0
 40
1.0
 40
1.0
 10
9.87806
 20
13.33088
 30
0.0
 10
9.94093
 20
13.27479
 30
0.0
 10
10.00083
 20
13.24664
 30
0.0
 10
10.05777
 20
13.24664
 30
0.0
 10
10.05777
 20
13.24664
 30
0.0
 10
10.11386
 20
13.24664
 30
0.0
 10
10.15725
 20
13.27014
 30
0.0
 10
10.18773
 20
13.31691
 30
0.0
 10
10.18773
 20
13.31691
 30
0.0
 10
10.21842
 20
13.36369
 30
0.0
 10
10.23366
 20
13.42952
 30
0.0
 10
10.23366
 20
13.51461
 30
0.0
 10
10.23366
 20
13.51461
 30
0.0
 10
10.23366
 20
13.67209
 30
0.0
 10
10.18159
 20
13.75083
 30
0.0
 10
10.07745
 20
13.75083
 30
0.0
 10
10.07745
 20
13.75083
 30
0.0
 10
10.00929
 20
13.75083
 30
0.0
 10
9.94283
 20
13.714
 30
0.0
 10
9.87806
 20
13.64013
 30
0.0
 10
9.87806
 20
13.64013
 30
0.0
 10
9.87806
 20
13.64013
 30
0.0
 10
9.87806
 20
13.33088
 30
0.0
 10
9.87806
 20
13.33088
 30
0.0
  0
SPLINE
  5
74
330
1F
100
AcDbEntity
  8
Layer 1
100
AcDbSpline
210
0.0
220
0.0
230
1.0
 70
    11
 71
     3
 72
    52
 73
    48
 74
     0
 42
0.0000000001
 43
0.0000000001
 12
1.0
 22
0.0
 32
0.0
 13
1.0
 23
0.0
 33
0.0
 40
0.0
 40
0.0
 40
0.0
 40
0.0
 40
0.0769230769230769
 40
0.0769230769230769
 40
0.0769230769230769
 40
0.0769230769230769
 40
0.1538461538461539
 40
0.1538461538461539
 40
0.1538461538461539
 40
0.1538461538461539
 40
0.2307692307692308
 40
0.2307692307692308
 40
0.2307692307692308
 40
0.2307692307692308
 40
0.3076923076923077
 40
0.3076923076923077
 40
0.3076923076923077
 40
0.3076923076923077
 40
0.3846153846153846
 40
0.3846153846153846
 40
0.3846153846153846
 40
0.3846153846153846
 40
0.4615384615384616
 40
0.4615384615384616
 40
0.4615384615384616
 40
0.4615384615384616
 40
0.5384615384615384
 40
0.5384615384615384
 40
0.5384615384615384
 40
0.5384615384615384
 40
0.6153846153846154
 40
0.6153846153846154
 40
0.6153846153846154
 40
0.6153846153846154
 40
0.6923076923076923
 40
0.6923076923076923
 40
0.6923076923076923
 40
0.6923076923076923
 40
0.7692307692307693
 40
0.7692307692307693
 40
0.7692307692307693
 40
0.7692307692307693
 40
0.8461538461538461
 40
0.8461538461538461
 40
0.8461538461538461
 40
0.8461538461538461
 40
1.0
 40
1.0
 40
1.0
 40
1.0
 10
11.04942
 20
13.19203
 30
0.0
 10
10.96751
 20
13.16748
 30
0.0
 10
10.89744
 20
13.1552
 30
0.0
 10
10.83902
 20
13.1552
 30
0.0
 10
10.83902
 20
13.1552
 30
0.0
 10
10.73933
 20
13.1552
 30
0.0
 10
10.65826
 20
13.18822
 30
0.0
 10
10.59582
 20
13.25405
 30
0.0
 10
10.59582
 20
13.25405
 30
0.0
 10
10.53338
 20
13.31988
 30
0.0
 10
10.50205
 20
13.40518
 30
0.0
 10
10.50205
 20
13.51017
 30
0.0
 10
10.50205
 20
13.51017
 30
0.0
 10
10.50205
 20
13.61198
 30
0.0
 10
10.52957
 20
13.69559
 30
0.0
 10
10.58481
 20
13.76099
 30
0.0
 10
10.58481
 20
13.76099
 30
0.0
 10
10.64006
 20
13.82618
 30
0.0
 10
10.71075
 20
13.85878
 30
0.0
 10
10.7969
 20
13.85878
 30
0.0
 10
10.7969
 20
13.85878
 30
0.0
 10
10.87839
 20
13.85878
 30
0.0
 10
10.94147
 20
13.82978
 30
0.0
 10
10.98592
 20
13.77179
 30
0.0
 10
10.98592
 20
13.77179
 30
0.0
 10
11.03037
 20
13.71379
 30
0.0
 10
11.0526
 20
13.63166
 30
0.0
 10
11.0526
 20
13.52519
 30
0.0
 10
11.0526
 20
13.52519
 30
0.0
 10
11.0526
 20
13.52519
 30
0.0
 10
11.05196
 20
13.48794
 30
0.0
 10
11.05196
 20
13.48794
 30
0.0
 10
11.05196
 20
13.48794
 30
0.0
 10
11.05196
 20
13.48794
 30
0.0
 10
10.62651
 20
13.48794
 30
0.0
 10
10.62651
 20
13.48794
 30
0.0
 10
10.62651
 20
13.48794
 30
0.0
 10
10.64429
 20
13.32707
 30
0.0
 10
10.72282
 20
13.24664
 30
0.0
 10
10.86188
 20
13.24664
 30
0.0
 10
10.86188
 20
13.24664
 30
0.0
 10
10.9129
 20
13.24664
 30
0.0
 10
10.97534
 20
13.26103
 30
0.0
 10
11.04942
 20
13.28982
 30
0.0
 10
11.04942
 20
13.28982
 30
0.0
 10
11.04942
 20
13.28982
 30
0.0
 10
11.04942
 20
13.19203
 30
0.0
 10
11.04942
 20
13.19203
 30
0.0
  0
SPLINE
  5
75
330
1F
100
AcDbEntity
  8
Layer 1
100
AcDbSpline
210
0.0
220
0.0
230
1.0
 70
    11
 71
     3
 72
    16
 73
    12
 74
     0
 42
0.0000000001
 43
0.0000000001
 12
1.0
 22
0.0
 32
0.0
 13
1.0
 23
0.0
 33
0.0
 40
0.0
 40
0.0
 40
0.0
 40
0.0
 40
0.25
 40
0.25
 40
0.25
 40
0.25
 40
0.5
 40
0.5
 40
0.5
 40
0.5
 40
1.0
 40
1.0
 40
1.0
 40
1.0
 10
10.63286
 20
13.57938
 30
0.0
 10
10.63286
 20
13.57938
 30
0.0
 10
10.93004
 20
13.57938
 30
0.0
 10
10.93004
 20
13.57938
 30
0.0
 10
10.93004
 20
13.57938
 30
0.0
 10
10.93004
 20
13.70469
 30
0.0
 10
10.88326
 20
13.76734
 30
0.0
 10
10.78992
 20
13.76734
 30
0.0
 10
10.78992
 20
13.76734
 30
0.0
 10
10.69594
 20
13.76734
 30
0.0
 10
10.64366
 20
13.70469
 30
0.0
 10
10.63286
 20
13.57938
 30
0.0
  0
SPLINE
  5
76
330
1F
100
AcDbEntity
  8
Layer 1
100
AcDbSpline
210
0.0
220
0.0
230
1.0
 70
    11
 71
     3
 72
    44
 73
    40
 74
     0
 42
0.0000000001
 43
0.0000000001
 12
1.0
 22
0.0
 32
0.0
 13
1.0
 23
0.0
 33
0.0
 40
0.0
 40
0.0
 40
0.0
 40
0.0
 40
0.0909090909090909
 40
0.0909090909090909
 40
0.0909090909090909
 40
0.0909090909090909
 40
0.1818181818181818
 40
0.1818181818181818
 40
0.1818181818181818
 40
0.1818181818181818
 40
0.2727272727272727
 40
0.2727272727272727
 40
0.2727272727272727
 40
0.2727272727272727
 40
0.3636363636363636
 40
0.3636363636363636
 40
0.3636363636363636
 40
0.3636363636363636
 40
0.4545454545454545
 40
0.4545454545454545
 40
0.4545454545454545
 40
0.4545454545454545
 40
0.5454545454545454
 40
0.5454545454545454
 40
0.5454545454545454
 40
0.5454545454545454
 40
0.6363636363636364
 40
0.6363636363636364
 40
0.6363636363636364
 40
0.6363636363636364
 40
0.7272727272727273
 40
0.7272727272727273
 40
0.7272727272727273
 40
0.7272727272727273
 40
0.8181818181818182
 40
0.8181818181818182
 40
0.8181818181818182
 40
0.8181818181818182
 40
1.0
 40
1.0
 40
1.0
 40
1.0
 10
11.26299
 20
13.17044
 30
0.0
 10
11.26299
 20
13.17044
 30
0.0
 10
11.26299
 20
13.84354
 30
0.0
 10
11.26299
 20
13.84354
 30
0.0
 10
11.26299
 20
13.84354
 30
0.0
 10
11.26299
 20
13.84354
 30
0.0
 10
11.38491
 20
13.84354
 30
0.0
 10
11.38491
 20
13.84354
 30
0.0
 10
11.38491
 20
13.84354
 30
0.0
 10
11.38491
 20
13.84354
 30
0.0
 10
11.38491
 20
13.71633
 30
0.0
 10
11.38491
 20
13.71633
 30
0.0
 10
11.38491
 20
13.71633
 30
0.0
 10
11.43338
 20
13.81052
 30
0.0
 10
11.50366
 20
13.85751
 30
0.0
 10
11.59594
 20
13.85751
 30
0.0
 10
11.59594
 20
13.85751
 30
0.0
 10
11.60843
 20
13.85751
 30
0.0
 10
11.62155
 20
13.85645
 30
0.0
 10
11.6351
 20
13.85434
 30
0.0
 10
11.6351
 20
13.85434
 30
0.0
 10
11.6351
 20
13.85434
 30
0.0
 10
11.6351
 20
13.74025
 30
0.0
 10
11.6351
 20
13.74025
 30
0.0
 10
11.6351
 20
13.74025
 30
0.0
 10
11.61393
 20
13.74723
 30
0.0
 10
11.59531
 20
13.75083
 30
0.0
 10
11.57922
 20
13.75083
 30
0.0
 10
11.57922
 20
13.75083
 30
0.0
 10
11.50175
 20
13.75083
 30
0.0
 10
11.43698
 20
13.70511
 30
0.0
 10
11.38491
 20
13.61346
 30
0.0
 10
11.38491
 20
13.61346
 30
0.0
 10
11.38491
 20
13.61346
 30
0.0
 10
11.38491
 20
13.17044
 30
0.0
 10
11.38491
 20
13.17044
 30
0.0
 10
11.38491
 20
13.17044
 30
0.0
 10
11.38491
 20
13.17044
 30
0.0
 10
11.26299
 20
13.17044
 30
0.0
 10
11.26299
 20
13.17044
 30
0.0
  0
ELLIPSE
  5
77
330
1F
100
AcDbEntity
  8
Layer 1
370
    53
100
AcDbEllipse
 10
-9.0
 20
0.0
 30
0.0
 11
0.0
 21
5.0
 31
0.0
210
0.0
220
0.0
230
1.0
 40
1.0
 41
0.0
 42
6.283185307179586
  0
ELLIPSE
  5
78
330
1F
100
AcDbEntity
  8
Layer 1
370
    53
100
AcDbEllipse
 10
-8.99999
 20
-0.00001
 30
0.0
 11
0.0
 21
0.75001
 31
0.0
210
0.0
220
0.0
230
1.0
 40
1.0
 41
0.0
 42
6.283185307179586
  0
SPLINE
  5
79
330
1F
100
AcDbEntity
  8
Layer 1
370
    53
100
AcDbSpline
210
0.0
220
0.0
230
1.0
 70
    11
 71
     3
 72
    28
 73
    24
 74
     0
 42
0.0000000001
 43
0.0000000001
 12
1.0
 22
0.0
 32
0.0
 13
1.0
 23
0.0
 33
0.0
 40
0.0
 40
0.0
 40
0.0
 40
0.0
 40
0.1428571428571428
 40
0.1428571428571428
 40
0.1428571428571428
 40
0.1428571428571428
 40
0.2857142857142857
 40
0.2857142857142857
 40
0.2857142857142857
 40
0.2857142857142857
 40
0.4285714285714285
 40
0.4285714285714285
 40
0.4285714285714285
 40
0.4285714285714285
 40
0.5714285714285714
 40
0.5714285714285714
 40
0.5714285714285714
 40
0.5714285714285714
 40
0.7142857142857143
 40
0.7142857142857143
 40
0.7142857142857143
 40
0.7142857142857143
 40
1.0
 40
1.0
 40
1.0
 40
1.0
 10
9.0
 20
-3.5
 30
0.0
 10
9.0
 20
-3.5
 30
0.0
 10
13.25
 20
-3.5
 30
0.0
 10
13.25
 20
-3.5
 30
0.0
 10
13.25
 20
-3.5
 30
0.0
 10
13.25
 20
-3.5
 30
0.0
 10
13.99999
 20
4.5
 30
0.0
 10
13.99999
 20
4.5
 30
0.0
 10
13.99999
 20
4.5
 30
0.0
 10
13.99999
 20
4.5
 30
0.0
 10
9.0
 20
4.5
 30
0.0
 10
9.0
 20
4.5
 30
0.0
 10
9.0
 20
4.5
 30
0.0
 10
9.0
 20
4.5
 30
0.0
 10
4.0
 20
4.5
 30
0.0
 10
4.0
 20
4.5
 30
0.0
 10
4.0
 20
4.5
 30
0.0
 10
4.0
 20
4.5
 30
0.0
 10
4.74999
 20
-3.5
 30
0.0
 10
4.74999
 20
-3.5
 30
0.0
 10
4.74999
 20
-3.5
 30
0.0
 10
4.74999
 20
-3.5
 30
0.0
 10
9.0
 20
-3.5
 30
0.0
 10
9.0
 20
-3.5
 30
0.0
  0
LWPOLYLINE
  5
7A
330
1F
100
AcDbEntity
  8
Layer 1
370
    53
100
AcDbPolyline
 90
        5
 70
     1
 43
0.0
 10
8.25
 20
-5.3
 10
9.75
 20
-5.3
 10
9.75
 20
-3.5
 10
8.25
 20
-3.5
 10
8.25
 20
-5.3
  0
LWPOLYLINE
  5
7B
330
1F
100
AcDbEntity
  8
Layer 1
370
    53
100
AcDbPolyline
 90
        5
 70
     1
 43
0.0
 10
-11.70001
 20
-10.3
 10
-6.30001
 20
-10.3
 10
-6.30001
 20
-7.7
 10
-11.70001
 20
-7.7
 10
-11.70001
 20
-10.3
  0
ELLIPSE
  5
7C
330
1F
100
AcDbEntity
  8
Layer 1
370
    53
100
AcDbEllipse
 10
-7.30001
 20
-8.4
 30
0.0
 11
0.0
 21
0.38
 31
0.0
210
0.0
220
0.0
230
1.0
 40
1.0
 41
0.0
 42
6.283185307179586
  0
ELLIPSE
  5
7D
330
1F
100
AcDbEntity
  8
Layer 1
370
    53
100
AcDbEllipse
 10
-7.30001
 20
-9.6
 30
0.0
 11
0.0
 21
0.38
 31
0.0
210
0.0
220
0.0
230
1.0
 40
1.0
 41
0.0
 42
6.283185307179586
  0
LWPOLYLINE
  5
7E
330
1F
100
AcDbEntity
  8
Layer 1
370
    53
100
AcDbPolyline
 90
        5
 70
     1
 43
0.0
 10
-11.70001
 20
-9.9
 10
-9.40001
 20
-9.9
 10
-9.40001
 20
-8.1
 10
-11.70001
 20
-8.1
 10
-11.70001
 20
-9.9
  0
ENDSEC
  0
SECTION
  2
OBJECTS
  0
DICTIONARY
  5
C
330
0
100
AcDbDictionary
281
     1
  3
ACAD_GROUP
350
D
  3
ACAD_LAYOUT
350
1A
  3
ACAD_MATERIAL
350
3B
  3
ACAD_MLEADERSTYLE
350
A0
  3
ACAD_MLINESTYLE
350
17
  3
ACAD_PLOTSETTINGS
350
19
  3
ACAD_PLOTSTYLENAME
350
E
  3
ACAD_TABLESTYLE
350
9F
  3
ACAD_VISUALSTYLE
350
2A
  0
DICTIONARY
  5
D
102
{ACAD_REACTORS
330
C
102
}
330
C
100
AcDbDictionary
281
     1
  0
DICTIONARY
  5
1A
102
{ACAD_REACTORS
330
C
102
}
330
C
100
AcDbDictionary
281
     1
  3
Layout1
350
1E
  3
Layout2
350
26
  3
Model
350
22
  0
DICTIONARY
  5
3B
102
{ACAD_REACTORS
330
C
102
}
330
C
100
AcDbDictionary
281
     1
  3
ByBlock
350
3D
  3
ByLayer
350
3C
  3
Global
350
3E
  0
DICTIONARY
  5
A0
102
{ACAD_REACTORS
330
C
102
}
330
C
100
AcDbDictionary
281
     1
  0
DICTIONARY
  5
17
102
{ACAD_REACTORS
330
C
102
}
330
C
100
AcDbDictionary
281
     1
  3
Standard
350
18
  0
DICTIONARY
  5
19
102
{ACAD_REACTORS
330
C
102
}
330
C
100
AcDbDictionary
281
     1
  0
ACDBDICTIONARYWDFLT
  5
E
102
{ACAD_REACTORS
330
C
102
}
330
C
100
AcDbDictionary
281
     1
  3
Normal
350
F
100
AcDbDictionaryWithDefault
340
F
  0
DICTIONARY
  5
9F
102
{ACAD_REACTORS
330
C
102
}
330
C
100
AcDbDictionary
281
     1
  0
DICTIONARY
  5
2A
102
{ACAD_REACTORS
330
C
102
}
330
C
100
AcDbDictionary
281
     1
  3
2dWireframe
350
2F
  3
3D Hidden
350
31
  3
3dWireframe
350
30
  3
Basic
350
32
  3
Brighten
350
36
  3
ColorChange
350
3A
  3
Conceptual
350
34
  3
Dim
350
35
  3
Facepattern
350
39
  3
Flat
350
2B
  3
FlatWithEdges
350
2C
  3
Gouraud
350
2D
  3
GouraudWithEdges
350
2E
  3
Linepattern
350
38
  3
Realistic
350
33
  3
Thicken
350
37
  0
LAYOUT
  5
1E
102
{ACAD_REACTORS
330
1A
102
}
330
1A
100
AcDbPlotSettings
  1

  2
none_device
  4

  6

 40
0.0
 41
0.0
 42
0.0
 43
0.0
 44
0.0
 45
0.0
 46
0.0
 47
0.0
 48
0.0
 49
0.0
140
0.0
141
0.0
142
1.0
143
1.0
 70
   688
 72
     0
 73
     0
 74
     5
  7

 75
    16
 76
     0
 77
     2
 78
   300
147
1.0
148
0.0
149
0.0
100
AcDbLayout
  1
Layout1
 70
     1
 71
     1
 10
0.0
 20
0.0
 11
12.0
 21
9.0
 12
0.0
 22
0.0
 32
0.0
 14
1.000000000000000E+20
 24
1.000000000000000E+20
 34
1.000000000000000E+20
 15
-1.000000000000000E+20
 25
-1.000000000000000E+20
 35
-1.000000000000000E+20
146
0.0
 13
0.0
 23
0.0
 33
0.0
 16
1.0
 26
0.0
 36
0.0
 17
0.0
 27
1.0
 37
0.0
 76
     0
330
1B
  0
LAYOUT
  5
26
102
{ACAD_REACTORS
330
1A
102
}
330
1A
100
AcDbPlotSettings
  1

  2
none_device
  4

  6

 40
0.0
 41
0.0
 42
0.0
 43
0.0
 44
0.0
 45
0.0
 46
0.0
 47
0.0
 48
0.0
 49
0.0
140
0.0
141
0.0
142
1.0
143
1.0
 70
   688
 72
     0
 73
     0
 74
     5
  7

 75
    16
 76
     0
 77
     2
 78
   300
147
1.0
148
0.0
149
0.0
100
AcDbLayout
  1
Layout2
 70
     1
 71
     2
 10
0.0
 20
0.0
 11
0.0
 21
0.0
 12
0.0
 22
0.0
 32
0.0
 14
0.0
 24
0.0
 34
0.0
 15
0.0
 25
0.0
 35
0.0
146
0.0
 13
0.0
 23
0.0
 33
0.0
 16
1.0
 26
0.0
 36
0.0
 17
0.0
 27
1.0
 37
0.0
 76
     0
330
23
  0
LAYOUT
  5
22
102
{ACAD_REACTORS
330
1A
102
}
330
1A
100
AcDbPlotSettings
  1

  2
none_device
  4

  6

 40
0.0
 41
0.0
 42
0.0
 43
0.0
 44
0.0
 45
0.0
 46
0.0
 47
0.0
 48
0.0
 49
0.0
140
0.0
141
0.0
142
1.0
143
1.0
 70
  1712
 72
     0
 73
     0
 74
     0
  7

 75
     0
 76
     0
 77
     2
 78
   300
147
1.0
148
0.0
149
0.0
100
AcDbLayout
  1
Model
 70
     1
 71
     0
 10
0.0
 20
0.0
 11
12.0
 21
9.0
 12
0.0
 22
0.0
 32
0.0
 14
-14.02646
 24
-10.32646
 34
0.0
 15
14.02645
 25
14.14961
 35
0.0
146
0.0
 13
0.0
 23
0.0
 33
0.0
 16
1.0
 26
0.0
 36
0.0
 17
0.0
 27
1.0
 37
0.0
 76
     0
330
1F
331
29
  0
MATERIAL
  5
3D
102
{ACAD_REACTORS
330
3B
102
}
330
3B
100
AcDbMaterial
  1
ByBlock
 72
     1
 94
      127
  0
MATERIAL
  5
3C
102
{ACAD_REACTORS
330
3B
102
}
330
3B
100
AcDbMaterial
  1
ByLayer
 72
     1
 94
      127
  0
MATERIAL
  5
3E
102
{ACAD_REACTORS
330
3B
102
}
330
3B
100
AcDbMaterial
  1
Global
 72
     1
 94
      127
  0
MLINESTYLE
  5
18
102
{ACAD_REACTORS
330
17
102
}
330
17
100
AcDbMlineStyle
  2
Standard
 70
     0
  3

 62
   256
 51
90.0
 52
90.0
 71
     2
 49
0.5
 62
   256
  6
BYLAYER
 49
-0.5
 62
   256
  6
BYLAYER
  0
ACDBPLACEHOLDER
  5
F
102
{ACAD_REACTORS
330
E
102
}
330
E
  0
VISUALSTYLE
  5
2F
102
{ACAD_REACTORS
330
2A
102
}
102
{ACAD_XDICTIONARY
360
87
102
}
330
2A
100
AcDbVisualStyle
  2
2dWireframe
 70
     4
 71
     0
 72
     2
 73
     0
 90
        0
 40
-0.6
 41
-30.0
 62
     5
 63
     7
421
 16777215
 74
     1
 91
        4
 64
     7
 65
   257
 75
     1
175
     1
 42
1.0
 92
        0
 66
   257
 43
1.0
 76
     1
 77
     6
 78
     2
 67
     7
 79
     5
170
     0
171
     0
290
     0
174
     0
 93
        1
 44
0.0
173
     0
291
     0
 45
0.0
  0
VISUALSTYLE
  5
31
102
{ACAD_REACTORS
330
2A
102
}
102
{ACAD_XDICTIONARY
360
8B
102
}
330
2A
100
AcDbVisualStyle
  2
3D Hidden
 70
     6
 71
     1
 72
     2
 73
     2
 90
        0
 40
-0.6
 41
-30.0
 62
     5
 63
     7
421
 16777215
 74
     2
 91
        2
 64
     7
 65
   257
 75
     2
175
     1
 42
40.0
 92
        0
 66
   257
 43
1.0
 76
     1
 77
     6
 78
     2
 67
     7
 79
     3
170
     0
171
     0
290
     0
174
     0
 93
        1
 44
0.0
173
     0
291
     0
 45
0.0
  0
VISUALSTYLE
  5
30
102
{ACAD_REACTORS
330
2A
102
}
102
{ACAD_XDICTIONARY
360
89
102
}
330
2A
100
AcDbVisualStyle
  2
3dWireframe
 70
     5
 71
     0
 72
     2
 73
     0
 90
        0
 40
-0.6
 41
-30.0
 62
     5
 63
     7
421
 16777215
 74
     1
 91
        4
 64
     7
 65
   257
 75
     1
175
     1
 42
1.0
 92
        0
 66
   257
 43
1.0
 76
     1
 77
     6
 78
     2
 67
     7
 79
     5
170
     0
171
     0
290
     0
174
     0
 93
        1
 44
0.0
173
     0
291
     0
 45
0.0
  0
VISUALSTYLE
  5
32
102
{ACAD_REACTORS
330
2A
102
}
102
{ACAD_XDICTIONARY
360
8D
102
}
330
2A
100
AcDbVisualStyle
  2
Basic
 70
     7
 71
     1
 72
     0
 73
     1
 90
        0
 40
-0.6
 41
-30.0
 62
     5
 63
     7
421
 16777215
 74
     0
 91
        4
 64
     7
 65
   257
 75
     1
175
     1
 42
1.0
 92
        8
 66
     7
 43
1.0
 76
     1
 77
     6
 78
     2
 67
     7
 79
     5
170
     0
171
     0
290
     0
174
     0
 93
        1
 44
0.0
173
     0
291
     1
 45
0.0
  0
VISUALSTYLE
  5
36
102
{ACAD_REACTORS
330
2A
102
}
102
{ACAD_XDICTIONARY
360
95
102
}
330
2A
100
AcDbVisualStyle
  2
Brighten
 70
    12
 71
     2
 72
     2
 73
     0
 90
        0
 40
-0.6
 41
-30.0
 62
     5
 63
     7
421
 16777215
 74
     1
 91
        4
 64
     7
 65
   257
 75
     1
175
     1
 42
1.0
 92
        8
 66
     7
 43
1.0
 76
     1
 77
     6
 78
     2
 67
     7
 79
     5
170
     0
171
     0
290
     0
174
     0
 93
        1
 44
50.0
173
     0
291
     1
 45
0.0
  0
VISUALSTYLE
  5
3A
102
{ACAD_REACTORS
330
2A
102
}
102
{ACAD_XDICTIONARY
360
9D
102
}
330
2A
100
AcDbVisualStyle
  2
ColorChange
 70
    16
 71
     2
 72
     2
 73
     3
 90
        0
 40
-0.6
 41
-30.0
 62
     5
 63
     8
421
  8421504
 74
     1
 91
        4
 64
     7
 65
   257
 75
     1
175
     1
 42
1.0
 92
        8
 66
     8
424
  8421504
 43
1.0
 76
     1
 77
     6
 78
     2
 67
     7
 79
     5
170
     0
171
     0
290
     0
174
     0
 93
        1
 44
0.0
173
     0
291
     1
 45
0.0
  0
VISUALSTYLE
  5
34
102
{ACAD_REACTORS
330
2A
102
}
102
{ACAD_XDICTIONARY
360
91
102
}
330
2A
100
AcDbVisualStyle
  2
Conceptual
 70
     9
 71
     3
 72
     2
 73
     0
 90
        0
 40
-0.6
 41
-30.0
 62
     5
 63
     7
421
 16777215
 74
     2
 91
        2
 64
     7
 65
   257
 75
     1
175
     1
 42
40.0
 92
        8
 66
     7
 43
1.0
 76
     1
 77
     6
 78
     2
 67
     7
 79
     3
170
     0
171
     0
290
     0
174
     0
 93
        1
 44
0.0
173
     0
291
     0
 45
0.0
  0
VISUALSTYLE
  5
35
102
{ACAD_REACTORS
330
2A
102
}
102
{ACAD_XDICTIONARY
360
93
102
}
330
2A
100
AcDbVisualStyle
  2
Dim
 70
    11
 71
     2
 72
     2
 73
     0
 90
        0
 40
-0.6
 41
-30.0
 62
     5
 63
     7
421
 16777215
 74
     1
 91
        4
 64
     7
 65
   257
 75
     1
175
     1
 42
1.0
 92
        8
 66
     7
 43
1.0
 76
     1
 77
     6
 78
     2
 67
     7
 79
     5
170
     0
171
     0
290
     0
174
     0
 93
        1
 44
-50.0
173
     0
291
     1
 45
0.0
  0
VISUALSTYLE
  5
39
102
{ACAD_REACTORS
330
2A
102
}
102
{ACAD_XDICTIONARY
360
9B
102
}
330
2A
100
AcDbVisualStyle
  2
Facepattern
 70
    15
 71
     2
 72
     2
 73
     0
 90
        0
 40
-0.6
 41
-30.0
 62
     5
 63
     7
421
 16777215
 74
     1
 91
        4
 64
     7
 65
   257
 75
     1
175
     1
 42
1.0
 92
        8
 66
     7
 43
1.0
 76
     1
 77
     6
 78
     2
 67
     7
 79
     5
170
     0
171
     0
290
     0
174
     0
 93
        1
 44
0.0
173
     0
291
     1
 45
0.0
  0
VISUALSTYLE
  5
2B
102
{ACAD_REACTORS
330
2A
102
}
102
{ACAD_XDICTIONARY
360
7F
102
}
330
2A
100
AcDbVisualStyle
  2
Flat
 70
     0
 71
     2
 72
     1
 73
     1
 90
        2
 40
-0.6
 41
30.0
 62
     5
 63
     7
421
 16777215
 74
     0
 91
        4
 64
     7
 65
   257
 75
     1
175
     1
 42
1.0
 92
        8
 66
     7
 43
1.0
 76
     1
 77
     6
 78
     2
 67
     7
 79
     5
170
     0
171
     0
290
     0
174
     0
 93
       13
 44
0.0
173
     0
291
     1
 45
0.0
  0
VISUALSTYLE
  5
2C
102
{ACAD_REACTORS
330
2A
102
}
102
{ACAD_XDICTIONARY
360
81
102
}
330
2A
100
AcDbVisualStyle
  2
FlatWithEdges
 70
     1
 71
     2
 72
     1
 73
     1
 90
        2
 40
-0.6
 41
30.0
 62
     5
 63
     7
421
 16777215
 74
     1
 91
        4
 64
     7
 65
   257
 75
     1
175
     1
 42
1.0
 92
        0
 66
   257
 43
1.0
 76
     1
 77
     6
 78
     2
 67
     7
 79
     5
170
     0
171
     0
290
     0
174
     0
 93
       13
 44
0.0
173
     0
291
     1
 45
0.0
  0
VISUALSTYLE
  5
2D
102
{ACAD_REACTORS
330
2A
102
}
102
{ACAD_XDICTIONARY
360
83
102
}
330
2A
100
AcDbVisualStyle
  2
Gouraud
 70
     2
 71
     2
 72
     2
 73
     1
 90
        2
 40
-0.6
 41
30.0
 62
     5
 63
     7
421
 16777215
 74
     0
 91
        4
 64
     7
 65
   257
 75
     1
175
     1
 42
1.0
 92
        0
 66
     7
 43
1.0
 76
     1
 77
     6
 78
     2
 67
     7
 79
     5
170
     0
171
     0
290
     0
174
     0
 93
       13
 44
0.0
173
     0
291
     1
 45
0.0
  0
VISUALSTYLE
  5
2E
102
{ACAD_REACTORS
330
2A
102
}
102
{ACAD_XDICTIONARY
360
85
102
}
330
2A
100
AcDbVisualStyle
  2
GouraudWithEdges
 70
     3
 71
     2
 72
     2
 73
     1
 90
        2
 40
-0.6
 41
30.0
 62
     5
 63
     7
421
 16777215
 74
     1
 91
        4
 64
     7
 65
   257
 75
     1
175
     1
 42
1.0
 92
        0
 66
   257
 43
1.0
 76
     1
 77
     6
 78
     2
 67
     7
 79
     5
170
     0
171
     0
290
     0
174
     0
 93
       13
 44
0.0
173
     0
291
     1
 45
0.0
  0
VISUALSTYLE
  5
38
102
{ACAD_REACTORS
330
2A
102
}
102
{ACAD_XDICTIONARY
360
99
102
}
330
2A
100
AcDbVisualStyle
  2
Linepattern
 70
    14
 71
     2
 72
     2
 73
     0
 90
        0
 40
-0.6
 41
-30.0
 62
     5
 63
     7
421
 16777215
 74
     1
 91
        4
 64
     7
 65
   257
 75
     7
175
     7
 42
1.0
 92
        8
 66
     7
 43
1.0
 76
     1
 77
     6
 78
     2
 67
     7
 79
     5
170
     0
171
     0
290
     0
174
     0
 93
        1
 44
0.0
173
     0
291
     1
 45
0.0
  0
VISUALSTYLE
  5
33
102
{ACAD_REACTORS
330
2A
102
}
102
{ACAD_XDICTIONARY
360
8F
102
}
330
2A
100
AcDbVisualStyle
  2
Realistic
 70
     8
 71
     2
 72
     2
 73
     0
 90
        0
 40
-0.6
 41
-30.0
 62
     5
 63
     7
421
 16777215
 74
     1
 91
        0
 64
     7
 65
   257
 75
     1
175
     1
 42
1.0
 92
        8
 66
     8
424
  7895160
 43
1.0
 76
     1
 77
     6
 78
     2
 67
     7
 79
     5
170
     0
171
     0
290
     0
174
     0
 93
       13
 44
0.0
173
     0
291
     0
 45
0.0
  0
VISUALSTYLE
  5
37
102
{ACAD_REACTORS
330
2A
102
}
102
{ACAD_XDICTIONARY
360
97
102
}
330
2A
100
AcDbVisualStyle
  2
Thicken
 70
    13
 71
     2
 72
     2
 73
     0
 90
        0
 40
-0.6
 41
-30.0
 62
     5
 63
     7
421
 16777215
 74
     1
 91
        4
 64
     7
 65
   257
 75
     1
175
     1
 42
1.0
 92
       12
 66
     7
 43
1.0
 76
     1
 77
     6
 78
     2
 67
     7
 79
     5
170
     0
171
     0
290
     0
174
     0
 93
        1
 44
0.0
173
     0
291
     1
 45
0.0
  0
DICTIONARY
  5
87
330
2F
100
AcDbDictionary
280
     1
281
     1
  3
ACAD_XREC_ROUNDTRIP
360
88
  0
DICTIONARY
  5
8B
330
31
100
AcDbDictionary
280
     1
281
     1
  3
ACAD_XREC_ROUNDTRIP
360
8C
  0
DICTIONARY
  5
89
330
30
100
AcDbDictionary
280
     1
281
     1
  3
ACAD_XREC_ROUNDTRIP
360
8A
  0
DICTIONARY
  5
8D
330
32
100
AcDbDictionary
280
     1
281
     1
  3
ACAD_XREC_ROUNDTRIP
360
8E
  0
DICTIONARY
  5
95
330
36
100
AcDbDictionary
280
     1
281
     1
  3
ACAD_XREC_ROUNDTRIP
360
96
  0
DICTIONARY
  5
9D
330
3A
100
AcDbDictionary
280
     1
281
     1
  3
ACAD_XREC_ROUNDTRIP
360
9E
  0
DICTIONARY
  5
91
330
34
100
AcDbDictionary
280
     1
281
     1
  3
ACAD_XREC_ROUNDTRIP
360
92
  0
DICTIONARY
  5
93
330
35
100
AcDbDictionary
280
     1
281
     1
  3
ACAD_XREC_ROUNDTRIP
360
94
  0
DICTIONARY
  5
9B
330
39
100
AcDbDictionary
280
     1
281
     1
  3
ACAD_XREC_ROUNDTRIP
360
9C
  0
DICTIONARY
  5
7F
330
2B
100
AcDbDictionary
280
     1
281
     1
  3
ACAD_XREC_ROUNDTRIP
360
80
  0
DICTIONARY
  5
81
330
2C
100
AcDbDictionary
280
     1
281
     1
  3
ACAD_XREC_ROUNDTRIP
360
82
  0
DICTIONARY
  5
83
330
2D
100
AcDbDictionary
280
     1
281
     1
  3
ACAD_XREC_ROUNDTRIP
360
84
  0
DICTIONARY
  5
85
330
2E
100
AcDbDictionary
280
     1
281
     1
  3
ACAD_XREC_ROUNDTRIP
360
86
  0
DICTIONARY
  5
99
330
38
100
AcDbDictionary
280
     1
281
     1
  3
ACAD_XREC_ROUNDTRIP
360
9A
  0
DICTIONARY
  5
8F
330
33
100
AcDbDictionary
280
     1
281
     1
  3
ACAD_XREC_ROUNDTRIP
360
90
  0
DICTIONARY
  5
97
330
37
100
AcDbDictionary
280
     1
281
     1
  3
ACAD_XREC_ROUNDTRIP
360
98
  0
XRECORD
  5
88
102
{ACAD_REACTORS
330
87
102
}
330
87
100
AcDbXrecord
280
     1
102
RTVSPropertyOp0
 70
     1
102
RTVSPropertyOp1
 70
     1
102
RTVSPropertyOp2
 70
     1
102
RTVSPropertyOp3
 70
     1
102
RTVSPropertyOp4
 70
     1
102
RTVSPropertyOp5
 70
     1
102
RTVSPropertyOp6
 70
     1
102
RTVSPropertyOp7
 70
     1
102
RTVSPropertyOp8
 70
     1
102
RTVSPropertyOp9
 70
     1
102
RTVSPropertyOp10
 70
     1
102
RTVSPropertyOp11
 70
     1
102
RTVSPropertyOp12
 70
     1
102
RTVSPropertyOp13
 70
     1
102
RTVSPropertyOp14
 70
     1
102
RTVSPropertyOp15
 70
     1
102
RTVSPropertyOp16
 70
     1
102
RTVSPropertyOp17
 70
     1
102
RTVSPropertyOp18
 70
     1
102
RTVSPropertyOp19
 70
     1
102
RTVSPropertyOp20
 70
     1
102
RTVSPropertyOp21
 70
     1
102
RTVSPropertyOp22
 70
     1
102
RTVSPropertyOp23
 70
     1
102
RTVSPropertyOp24
 70
     1
102
RTVSPropertyOp25
 70
     1
102
RTVSPropertyOp26
 70
     1
102
RTVSPropertyOp27
 70
     1
102
RTVSPropertyOp28
 70
     1
102
RTVSPropertyOp29
 70
     1
102
RTVSPropertyOp30
 70
     1
102
RTVSPropertyOp31
 70
     1
102
RTVSPropertyOp32
 70
     1
  0
XRECORD
  5
8C
102
{ACAD_REACTORS
330
8B
102
}
330
8B
100
AcDbXrecord
280
     1
102
RTVSPropertyOp0
 70
     1
102
RTVSPropertyOp1
 70
     1
102
RTVSPropertyOp2
 70
     1
102
RTVSPropertyOp3
 70
     1
102
RTVSPropertyOp4
 70
     1
102
RTVSPropertyOp5
 70
     1
102
RTVSPropertyOp6
 70
     1
102
RTVSPropertyOp7
 70
     1
102
RTVSPropertyOp8
 70
     1
102
RTVSPropertyOp9
 70
     1
102
RTVSPropertyOp10
 70
     1
102
RTVSPropertyOp11
 70
     1
102
RTVSPropertyOp12
 70
     1
102
RTVSPropertyOp13
 70
     1
102
RTVSPropertyOp14
 70
     1
102
RTVSPropertyOp15
 70
     1
102
RTVSPropertyOp16
 70
     1
102
RTVSPropertyOp17
 70
     1
102
RTVSPropertyOp18
 70
     1
102
RTVSPropertyOp19
 70
     1
102
RTVSPropertyOp20
 70
     1
102
RTVSPropertyOp21
 70
     1
102
RTVSPropertyOp22
 70
     1
102
RTVSPropertyOp23
 70
     1
102
RTVSPropertyOp24
 70
     1
102
RTVSPropertyOp25
 70
     1
102
RTVSPropertyOp26
 70
     1
102
RTVSPropertyOp27
 70
     1
102
RTVSPropertyOp28
 70
     1
102
RTVSPropertyOp29
 70
     1
102
RTVSPropertyOp30
 70
     1
102
RTVSPropertyOp31
 70
     1
102
RTVSPropertyOp32
 70
     1
  0
XRECORD
  5
8A
102
{ACAD_REACTORS
330
89
102
}
330
89
100
AcDbXrecord
280
     1
102
RTVSPropertyOp0
 70
     1
102
RTVSPropertyOp1
 70
     1
102
RTVSPropertyOp2
 70
     1
102
RTVSPropertyOp3
 70
     1
102
RTVSPropertyOp4
 70
     1
102
RTVSPropertyOp5
 70
     1
102
RTVSPropertyOp6
 70
     1
102
RTVSPropertyOp7
 70
     1
102
RTVSPropertyOp8
 70
     1
102
RTVSPropertyOp9
 70
     1
102
RTVSPropertyOp10
 70
     1
102
RTVSPropertyOp11
 70
     1
102
RTVSPropertyOp12
 70
     1
102
RTVSPropertyOp13
 70
     1
102
RTVSPropertyOp14
 70
     1
102
RTVSPropertyOp15
 70
     1
102
RTVSPropertyOp16
 70
     1
102
RTVSPropertyOp17
 70
     1
102
RTVSPropertyOp18
 70
     1
102
RTVSPropertyOp19
 70
     1
102
RTVSPropertyOp20
 70
     1
102
RTVSPropertyOp21
 70
     1
102
RTVSPropertyOp22
 70
     1
102
RTVSPropertyOp23
 70
     1
102
RTVSPropertyOp24
 70
     1
102
RTVSPropertyOp25
 70
     1
102
RTVSPropertyOp26
 70
     1
102
RTVSPropertyOp27
 70
     1
102
RTVSPropertyOp28
 70
     1
102
RTVSPropertyOp29
 70
     1
102
RTVSPropertyOp30
 70
     1
102
RTVSPropertyOp31
 70
     1
102
RTVSPropertyOp32
 70
     1
  0
XRECORD
  5
8E
102
{ACAD_REACTORS
330
8D
102
}
330
8D
100
AcDbXrecord
280
     1
102
RTVSPropertyOp0
 70
     1
102
RTVSPropertyOp1
 70
     1
102
RTVSPropertyOp2
 70
     1
102
RTVSPropertyOp3
 70
     1
102
RTVSPropertyOp4
 70
     1
102
RTVSPropertyOp5
 70
     1
102
RTVSPropertyOp6
 70
     1
102
RTVSPropertyOp7
 70
     1
102
RTVSPropertyOp8
 70
     1
102
RTVSPropertyOp9
 70
     1
102
RTVSPropertyOp10
 70
     1
102
RTVSPropertyOp11
 70
     1
102
RTVSPropertyOp12
 70
     1
102
RTVSPropertyOp13
 70
     1
102
RTVSPropertyOp14
 70
     1
102
RTVSPropertyOp15
 70
     1
102
RTVSPropertyOp16
 70
     1
102
RTVSPropertyOp17
 70
     1
102
RTVSPropertyOp18
 70
     1
102
RTVSPropertyOp19
 70
     1
102
RTVSPropertyOp20
 70
     1
102
RTVSPropertyOp21
 70
     1
102
RTVSPropertyOp22
 70
     1
102
RTVSPropertyOp23
 70
     1
102
RTVSPropertyOp24
 70
     1
102
RTVSPropertyOp25
 70
     1
102
RTVSPropertyOp26
 70
     1
102
RTVSPropertyOp27
 70
     1
102
RTVSPropertyOp28
 70
     1
102
RTVSPropertyOp29
 70
     1
102
RTVSPropertyOp30
 70
     1
102
RTVSPropertyOp31
 70
     1
102
RTVSPropertyOp32
 70
     1
  0
XRECORD
  5
96
102
{ACAD_REACTORS
330
95
102
}
330
95
100
AcDbXrecord
280
     1
102
RTVSPropertyOp0
 70
     1
102
RTVSPropertyOp1
 70
     1
102
RTVSPropertyOp2
 70
     1
102
RTVSPropertyOp3
 70
     1
102
RTVSPropertyOp4
 70
     1
102
RTVSPropertyOp5
 70
     1
102
RTVSPropertyOp6
 70
     1
102
RTVSPropertyOp7
 70
     1
102
RTVSPropertyOp8
 70
     1
102
RTVSPropertyOp9
 70
     1
102
RTVSPropertyOp10
 70
     1
102
RTVSPropertyOp11
 70
     1
102
RTVSPropertyOp12
 70
     1
102
RTVSPropertyOp13
 70
     1
102
RTVSPropertyOp14
 70
     1
102
RTVSPropertyOp15
 70
     1
102
RTVSPropertyOp16
 70
     1
102
RTVSPropertyOp17
 70
     1
102
RTVSPropertyOp18
 70
     1
102
RTVSPropertyOp19
 70
     1
102
RTVSPropertyOp20
 70
     1
102
RTVSPropertyOp21
 70
     1
102
RTVSPropertyOp22
 70
     1
102
RTVSPropertyOp23
 70
     1
102
RTVSPropertyOp24
 70
     1
102
RTVSPropertyOp25
 70
     1
102
RTVSPropertyOp26
 70
     1
102
RTVSPropertyOp27
 70
     1
102
RTVSPropertyOp28
 70
     1
102
RTVSPropertyOp29
 70
     1
102
RTVSPropertyOp30
 70
     1
102
RTVSPropertyOp31
 70
     1
102
RTVSPropertyOp32
 70
     1
  0
XRECORD
  5
9E
102
{ACAD_REACTORS
330
9D
102
}
330
9D
100
AcDbXrecord
280
     1
102
RTVSPropertyOp0
 70
     1
102
RTVSPropertyOp1
 70
     1
102
RTVSPropertyOp2
 70
     1
102
RTVSPropertyOp3
 70
     1
102
RTVSPropertyOp4
 70
     1
102
RTVSPropertyOp5
 70
     1
102
RTVSPropertyOp6
 70
     1
102
RTVSPropertyOp7
 70
     1
102
RTVSPropertyOp8
 70
     1
102
RTVSPropertyOp9
 70
     1
102
RTVSPropertyOp10
 70
     1
102
RTVSPropertyOp11
 70
     1
102
RTVSPropertyOp12
 70
     1
102
RTVSPropertyOp13
 70
     1
102
RTVSPropertyOp14
 70
     1
102
RTVSPropertyOp15
 70
     1
102
RTVSPropertyOp16
 70
     1
102
RTVSPropertyOp17
 70
     1
102
RTVSPropertyOp18
 70
     1
102
RTVSPropertyOp19
 70
     1
102
RTVSPropertyOp20
 70
     1
102
RTVSPropertyOp21
 70
     1
102
RTVSPropertyOp22
 70
     1
102
RTVSPropertyOp23
 70
     1
102
RTVSPropertyOp24
 70
     1
102
RTVSPropertyOp25
 70
     1
102
RTVSPropertyOp26
 70
     1
102
RTVSPropertyOp27
 70
     1
102
RTVSPropertyOp28
 70
     1
102
RTVSPropertyOp29
 70
     1
102
RTVSPropertyOp30
 70
     1
102
RTVSPropertyOp31
 70
     1
102
RTVSPropertyOp32
 70
     1
  0
XRECORD
  5
92
102
{ACAD_REACTORS
330
91
102
}
330
91
100
AcDbXrecord
280
     1
102
RTVSPropertyOp0
 70
     1
102
RTVSPropertyOp1
 70
     1
102
RTVSPropertyOp2
 70
     1
102
RTVSPropertyOp3
 70
     1
102
RTVSPropertyOp4
 70
     1
102
RTVSPropertyOp5
 70
     1
102
RTVSPropertyOp6
 70
     1
102
RTVSPropertyOp7
 70
     1
102
RTVSPropertyOp8
 70
     1
102
RTVSPropertyOp9
 70
     1
102
RTVSPropertyOp10
 70
     1
102
RTVSPropertyOp11
 70
     1
102
RTVSPropertyOp12
 70
     1
102
RTVSPropertyOp13
 70
     1
102
RTVSPropertyOp14
 70
     1
102
RTVSPropertyOp15
 70
     1
102
RTVSPropertyOp16
 70
     1
102
RTVSPropertyOp17
 70
     1
102
RTVSPropertyOp18
 70
     1
102
RTVSPropertyOp19
 70
     1
102
RTVSPropertyOp20
 70
     1
102
RTVSPropertyOp21
 70
     1
102
RTVSPropertyOp22
 70
     1
102
RTVSPropertyOp23
 70
     1
102
RTVSPropertyOp24
 70
     1
102
RTVSPropertyOp25
 70
     1
102
RTVSPropertyOp26
 70
     1
102
RTVSPropertyOp27
 70
     1
102
RTVSPropertyOp28
 70
     1
102
RTVSPropertyOp29
 70
     1
102
RTVSPropertyOp30
 70
     1
102
RTVSPropertyOp31
 70
     1
102
RTVSPropertyOp32
 70
     1
  0
XRECORD
  5
94
102
{ACAD_REACTORS
330
93
102
}
330
93
100
AcDbXrecord
280
     1
102
RTVSPropertyOp0
 70
     1
102
RTVSPropertyOp1
 70
     1
102
RTVSPropertyOp2
 70
     1
102
RTVSPropertyOp3
 70
     1
102
RTVSPropertyOp4
 70
     1
102
RTVSPropertyOp5
 70
     1
102
RTVSPropertyOp6
 70
     1
102
RTVSPropertyOp7
 70
     1
102
RTVSPropertyOp8
 70
     1
102
RTVSPropertyOp9
 70
     1
102
RTVSPropertyOp10
 70
     1
102
RTVSPropertyOp11
 70
     1
102
RTVSPropertyOp12
 70
     1
102
RTVSPropertyOp13
 70
     1
102
RTVSPropertyOp14
 70
     1
102
RTVSPropertyOp15
 70
     1
102
RTVSPropertyOp16
 70
     1
102
RTVSPropertyOp17
 70
     1
102
RTVSPropertyOp18
 70
     1
102
RTVSPropertyOp19
 70
     1
102
RTVSPropertyOp20
 70
     1
102
RTVSPropertyOp21
 70
     1
102
RTVSPropertyOp22
 70
     1
102
RTVSPropertyOp23
 70
     1
102
RTVSPropertyOp24
 70
     1
102
RTVSPropertyOp25
 70
     1
102
RTVSPropertyOp26
 70
     1
102
RTVSPropertyOp27
 70
     1
102
RTVSPropertyOp28
 70
     1
102
RTVSPropertyOp29
 70
     1
102
RTVSPropertyOp30
 70
     1
102
RTVSPropertyOp31
 70
     1
102
RTVSPropertyOp32
 70
     1
  0
XRECORD
  5
9C
102
{ACAD_REACTORS
330
9B
102
}
330
9B
100
AcDbXrecord
280
     1
102
RTVSPropertyOp0
 70
     1
102
RTVSPropertyOp1
 70
     1
102
RTVSPropertyOp2
 70
     1
102
RTVSPropertyOp3
 70
     1
102
RTVSPropertyOp4
 70
     1
102
RTVSPropertyOp5
 70
     1
102
RTVSPropertyOp6
 70
     1
102
RTVSPropertyOp7
 70
     1
102
RTVSPropertyOp8
 70
     1
102
RTVSPropertyOp9
 70
     1
102
RTVSPropertyOp10
 70
     1
102
RTVSPropertyOp11
 70
     1
102
RTVSPropertyOp12
 70
     1
102
RTVSPropertyOp13
 70
     1
102
RTVSPropertyOp14
 70
     1
102
RTVSPropertyOp15
 70
     1
102
RTVSPropertyOp16
 70
     1
102
RTVSPropertyOp17
 70
     1
102
RTVSPropertyOp18
 70
     1
102
RTVSPropertyOp19
 70
     1
102
RTVSPropertyOp20
 70
     1
102
RTVSPropertyOp21
 70
     1
102
RTVSPropertyOp22
 70
     1
102
RTVSPropertyOp23
 70
     1
102
RTVSPropertyOp24
 70
     1
102
RTVSPropertyOp25
 70
     1
102
RTVSPropertyOp26
 70
     1
102
RTVSPropertyOp27
 70
     1
102
RTVSPropertyOp28
 70
     1
102
RTVSPropertyOp29
 70
     1
102
RTVSPropertyOp30
 70
     1
102
RTVSPropertyOp31
 70
     1
102
RTVSPropertyOp32
 70
     1
  0
XRECORD
  5
80
102
{ACAD_REACTORS
330
7F
102
}
330
7F
100
AcDbXrecord
280
     1
102
RTVSPropertyOp0
 70
     1
102
RTVSPropertyOp1
 70
     1
102
RTVSPropertyOp2
 70
     1
102
RTVSPropertyOp3
 70
     1
102
RTVSPropertyOp4
 70
     1
102
RTVSPropertyOp5
 70
     1
102
RTVSPropertyOp6
 70
     1
102
RTVSPropertyOp7
 70
     1
102
RTVSPropertyOp8
 70
     1
102
RTVSPropertyOp9
 70
     1
102
RTVSPropertyOp10
 70
     1
102
RTVSPropertyOp11
 70
     1
102
RTVSPropertyOp12
 70
     1
102
RTVSPropertyOp13
 70
     1
102
RTVSPropertyOp14
 70
     1
102
RTVSPropertyOp15
 70
     1
102
RTVSPropertyOp16
 70
     1
102
RTVSPropertyOp17
 70
     1
102
RTVSPropertyOp18
 70
     1
102
RTVSPropertyOp19
 70
     1
102
RTVSPropertyOp20
 70
     1
102
RTVSPropertyOp21
 70
     1
102
RTVSPropertyOp22
 70
     1
102
RTVSPropertyOp23
 70
     1
102
RTVSPropertyOp24
 70
     1
102
RTVSPropertyOp25
 70
     1
102
RTVSPropertyOp26
 70
     1
102
RTVSPropertyOp27
 70
     1
102
RTVSPropertyOp28
 70
     1
102
RTVSPropertyOp29
 70
     1
102
RTVSPropertyOp30
 70
     1
102
RTVSPropertyOp31
 70
     1
102
RTVSPropertyOp32
 70
     1
  0
XRECORD
  5
82
102
{ACAD_REACTORS
330
81
102
}
330
81
100
AcDbXrecord
280
     1
102
RTVSPropertyOp0
 70
     1
102
RTVSPropertyOp1
 70
     1
102
RTVSPropertyOp2
 70
     1
102
RTVSPropertyOp3
 70
     1
102
RTVSPropertyOp4
 70
     1
102
RTVSPropertyOp5
 70
     1
102
RTVSPropertyOp6
 70
     1
102
RTVSPropertyOp7
 70
     1
102
RTVSPropertyOp8
 70
     1
102
RTVSPropertyOp9
 70
     1
102
RTVSPropertyOp10
 70
     1
102
RTVSPropertyOp11
 70
     1
102
RTVSPropertyOp12
 70
     1
102
RTVSPropertyOp13
 70
     1
102
RTVSPropertyOp14
 70
     1
102
RTVSPropertyOp15
 70
     1
102
RTVSPropertyOp16
 70
     1
102
RTVSPropertyOp17
 70
     1
102
RTVSPropertyOp18
 70
     1
102
RTVSPropertyOp19
 70
     1
102
RTVSPropertyOp20
 70
     1
102
RTVSPropertyOp21
 70
     1
102
RTVSPropertyOp22
 70
     1
102
RTVSPropertyOp23
 70
     1
102
RTVSPropertyOp24
 70
     1
102
RTVSPropertyOp25
 70
     1
102
RTVSPropertyOp26
 70
     1
102
RTVSPropertyOp27
 70
     1
102
RTVSPropertyOp28
 70
     1
102
RTVSPropertyOp29
 70
     1
102
RTVSPropertyOp30
 70
     1
102
RTVSPropertyOp31
 70
     1
102
RTVSPropertyOp32
 70
     1
  0
XRECORD
  5
84
102
{ACAD_REACTORS
330
83
102
}
330
83
100
AcDbXrecord
280
     1
102
RTVSPropertyOp0
 70
     1
102
RTVSPropertyOp1
 70
     1
102
RTVSPropertyOp2
 70
     1
102
RTVSPropertyOp3
 70
     1
102
RTVSPropertyOp4
 70
     1
102
RTVSPropertyOp5
 70
     1
102
RTVSPropertyOp6
 70
     1
102
RTVSPropertyOp7
 70
     1
102
RTVSPropertyOp8
 70
     1
102
RTVSPropertyOp9
 70
     1
102
RTVSPropertyOp10
 70
     1
102
RTVSPropertyOp11
 70
     1
102
RTVSPropertyOp12
 70
     1
102
RTVSPropertyOp13
 70
     1
102
RTVSPropertyOp14
 70
     1
102
RTVSPropertyOp15
 70
     1
102
RTVSPropertyOp16
 70
     1
102
RTVSPropertyOp17
 70
     1
102
RTVSPropertyOp18
 70
     1
102
RTVSPropertyOp19
 70
     1
102
RTVSPropertyOp20
 70
     1
102
RTVSPropertyOp21
 70
     1
102
RTVSPropertyOp22
 70
     1
102
RTVSPropertyOp23
 70
     1
102
RTVSPropertyOp24
 70
     1
102
RTVSPropertyOp25
 70
     1
102
RTVSPropertyOp26
 70
     1
102
RTVSPropertyOp27
 70
     1
102
RTVSPropertyOp28
 70
     1
102
RTVSPropertyOp29
 70
     1
102
RTVSPropertyOp30
 70
     1
102
RTVSPropertyOp31
 70
     1
102
RTVSPropertyOp32
 70
     1
  0
XRECORD
  5
86
102
{ACAD_REACTORS
330
85
102
}
330
85
100
AcDbXrecord
280
     1
102
RTVSPropertyOp0
 70
     1
102
RTVSPropertyOp1
 70
     1
102
RTVSPropertyOp2
 70
     1
102
RTVSPropertyOp3
 70
     1
102
RTVSPropertyOp4
 70
     1
102
RTVSPropertyOp5
 70
     1
102
RTVSPropertyOp6
 70
     1
102
RTVSPropertyOp7
 70
     1
102
RTVSPropertyOp8
 70
     1
102
RTVSPropertyOp9
 70
     1
102
RTVSPropertyOp10
 70
     1
102
RTVSPropertyOp11
 70
     1
102
RTVSPropertyOp12
 70
     1
102
RTVSPropertyOp13
 70
     1
102
RTVSPropertyOp14
 70
     1
102
RTVSPropertyOp15
 70
     1
102
RTVSPropertyOp16
 70
     1
102
RTVSPropertyOp17
 70
     1
102
RTVSPropertyOp18
 70
     1
102
RTVSPropertyOp19
 70
     1
102
RTVSPropertyOp20
 70
     1
102
RTVSPropertyOp21
 70
     1
102
RTVSPropertyOp22
 70
     1
102
RTVSPropertyOp23
 70
     1
102
RTVSPropertyOp24
 70
     1
102
RTVSPropertyOp25
 70
     1
102
RTVSPropertyOp26
 70
     1
102
RTVSPropertyOp27
 70
     1
102
RTVSPropertyOp28
 70
     1
102
RTVSPropertyOp29
 70
     1
102
RTVSPropertyOp30
 70
     1
102
RTVSPropertyOp31
 70
     1
102
RTVSPropertyOp32
 70
     1
  0
XRECORD
  5
9A
102
{ACAD_REACTORS
330
99
102
}
330
99
100
AcDbXrecord
280
     1
102
RTVSPropertyOp0
 70
     1
102
RTVSPropertyOp1
 70
     1
102
RTVSPropertyOp2
 70
     1
102
RTVSPropertyOp3
 70
     1
102
RTVSPropertyOp4
 70
     1
102
RTVSPropertyOp5
 70
     1
102
RTVSPropertyOp6
 70
     1
102
RTVSPropertyOp7
 70
     1
102
RTVSPropertyOp8
 70
     1
102
RTVSPropertyOp9
 70
     1
102
RTVSPropertyOp10
 70
     1
102
RTVSPropertyOp11
 70
     1
102
RTVSPropertyOp12
 70
     1
102
RTVSPropertyOp13
 70
     1
102
RTVSPropertyOp14
 70
     1
102
RTVSPropertyOp15
 70
     1
102
RTVSPropertyOp16
 70
     1
102
RTVSPropertyOp17
 70
     1
102
RTVSPropertyOp18
 70
     1
102
RTVSPropertyOp19
 70
     1
102
RTVSPropertyOp20
 70
     1
102
RTVSPropertyOp21
 70
     1
102
RTVSPropertyOp22
 70
     1
102
RTVSPropertyOp23
 70
     1
102
RTVSPropertyOp24
 70
     1
102
RTVSPropertyOp25
 70
     1
102
RTVSPropertyOp26
 70
     1
102
RTVSPropertyOp27
 70
     1
102
RTVSPropertyOp28
 70
     1
102
RTVSPropertyOp29
 70
     1
102
RTVSPropertyOp30
 70
     1
102
RTVSPropertyOp31
 70
     1
102
RTVSPropertyOp32
 70
     1
  0
XRECORD
  5
90
102
{ACAD_REACTORS
330
8F
102
}
330
8F
100
AcDbXrecord
280
     1
102
RTVSPropertyOp0
 70
     1
102
RTVSPropertyOp1
 70
     1
102
RTVSPropertyOp2
 70
     1
102
RTVSPropertyOp3
 70
     1
102
RTVSPropertyOp4
 70
     1
102
RTVSPropertyOp5
 70
     1
102
RTVSPropertyOp6
 70
     1
102
RTVSPropertyOp7
 70
     1
102
RTVSPropertyOp8
 70
     1
102
RTVSPropertyOp9
 70
     1
102
RTVSPropertyOp10
 70
     1
102
RTVSPropertyOp11
 70
     1
102
RTVSPropertyOp12
 70
     1
102
RTVSPropertyOp13
 70
     1
102
RTVSPropertyOp14
 70
     1
102
RTVSPropertyOp15
 70
     1
102
RTVSPropertyOp16
 70
     1
102
RTVSPropertyOp17
 70
     1
102
RTVSPropertyOp18
 70
     1
102
RTVSPropertyOp19
 70
     1
102
RTVSPropertyOp20
 70
     1
102
RTVSPropertyOp21
 70
     1
102
RTVSPropertyOp22
 70
     1
102
RTVSPropertyOp23
 70
     1
102
RTVSPropertyOp24
 70
     1
102
RTVSPropertyOp25
 70
     1
102
RTVSPropertyOp26
 70
     1
102
RTVSPropertyOp27
 70
     1
102
RTVSPropertyOp28
 70
     1
102
RTVSPropertyOp29
 70
     1
102
RTVSPropertyOp30
 70
     1
102
RTVSPropertyOp31
 70
     1
102
RTVSPropertyOp32
 70
     1
  0
XRECORD
  5
98
102
{ACAD_REACTORS
330
97
102
}
330
97
100
AcDbXrecord
280
     1
102
RTVSPropertyOp0
 70
     1
102
RTVSPropertyOp1
 70
     1
102
RTVSPropertyOp2
 70
     1
102
RTVSPropertyOp3
 70
     1
102
RTVSPropertyOp4
 70
     1
102
RTVSPropertyOp5
 70
     1
102
RTVSPropertyOp6
 70
     1
102
RTVSPropertyOp7
 70
     1
102
RTVSPropertyOp8
 70
     1
102
RTVSPropertyOp9
 70
     1
102
RTVSPropertyOp10
 70
     1
102
RTVSPropertyOp11
 70
     1
102
RTVSPropertyOp12
 70
     1
102
RTVSPropertyOp13
 70
     1
102
RTVSPropertyOp14
 70
     1
102
RTVSPropertyOp15
 70
     1
102
RTVSPropertyOp16
 70
     1
102
RTVSPropertyOp17
 70
     1
102
RTVSPropertyOp18
 70
     1
102
RTVSPropertyOp19
 70
     1
102
RTVSPropertyOp20
 70
     1
102
RTVSPropertyOp21
 70
     1
102
RTVSPropertyOp22
 70
     1
102
RTVSPropertyOp23
 70
     1
102
RTVSPropertyOp24
 70
     1
102
RTVSPropertyOp25
 70
     1
102
RTVSPropertyOp26
 70
     1
102
RTVSPropertyOp27
 70
     1
102
RTVSPropertyOp28
 70
     1
102
RTVSPropertyOp29
 70
     1
102
RTVSPropertyOp30
 70
     1
102
RTVSPropertyOp31
 70
     1
102
RTVSPropertyOp32
 70
     1
  0
ENDSEC
  0
EOF
