<?xml version="1.0" encoding="UTF-8"?>
<!DOCTYPE svg PUBLIC "-//W3C//DTD SVG 1.1//EN" "http://www.w3.org/Graphics/SVG/1.1/DTD/svg11.dtd">
<!-- Creator: CorelDRAW X6 -->
<svg xmlns="http://www.w3.org/2000/svg" xml:space="preserve" width="600mm" height="600mm" version="1.1" shape-rendering="geometricPrecision" text-rendering="geometricPrecision" image-rendering="optimizeQuality" fill-rule="evenodd" clip-rule="evenodd"
viewBox="0 0 60000 60000"
 xmlns:xlink="http://www.w3.org/1999/xlink">
 <g id="Layer_x0020_1">
  <metadata id="CorelCorpID_0Corel-Layer"/>
  <path fill="none" stroke="black" stroke-width="52.92" stroke-linecap="round" stroke-linejoin="round" d="M23750 28125l0 1875c0,690 -560,1250 -1250,1250 -690,0 -1250,-560 -1250,-1250l0 -1875c0,-690 560,-1250 1250,-1250 690,0 1250,560 1250,1250z"/>
  <path fill="none" stroke="black" stroke-width="52.92" stroke-linecap="round" stroke-linejoin="round" d="M31501 36350l1624 -938c598,-345 1362,-140 1708,458 345,598 140,1362 -458,1708l-1624 938c-598,345 -1362,140 -1708,-458 -345,-598 -140,-1362 458,-1708z"/>
  <path fill="none" stroke="black" stroke-width="52.92" stroke-linecap="round" stroke-linejoin="round" d="M34749 25525l-1624 -938c-598,-345 -803,-1110 -458,-1708 345,-598 1110,-803 1708,-458l1624 938c598,345 803,1110 458,1708 -345,598 -1110,803 -1708,458z"/>
  <circle fill="none" stroke="aqua" stroke-width="52.92" stroke-linecap="round" stroke-linejoin="round" cx="30000" cy="30000" r="13750"/>
 </g>
</svg>
